M48
METRIC,TZ
VER,1
FMAT,2
T01C0.3F95B423S3H2000
T02C0.5F95B423S3H2000
T03C0.75F197B423S55H2000
T04C0.8F197B423S55H2000
T05C1.05F139B423S55H2000
T06C1.1F139B423S55H2000
T07C3.2F35B423S794H2000
T08C4.F42B423S6H2000
DETECT,ON
ATC,ON
%
T01
X50750Y59400
X49950Y59850
X50750Y60350
X51650
X54700Y63150
X53900Y62300
X54800Y62250
X59150Y61450
X54800Y61150
X58550Y60700
X59400Y60350
X110750Y59400
X109950Y59850
X110750Y60350
X111650
X114700Y63150
X113900Y62300
X114800Y62250
X119150Y61450
X114800Y61150
X118550Y60700
X119400Y60350
X170750Y59400
X169950Y59850
X170750Y60350
X171650
X174700Y63150
X173900Y62300
X174800Y62250
X179150Y61450
X174800Y61150
X178550Y60700
X179400Y60350
T02
X36800Y27300
X36938Y31530
Y36610
X27900Y36650
X36938Y41690
X27750Y47400
X39800Y47850
X28100Y55200
X36400Y55500
X38950Y61250
X27850Y62350
X27750Y69800
X36938Y72170
Y77250
Y82330
X44350Y82350
X42018Y77250
Y72170
X43650Y62650
X43450Y60150
X45800Y54200
X45750Y53050
X43950Y52950
X45800Y51600
X43950Y51500
X44000Y49750
X45750Y49700
X44000Y46050
X42018Y36610
Y31530
X41950Y27450
X46750Y27400
X51550Y27350
X48350Y51650
X48200Y53000
X47000
X50600
X49400
X53000
X51800
X48200Y54200
X50600
X49400
X47000
X53000
X51800
X48200Y55400
X50600
X53000
X51800
X49400
X47000
X53000Y56600
X51800
X50600
X49400
X48200
X49400Y57900
X47850Y64600
X50050Y65300
X51700Y72350
X52178Y82330
X59050Y82350
X58850Y72750
X53900Y65150
X57600Y65100
X55400Y56600
X56600
X57800
X54200
X59000
Y55400
X54200
X55400
X57800
X56600
X54200Y54200
X59000
X55400
X57800
X56600
X59000Y53000
X55400
X56600
X57800
X54200
X55450Y35750
X55500Y32100
X56350Y27300
X61150Y27250
X64850Y50050
X62600Y51450
X64850
X60200Y53000
X61400
X62600
X63700
X64850
X61400Y54200
X60200
X63700
X62600
X61400Y55400
X60200
X62600
X61400Y56600
X60200
X62100Y65050
X67418Y82330
Y77250
X67450Y72750
X68000Y64000
X67850Y58450
X66800Y51500
X66700Y49850
X66900Y46300
X67418Y36610
X67450Y31750
X67400Y27800
X72600Y27650
Y31650
X72498Y36610
X77578
X72498Y41690
X77578
Y46770
X77850Y54050
X72350
X77550Y62000
X72450
X72350Y69000
X72400Y72800
Y77250
X74600Y82250
X82658Y67090
Y62010
Y56930
X82950Y51900
X82658Y46770
Y36610
X96800Y27300
X96938Y31530
Y36610
X87900Y36650
X96938Y41690
X87750Y47400
X99800Y47850
X88100Y55200
X96400Y55500
X98950Y61250
X87850Y62350
X87750Y69800
X96938Y72170
Y77250
Y82330
X104350Y82350
X102018Y77250
Y72170
X103650Y62650
X103450Y60150
X105800Y54200
X105750Y53050
X103950Y52950
X105800Y51600
X103950Y51500
X104000Y49750
X105750Y49700
X104000Y46050
X102018Y36610
Y31530
X101950Y27450
X106750Y27400
X111550Y27350
X108350Y51650
X108200Y53000
X107000
X110600
X109400
X113000
X111800
X108200Y54200
X110600
X109400
X107000
X113000
X111800
X108200Y55400
X110600
X113000
X111800
X109400
X107000
X113000Y56600
X111800
X110600
X109400
X108200
X109400Y57900
X107850Y64600
X110050Y65300
X111700Y72350
X112178Y82330
X119050Y82350
X118850Y72750
X113900Y65150
X117600Y65100
X115400Y56600
X116600
X117800
X114200
X119000
Y55400
X114200
X115400
X117800
X116600
X114200Y54200
X119000
X115400
X117800
X116600
X119000Y53000
X115400
X116600
X117800
X114200
X115450Y35750
X115500Y32100
X116350Y27300
X121150Y27250
X124850Y50050
X122600Y51450
X124850
X120200Y53000
X121400
X122600
X123700
X124850
X121400Y54200
X120200
X123700
X122600
X121400Y55400
X120200
X122600
X121400Y56600
X120200
X122100Y65050
X127418Y82330
Y77250
X127450Y72750
X128000Y64000
X127850Y58450
X126800Y51500
X126700Y49850
X126900Y46300
X127418Y36610
X127450Y31750
X127400Y27800
X132600Y27650
Y31650
X132498Y36610
X137578
X132498Y41690
X137578
Y46770
X137850Y54050
X132350
X137550Y62000
X132450
X132350Y69000
X132400Y72800
Y77250
X134600Y82250
X142658Y67090
Y62010
Y56930
X142950Y51900
X142658Y46770
Y36610
X156800Y27300
X156938Y31530
Y36610
X147900Y36650
X156938Y41690
X147750Y47400
X159800Y47850
X148100Y55200
X156400Y55500
X158950Y61250
X147850Y62350
X147750Y69800
X156938Y72170
Y77250
Y82330
X164350Y82350
X162018Y77250
Y72170
X163650Y62650
X163450Y60150
X165800Y54200
X165750Y53050
X163950Y52950
X165800Y51600
X163950Y51500
X164000Y49750
X165750Y49700
X164000Y46050
X162018Y36610
Y31530
X161950Y27450
X166750Y27400
X171550Y27350
X168350Y51650
X168200Y53000
X167000
X170600
X169400
X173000
X171800
X168200Y54200
X170600
X169400
X167000
X173000
X171800
X168200Y55400
X170600
X173000
X171800
X169400
X167000
X173000Y56600
X171800
X170600
X169400
X168200
X169400Y57900
X167850Y64600
X170050Y65300
X171700Y72350
X172178Y82330
X179050Y82350
X178850Y72750
X173900Y65150
X177600Y65100
X175400Y56600
X176600
X177800
X174200
X179000
Y55400
X174200
X175400
X177800
X176600
X174200Y54200
X179000
X175400
X177800
X176600
X179000Y53000
X175400
X176600
X177800
X174200
X175450Y35750
X175500Y32100
X176350Y27300
X181150Y27250
X184850Y50050
X182600Y51450
X184850
X180200Y53000
X181400
X182600
X183700
X184850
X181400Y54200
X180200
X183700
X182600
X181400Y55400
X180200
X182600
X181400Y56600
X180200
X182100Y65050
X187418Y82330
Y77250
X187450Y72750
X188000Y64000
X187850Y58450
X186800Y51500
X186700Y49850
X186900Y46300
X187418Y36610
X187450Y31750
X187400Y27800
X192600Y27650
Y31650
X192498Y36610
X197578
X192498Y41690
X197578
Y46770
X197850Y54050
X192350
X197550Y62000
X192450
X192350Y69000
X192400Y72800
Y77250
X194600Y82250
X202658Y67090
Y62010
Y56930
X202950Y51900
X202658Y46770
Y36610
T03
X48900Y39590
Y47210
X36400Y48650
Y50150
X59400Y47210
Y39590
X108900
Y47210
X96400Y48650
Y50150
X119400Y47210
Y39590
X168900
Y47210
X156400Y48650
Y50150
X179400Y47210
Y39590
T04
X30400Y42900
Y50400
Y57900
Y65400
Y72900
X40400Y80400
X47900
X41900Y50210
X51400Y47210
X41900Y42590
X51400Y39590
X47900Y35900
X52900
X57900
X62900
X61900Y39590
Y47210
X60590Y60900
X55400Y80400
X62900
X70400
X80400Y72900
Y65400
X68210Y60900
X80400Y57900
X74400Y50400
X80400
X74400Y48400
X80400Y42900
X90400
Y50400
Y57900
Y65400
Y72900
X100400Y80400
X107900
X101900Y50210
X111400Y47210
X101900Y42590
X111400Y39590
X107900Y35900
X112900
X117900
X122900
X121900Y39590
Y47210
X120590Y60900
X115400Y80400
X122900
X130400
X140400Y72900
Y65400
X128210Y60900
X140400Y57900
X134400Y50400
X140400
X134400Y48400
X140400Y42900
X150400
Y50400
Y57900
Y65400
Y72900
X160400Y80400
X167900
X161900Y50210
X171400Y47210
X161900Y42590
X171400Y39590
X167900Y35900
X172900
X177900
X182900
X181900Y39590
Y47210
X180590Y60900
X175400Y80400
X182900
X190400
X200400Y72900
Y65400
X188210Y60900
X200400Y57900
X194400Y50400
X200400
X194400Y48400
X200400Y42900
T05
X39130Y53900
X35860Y58400
X38400
X35860Y64900
X38400
X47900Y75440
Y72900
Y70360
X40940Y64900
Y58400
X41670Y53900
X55400Y70360
X62900
Y72900
X55400
Y75440
X62900
X70360Y65400
X75440
X72900
X70360Y57900
X75440
X72900
X99130Y53900
X95860Y58400
X98400
X95860Y64900
X98400
X107900Y75440
Y72900
Y70360
X100940Y64900
Y58400
X101670Y53900
X115400Y70360
X122900
Y72900
X115400
Y75440
X122900
X130360Y65400
X135440
X132900
X130360Y57900
X135440
X132900
X159130Y53900
X155860Y58400
X158400
X155860Y64900
X158400
X167900Y75440
Y72900
Y70360
X160940Y64900
Y58400
X161670Y53900
X175400Y70360
X182900
Y72900
X175400
Y75440
X182900
X190360Y65400
X195440
X192900
X190360Y57900
X195440
X192900
T06
X49150Y30400
X51650
X59150
X61650
X109150
X111650
X119150
X121650
X169150
X171650
X179150
X181650
T07
X30400Y30400
Y80400
X80400
Y30400
X90400
Y80400
X140400
Y30400
X150400
Y80400
X200400
Y30400
T08
X30400Y20400
X200400
Y90400
X30400
M30
