*
%FSLAX33Y33*%
%MOMM*%
%SFA1.000B1.000*%

%MIA0B0*%
%IPPOS*%
%ADD10C,0.50000*%
%ADD13C,0.80000*%
%ADD18C,0.30000*%
%ADD41C,0.75000*%
%ADD42C,1.05000*%
%ADD43C,1.10000*%
%ADD44C,3.20000*%
%ADD45C,4.00000*%
%LNDRILL.TXT*%
%LPD*%
G54D18*
X50750Y59400D03*
X49950Y59850D03*
X50750Y60350D03*
X51650D03*
X54700Y63150D03*
X53900Y62300D03*
X54800Y62250D03*
X59150Y61450D03*
X54800Y61150D03*
X58550Y60700D03*
X59400Y60350D03*
X110750Y59400D03*
X109950Y59850D03*
X110750Y60350D03*
X111650D03*
X114700Y63150D03*
X113900Y62300D03*
X114800Y62250D03*
X119150Y61450D03*
X114800Y61150D03*
X118550Y60700D03*
X119400Y60350D03*
X170750Y59400D03*
X169950Y59850D03*
X170750Y60350D03*
X171650D03*
X174700Y63150D03*
X173900Y62300D03*
X174800Y62250D03*
X179150Y61450D03*
X174800Y61150D03*
X178550Y60700D03*
X179400Y60350D03*
G54D10*
X36800Y27300D03*
X36938Y31530D03*
Y36610D03*
X27900Y36650D03*
X36938Y41690D03*
X27750Y47400D03*
X39800Y47850D03*
X28100Y55200D03*
X36400Y55500D03*
X38950Y61250D03*
X27850Y62350D03*
X27750Y69800D03*
X36938Y72170D03*
Y77250D03*
Y82330D03*
X44350Y82350D03*
X42018Y77250D03*
Y72170D03*
X43650Y62650D03*
X43450Y60150D03*
X45800Y54200D03*
X45750Y53050D03*
X43950Y52950D03*
X45800Y51600D03*
X43950Y51500D03*
X44000Y49750D03*
X45750Y49700D03*
X44000Y46050D03*
X42018Y36610D03*
Y31530D03*
X41950Y27450D03*
X46750Y27400D03*
X51550Y27350D03*
X48350Y51650D03*
X48200Y53000D03*
X47000D03*
X50600D03*
X49400D03*
X53000D03*
X51800D03*
X48200Y54200D03*
X50600D03*
X49400D03*
X47000D03*
X53000D03*
X51800D03*
X48200Y55400D03*
X50600D03*
X53000D03*
X51800D03*
X49400D03*
X47000D03*
X53000Y56600D03*
X51800D03*
X50600D03*
X49400D03*
X48200D03*
X49400Y57900D03*
X47850Y64600D03*
X50050Y65300D03*
X51700Y72350D03*
X52178Y82330D03*
X59050Y82350D03*
X58850Y72750D03*
X53900Y65150D03*
X57600Y65100D03*
X55400Y56600D03*
X56600D03*
X57800D03*
X54200D03*
X59000D03*
Y55400D03*
X54200D03*
X55400D03*
X57800D03*
X56600D03*
X54200Y54200D03*
X59000D03*
X55400D03*
X57800D03*
X56600D03*
X59000Y53000D03*
X55400D03*
X56600D03*
X57800D03*
X54200D03*
X55450Y35750D03*
X55500Y32100D03*
X56350Y27300D03*
X61150Y27250D03*
X64850Y50050D03*
X62600Y51450D03*
X64850D03*
X60200Y53000D03*
X61400D03*
X62600D03*
X63700D03*
X64850D03*
X61400Y54200D03*
X60200D03*
X63700D03*
X62600D03*
X61400Y55400D03*
X60200D03*
X62600D03*
X61400Y56600D03*
X60200D03*
X62100Y65050D03*
X67418Y82330D03*
Y77250D03*
X67450Y72750D03*
X68000Y64000D03*
X67850Y58450D03*
X66800Y51500D03*
X66700Y49850D03*
X66900Y46300D03*
X67418Y36610D03*
X67450Y31750D03*
X67400Y27800D03*
X72600Y27650D03*
Y31650D03*
X72498Y36610D03*
X77578D03*
X72498Y41690D03*
X77578D03*
Y46770D03*
X77850Y54050D03*
X72350D03*
X77550Y62000D03*
X72450D03*
X72350Y69000D03*
X72400Y72800D03*
Y77250D03*
X74600Y82250D03*
X82658Y67090D03*
Y62010D03*
Y56930D03*
X82950Y51900D03*
X82658Y46770D03*
Y36610D03*
X96800Y27300D03*
X96938Y31530D03*
Y36610D03*
X87900Y36650D03*
X96938Y41690D03*
X87750Y47400D03*
X99800Y47850D03*
X88100Y55200D03*
X96400Y55500D03*
X98950Y61250D03*
X87850Y62350D03*
X87750Y69800D03*
X96938Y72170D03*
Y77250D03*
Y82330D03*
X104350Y82350D03*
X102018Y77250D03*
Y72170D03*
X103650Y62650D03*
X103450Y60150D03*
X105800Y54200D03*
X105750Y53050D03*
X103950Y52950D03*
X105800Y51600D03*
X103950Y51500D03*
X104000Y49750D03*
X105750Y49700D03*
X104000Y46050D03*
X102018Y36610D03*
Y31530D03*
X101950Y27450D03*
X106750Y27400D03*
X111550Y27350D03*
X108350Y51650D03*
X108200Y53000D03*
X107000D03*
X110600D03*
X109400D03*
X113000D03*
X111800D03*
X108200Y54200D03*
X110600D03*
X109400D03*
X107000D03*
X113000D03*
X111800D03*
X108200Y55400D03*
X110600D03*
X113000D03*
X111800D03*
X109400D03*
X107000D03*
X113000Y56600D03*
X111800D03*
X110600D03*
X109400D03*
X108200D03*
X109400Y57900D03*
X107850Y64600D03*
X110050Y65300D03*
X111700Y72350D03*
X112178Y82330D03*
X119050Y82350D03*
X118850Y72750D03*
X113900Y65150D03*
X117600Y65100D03*
X115400Y56600D03*
X116600D03*
X117800D03*
X114200D03*
X119000D03*
Y55400D03*
X114200D03*
X115400D03*
X117800D03*
X116600D03*
X114200Y54200D03*
X119000D03*
X115400D03*
X117800D03*
X116600D03*
X119000Y53000D03*
X115400D03*
X116600D03*
X117800D03*
X114200D03*
X115450Y35750D03*
X115500Y32100D03*
X116350Y27300D03*
X121150Y27250D03*
X124850Y50050D03*
X122600Y51450D03*
X124850D03*
X120200Y53000D03*
X121400D03*
X122600D03*
X123700D03*
X124850D03*
X121400Y54200D03*
X120200D03*
X123700D03*
X122600D03*
X121400Y55400D03*
X120200D03*
X122600D03*
X121400Y56600D03*
X120200D03*
X122100Y65050D03*
X127418Y82330D03*
Y77250D03*
X127450Y72750D03*
X128000Y64000D03*
X127850Y58450D03*
X126800Y51500D03*
X126700Y49850D03*
X126900Y46300D03*
X127418Y36610D03*
X127450Y31750D03*
X127400Y27800D03*
X132600Y27650D03*
Y31650D03*
X132498Y36610D03*
X137578D03*
X132498Y41690D03*
X137578D03*
Y46770D03*
X137850Y54050D03*
X132350D03*
X137550Y62000D03*
X132450D03*
X132350Y69000D03*
X132400Y72800D03*
Y77250D03*
X134600Y82250D03*
X142658Y67090D03*
Y62010D03*
Y56930D03*
X142950Y51900D03*
X142658Y46770D03*
Y36610D03*
X156800Y27300D03*
X156938Y31530D03*
Y36610D03*
X147900Y36650D03*
X156938Y41690D03*
X147750Y47400D03*
X159800Y47850D03*
X148100Y55200D03*
X156400Y55500D03*
X158950Y61250D03*
X147850Y62350D03*
X147750Y69800D03*
X156938Y72170D03*
Y77250D03*
Y82330D03*
X164350Y82350D03*
X162018Y77250D03*
Y72170D03*
X163650Y62650D03*
X163450Y60150D03*
X165800Y54200D03*
X165750Y53050D03*
X163950Y52950D03*
X165800Y51600D03*
X163950Y51500D03*
X164000Y49750D03*
X165750Y49700D03*
X164000Y46050D03*
X162018Y36610D03*
Y31530D03*
X161950Y27450D03*
X166750Y27400D03*
X171550Y27350D03*
X168350Y51650D03*
X168200Y53000D03*
X167000D03*
X170600D03*
X169400D03*
X173000D03*
X171800D03*
X168200Y54200D03*
X170600D03*
X169400D03*
X167000D03*
X173000D03*
X171800D03*
X168200Y55400D03*
X170600D03*
X173000D03*
X171800D03*
X169400D03*
X167000D03*
X173000Y56600D03*
X171800D03*
X170600D03*
X169400D03*
X168200D03*
X169400Y57900D03*
X167850Y64600D03*
X170050Y65300D03*
X171700Y72350D03*
X172178Y82330D03*
X179050Y82350D03*
X178850Y72750D03*
X173900Y65150D03*
X177600Y65100D03*
X175400Y56600D03*
X176600D03*
X177800D03*
X174200D03*
X179000D03*
Y55400D03*
X174200D03*
X175400D03*
X177800D03*
X176600D03*
X174200Y54200D03*
X179000D03*
X175400D03*
X177800D03*
X176600D03*
X179000Y53000D03*
X175400D03*
X176600D03*
X177800D03*
X174200D03*
X175450Y35750D03*
X175500Y32100D03*
X176350Y27300D03*
X181150Y27250D03*
X184850Y50050D03*
X182600Y51450D03*
X184850D03*
X180200Y53000D03*
X181400D03*
X182600D03*
X183700D03*
X184850D03*
X181400Y54200D03*
X180200D03*
X183700D03*
X182600D03*
X181400Y55400D03*
X180200D03*
X182600D03*
X181400Y56600D03*
X180200D03*
X182100Y65050D03*
X187418Y82330D03*
Y77250D03*
X187450Y72750D03*
X188000Y64000D03*
X187850Y58450D03*
X186800Y51500D03*
X186700Y49850D03*
X186900Y46300D03*
X187418Y36610D03*
X187450Y31750D03*
X187400Y27800D03*
X192600Y27650D03*
Y31650D03*
X192498Y36610D03*
X197578D03*
X192498Y41690D03*
X197578D03*
Y46770D03*
X197850Y54050D03*
X192350D03*
X197550Y62000D03*
X192450D03*
X192350Y69000D03*
X192400Y72800D03*
Y77250D03*
X194600Y82250D03*
X202658Y67090D03*
Y62010D03*
Y56930D03*
X202950Y51900D03*
X202658Y46770D03*
Y36610D03*
G54D41*
X48900Y39590D03*
Y47210D03*
X36400Y48650D03*
Y50150D03*
X59400Y47210D03*
Y39590D03*
X108900D03*
Y47210D03*
X96400Y48650D03*
Y50150D03*
X119400Y47210D03*
Y39590D03*
X168900D03*
Y47210D03*
X156400Y48650D03*
Y50150D03*
X179400Y47210D03*
Y39590D03*
G54D13*
X30400Y42900D03*
Y50400D03*
Y57900D03*
Y65400D03*
Y72900D03*
X40400Y80400D03*
X47900D03*
X41900Y50210D03*
X51400Y47210D03*
X41900Y42590D03*
X51400Y39590D03*
X47900Y35900D03*
X52900D03*
X57900D03*
X62900D03*
X61900Y39590D03*
Y47210D03*
X60590Y60900D03*
X55400Y80400D03*
X62900D03*
X70400D03*
X80400Y72900D03*
Y65400D03*
X68210Y60900D03*
X80400Y57900D03*
X74400Y50400D03*
X80400D03*
X74400Y48400D03*
X80400Y42900D03*
X90400D03*
Y50400D03*
Y57900D03*
Y65400D03*
Y72900D03*
X100400Y80400D03*
X107900D03*
X101900Y50210D03*
X111400Y47210D03*
X101900Y42590D03*
X111400Y39590D03*
X107900Y35900D03*
X112900D03*
X117900D03*
X122900D03*
X121900Y39590D03*
Y47210D03*
X120590Y60900D03*
X115400Y80400D03*
X122900D03*
X130400D03*
X140400Y72900D03*
Y65400D03*
X128210Y60900D03*
X140400Y57900D03*
X134400Y50400D03*
X140400D03*
X134400Y48400D03*
X140400Y42900D03*
X150400D03*
Y50400D03*
Y57900D03*
Y65400D03*
Y72900D03*
X160400Y80400D03*
X167900D03*
X161900Y50210D03*
X171400Y47210D03*
X161900Y42590D03*
X171400Y39590D03*
X167900Y35900D03*
X172900D03*
X177900D03*
X182900D03*
X181900Y39590D03*
Y47210D03*
X180590Y60900D03*
X175400Y80400D03*
X182900D03*
X190400D03*
X200400Y72900D03*
Y65400D03*
X188210Y60900D03*
X200400Y57900D03*
X194400Y50400D03*
X200400D03*
X194400Y48400D03*
X200400Y42900D03*
G54D42*
X39130Y53900D03*
X35860Y58400D03*
X38400D03*
X35860Y64900D03*
X38400D03*
X47900Y75440D03*
Y72900D03*
Y70360D03*
X40940Y64900D03*
Y58400D03*
X41670Y53900D03*
X55400Y70360D03*
X62900D03*
Y72900D03*
X55400D03*
Y75440D03*
X62900D03*
X70360Y65400D03*
X75440D03*
X72900D03*
X70360Y57900D03*
X75440D03*
X72900D03*
X99130Y53900D03*
X95860Y58400D03*
X98400D03*
X95860Y64900D03*
X98400D03*
X107900Y75440D03*
Y72900D03*
Y70360D03*
X100940Y64900D03*
Y58400D03*
X101670Y53900D03*
X115400Y70360D03*
X122900D03*
Y72900D03*
X115400D03*
Y75440D03*
X122900D03*
X130360Y65400D03*
X135440D03*
X132900D03*
X130360Y57900D03*
X135440D03*
X132900D03*
X159130Y53900D03*
X155860Y58400D03*
X158400D03*
X155860Y64900D03*
X158400D03*
X167900Y75440D03*
Y72900D03*
Y70360D03*
X160940Y64900D03*
Y58400D03*
X161670Y53900D03*
X175400Y70360D03*
X182900D03*
Y72900D03*
X175400D03*
Y75440D03*
X182900D03*
X190360Y65400D03*
X195440D03*
X192900D03*
X190360Y57900D03*
X195440D03*
X192900D03*
G54D43*
X49150Y30400D03*
X51650D03*
X59150D03*
X61650D03*
X109150D03*
X111650D03*
X119150D03*
X121650D03*
X169150D03*
X171650D03*
X179150D03*
X181650D03*
G54D44*
X30400D03*
Y80400D03*
X80400D03*
Y30400D03*
X90400D03*
Y80400D03*
X140400D03*
Y30400D03*
X150400D03*
Y80400D03*
X200400D03*
Y30400D03*
G54D45*
X30400Y20400D03*
X200400D03*
Y90400D03*
X30400D03*
M02*
