G04 CAM350 V9.5.1 (Build 211) Date:  Fri Sep 21 11:09:19 2018 *
G04 Database: E:\9ÔÂ\9.21\PB18689\PB18689.cam *
G04 Layer 2: GBS *
%FSLAX33Y33*%
%MOMM*%
%SFA1.000B1.000*%

%MIA0B0*%
%IPPOS*%
%ADD11C,0.20000*%
%ADD14C,1.40000*%
%ADD23C,1.60000*%
%ADD24C,1.90000*%
%ADD25C,3.40000*%
%ADD26C,1.55000*%
%ADD27C,1.85000*%
%ADD30C,4.20000*%
%ADD32R,3.00000X3.00000*%
%ADD34R,4.00000X4.00000*%
%ADD37R,4.00000X4.00000*%
%ADD40R,3.00000X3.00000*%
%LNGBS*%
%LPD*%
G54D23*
X47900Y80400D03*
X30400Y65400D03*
X47900Y35900D03*
X52900D03*
X62900Y80400D03*
X80400Y65400D03*
X62900Y35900D03*
X57900D03*
X51400Y47210D03*
Y39590D03*
X61900Y47210D03*
Y39590D03*
X41900Y50210D03*
Y42590D03*
X74400Y50400D03*
Y48400D03*
X68210Y60900D03*
X60590D03*
X80400Y72900D03*
X70400Y80400D03*
X30400Y57900D03*
X80400D03*
X55400Y80400D03*
X30400Y50400D03*
X80400D03*
X40400Y80400D03*
X30400Y72900D03*
Y42900D03*
X80400D03*
X51400Y47210D03*
Y39590D03*
X61900Y47210D03*
Y39590D03*
X41900Y50210D03*
Y42590D03*
X68210Y60900D03*
X60590D03*
G54D14*
X36400Y50150D03*
Y48650D03*
Y50150D03*
Y48650D03*
G54D24*
X59150Y30400D03*
X61650D03*
X49150D03*
X51650D03*
G54D25*
X30400D03*
Y80400D03*
X80400D03*
Y30400D03*
G54D26*
X48900Y39590D03*
Y47210D03*
X59400Y39590D03*
Y47210D03*
X48900Y39590D03*
Y47210D03*
X59400Y39590D03*
Y47210D03*
G54D27*
X39130Y53900D03*
X41670D03*
X47900Y75440D03*
Y72900D03*
Y70360D03*
X35860Y64900D03*
X38400D03*
X40940D03*
X62900Y75440D03*
Y72900D03*
Y70360D03*
X75440Y65400D03*
X72900D03*
X70360D03*
X35860Y58400D03*
X38400D03*
X40940D03*
X75440Y57900D03*
X72900D03*
X70360D03*
X55400Y75440D03*
Y72900D03*
Y70360D03*
G54D23*
X107900Y80400D03*
X90400Y65400D03*
X107900Y35900D03*
X112900D03*
X122900Y80400D03*
X140400Y65400D03*
X122900Y35900D03*
X117900D03*
X111400Y47210D03*
Y39590D03*
X121900Y47210D03*
Y39590D03*
X101900Y50210D03*
Y42590D03*
X134400Y50400D03*
Y48400D03*
X128210Y60900D03*
X120590D03*
X140400Y72900D03*
X130400Y80400D03*
X90400Y57900D03*
X140400D03*
X115400Y80400D03*
X90400Y50400D03*
X140400D03*
X100400Y80400D03*
X90400Y72900D03*
Y42900D03*
X140400D03*
X111400Y47210D03*
Y39590D03*
X121900Y47210D03*
Y39590D03*
X101900Y50210D03*
Y42590D03*
X128210Y60900D03*
X120590D03*
G54D14*
X96400Y50150D03*
Y48650D03*
Y50150D03*
Y48650D03*
G54D24*
X119150Y30400D03*
X121650D03*
X109150D03*
X111650D03*
G54D25*
X90400D03*
Y80400D03*
X140400D03*
Y30400D03*
G54D26*
X108900Y39590D03*
Y47210D03*
X119400Y39590D03*
Y47210D03*
X108900Y39590D03*
Y47210D03*
X119400Y39590D03*
Y47210D03*
G54D27*
X99130Y53900D03*
X101670D03*
X107900Y75440D03*
Y72900D03*
Y70360D03*
X95860Y64900D03*
X98400D03*
X100940D03*
X122900Y75440D03*
Y72900D03*
Y70360D03*
X135440Y65400D03*
X132900D03*
X130360D03*
X95860Y58400D03*
X98400D03*
X100940D03*
X135440Y57900D03*
X132900D03*
X130360D03*
X115400Y75440D03*
Y72900D03*
Y70360D03*
G54D23*
X167900Y80400D03*
X150400Y65400D03*
X167900Y35900D03*
X172900D03*
X182900Y80400D03*
X200400Y65400D03*
X182900Y35900D03*
X177900D03*
X171400Y47210D03*
Y39590D03*
X181900Y47210D03*
Y39590D03*
X161900Y50210D03*
Y42590D03*
X194400Y50400D03*
Y48400D03*
X188210Y60900D03*
X180590D03*
X200400Y72900D03*
X190400Y80400D03*
X150400Y57900D03*
X200400D03*
X175400Y80400D03*
X150400Y50400D03*
X200400D03*
X160400Y80400D03*
X150400Y72900D03*
Y42900D03*
X200400D03*
X171400Y47210D03*
Y39590D03*
X181900Y47210D03*
Y39590D03*
X161900Y50210D03*
Y42590D03*
X188210Y60900D03*
X180590D03*
G54D14*
X156400Y50150D03*
Y48650D03*
Y50150D03*
Y48650D03*
G54D24*
X179150Y30400D03*
X181650D03*
X169150D03*
X171650D03*
G54D25*
X150400D03*
Y80400D03*
X200400D03*
Y30400D03*
G54D26*
X168900Y39590D03*
Y47210D03*
X179400Y39590D03*
Y47210D03*
X168900Y39590D03*
Y47210D03*
X179400Y39590D03*
Y47210D03*
G54D27*
X159130Y53900D03*
X161670D03*
X167900Y75440D03*
Y72900D03*
Y70360D03*
X155860Y64900D03*
X158400D03*
X160940D03*
X182900Y75440D03*
Y72900D03*
Y70360D03*
X195440Y65400D03*
X192900D03*
X190360D03*
X155860Y58400D03*
X158400D03*
X160940D03*
X195440Y57900D03*
X192900D03*
X190360D03*
X175400Y75440D03*
Y72900D03*
Y70360D03*
G54D34*
X40400Y20400D03*
G54D30*
X30400D03*
G54D32*
X185400D03*
G54D30*
X200400D03*
G54D37*
X185400Y90400D03*
G54D30*
X200400D03*
G54D40*
X40400D03*
G54D30*
X30400D03*
G54D11*
X36709Y49550D02*
G01X36786Y49596D01*
X36856Y49652*
Y49652D02*
G01X36918Y49717D01*
Y49717D02*
G01X36971Y49790D01*
Y49790D02*
G01X37014Y49869D01*
Y49869D02*
G01X37046Y49953D01*
Y49953D02*
G01X37066Y50041D01*
Y50041D02*
G01X37075Y50131D01*
X37071Y50220*
Y50220D02*
G01X37056Y50309D01*
Y50309D02*
G01X37029Y50395D01*
X36991Y50476*
Y50476D02*
G01X36942Y50552D01*
Y50552D02*
G01X36884Y50621D01*
X36817Y50681*
Y50681D02*
G01X36743Y50732D01*
X36662Y50772*
Y50772D02*
G01X36577Y50802D01*
Y50802D02*
G01X36489Y50819D01*
Y50819D02*
G01X36400Y50825D01*
Y50825D02*
G01X36310Y50819D01*
Y50819D02*
G01X36222Y50802D01*
X36137Y50772*
Y50772D02*
G01X36056Y50732D01*
Y50732D02*
G01X35982Y50681D01*
X35915Y50621*
Y50621D02*
G01X35857Y50552D01*
Y50552D02*
G01X35808Y50476D01*
Y50476D02*
G01X35770Y50395D01*
Y50395D02*
G01X35743Y50309D01*
Y50309D02*
G01X35728Y50220D01*
Y50220D02*
G01X35724Y50131D01*
Y50131D02*
G01X35733Y50041D01*
X35753Y49953*
Y49953D02*
G01X35785Y49869D01*
Y49869D02*
G01X35828Y49790D01*
Y49790D02*
G01X35881Y49717D01*
Y49717D02*
G01X35943Y49652D01*
Y49652D02*
G01X36013Y49596D01*
Y49596D02*
G01X36090Y49550D01*
Y49550D02*
G01X36709D01*
X35800Y49843D02*
G01Y50458D01*
X35900Y49698D02*
G01Y50602D01*
X36000Y49607D02*
G01Y50693D01*
X36100Y49550D02*
G01Y50753D01*
X36200Y49550D02*
G01Y50794D01*
X36300Y49550D02*
G01Y50817D01*
X36400Y49550D02*
G01Y50825D01*
X36500Y49550D02*
G01Y50817D01*
X36600Y49550D02*
G01Y50794D01*
X36700Y49550D02*
G01Y50753D01*
X36800Y49607D02*
G01Y50693D01*
X36900Y49698D02*
G01Y50602D01*
X37000Y49843D02*
G01Y50458D01*
X36400Y47974D02*
G01X36489Y47980D01*
Y47980D02*
G01X36577Y47998D01*
Y47998D02*
G01X36662Y48027D01*
Y48027D02*
G01X36743Y48067D01*
Y48067D02*
G01X36817Y48118D01*
Y48118D02*
G01X36884Y48178D01*
Y48178D02*
G01X36942Y48247D01*
Y48247D02*
G01X36991Y48323D01*
X37029Y48404*
Y48404D02*
G01X37056Y48490D01*
X37071Y48579*
Y48579D02*
G01X37075Y48669D01*
X37066Y48758*
Y48758D02*
G01X37046Y48846D01*
X37014Y48930*
X36971Y49009*
Y49009D02*
G01X36918Y49082D01*
Y49082D02*
G01X36856Y49147D01*
Y49147D02*
G01X36786Y49203D01*
Y49203D02*
G01X36709Y49250D01*
X36090*
Y49250D02*
G01X36013Y49203D01*
Y49203D02*
G01X35943Y49147D01*
X35881Y49082*
X35828Y49009*
X35785Y48930*
Y48930D02*
G01X35753Y48846D01*
Y48846D02*
G01X35733Y48758D01*
Y48758D02*
G01X35724Y48669D01*
Y48669D02*
G01X35728Y48579D01*
X35743Y48490*
Y48490D02*
G01X35770Y48404D01*
Y48404D02*
G01X35808Y48323D01*
Y48323D02*
G01X35857Y48247D01*
X35915Y48178*
Y48178D02*
G01X35982Y48118D01*
Y48118D02*
G01X36056Y48067D01*
Y48067D02*
G01X36137Y48027D01*
X36222Y47998*
X36310Y47980*
X36400Y47974*
X35800Y48341D02*
G01Y48956D01*
X35900Y48197D02*
G01Y49101D01*
X36000Y48106D02*
G01Y49192D01*
X36100Y48046D02*
G01Y49250D01*
X36200Y48005D02*
G01Y49250D01*
X36300Y47982D02*
G01Y49250D01*
X36400Y47974D02*
G01Y49250D01*
X36500Y47982D02*
G01Y49250D01*
X36600Y48005D02*
G01Y49250D01*
X36700Y48046D02*
G01Y49250D01*
X36800Y48106D02*
G01Y49192D01*
X36900Y48197D02*
G01Y49101D01*
X37000Y48341D02*
G01Y48956D01*
X96709Y49550D02*
G01X96786Y49596D01*
X96856Y49652*
Y49652D02*
G01X96918Y49717D01*
Y49717D02*
G01X96971Y49790D01*
Y49790D02*
G01X97014Y49869D01*
Y49869D02*
G01X97046Y49953D01*
Y49953D02*
G01X97066Y50041D01*
Y50041D02*
G01X97075Y50131D01*
X97071Y50220*
Y50220D02*
G01X97056Y50309D01*
Y50309D02*
G01X97029Y50395D01*
X96991Y50476*
Y50476D02*
G01X96942Y50552D01*
Y50552D02*
G01X96884Y50621D01*
X96817Y50681*
Y50681D02*
G01X96743Y50732D01*
X96662Y50772*
Y50772D02*
G01X96577Y50802D01*
Y50802D02*
G01X96489Y50819D01*
Y50819D02*
G01X96400Y50825D01*
Y50825D02*
G01X96310Y50819D01*
Y50819D02*
G01X96222Y50802D01*
X96137Y50772*
Y50772D02*
G01X96056Y50732D01*
Y50732D02*
G01X95982Y50681D01*
X95915Y50621*
Y50621D02*
G01X95857Y50552D01*
Y50552D02*
G01X95808Y50476D01*
Y50476D02*
G01X95770Y50395D01*
Y50395D02*
G01X95743Y50309D01*
Y50309D02*
G01X95728Y50220D01*
Y50220D02*
G01X95724Y50131D01*
Y50131D02*
G01X95733Y50041D01*
X95753Y49953*
Y49953D02*
G01X95785Y49869D01*
Y49869D02*
G01X95828Y49790D01*
Y49790D02*
G01X95881Y49717D01*
Y49717D02*
G01X95943Y49652D01*
Y49652D02*
G01X96013Y49596D01*
Y49596D02*
G01X96090Y49550D01*
Y49550D02*
G01X96709D01*
X95800Y49843D02*
G01Y50458D01*
X95900Y49698D02*
G01Y50602D01*
X96000Y49607D02*
G01Y50693D01*
X96100Y49550D02*
G01Y50753D01*
X96200Y49550D02*
G01Y50794D01*
X96300Y49550D02*
G01Y50817D01*
X96400Y49550D02*
G01Y50825D01*
X96500Y49550D02*
G01Y50817D01*
X96600Y49550D02*
G01Y50794D01*
X96700Y49550D02*
G01Y50753D01*
X96800Y49607D02*
G01Y50693D01*
X96900Y49698D02*
G01Y50602D01*
X97000Y49843D02*
G01Y50458D01*
X96400Y47974D02*
G01X96489Y47980D01*
Y47980D02*
G01X96577Y47998D01*
Y47998D02*
G01X96662Y48027D01*
Y48027D02*
G01X96743Y48067D01*
Y48067D02*
G01X96817Y48118D01*
Y48118D02*
G01X96884Y48178D01*
Y48178D02*
G01X96942Y48247D01*
Y48247D02*
G01X96991Y48323D01*
X97029Y48404*
Y48404D02*
G01X97056Y48490D01*
X97071Y48579*
Y48579D02*
G01X97075Y48669D01*
X97066Y48758*
Y48758D02*
G01X97046Y48846D01*
X97014Y48930*
X96971Y49009*
Y49009D02*
G01X96918Y49082D01*
Y49082D02*
G01X96856Y49147D01*
Y49147D02*
G01X96786Y49203D01*
Y49203D02*
G01X96709Y49250D01*
X96090*
Y49250D02*
G01X96013Y49203D01*
Y49203D02*
G01X95943Y49147D01*
X95881Y49082*
X95828Y49009*
X95785Y48930*
Y48930D02*
G01X95753Y48846D01*
Y48846D02*
G01X95733Y48758D01*
Y48758D02*
G01X95724Y48669D01*
Y48669D02*
G01X95728Y48579D01*
X95743Y48490*
Y48490D02*
G01X95770Y48404D01*
Y48404D02*
G01X95808Y48323D01*
Y48323D02*
G01X95857Y48247D01*
X95915Y48178*
Y48178D02*
G01X95982Y48118D01*
Y48118D02*
G01X96056Y48067D01*
Y48067D02*
G01X96137Y48027D01*
X96222Y47998*
X96310Y47980*
X96400Y47974*
X95800Y48341D02*
G01Y48956D01*
X95900Y48197D02*
G01Y49101D01*
X96000Y48106D02*
G01Y49192D01*
X96100Y48046D02*
G01Y49250D01*
X96200Y48005D02*
G01Y49250D01*
X96300Y47982D02*
G01Y49250D01*
X96400Y47974D02*
G01Y49250D01*
X96500Y47982D02*
G01Y49250D01*
X96600Y48005D02*
G01Y49250D01*
X96700Y48046D02*
G01Y49250D01*
X96800Y48106D02*
G01Y49192D01*
X96900Y48197D02*
G01Y49101D01*
X97000Y48341D02*
G01Y48956D01*
X156709Y49550D02*
G01X156786Y49596D01*
X156856Y49652*
Y49652D02*
G01X156918Y49717D01*
Y49717D02*
G01X156971Y49790D01*
Y49790D02*
G01X157014Y49869D01*
Y49869D02*
G01X157046Y49953D01*
Y49953D02*
G01X157066Y50041D01*
Y50041D02*
G01X157075Y50131D01*
X157071Y50220*
Y50220D02*
G01X157056Y50309D01*
Y50309D02*
G01X157029Y50395D01*
X156991Y50476*
Y50476D02*
G01X156942Y50552D01*
Y50552D02*
G01X156884Y50621D01*
X156817Y50681*
Y50681D02*
G01X156743Y50732D01*
X156662Y50772*
Y50772D02*
G01X156577Y50802D01*
Y50802D02*
G01X156489Y50819D01*
Y50819D02*
G01X156400Y50825D01*
Y50825D02*
G01X156310Y50819D01*
Y50819D02*
G01X156222Y50802D01*
X156137Y50772*
Y50772D02*
G01X156056Y50732D01*
Y50732D02*
G01X155982Y50681D01*
X155915Y50621*
Y50621D02*
G01X155857Y50552D01*
Y50552D02*
G01X155808Y50476D01*
Y50476D02*
G01X155770Y50395D01*
Y50395D02*
G01X155743Y50309D01*
Y50309D02*
G01X155728Y50220D01*
Y50220D02*
G01X155724Y50131D01*
Y50131D02*
G01X155733Y50041D01*
X155753Y49953*
Y49953D02*
G01X155785Y49869D01*
Y49869D02*
G01X155828Y49790D01*
Y49790D02*
G01X155881Y49717D01*
Y49717D02*
G01X155943Y49652D01*
Y49652D02*
G01X156013Y49596D01*
Y49596D02*
G01X156090Y49550D01*
Y49550D02*
G01X156709D01*
X155800Y49843D02*
G01Y50458D01*
X155900Y49698D02*
G01Y50602D01*
X156000Y49607D02*
G01Y50693D01*
X156100Y49550D02*
G01Y50753D01*
X156200Y49550D02*
G01Y50794D01*
X156300Y49550D02*
G01Y50817D01*
X156400Y49550D02*
G01Y50825D01*
X156500Y49550D02*
G01Y50817D01*
X156600Y49550D02*
G01Y50794D01*
X156700Y49550D02*
G01Y50753D01*
X156800Y49607D02*
G01Y50693D01*
X156900Y49698D02*
G01Y50602D01*
X157000Y49843D02*
G01Y50458D01*
X156400Y47974D02*
G01X156489Y47980D01*
Y47980D02*
G01X156577Y47998D01*
Y47998D02*
G01X156662Y48027D01*
Y48027D02*
G01X156743Y48067D01*
Y48067D02*
G01X156817Y48118D01*
Y48118D02*
G01X156884Y48178D01*
Y48178D02*
G01X156942Y48247D01*
Y48247D02*
G01X156991Y48323D01*
X157029Y48404*
Y48404D02*
G01X157056Y48490D01*
X157071Y48579*
Y48579D02*
G01X157075Y48669D01*
X157066Y48758*
Y48758D02*
G01X157046Y48846D01*
X157014Y48930*
X156971Y49009*
Y49009D02*
G01X156918Y49082D01*
Y49082D02*
G01X156856Y49147D01*
Y49147D02*
G01X156786Y49203D01*
Y49203D02*
G01X156709Y49250D01*
X156090*
Y49250D02*
G01X156013Y49203D01*
Y49203D02*
G01X155943Y49147D01*
X155881Y49082*
X155828Y49009*
X155785Y48930*
Y48930D02*
G01X155753Y48846D01*
Y48846D02*
G01X155733Y48758D01*
Y48758D02*
G01X155724Y48669D01*
Y48669D02*
G01X155728Y48579D01*
X155743Y48490*
Y48490D02*
G01X155770Y48404D01*
Y48404D02*
G01X155808Y48323D01*
Y48323D02*
G01X155857Y48247D01*
X155915Y48178*
Y48178D02*
G01X155982Y48118D01*
Y48118D02*
G01X156056Y48067D01*
Y48067D02*
G01X156137Y48027D01*
X156222Y47998*
X156310Y47980*
X156400Y47974*
X155800Y48341D02*
G01Y48956D01*
X155900Y48197D02*
G01Y49101D01*
X156000Y48106D02*
G01Y49192D01*
X156100Y48046D02*
G01Y49250D01*
X156200Y48005D02*
G01Y49250D01*
X156300Y47982D02*
G01Y49250D01*
X156400Y47974D02*
G01Y49250D01*
X156500Y47982D02*
G01Y49250D01*
X156600Y48005D02*
G01Y49250D01*
X156700Y48046D02*
G01Y49250D01*
X156800Y48106D02*
G01Y49192D01*
X156900Y48197D02*
G01Y49101D01*
X157000Y48341D02*
G01Y48956D01*
X25400Y25400D02*
G01X85400D01*
Y85400*
X25400*
Y25400*
X85400D02*
G01X145400D01*
Y85400*
X85400*
Y25400*
X145400D02*
G01X205400D01*
Y85400*
X145400*
Y25400*
X25400D02*
G01X205400D01*
Y15400*
X25400*
Y25400*
X205400Y85400D02*
G01X25400D01*
Y95400*
X205400*
Y85400*
M02*
