G04 CAM350 V9.5.1 (Build 211) Date:  Fri Sep 21 11:09:19 2018 *
G04 Database: E:\9ÔÂ\9.21\PB18689\PB18689.cam *
G04 Layer 9: GTP *
%FSLAX33Y33*%
%MOMM*%
%SFA1.000B1.000*%

%MIA0B0*%
%IPPOS*%
%ADD11C,0.20000*%
%ADD20R,1.10000X1.30000*%
%ADD21R,0.35000X1.00000*%
%ADD31C,1.00000*%
%ADD33R,2.00000X2.00000*%
%ADD38R,2.00000X2.00000*%
%LNGTP*%
%LPD*%
G54D20*
X34800Y50450D03*
Y48350D03*
X72850Y50450D03*
Y48350D03*
G54D21*
X51825Y51590D03*
X52475D03*
X53125D03*
X53775D03*
X54425D03*
X55075D03*
X55725D03*
X56375D03*
X57025D03*
X57675D03*
X58325D03*
X58975D03*
Y59210D03*
X58325D03*
X57675D03*
X57025D03*
X56375D03*
X55725D03*
X55075D03*
X54425D03*
X53775D03*
X53125D03*
X52475D03*
X51825D03*
G54D20*
X94800Y50450D03*
Y48350D03*
X132850Y50450D03*
Y48350D03*
G54D21*
X111825Y51590D03*
X112475D03*
X113125D03*
X113775D03*
X114425D03*
X115075D03*
X115725D03*
X116375D03*
X117025D03*
X117675D03*
X118325D03*
X118975D03*
Y59210D03*
X118325D03*
X117675D03*
X117025D03*
X116375D03*
X115725D03*
X115075D03*
X114425D03*
X113775D03*
X113125D03*
X112475D03*
X111825D03*
G54D20*
X154800Y50450D03*
Y48350D03*
X192850Y50450D03*
Y48350D03*
G54D21*
X171825Y51590D03*
X172475D03*
X173125D03*
X173775D03*
X174425D03*
X175075D03*
X175725D03*
X176375D03*
X177025D03*
X177675D03*
X178325D03*
X178975D03*
Y59210D03*
X178325D03*
X177675D03*
X177025D03*
X176375D03*
X175725D03*
X175075D03*
X174425D03*
X173775D03*
X173125D03*
X172475D03*
X171825D03*
G54D38*
X185400Y90400D03*
G54D31*
X40400D03*
G54D33*
Y20400D03*
G54D31*
X185400D03*
G54D11*
X52200Y44500D02*
G01Y45500D01*
X50600*
Y44500*
X52200*
X50600D02*
G01Y45500D01*
X50700Y44500D02*
G01Y45500D01*
X50800Y44500D02*
G01Y45500D01*
X50900Y44500D02*
G01Y45500D01*
X51000Y44500D02*
G01Y45500D01*
X51100Y44500D02*
G01Y45500D01*
X51200Y44500D02*
G01Y45500D01*
X51300Y44500D02*
G01Y45500D01*
X51400Y44500D02*
G01Y45500D01*
X51500Y44500D02*
G01Y45500D01*
X51600Y44500D02*
G01Y45500D01*
X51700Y44500D02*
G01Y45500D01*
X51800Y44500D02*
G01Y45500D01*
X51900Y44500D02*
G01Y45500D01*
X52000Y44500D02*
G01Y45500D01*
X52100Y44500D02*
G01Y45500D01*
X52200Y44500D02*
G01Y45500D01*
X50600*
Y44500*
X52200*
X50600D02*
G01Y45500D01*
X50700Y44500D02*
G01Y45500D01*
X50800Y44500D02*
G01Y45500D01*
X50900Y44500D02*
G01Y45500D01*
X51000Y44500D02*
G01Y45500D01*
X51100Y44500D02*
G01Y45500D01*
X51200Y44500D02*
G01Y45500D01*
X51300Y44500D02*
G01Y45500D01*
X51400Y44500D02*
G01Y45500D01*
X51500Y44500D02*
G01Y45500D01*
X51600Y44500D02*
G01Y45500D01*
X51700Y44500D02*
G01Y45500D01*
X51800Y44500D02*
G01Y45500D01*
X51900Y44500D02*
G01Y45500D01*
X52000Y44500D02*
G01Y45500D01*
X52100Y44500D02*
G01Y45500D01*
X52200Y41300D02*
G01Y42300D01*
X50600*
Y41300*
X52200*
X50600D02*
G01Y42300D01*
X50700Y41300D02*
G01Y42300D01*
X50800Y41300D02*
G01Y42300D01*
X50900Y41300D02*
G01Y42300D01*
X51000Y41300D02*
G01Y42300D01*
X51100Y41300D02*
G01Y42300D01*
X51200Y41300D02*
G01Y42300D01*
X51300Y41300D02*
G01Y42300D01*
X51400Y41300D02*
G01Y42300D01*
X51500Y41300D02*
G01Y42300D01*
X51600Y41300D02*
G01Y42300D01*
X51700Y41300D02*
G01Y42300D01*
X51800Y41300D02*
G01Y42300D01*
X51900Y41300D02*
G01Y42300D01*
X52000Y41300D02*
G01Y42300D01*
X52100Y41300D02*
G01Y42300D01*
X62700Y44500D02*
G01Y45500D01*
X61100*
Y44500*
X62700*
X61100D02*
G01Y45500D01*
X61200Y44500D02*
G01Y45500D01*
X61300Y44500D02*
G01Y45500D01*
X61400Y44500D02*
G01Y45500D01*
X61500Y44500D02*
G01Y45500D01*
X61600Y44500D02*
G01Y45500D01*
X61700Y44500D02*
G01Y45500D01*
X61800Y44500D02*
G01Y45500D01*
X61900Y44500D02*
G01Y45500D01*
X62000Y44500D02*
G01Y45500D01*
X62100Y44500D02*
G01Y45500D01*
X62200Y44500D02*
G01Y45500D01*
X62300Y44500D02*
G01Y45500D01*
X62400Y44500D02*
G01Y45500D01*
X62500Y44500D02*
G01Y45500D01*
X62600Y44500D02*
G01Y45500D01*
X62700Y44500D02*
G01Y45500D01*
X61100*
Y44500*
X62700*
X61100D02*
G01Y45500D01*
X61200Y44500D02*
G01Y45500D01*
X61300Y44500D02*
G01Y45500D01*
X61400Y44500D02*
G01Y45500D01*
X61500Y44500D02*
G01Y45500D01*
X61600Y44500D02*
G01Y45500D01*
X61700Y44500D02*
G01Y45500D01*
X61800Y44500D02*
G01Y45500D01*
X61900Y44500D02*
G01Y45500D01*
X62000Y44500D02*
G01Y45500D01*
X62100Y44500D02*
G01Y45500D01*
X62200Y44500D02*
G01Y45500D01*
X62300Y44500D02*
G01Y45500D01*
X62400Y44500D02*
G01Y45500D01*
X62500Y44500D02*
G01Y45500D01*
X62600Y44500D02*
G01Y45500D01*
X62700Y41300D02*
G01Y42300D01*
X61100*
Y41300*
X62700*
X61100D02*
G01Y42300D01*
X61200Y41300D02*
G01Y42300D01*
X61300Y41300D02*
G01Y42300D01*
X61400Y41300D02*
G01Y42300D01*
X61500Y41300D02*
G01Y42300D01*
X61600Y41300D02*
G01Y42300D01*
X61700Y41300D02*
G01Y42300D01*
X61800Y41300D02*
G01Y42300D01*
X61900Y41300D02*
G01Y42300D01*
X62000Y41300D02*
G01Y42300D01*
X62100Y41300D02*
G01Y42300D01*
X62200Y41300D02*
G01Y42300D01*
X62300Y41300D02*
G01Y42300D01*
X62400Y41300D02*
G01Y42300D01*
X62500Y41300D02*
G01Y42300D01*
X62600Y41300D02*
G01Y42300D01*
X42700Y47500D02*
G01Y48500D01*
X41100*
Y47500*
X42700*
X41100D02*
G01Y48500D01*
X41200Y47500D02*
G01Y48500D01*
X41300Y47500D02*
G01Y48500D01*
X41400Y47500D02*
G01Y48500D01*
X41500Y47500D02*
G01Y48500D01*
X41600Y47500D02*
G01Y48500D01*
X41700Y47500D02*
G01Y48500D01*
X41800Y47500D02*
G01Y48500D01*
X41900Y47500D02*
G01Y48500D01*
X42000Y47500D02*
G01Y48500D01*
X42100Y47500D02*
G01Y48500D01*
X42200Y47500D02*
G01Y48500D01*
X42300Y47500D02*
G01Y48500D01*
X42400Y47500D02*
G01Y48500D01*
X42500Y47500D02*
G01Y48500D01*
X42600Y47500D02*
G01Y48500D01*
X42700Y47500D02*
G01Y48500D01*
X41100*
Y47500*
X42700*
X41100D02*
G01Y48500D01*
X41200Y47500D02*
G01Y48500D01*
X41300Y47500D02*
G01Y48500D01*
X41400Y47500D02*
G01Y48500D01*
X41500Y47500D02*
G01Y48500D01*
X41600Y47500D02*
G01Y48500D01*
X41700Y47500D02*
G01Y48500D01*
X41800Y47500D02*
G01Y48500D01*
X41900Y47500D02*
G01Y48500D01*
X42000Y47500D02*
G01Y48500D01*
X42100Y47500D02*
G01Y48500D01*
X42200Y47500D02*
G01Y48500D01*
X42300Y47500D02*
G01Y48500D01*
X42400Y47500D02*
G01Y48500D01*
X42500Y47500D02*
G01Y48500D01*
X42600Y47500D02*
G01Y48500D01*
X42700Y44300D02*
G01Y45300D01*
X41100*
Y44300*
X42700*
X41100D02*
G01Y45300D01*
X41200Y44300D02*
G01Y45300D01*
X41300Y44300D02*
G01Y45300D01*
X41400Y44300D02*
G01Y45300D01*
X41500Y44300D02*
G01Y45300D01*
X41600Y44300D02*
G01Y45300D01*
X41700Y44300D02*
G01Y45300D01*
X41800Y44300D02*
G01Y45300D01*
X41900Y44300D02*
G01Y45300D01*
X42000Y44300D02*
G01Y45300D01*
X42100Y44300D02*
G01Y45300D01*
X42200Y44300D02*
G01Y45300D01*
X42300Y44300D02*
G01Y45300D01*
X42400Y44300D02*
G01Y45300D01*
X42500Y44300D02*
G01Y45300D01*
X42600Y44300D02*
G01Y45300D01*
X65500Y60100D02*
G01X66500D01*
Y61700*
X65500*
Y60100*
Y61700*
X65600Y60100D02*
G01Y61700D01*
X65700Y60100D02*
G01Y61700D01*
X65800Y60100D02*
G01Y61700D01*
X65900Y60100D02*
G01Y61700D01*
X66000Y60100D02*
G01Y61700D01*
X66100Y60100D02*
G01Y61700D01*
X66200Y60100D02*
G01Y61700D01*
X66300Y60100D02*
G01Y61700D01*
X66400Y60100D02*
G01Y61700D01*
X65500Y60100D02*
G01X66500D01*
Y61700*
X65500*
Y60100*
Y61700*
X65600Y60100D02*
G01Y61700D01*
X65700Y60100D02*
G01Y61700D01*
X65800Y60100D02*
G01Y61700D01*
X65900Y60100D02*
G01Y61700D01*
X66000Y60100D02*
G01Y61700D01*
X66100Y60100D02*
G01Y61700D01*
X66200Y60100D02*
G01Y61700D01*
X66300Y60100D02*
G01Y61700D01*
X66400Y60100D02*
G01Y61700D01*
X62300Y60100D02*
G01X63300D01*
Y61700*
X62300*
Y60100*
Y61700*
X62400Y60100D02*
G01Y61700D01*
X62500Y60100D02*
G01Y61700D01*
X62600Y60100D02*
G01Y61700D01*
X62700Y60100D02*
G01Y61700D01*
X62800Y60100D02*
G01Y61700D01*
X62900Y60100D02*
G01Y61700D01*
X63000Y60100D02*
G01Y61700D01*
X63100Y60100D02*
G01Y61700D01*
X63200Y60100D02*
G01Y61700D01*
X48300Y42200D02*
G01Y41500D01*
X49500*
Y42200*
X48300*
Y41500D02*
G01Y42200D01*
X48400Y41500D02*
G01Y42200D01*
X48500Y41500D02*
G01Y42200D01*
X48600Y41500D02*
G01Y42200D01*
X48700Y41500D02*
G01Y42200D01*
X48800Y41500D02*
G01Y42200D01*
X48900Y41500D02*
G01Y42200D01*
X49000Y41500D02*
G01Y42200D01*
X49100Y41500D02*
G01Y42200D01*
X49200Y41500D02*
G01Y42200D01*
X49300Y41500D02*
G01Y42200D01*
X49400Y41500D02*
G01Y42200D01*
X48300Y45300D02*
G01Y44600D01*
X49500*
Y45300*
X48300*
Y44600D02*
G01Y45300D01*
X48400Y44600D02*
G01Y45300D01*
X48500Y44600D02*
G01Y45300D01*
X48600Y44600D02*
G01Y45300D01*
X48700Y44600D02*
G01Y45300D01*
X48800Y44600D02*
G01Y45300D01*
X48900Y44600D02*
G01Y45300D01*
X49000Y44600D02*
G01Y45300D01*
X49100Y44600D02*
G01Y45300D01*
X49200Y44600D02*
G01Y45300D01*
X49300Y44600D02*
G01Y45300D01*
X49400Y44600D02*
G01Y45300D01*
X58800Y42200D02*
G01Y41500D01*
X60000*
Y42200*
X58800*
Y41500D02*
G01Y42200D01*
X58900Y41500D02*
G01Y42200D01*
X59000Y41500D02*
G01Y42200D01*
X59100Y41500D02*
G01Y42200D01*
X59200Y41500D02*
G01Y42200D01*
X59300Y41500D02*
G01Y42200D01*
X59400Y41500D02*
G01Y42200D01*
X59500Y41500D02*
G01Y42200D01*
X59600Y41500D02*
G01Y42200D01*
X59700Y41500D02*
G01Y42200D01*
X59800Y41500D02*
G01Y42200D01*
X59900Y41500D02*
G01Y42200D01*
X58800Y45300D02*
G01Y44600D01*
X60000*
Y45300*
X58800*
Y44600D02*
G01Y45300D01*
X58900Y44600D02*
G01Y45300D01*
X59000Y44600D02*
G01Y45300D01*
X59100Y44600D02*
G01Y45300D01*
X59200Y44600D02*
G01Y45300D01*
X59300Y44600D02*
G01Y45300D01*
X59400Y44600D02*
G01Y45300D01*
X59500Y44600D02*
G01Y45300D01*
X59600Y44600D02*
G01Y45300D01*
X59700Y44600D02*
G01Y45300D01*
X59800Y44600D02*
G01Y45300D01*
X59900Y44600D02*
G01Y45300D01*
X112200Y44500D02*
G01Y45500D01*
X110600*
Y44500*
X112200*
X110600D02*
G01Y45500D01*
X110700Y44500D02*
G01Y45500D01*
X110800Y44500D02*
G01Y45500D01*
X110900Y44500D02*
G01Y45500D01*
X111000Y44500D02*
G01Y45500D01*
X111100Y44500D02*
G01Y45500D01*
X111200Y44500D02*
G01Y45500D01*
X111300Y44500D02*
G01Y45500D01*
X111400Y44500D02*
G01Y45500D01*
X111500Y44500D02*
G01Y45500D01*
X111600Y44500D02*
G01Y45500D01*
X111700Y44500D02*
G01Y45500D01*
X111800Y44500D02*
G01Y45500D01*
X111900Y44500D02*
G01Y45500D01*
X112000Y44500D02*
G01Y45500D01*
X112100Y44500D02*
G01Y45500D01*
X112200Y44500D02*
G01Y45500D01*
X110600*
Y44500*
X112200*
X110600D02*
G01Y45500D01*
X110700Y44500D02*
G01Y45500D01*
X110800Y44500D02*
G01Y45500D01*
X110900Y44500D02*
G01Y45500D01*
X111000Y44500D02*
G01Y45500D01*
X111100Y44500D02*
G01Y45500D01*
X111200Y44500D02*
G01Y45500D01*
X111300Y44500D02*
G01Y45500D01*
X111400Y44500D02*
G01Y45500D01*
X111500Y44500D02*
G01Y45500D01*
X111600Y44500D02*
G01Y45500D01*
X111700Y44500D02*
G01Y45500D01*
X111800Y44500D02*
G01Y45500D01*
X111900Y44500D02*
G01Y45500D01*
X112000Y44500D02*
G01Y45500D01*
X112100Y44500D02*
G01Y45500D01*
X112200Y41300D02*
G01Y42300D01*
X110600*
Y41300*
X112200*
X110600D02*
G01Y42300D01*
X110700Y41300D02*
G01Y42300D01*
X110800Y41300D02*
G01Y42300D01*
X110900Y41300D02*
G01Y42300D01*
X111000Y41300D02*
G01Y42300D01*
X111100Y41300D02*
G01Y42300D01*
X111200Y41300D02*
G01Y42300D01*
X111300Y41300D02*
G01Y42300D01*
X111400Y41300D02*
G01Y42300D01*
X111500Y41300D02*
G01Y42300D01*
X111600Y41300D02*
G01Y42300D01*
X111700Y41300D02*
G01Y42300D01*
X111800Y41300D02*
G01Y42300D01*
X111900Y41300D02*
G01Y42300D01*
X112000Y41300D02*
G01Y42300D01*
X112100Y41300D02*
G01Y42300D01*
X122700Y44500D02*
G01Y45500D01*
X121100*
Y44500*
X122700*
X121100D02*
G01Y45500D01*
X121200Y44500D02*
G01Y45500D01*
X121300Y44500D02*
G01Y45500D01*
X121400Y44500D02*
G01Y45500D01*
X121500Y44500D02*
G01Y45500D01*
X121600Y44500D02*
G01Y45500D01*
X121700Y44500D02*
G01Y45500D01*
X121800Y44500D02*
G01Y45500D01*
X121900Y44500D02*
G01Y45500D01*
X122000Y44500D02*
G01Y45500D01*
X122100Y44500D02*
G01Y45500D01*
X122200Y44500D02*
G01Y45500D01*
X122300Y44500D02*
G01Y45500D01*
X122400Y44500D02*
G01Y45500D01*
X122500Y44500D02*
G01Y45500D01*
X122600Y44500D02*
G01Y45500D01*
X122700Y44500D02*
G01Y45500D01*
X121100*
Y44500*
X122700*
X121100D02*
G01Y45500D01*
X121200Y44500D02*
G01Y45500D01*
X121300Y44500D02*
G01Y45500D01*
X121400Y44500D02*
G01Y45500D01*
X121500Y44500D02*
G01Y45500D01*
X121600Y44500D02*
G01Y45500D01*
X121700Y44500D02*
G01Y45500D01*
X121800Y44500D02*
G01Y45500D01*
X121900Y44500D02*
G01Y45500D01*
X122000Y44500D02*
G01Y45500D01*
X122100Y44500D02*
G01Y45500D01*
X122200Y44500D02*
G01Y45500D01*
X122300Y44500D02*
G01Y45500D01*
X122400Y44500D02*
G01Y45500D01*
X122500Y44500D02*
G01Y45500D01*
X122600Y44500D02*
G01Y45500D01*
X122700Y41300D02*
G01Y42300D01*
X121100*
Y41300*
X122700*
X121100D02*
G01Y42300D01*
X121200Y41300D02*
G01Y42300D01*
X121300Y41300D02*
G01Y42300D01*
X121400Y41300D02*
G01Y42300D01*
X121500Y41300D02*
G01Y42300D01*
X121600Y41300D02*
G01Y42300D01*
X121700Y41300D02*
G01Y42300D01*
X121800Y41300D02*
G01Y42300D01*
X121900Y41300D02*
G01Y42300D01*
X122000Y41300D02*
G01Y42300D01*
X122100Y41300D02*
G01Y42300D01*
X122200Y41300D02*
G01Y42300D01*
X122300Y41300D02*
G01Y42300D01*
X122400Y41300D02*
G01Y42300D01*
X122500Y41300D02*
G01Y42300D01*
X122600Y41300D02*
G01Y42300D01*
X102700Y47500D02*
G01Y48500D01*
X101100*
Y47500*
X102700*
X101100D02*
G01Y48500D01*
X101200Y47500D02*
G01Y48500D01*
X101300Y47500D02*
G01Y48500D01*
X101400Y47500D02*
G01Y48500D01*
X101500Y47500D02*
G01Y48500D01*
X101600Y47500D02*
G01Y48500D01*
X101700Y47500D02*
G01Y48500D01*
X101800Y47500D02*
G01Y48500D01*
X101900Y47500D02*
G01Y48500D01*
X102000Y47500D02*
G01Y48500D01*
X102100Y47500D02*
G01Y48500D01*
X102200Y47500D02*
G01Y48500D01*
X102300Y47500D02*
G01Y48500D01*
X102400Y47500D02*
G01Y48500D01*
X102500Y47500D02*
G01Y48500D01*
X102600Y47500D02*
G01Y48500D01*
X102700Y47500D02*
G01Y48500D01*
X101100*
Y47500*
X102700*
X101100D02*
G01Y48500D01*
X101200Y47500D02*
G01Y48500D01*
X101300Y47500D02*
G01Y48500D01*
X101400Y47500D02*
G01Y48500D01*
X101500Y47500D02*
G01Y48500D01*
X101600Y47500D02*
G01Y48500D01*
X101700Y47500D02*
G01Y48500D01*
X101800Y47500D02*
G01Y48500D01*
X101900Y47500D02*
G01Y48500D01*
X102000Y47500D02*
G01Y48500D01*
X102100Y47500D02*
G01Y48500D01*
X102200Y47500D02*
G01Y48500D01*
X102300Y47500D02*
G01Y48500D01*
X102400Y47500D02*
G01Y48500D01*
X102500Y47500D02*
G01Y48500D01*
X102600Y47500D02*
G01Y48500D01*
X102700Y44300D02*
G01Y45300D01*
X101100*
Y44300*
X102700*
X101100D02*
G01Y45300D01*
X101200Y44300D02*
G01Y45300D01*
X101300Y44300D02*
G01Y45300D01*
X101400Y44300D02*
G01Y45300D01*
X101500Y44300D02*
G01Y45300D01*
X101600Y44300D02*
G01Y45300D01*
X101700Y44300D02*
G01Y45300D01*
X101800Y44300D02*
G01Y45300D01*
X101900Y44300D02*
G01Y45300D01*
X102000Y44300D02*
G01Y45300D01*
X102100Y44300D02*
G01Y45300D01*
X102200Y44300D02*
G01Y45300D01*
X102300Y44300D02*
G01Y45300D01*
X102400Y44300D02*
G01Y45300D01*
X102500Y44300D02*
G01Y45300D01*
X102600Y44300D02*
G01Y45300D01*
X125500Y60100D02*
G01X126500D01*
Y61700*
X125500*
Y60100*
Y61700*
X125600Y60100D02*
G01Y61700D01*
X125700Y60100D02*
G01Y61700D01*
X125800Y60100D02*
G01Y61700D01*
X125900Y60100D02*
G01Y61700D01*
X126000Y60100D02*
G01Y61700D01*
X126100Y60100D02*
G01Y61700D01*
X126200Y60100D02*
G01Y61700D01*
X126300Y60100D02*
G01Y61700D01*
X126400Y60100D02*
G01Y61700D01*
X125500Y60100D02*
G01X126500D01*
Y61700*
X125500*
Y60100*
Y61700*
X125600Y60100D02*
G01Y61700D01*
X125700Y60100D02*
G01Y61700D01*
X125800Y60100D02*
G01Y61700D01*
X125900Y60100D02*
G01Y61700D01*
X126000Y60100D02*
G01Y61700D01*
X126100Y60100D02*
G01Y61700D01*
X126200Y60100D02*
G01Y61700D01*
X126300Y60100D02*
G01Y61700D01*
X126400Y60100D02*
G01Y61700D01*
X122300Y60100D02*
G01X123300D01*
Y61700*
X122300*
Y60100*
Y61700*
X122400Y60100D02*
G01Y61700D01*
X122500Y60100D02*
G01Y61700D01*
X122600Y60100D02*
G01Y61700D01*
X122700Y60100D02*
G01Y61700D01*
X122800Y60100D02*
G01Y61700D01*
X122900Y60100D02*
G01Y61700D01*
X123000Y60100D02*
G01Y61700D01*
X123100Y60100D02*
G01Y61700D01*
X123200Y60100D02*
G01Y61700D01*
X108300Y42200D02*
G01Y41500D01*
X109500*
Y42200*
X108300*
Y41500D02*
G01Y42200D01*
X108400Y41500D02*
G01Y42200D01*
X108500Y41500D02*
G01Y42200D01*
X108600Y41500D02*
G01Y42200D01*
X108700Y41500D02*
G01Y42200D01*
X108800Y41500D02*
G01Y42200D01*
X108900Y41500D02*
G01Y42200D01*
X109000Y41500D02*
G01Y42200D01*
X109100Y41500D02*
G01Y42200D01*
X109200Y41500D02*
G01Y42200D01*
X109300Y41500D02*
G01Y42200D01*
X109400Y41500D02*
G01Y42200D01*
X108300Y45300D02*
G01Y44600D01*
X109500*
Y45300*
X108300*
Y44600D02*
G01Y45300D01*
X108400Y44600D02*
G01Y45300D01*
X108500Y44600D02*
G01Y45300D01*
X108600Y44600D02*
G01Y45300D01*
X108700Y44600D02*
G01Y45300D01*
X108800Y44600D02*
G01Y45300D01*
X108900Y44600D02*
G01Y45300D01*
X109000Y44600D02*
G01Y45300D01*
X109100Y44600D02*
G01Y45300D01*
X109200Y44600D02*
G01Y45300D01*
X109300Y44600D02*
G01Y45300D01*
X109400Y44600D02*
G01Y45300D01*
X118800Y42200D02*
G01Y41500D01*
X120000*
Y42200*
X118800*
Y41500D02*
G01Y42200D01*
X118900Y41500D02*
G01Y42200D01*
X119000Y41500D02*
G01Y42200D01*
X119100Y41500D02*
G01Y42200D01*
X119200Y41500D02*
G01Y42200D01*
X119300Y41500D02*
G01Y42200D01*
X119400Y41500D02*
G01Y42200D01*
X119500Y41500D02*
G01Y42200D01*
X119600Y41500D02*
G01Y42200D01*
X119700Y41500D02*
G01Y42200D01*
X119800Y41500D02*
G01Y42200D01*
X119900Y41500D02*
G01Y42200D01*
X118800Y45300D02*
G01Y44600D01*
X120000*
Y45300*
X118800*
Y44600D02*
G01Y45300D01*
X118900Y44600D02*
G01Y45300D01*
X119000Y44600D02*
G01Y45300D01*
X119100Y44600D02*
G01Y45300D01*
X119200Y44600D02*
G01Y45300D01*
X119300Y44600D02*
G01Y45300D01*
X119400Y44600D02*
G01Y45300D01*
X119500Y44600D02*
G01Y45300D01*
X119600Y44600D02*
G01Y45300D01*
X119700Y44600D02*
G01Y45300D01*
X119800Y44600D02*
G01Y45300D01*
X119900Y44600D02*
G01Y45300D01*
X172200Y44500D02*
G01Y45500D01*
X170600*
Y44500*
X172200*
X170600D02*
G01Y45500D01*
X170700Y44500D02*
G01Y45500D01*
X170800Y44500D02*
G01Y45500D01*
X170900Y44500D02*
G01Y45500D01*
X171000Y44500D02*
G01Y45500D01*
X171100Y44500D02*
G01Y45500D01*
X171200Y44500D02*
G01Y45500D01*
X171300Y44500D02*
G01Y45500D01*
X171400Y44500D02*
G01Y45500D01*
X171500Y44500D02*
G01Y45500D01*
X171600Y44500D02*
G01Y45500D01*
X171700Y44500D02*
G01Y45500D01*
X171800Y44500D02*
G01Y45500D01*
X171900Y44500D02*
G01Y45500D01*
X172000Y44500D02*
G01Y45500D01*
X172100Y44500D02*
G01Y45500D01*
X172200Y44500D02*
G01Y45500D01*
X170600*
Y44500*
X172200*
X170600D02*
G01Y45500D01*
X170700Y44500D02*
G01Y45500D01*
X170800Y44500D02*
G01Y45500D01*
X170900Y44500D02*
G01Y45500D01*
X171000Y44500D02*
G01Y45500D01*
X171100Y44500D02*
G01Y45500D01*
X171200Y44500D02*
G01Y45500D01*
X171300Y44500D02*
G01Y45500D01*
X171400Y44500D02*
G01Y45500D01*
X171500Y44500D02*
G01Y45500D01*
X171600Y44500D02*
G01Y45500D01*
X171700Y44500D02*
G01Y45500D01*
X171800Y44500D02*
G01Y45500D01*
X171900Y44500D02*
G01Y45500D01*
X172000Y44500D02*
G01Y45500D01*
X172100Y44500D02*
G01Y45500D01*
X172200Y41300D02*
G01Y42300D01*
X170600*
Y41300*
X172200*
X170600D02*
G01Y42300D01*
X170700Y41300D02*
G01Y42300D01*
X170800Y41300D02*
G01Y42300D01*
X170900Y41300D02*
G01Y42300D01*
X171000Y41300D02*
G01Y42300D01*
X171100Y41300D02*
G01Y42300D01*
X171200Y41300D02*
G01Y42300D01*
X171300Y41300D02*
G01Y42300D01*
X171400Y41300D02*
G01Y42300D01*
X171500Y41300D02*
G01Y42300D01*
X171600Y41300D02*
G01Y42300D01*
X171700Y41300D02*
G01Y42300D01*
X171800Y41300D02*
G01Y42300D01*
X171900Y41300D02*
G01Y42300D01*
X172000Y41300D02*
G01Y42300D01*
X172100Y41300D02*
G01Y42300D01*
X182700Y44500D02*
G01Y45500D01*
X181100*
Y44500*
X182700*
X181100D02*
G01Y45500D01*
X181200Y44500D02*
G01Y45500D01*
X181300Y44500D02*
G01Y45500D01*
X181400Y44500D02*
G01Y45500D01*
X181500Y44500D02*
G01Y45500D01*
X181600Y44500D02*
G01Y45500D01*
X181700Y44500D02*
G01Y45500D01*
X181800Y44500D02*
G01Y45500D01*
X181900Y44500D02*
G01Y45500D01*
X182000Y44500D02*
G01Y45500D01*
X182100Y44500D02*
G01Y45500D01*
X182200Y44500D02*
G01Y45500D01*
X182300Y44500D02*
G01Y45500D01*
X182400Y44500D02*
G01Y45500D01*
X182500Y44500D02*
G01Y45500D01*
X182600Y44500D02*
G01Y45500D01*
X182700Y44500D02*
G01Y45500D01*
X181100*
Y44500*
X182700*
X181100D02*
G01Y45500D01*
X181200Y44500D02*
G01Y45500D01*
X181300Y44500D02*
G01Y45500D01*
X181400Y44500D02*
G01Y45500D01*
X181500Y44500D02*
G01Y45500D01*
X181600Y44500D02*
G01Y45500D01*
X181700Y44500D02*
G01Y45500D01*
X181800Y44500D02*
G01Y45500D01*
X181900Y44500D02*
G01Y45500D01*
X182000Y44500D02*
G01Y45500D01*
X182100Y44500D02*
G01Y45500D01*
X182200Y44500D02*
G01Y45500D01*
X182300Y44500D02*
G01Y45500D01*
X182400Y44500D02*
G01Y45500D01*
X182500Y44500D02*
G01Y45500D01*
X182600Y44500D02*
G01Y45500D01*
X182700Y41300D02*
G01Y42300D01*
X181100*
Y41300*
X182700*
X181100D02*
G01Y42300D01*
X181200Y41300D02*
G01Y42300D01*
X181300Y41300D02*
G01Y42300D01*
X181400Y41300D02*
G01Y42300D01*
X181500Y41300D02*
G01Y42300D01*
X181600Y41300D02*
G01Y42300D01*
X181700Y41300D02*
G01Y42300D01*
X181800Y41300D02*
G01Y42300D01*
X181900Y41300D02*
G01Y42300D01*
X182000Y41300D02*
G01Y42300D01*
X182100Y41300D02*
G01Y42300D01*
X182200Y41300D02*
G01Y42300D01*
X182300Y41300D02*
G01Y42300D01*
X182400Y41300D02*
G01Y42300D01*
X182500Y41300D02*
G01Y42300D01*
X182600Y41300D02*
G01Y42300D01*
X162700Y47500D02*
G01Y48500D01*
X161100*
Y47500*
X162700*
X161100D02*
G01Y48500D01*
X161200Y47500D02*
G01Y48500D01*
X161300Y47500D02*
G01Y48500D01*
X161400Y47500D02*
G01Y48500D01*
X161500Y47500D02*
G01Y48500D01*
X161600Y47500D02*
G01Y48500D01*
X161700Y47500D02*
G01Y48500D01*
X161800Y47500D02*
G01Y48500D01*
X161900Y47500D02*
G01Y48500D01*
X162000Y47500D02*
G01Y48500D01*
X162100Y47500D02*
G01Y48500D01*
X162200Y47500D02*
G01Y48500D01*
X162300Y47500D02*
G01Y48500D01*
X162400Y47500D02*
G01Y48500D01*
X162500Y47500D02*
G01Y48500D01*
X162600Y47500D02*
G01Y48500D01*
X162700Y47500D02*
G01Y48500D01*
X161100*
Y47500*
X162700*
X161100D02*
G01Y48500D01*
X161200Y47500D02*
G01Y48500D01*
X161300Y47500D02*
G01Y48500D01*
X161400Y47500D02*
G01Y48500D01*
X161500Y47500D02*
G01Y48500D01*
X161600Y47500D02*
G01Y48500D01*
X161700Y47500D02*
G01Y48500D01*
X161800Y47500D02*
G01Y48500D01*
X161900Y47500D02*
G01Y48500D01*
X162000Y47500D02*
G01Y48500D01*
X162100Y47500D02*
G01Y48500D01*
X162200Y47500D02*
G01Y48500D01*
X162300Y47500D02*
G01Y48500D01*
X162400Y47500D02*
G01Y48500D01*
X162500Y47500D02*
G01Y48500D01*
X162600Y47500D02*
G01Y48500D01*
X162700Y44300D02*
G01Y45300D01*
X161100*
Y44300*
X162700*
X161100D02*
G01Y45300D01*
X161200Y44300D02*
G01Y45300D01*
X161300Y44300D02*
G01Y45300D01*
X161400Y44300D02*
G01Y45300D01*
X161500Y44300D02*
G01Y45300D01*
X161600Y44300D02*
G01Y45300D01*
X161700Y44300D02*
G01Y45300D01*
X161800Y44300D02*
G01Y45300D01*
X161900Y44300D02*
G01Y45300D01*
X162000Y44300D02*
G01Y45300D01*
X162100Y44300D02*
G01Y45300D01*
X162200Y44300D02*
G01Y45300D01*
X162300Y44300D02*
G01Y45300D01*
X162400Y44300D02*
G01Y45300D01*
X162500Y44300D02*
G01Y45300D01*
X162600Y44300D02*
G01Y45300D01*
X185500Y60100D02*
G01X186500D01*
Y61700*
X185500*
Y60100*
Y61700*
X185600Y60100D02*
G01Y61700D01*
X185700Y60100D02*
G01Y61700D01*
X185800Y60100D02*
G01Y61700D01*
X185900Y60100D02*
G01Y61700D01*
X186000Y60100D02*
G01Y61700D01*
X186100Y60100D02*
G01Y61700D01*
X186200Y60100D02*
G01Y61700D01*
X186300Y60100D02*
G01Y61700D01*
X186400Y60100D02*
G01Y61700D01*
X185500Y60100D02*
G01X186500D01*
Y61700*
X185500*
Y60100*
Y61700*
X185600Y60100D02*
G01Y61700D01*
X185700Y60100D02*
G01Y61700D01*
X185800Y60100D02*
G01Y61700D01*
X185900Y60100D02*
G01Y61700D01*
X186000Y60100D02*
G01Y61700D01*
X186100Y60100D02*
G01Y61700D01*
X186200Y60100D02*
G01Y61700D01*
X186300Y60100D02*
G01Y61700D01*
X186400Y60100D02*
G01Y61700D01*
X182300Y60100D02*
G01X183300D01*
Y61700*
X182300*
Y60100*
Y61700*
X182400Y60100D02*
G01Y61700D01*
X182500Y60100D02*
G01Y61700D01*
X182600Y60100D02*
G01Y61700D01*
X182700Y60100D02*
G01Y61700D01*
X182800Y60100D02*
G01Y61700D01*
X182900Y60100D02*
G01Y61700D01*
X183000Y60100D02*
G01Y61700D01*
X183100Y60100D02*
G01Y61700D01*
X183200Y60100D02*
G01Y61700D01*
X168300Y42200D02*
G01Y41500D01*
X169500*
Y42200*
X168300*
Y41500D02*
G01Y42200D01*
X168400Y41500D02*
G01Y42200D01*
X168500Y41500D02*
G01Y42200D01*
X168600Y41500D02*
G01Y42200D01*
X168700Y41500D02*
G01Y42200D01*
X168800Y41500D02*
G01Y42200D01*
X168900Y41500D02*
G01Y42200D01*
X169000Y41500D02*
G01Y42200D01*
X169100Y41500D02*
G01Y42200D01*
X169200Y41500D02*
G01Y42200D01*
X169300Y41500D02*
G01Y42200D01*
X169400Y41500D02*
G01Y42200D01*
X168300Y45300D02*
G01Y44600D01*
X169500*
Y45300*
X168300*
Y44600D02*
G01Y45300D01*
X168400Y44600D02*
G01Y45300D01*
X168500Y44600D02*
G01Y45300D01*
X168600Y44600D02*
G01Y45300D01*
X168700Y44600D02*
G01Y45300D01*
X168800Y44600D02*
G01Y45300D01*
X168900Y44600D02*
G01Y45300D01*
X169000Y44600D02*
G01Y45300D01*
X169100Y44600D02*
G01Y45300D01*
X169200Y44600D02*
G01Y45300D01*
X169300Y44600D02*
G01Y45300D01*
X169400Y44600D02*
G01Y45300D01*
X178800Y42200D02*
G01Y41500D01*
X180000*
Y42200*
X178800*
Y41500D02*
G01Y42200D01*
X178900Y41500D02*
G01Y42200D01*
X179000Y41500D02*
G01Y42200D01*
X179100Y41500D02*
G01Y42200D01*
X179200Y41500D02*
G01Y42200D01*
X179300Y41500D02*
G01Y42200D01*
X179400Y41500D02*
G01Y42200D01*
X179500Y41500D02*
G01Y42200D01*
X179600Y41500D02*
G01Y42200D01*
X179700Y41500D02*
G01Y42200D01*
X179800Y41500D02*
G01Y42200D01*
X179900Y41500D02*
G01Y42200D01*
X178800Y45300D02*
G01Y44600D01*
X180000*
Y45300*
X178800*
Y44600D02*
G01Y45300D01*
X178900Y44600D02*
G01Y45300D01*
X179000Y44600D02*
G01Y45300D01*
X179100Y44600D02*
G01Y45300D01*
X179200Y44600D02*
G01Y45300D01*
X179300Y44600D02*
G01Y45300D01*
X179400Y44600D02*
G01Y45300D01*
X179500Y44600D02*
G01Y45300D01*
X179600Y44600D02*
G01Y45300D01*
X179700Y44600D02*
G01Y45300D01*
X179800Y44600D02*
G01Y45300D01*
X179900Y44600D02*
G01Y45300D01*
X25400Y25400D02*
G01X85400D01*
Y85400*
X25400*
Y25400*
X85400D02*
G01X145400D01*
Y85400*
X85400*
Y25400*
X145400D02*
G01X205400D01*
Y85400*
X145400*
Y25400*
X25400D02*
G01X205400D01*
Y15400*
X25400*
Y25400*
X205400Y85400D02*
G01X25400D01*
Y95400*
X205400*
Y85400*
M02*
