M48
; DRILL file {KiCad 9.0.1} date 2025-05-14T16:36:08-0500
; FORMAT={-:-/ absolute / metric / decimal}
; #@! TF.CreationDate,2025-05-14T16:36:08-05:00
; #@! TF.GenerationSoftware,Kicad,Pcbnew,9.0.1
; #@! TF.FileFunction,Plated,1,2,PTH
FMAT,2
METRIC
; #@! TA.AperFunction,Plated,PTH,ViaDrill
T1C0.400
; #@! TA.AperFunction,Plated,PTH,ComponentDrill
T2C0.650
; #@! TA.AperFunction,Plated,PTH,ComponentDrill
T3C0.750
; #@! TA.AperFunction,Plated,PTH,ComponentDrill
T4C1.000
%
G90
G05
T1
X12.2Y89.07
X12.2Y34.27
X12.52Y114.5
X12.52Y59.7
X13.49Y89.24
X13.49Y34.44
X15.3Y108.34
X15.3Y91.24
X15.3Y74.14
X15.3Y53.54
X15.3Y36.44
X15.3Y19.34
X16.47Y105.5
X16.47Y88.4
X16.47Y71.3
X16.47Y50.7
X16.47Y33.6
X16.47Y16.5
X16.48Y111.19
X16.48Y94.09
X16.48Y76.99
X16.48Y56.39
X16.48Y39.29
X16.48Y22.19
X19.31Y112.34
X19.31Y104.34
X19.31Y95.24
X19.31Y87.24
X19.31Y70.14
X19.31Y57.54
X19.31Y49.54
X19.31Y40.44
X19.31Y32.44
X19.31Y15.34
X19.41Y78.0
X19.41Y23.2
X21.59Y99.335
X21.59Y44.535
X21.921Y76.661
X21.921Y21.861
X21.985Y100.67
X21.985Y45.87
X22.138Y111.168
X22.138Y105.512
X22.138Y94.068
X22.138Y88.412
X22.138Y71.312
X22.138Y56.368
X22.138Y50.712
X22.138Y39.268
X22.138Y33.612
X22.138Y16.512
X22.67Y98.94
X22.67Y44.14
X23.12Y74.06
X23.12Y19.26
X23.25Y91.24
X23.25Y36.44
X23.3Y108.34
X23.3Y53.54
X23.952Y99.061
X23.952Y44.261
X24.967Y84.9
X24.967Y82.88
X24.967Y30.1
X24.967Y28.08
X25.137Y99.103
X25.137Y44.303
X25.965Y105.89
X25.965Y51.09
X26.46Y93.9
X26.46Y39.1
X27.69Y100.48
X27.69Y45.68
X28.395Y114.44
X28.395Y59.64
X28.67Y90.845
X28.67Y36.045
X29.075Y99.06
X29.075Y44.26
X29.085Y106.38
X29.085Y51.58
X29.89Y95.21
X29.89Y40.41
X29.97Y91.1
X29.97Y36.3
X30.108Y92.402
X30.108Y37.602
X30.692Y80.48
X30.692Y25.68
X31.095Y102.76
X31.095Y47.96
X31.315Y105.04
X31.315Y50.24
X32.095Y96.674
X32.095Y41.874
X33.107Y97.663
X33.107Y42.863
X33.485Y85.79
X33.485Y30.99
X33.9Y91.24
X33.9Y74.14
X33.9Y36.44
X33.9Y19.34
X33.96Y108.04
X33.96Y53.24
X34.167Y98.723
X34.167Y43.923
X34.88Y110.82
X34.88Y56.02
X35.07Y88.4
X35.07Y71.3
X35.07Y33.6
X35.07Y16.5
X35.08Y94.09
X35.08Y76.99
X35.08Y39.29
X35.08Y22.19
X35.2Y105.39
X35.2Y50.59
X35.292Y99.848
X35.292Y45.048
X37.77Y104.34
X37.77Y49.54
X37.83Y112.3
X37.83Y57.5
X37.91Y95.24
X37.91Y87.24
X37.91Y70.14
X37.91Y40.44
X37.91Y32.44
X37.91Y15.34
X37.96Y78.41
X37.96Y23.61
X40.56Y105.42
X40.56Y50.62
X40.738Y94.068
X40.738Y88.412
X40.738Y76.968
X40.738Y71.312
X40.738Y39.268
X40.738Y33.612
X40.738Y22.168
X40.738Y16.512
X41.11Y110.66
X41.11Y55.86
X41.383Y78.517
X41.383Y23.717
X41.89Y108.01
X41.89Y53.21
X41.9Y91.24
X41.9Y74.14
X41.9Y36.44
X41.9Y19.34
X43.035Y77.035
X43.035Y22.235
X43.855Y81.854
X43.855Y27.054
X51.4Y89.07
X51.4Y34.27
X51.72Y114.5
X51.72Y59.7
X52.69Y89.24
X52.69Y34.44
X54.5Y108.34
X54.5Y91.24
X54.5Y74.14
X54.5Y53.54
X54.5Y36.44
X54.5Y19.34
X55.67Y105.5
X55.67Y88.4
X55.67Y71.3
X55.67Y50.7
X55.67Y33.6
X55.67Y16.5
X55.68Y111.19
X55.68Y94.09
X55.68Y76.99
X55.68Y56.39
X55.68Y39.29
X55.68Y22.19
X58.51Y112.34
X58.51Y104.34
X58.51Y95.24
X58.51Y87.24
X58.51Y70.14
X58.51Y57.54
X58.51Y49.54
X58.51Y40.44
X58.51Y32.44
X58.51Y15.34
X58.61Y78.0
X58.61Y23.2
X60.79Y99.335
X60.79Y44.535
X61.121Y76.661
X61.121Y21.861
X61.185Y100.67
X61.185Y45.87
X61.338Y111.168
X61.338Y105.512
X61.338Y94.068
X61.338Y88.412
X61.338Y71.312
X61.338Y56.368
X61.338Y50.712
X61.338Y39.268
X61.338Y33.612
X61.338Y16.512
X61.87Y98.94
X61.87Y44.14
X62.32Y74.06
X62.32Y19.26
X62.45Y91.24
X62.45Y36.44
X62.5Y108.34
X62.5Y53.54
X63.152Y99.061
X63.152Y44.261
X64.168Y84.9
X64.168Y82.88
X64.168Y30.1
X64.168Y28.08
X64.337Y99.103
X64.337Y44.303
X65.165Y105.89
X65.165Y51.09
X65.66Y93.9
X65.66Y39.1
X66.89Y100.48
X66.89Y45.68
X67.595Y114.44
X67.595Y59.64
X67.87Y90.845
X67.87Y36.045
X68.275Y99.06
X68.275Y44.26
X68.285Y106.38
X68.285Y51.58
X69.09Y95.21
X69.09Y40.41
X69.17Y91.1
X69.17Y36.3
X69.308Y92.402
X69.308Y37.602
X69.892Y80.48
X69.892Y25.68
X70.295Y102.76
X70.295Y47.96
X70.515Y105.04
X70.515Y50.24
X71.295Y96.674
X71.295Y41.874
X72.307Y97.663
X72.307Y42.863
X72.685Y85.79
X72.685Y30.99
X73.1Y91.24
X73.1Y74.14
X73.1Y36.44
X73.1Y19.34
X73.16Y108.04
X73.16Y53.24
X73.367Y98.723
X73.367Y43.923
X74.08Y110.82
X74.08Y56.02
X74.27Y88.4
X74.27Y71.3
X74.27Y33.6
X74.27Y16.5
X74.28Y94.09
X74.28Y76.99
X74.28Y39.29
X74.28Y22.19
X74.4Y105.39
X74.4Y50.59
X74.492Y99.848
X74.492Y45.048
X76.97Y104.34
X76.97Y49.54
X77.03Y112.3
X77.03Y57.5
X77.11Y95.24
X77.11Y87.24
X77.11Y70.14
X77.11Y40.44
X77.11Y32.44
X77.11Y15.34
X77.16Y78.41
X77.16Y23.61
X79.76Y105.42
X79.76Y50.62
X79.938Y94.068
X79.938Y88.412
X79.938Y76.968
X79.938Y71.312
X79.938Y39.268
X79.938Y33.612
X79.938Y22.168
X79.938Y16.512
X80.31Y110.66
X80.31Y55.86
X80.583Y78.517
X80.583Y23.717
X81.09Y108.01
X81.09Y53.21
X81.1Y91.24
X81.1Y74.14
X81.1Y36.44
X81.1Y19.34
X82.235Y77.035
X82.235Y22.235
X83.055Y81.854
X83.055Y27.054
T2
X25.79Y108.915
X25.79Y107.645
X25.79Y54.115
X25.79Y52.845
X27.06Y108.915
X27.06Y107.645
X27.06Y54.115
X27.06Y52.845
X28.33Y108.915
X28.33Y107.645
X28.33Y54.115
X28.33Y52.845
X29.6Y108.915
X29.6Y107.645
X29.6Y54.115
X29.6Y52.845
X30.87Y108.915
X30.87Y107.645
X30.87Y54.115
X30.87Y52.845
X64.99Y108.915
X64.99Y107.645
X64.99Y54.115
X64.99Y52.845
X66.26Y108.915
X66.26Y107.645
X66.26Y54.115
X66.26Y52.845
X67.53Y108.915
X67.53Y107.645
X67.53Y54.115
X67.53Y52.845
X68.8Y108.915
X68.8Y107.645
X68.8Y54.115
X68.8Y52.845
X70.07Y108.915
X70.07Y107.645
X70.07Y54.115
X70.07Y52.845
T3
X18.15Y81.04
X18.15Y79.04
X18.15Y26.24
X18.15Y24.24
X18.43Y101.64
X18.43Y99.64
X18.43Y97.64
X18.43Y46.84
X18.43Y44.84
X18.43Y42.84
X26.6Y71.99
X26.6Y17.19
X28.6Y71.99
X28.6Y17.19
X30.6Y71.99
X30.6Y17.19
X39.03Y101.85
X39.03Y99.85
X39.03Y97.85
X39.03Y47.05
X39.03Y45.05
X39.03Y43.05
X57.35Y81.04
X57.35Y79.04
X57.35Y26.24
X57.35Y24.24
X57.63Y101.64
X57.63Y99.64
X57.63Y97.64
X57.63Y46.84
X57.63Y44.84
X57.63Y42.84
X65.8Y71.99
X65.8Y17.19
X67.8Y71.99
X67.8Y17.19
X69.8Y71.99
X69.8Y17.19
X78.23Y101.85
X78.23Y99.85
X78.23Y97.85
X78.23Y47.05
X78.23Y45.05
X78.23Y43.05
T4
X12.815Y87.27
X12.815Y84.73
X12.815Y32.47
X12.815Y29.93
X12.83Y67.63
X12.83Y12.83
X15.37Y67.63
X15.37Y12.83
X18.04Y114.76
X18.04Y84.72
X18.04Y59.96
X18.04Y29.92
X20.58Y114.76
X20.58Y84.72
X20.58Y59.96
X20.58Y29.92
X36.64Y114.76
X36.64Y84.72
X36.64Y59.96
X36.64Y29.92
X39.18Y114.76
X39.18Y84.72
X39.18Y59.96
X39.18Y29.92
X41.83Y67.635
X41.83Y12.835
X44.37Y87.27
X44.37Y84.73
X44.37Y67.635
X44.37Y32.47
X44.37Y29.93
X44.37Y12.835
X52.015Y87.27
X52.015Y84.73
X52.015Y32.47
X52.015Y29.93
X52.03Y67.63
X52.03Y12.83
X54.57Y67.63
X54.57Y12.83
X57.24Y114.76
X57.24Y84.72
X57.24Y59.96
X57.24Y29.92
X59.78Y114.76
X59.78Y84.72
X59.78Y59.96
X59.78Y29.92
X75.84Y114.76
X75.84Y84.72
X75.84Y59.96
X75.84Y29.92
X78.38Y114.76
X78.38Y84.72
X78.38Y59.96
X78.38Y29.92
X81.03Y67.635
X81.03Y12.835
X83.57Y87.27
X83.57Y84.73
X83.57Y67.635
X83.57Y32.47
X83.57Y29.93
X83.57Y12.835
M30
