%TF.GenerationSoftware,KiCad,Pcbnew,9.0.1*%
%TF.CreationDate,2025-05-14T16:36:13-05:00*%
%TF.ProjectId,Bottom_layer_Panel,426f7474-6f6d-45f6-9c61-7965725f5061,rev?*%
%TF.SameCoordinates,PX5fa74e0PY8cc3280*%
%TF.FileFunction,Profile,NP*%
%FSLAX46Y46*%
G04 Gerber Fmt 4.6, Leading zero omitted, Abs format (unit mm)*
G04 Created by KiCad (PCBNEW 9.0.1) date 2025-05-14 16:36:13*
%MOMM*%
%LPD*%
G01*
G04 APERTURE LIST*
%TA.AperFunction,Profile*%
%ADD10C,0.100000*%
%TD*%
G04 APERTURE END LIST*
D10*
X60100000Y119600000D02*
X60100000Y117600000D01*
X36300000Y119600000D02*
X60100000Y119600000D01*
X75500000Y64800000D02*
X86400000Y64800000D01*
X8000000Y80900000D02*
X10000000Y80900000D01*
X47200000Y80900000D02*
X48199000Y80900000D01*
X86400000Y29100000D02*
X86400000Y43700000D01*
X10000000Y29100000D02*
X8000000Y29100000D01*
X33300000Y63801000D02*
X33300000Y63799000D01*
X8000000Y119600000D02*
X20900000Y119600000D01*
X47200000Y46700000D02*
X47200000Y62800000D01*
X63100000Y64800000D02*
X72500000Y64800000D01*
X36300000Y63801000D02*
X36300000Y64800000D01*
X0Y0D02*
X96400000Y0D01*
X47200000Y83900000D02*
X47200000Y98500000D01*
X20900000Y64800000D02*
X20900000Y63801000D01*
X48199000Y80900000D02*
X48201000Y80900000D01*
X86400000Y83900000D02*
X86400000Y98500000D01*
X10000000Y26100000D02*
X10000000Y10000000D01*
X8000000Y43700000D02*
X10000000Y43700000D01*
X10000000Y117600000D02*
X10000000Y101500000D01*
X10000000Y46700000D02*
X8000000Y46700000D01*
X86400000Y117600000D02*
X75500000Y117600000D01*
X0Y127600000D02*
X0Y0D01*
X47200000Y98500000D02*
X48199000Y98500000D01*
X23900000Y117600000D02*
X23900000Y119600000D01*
X60100000Y64800000D02*
X60100000Y63801000D01*
X47200000Y62800000D02*
X36300000Y62800000D01*
X47200000Y64800000D02*
X47200000Y80900000D01*
X86400000Y80900000D02*
X88400000Y80900000D01*
X10000000Y62800000D02*
X10000000Y46700000D01*
X86400000Y101500000D02*
X86400000Y117600000D01*
X48201000Y43700000D02*
X49200000Y43700000D01*
X23900000Y62800000D02*
X23900000Y63799000D01*
X72500000Y119600000D02*
X72500000Y117600000D01*
X49200000Y62800000D02*
X49200000Y46700000D01*
X48199000Y83900000D02*
X47200000Y83900000D01*
X72500000Y10000000D02*
X72500000Y8000000D01*
X49200000Y98500000D02*
X49200000Y83900000D01*
X23900000Y63801000D02*
X23900000Y64800000D01*
X88400000Y46700000D02*
X86400000Y46700000D01*
X48199000Y26100000D02*
X48201000Y26100000D01*
X49200000Y26100000D02*
X49200000Y10000000D01*
X23900000Y10000000D02*
X33300000Y10000000D01*
X60100000Y62800000D02*
X49200000Y62800000D01*
X48199000Y101500000D02*
X47200000Y101500000D01*
X88400000Y80900000D02*
X88400000Y46700000D01*
X75500000Y119600000D02*
X88400000Y119600000D01*
X88400000Y43700000D02*
X88400000Y29100000D01*
X72500000Y63799000D02*
X72500000Y62800000D01*
X33300000Y64800000D02*
X33300000Y63801000D01*
X75500000Y10000000D02*
X86400000Y10000000D01*
X20900000Y63801000D02*
X20900000Y63799000D01*
X33300000Y119600000D02*
X33300000Y117600000D01*
X72500000Y62800000D02*
X63100000Y62800000D01*
X86400000Y10000000D02*
X86400000Y26100000D01*
X36300000Y63799000D02*
X36300000Y63801000D01*
X86400000Y62800000D02*
X75500000Y62800000D01*
X48201000Y98500000D02*
X49200000Y98500000D01*
X63100000Y63801000D02*
X63100000Y64800000D01*
X86400000Y46700000D02*
X86400000Y62800000D01*
X72500000Y117600000D02*
X63100000Y117600000D01*
X75500000Y63799000D02*
X75500000Y63801000D01*
X96400000Y127600000D02*
X0Y127600000D01*
X49200000Y43700000D02*
X49200000Y29100000D01*
X86400000Y98500000D02*
X88400000Y98500000D01*
X47200000Y10000000D02*
X47200000Y26100000D01*
X8000000Y83900000D02*
X8000000Y98500000D01*
X48201000Y29100000D02*
X48199000Y29100000D01*
X36300000Y117600000D02*
X36300000Y119600000D01*
X60100000Y10000000D02*
X60100000Y8000000D01*
X36300000Y64800000D02*
X47200000Y64800000D01*
X20900000Y63799000D02*
X20900000Y62800000D01*
X33300000Y63799000D02*
X33300000Y62800000D01*
X33300000Y117600000D02*
X23900000Y117600000D01*
X88400000Y8000000D02*
X75500000Y8000000D01*
X8000000Y8000000D02*
X8000000Y26100000D01*
X23900000Y119600000D02*
X33300000Y119600000D01*
X47200000Y101500000D02*
X47200000Y117600000D01*
X60100000Y117600000D02*
X49200000Y117600000D01*
X86400000Y26100000D02*
X88400000Y26100000D01*
X60100000Y63799000D02*
X60100000Y62800000D01*
X10000000Y64800000D02*
X20900000Y64800000D01*
X33300000Y10000000D02*
X33300000Y8000000D01*
X88400000Y119600000D02*
X88400000Y101500000D01*
X23900000Y64800000D02*
X33300000Y64800000D01*
X8000000Y46700000D02*
X8000000Y80900000D01*
X88400000Y26100000D02*
X88400000Y8000000D01*
X33300000Y8000000D02*
X23900000Y8000000D01*
X63100000Y8000000D02*
X63100000Y10000000D01*
X49200000Y64800000D02*
X60100000Y64800000D01*
X36300000Y8000000D02*
X36300000Y10000000D01*
X48199000Y29100000D02*
X47200000Y29100000D01*
X49200000Y46700000D02*
X48201000Y46700000D01*
X48201000Y101500000D02*
X48199000Y101500000D01*
X49200000Y29100000D02*
X48201000Y29100000D01*
X47200000Y26100000D02*
X48199000Y26100000D01*
X10000000Y101500000D02*
X8000000Y101500000D01*
X23900000Y8000000D02*
X23900000Y10000000D01*
X63100000Y63799000D02*
X63100000Y63801000D01*
X10000000Y83900000D02*
X8000000Y83900000D01*
X86400000Y43700000D02*
X88400000Y43700000D01*
X20900000Y8000000D02*
X8000000Y8000000D01*
X88400000Y101500000D02*
X86400000Y101500000D01*
X75500000Y8000000D02*
X75500000Y10000000D01*
X47200000Y43700000D02*
X48199000Y43700000D01*
X10000000Y10000000D02*
X20900000Y10000000D01*
X48201000Y83900000D02*
X48199000Y83900000D01*
X60100000Y8000000D02*
X36300000Y8000000D01*
X72500000Y8000000D02*
X63100000Y8000000D01*
X8000000Y101500000D02*
X8000000Y119600000D01*
X63100000Y117600000D02*
X63100000Y119600000D01*
X48199000Y46700000D02*
X47200000Y46700000D01*
X48201000Y46700000D02*
X48199000Y46700000D01*
X23900000Y63799000D02*
X23900000Y63801000D01*
X49200000Y83900000D02*
X48201000Y83900000D01*
X48201000Y26100000D02*
X49200000Y26100000D01*
X60100000Y63801000D02*
X60100000Y63799000D01*
X63100000Y119600000D02*
X72500000Y119600000D01*
X33300000Y62800000D02*
X23900000Y62800000D01*
X8000000Y29100000D02*
X8000000Y43700000D01*
X20900000Y62800000D02*
X10000000Y62800000D01*
X49200000Y117600000D02*
X49200000Y101500000D01*
X88400000Y83900000D02*
X86400000Y83900000D01*
X8000000Y26100000D02*
X10000000Y26100000D01*
X75500000Y62800000D02*
X75500000Y63799000D01*
X20900000Y10000000D02*
X20900000Y8000000D01*
X20900000Y119600000D02*
X20900000Y117600000D01*
X10000000Y98500000D02*
X10000000Y83900000D01*
X10000000Y80900000D02*
X10000000Y64800000D01*
X86400000Y64800000D02*
X86400000Y80900000D01*
X48199000Y98500000D02*
X48201000Y98500000D01*
X72500000Y63801000D02*
X72500000Y63799000D01*
X96400000Y0D02*
X96400000Y127600000D01*
X72500000Y64800000D02*
X72500000Y63801000D01*
X75500000Y63801000D02*
X75500000Y64800000D01*
X47200000Y117600000D02*
X36300000Y117600000D01*
X75500000Y117600000D02*
X75500000Y119600000D01*
X48201000Y80900000D02*
X49200000Y80900000D01*
X36300000Y10000000D02*
X47200000Y10000000D01*
X8000000Y98500000D02*
X10000000Y98500000D01*
X63100000Y62800000D02*
X63100000Y63799000D01*
X10000000Y43700000D02*
X10000000Y29100000D01*
X88400000Y29100000D02*
X86400000Y29100000D01*
X63100000Y10000000D02*
X72500000Y10000000D01*
X88400000Y98500000D02*
X88400000Y83900000D01*
X36300000Y62800000D02*
X36300000Y63799000D01*
X48199000Y43700000D02*
X48201000Y43700000D01*
X49200000Y80900000D02*
X49200000Y64800000D01*
X47200000Y29100000D02*
X47200000Y43700000D01*
X49200000Y10000000D02*
X60100000Y10000000D01*
X49200000Y101500000D02*
X48201000Y101500000D01*
X20900000Y117600000D02*
X10000000Y117600000D01*
M02*
