%TF.GenerationSoftware,KiCad,Pcbnew,9.0.1*%
%TF.CreationDate,2025-05-14T16:36:13-05:00*%
%TF.ProjectId,Bottom_layer_Panel,426f7474-6f6d-45f6-9c61-7965725f5061,rev?*%
%TF.SameCoordinates,PX5fa74e0PY8cc3280*%
%TF.FileFunction,Soldermask,Top*%
%TF.FilePolarity,Negative*%
%FSLAX46Y46*%
G04 Gerber Fmt 4.6, Leading zero omitted, Abs format (unit mm)*
G04 Created by KiCad (PCBNEW 9.0.1) date 2025-05-14 16:36:13*
%MOMM*%
%LPD*%
G01*
G04 APERTURE LIST*
G04 Aperture macros list*
%AMRoundRect*
0 Rectangle with rounded corners*
0 $1 Rounding radius*
0 $2 $3 $4 $5 $6 $7 $8 $9 X,Y pos of 4 corners*
0 Add a 4 corners polygon primitive as box body*
4,1,4,$2,$3,$4,$5,$6,$7,$8,$9,$2,$3,0*
0 Add four circle primitives for the rounded corners*
1,1,$1+$1,$2,$3*
1,1,$1+$1,$4,$5*
1,1,$1+$1,$6,$7*
1,1,$1+$1,$8,$9*
0 Add four rect primitives between the rounded corners*
20,1,$1+$1,$2,$3,$4,$5,0*
20,1,$1+$1,$4,$5,$6,$7,0*
20,1,$1+$1,$6,$7,$8,$9,0*
20,1,$1+$1,$8,$9,$2,$3,0*%
G04 Aperture macros list end*
%ADD10C,0.500000*%
%ADD11RoundRect,0.312500X-0.562500X0.437500X-0.562500X-0.437500X0.562500X-0.437500X0.562500X0.437500X0*%
%ADD12O,1.750000X1.500000*%
%ADD13RoundRect,0.250000X-0.450000X0.350000X-0.450000X-0.350000X0.450000X-0.350000X0.450000X0.350000X0*%
%ADD14R,1.700000X1.700000*%
%ADD15O,1.700000X1.700000*%
%ADD16RoundRect,0.312500X0.562500X-0.437500X0.562500X0.437500X-0.562500X0.437500X-0.562500X-0.437500X0*%
%ADD17RoundRect,0.250000X0.337500X0.475000X-0.337500X0.475000X-0.337500X-0.475000X0.337500X-0.475000X0*%
%ADD18R,0.990600X0.203200*%
%ADD19R,0.889000X0.203200*%
%ADD20R,0.203200X0.711200*%
%ADD21R,0.203200X1.111200*%
%ADD22RoundRect,0.250000X-0.350000X-0.450000X0.350000X-0.450000X0.350000X0.450000X-0.350000X0.450000X0*%
%ADD23RoundRect,0.112500X-0.112500X0.187500X-0.112500X-0.187500X0.112500X-0.187500X0.112500X0.187500X0*%
%ADD24RoundRect,0.312500X-0.437500X-0.562500X0.437500X-0.562500X0.437500X0.562500X-0.437500X0.562500X0*%
%ADD25O,1.500000X1.750000*%
%ADD26RoundRect,0.250000X0.475000X-0.337500X0.475000X0.337500X-0.475000X0.337500X-0.475000X-0.337500X0*%
%ADD27RoundRect,0.250000X0.450000X-0.350000X0.450000X0.350000X-0.450000X0.350000X-0.450000X-0.350000X0*%
%ADD28RoundRect,0.102000X-0.750000X0.650000X-0.750000X-0.650000X0.750000X-0.650000X0.750000X0.650000X0*%
%ADD29R,1.425000X0.450000*%
%ADD30R,1.700000X2.000000*%
%ADD31RoundRect,0.250000X-0.475000X0.337500X-0.475000X-0.337500X0.475000X-0.337500X0.475000X0.337500X0*%
%ADD32RoundRect,0.250000X0.350000X0.450000X-0.350000X0.450000X-0.350000X-0.450000X0.350000X-0.450000X0*%
%ADD33RoundRect,0.250000X-0.337500X-0.475000X0.337500X-0.475000X0.337500X0.475000X-0.337500X0.475000X0*%
%ADD34RoundRect,0.150000X0.512500X0.150000X-0.512500X0.150000X-0.512500X-0.150000X0.512500X-0.150000X0*%
%ADD35O,1.150000X1.150000*%
G04 APERTURE END LIST*
D10*
%TO.C,KiKit_MB_14_4*%
X75500000Y117350000D03*
%TD*%
%TO.C,KiKit_MB_19_2*%
X46950000Y45700000D03*
%TD*%
%TO.C,KiKit_MB_31_1*%
X63100000Y10250000D03*
%TD*%
%TO.C,KiKit_MB_35_6*%
X10000000Y4000000D03*
%TD*%
%TO.C,KiKit_MB_31_4*%
X60100000Y10250000D03*
%TD*%
D11*
%TO.C,J17*%
X18430000Y101640000D03*
D12*
X18430000Y99640000D03*
X18430000Y97640000D03*
%TD*%
D10*
%TO.C,KiKit_MB_26_1*%
X49450000Y26100000D03*
%TD*%
D13*
%TO.C,R7*%
X71845000Y102740000D03*
X71845000Y100740000D03*
%TD*%
D11*
%TO.C,J21*%
X18150000Y81040000D03*
D12*
X18150000Y79040000D03*
%TD*%
D10*
%TO.C,KiKit_MB_9_2*%
X49450000Y99500000D03*
%TD*%
%TO.C,KiKit_MB_3_2*%
X46950000Y100500000D03*
%TD*%
D14*
%TO.C,J19*%
X83570000Y87270000D03*
D15*
X83570000Y84730000D03*
%TD*%
D14*
%TO.C,J10*%
X57240000Y114760000D03*
D15*
X59780000Y114760000D03*
%TD*%
D10*
%TO.C,KiKit_MB_6_1*%
X33300000Y117350000D03*
%TD*%
%TO.C,KiKit_MB_36_2*%
X86400000Y7200000D03*
%TD*%
D14*
%TO.C,J11*%
X75840000Y59960000D03*
D15*
X78380000Y59960000D03*
%TD*%
D10*
%TO.C,KiKit_MB_36_10*%
X86400000Y800000D03*
%TD*%
%TO.C,KiKit_MB_13_1*%
X60100000Y117350000D03*
%TD*%
%TO.C,KiKit_MB_5_1*%
X20900000Y117350000D03*
%TD*%
D13*
%TO.C,R5*%
X66350000Y31280000D03*
X66350000Y29280000D03*
%TD*%
D10*
%TO.C,KiKit_MB_17_1*%
X10250000Y43700000D03*
%TD*%
D16*
%TO.C,J16*%
X39030000Y43050000D03*
D12*
X39030000Y45050000D03*
X39030000Y47050000D03*
%TD*%
D10*
%TO.C,KiKit_MB_32_4*%
X72500000Y10250000D03*
%TD*%
%TO.C,KiKit_MB_17_2*%
X10250000Y44700000D03*
%TD*%
D11*
%TO.C,J21*%
X57350000Y26240000D03*
D12*
X57350000Y24240000D03*
%TD*%
D10*
%TO.C,KiKit_MB_33_6*%
X10000000Y123600000D03*
%TD*%
D11*
%TO.C,J17*%
X18430000Y46840000D03*
D12*
X18430000Y44840000D03*
X18430000Y42840000D03*
%TD*%
D10*
%TO.C,KiKit_MB_10_3*%
X49450000Y82900000D03*
%TD*%
%TO.C,KiKit_MB_2_1*%
X10250000Y80900000D03*
%TD*%
%TO.C,KiKit_MB_37_7*%
X4800000Y117600000D03*
%TD*%
%TO.C,KiKit_MB_29_4*%
X63100000Y62550000D03*
%TD*%
D17*
%TO.C,C23*%
X23950000Y80620000D03*
X21875000Y80620000D03*
%TD*%
D10*
%TO.C,KiKit_MB_21_1*%
X20900000Y62550000D03*
%TD*%
%TO.C,KiKit_MB_9_4*%
X49450000Y101500000D03*
%TD*%
%TO.C,KiKit_MB_11_1*%
X86150000Y101500000D03*
%TD*%
%TO.C,KiKit_MB_35_1*%
X10000000Y8000000D03*
%TD*%
%TO.C,KiKit_MB_21_3*%
X22900000Y62550000D03*
%TD*%
%TO.C,KiKit_MB_8_1*%
X36300000Y65050000D03*
%TD*%
%TO.C,KiKit_MB_34_10*%
X86400000Y120400000D03*
%TD*%
%TO.C,KiKit_MB_28_2*%
X86150000Y28100000D03*
%TD*%
D14*
%TO.C,J19*%
X44370000Y87270000D03*
D15*
X44370000Y84730000D03*
%TD*%
D10*
%TO.C,KiKit_MB_8_2*%
X35300000Y65050000D03*
%TD*%
%TO.C,KiKit_MB_39_2*%
X89200000Y117600000D03*
%TD*%
D18*
%TO.C,U6*%
X65930998Y81190000D03*
D19*
X65879998Y80790001D03*
X65879998Y80390001D03*
X65879998Y79990002D03*
D20*
X65929998Y79140001D03*
D21*
X66330000Y78940001D03*
D20*
X66729999Y79140001D03*
X67129998Y79140001D03*
X67530000Y79140001D03*
D19*
X67580000Y79990002D03*
X67580000Y80390001D03*
X67580000Y80790001D03*
X67580000Y81190000D03*
D20*
X67530000Y82040001D03*
X67129998Y82040001D03*
X66729999Y82040001D03*
X66330000Y82040001D03*
X65929998Y82040001D03*
%TD*%
D10*
%TO.C,KiKit_MB_37_5*%
X3200000Y117600000D03*
%TD*%
D17*
%TO.C,C20*%
X64200000Y28110000D03*
X62125000Y28110000D03*
%TD*%
D10*
%TO.C,KiKit_MB_7_4*%
X20900000Y65050000D03*
%TD*%
%TO.C,KiKit_MB_5_3*%
X22900000Y117350000D03*
%TD*%
D22*
%TO.C,R6*%
X22970000Y23830000D03*
X24970000Y23830000D03*
%TD*%
D23*
%TO.C,D7*%
X23815000Y61000000D03*
X23815000Y58900000D03*
%TD*%
D10*
%TO.C,KiKit_MB_32_2*%
X74500000Y10250000D03*
%TD*%
D24*
%TO.C,J20*%
X65800000Y17190000D03*
D25*
X67800000Y17190000D03*
X69800000Y17190000D03*
%TD*%
D26*
%TO.C,C18*%
X69890000Y27670000D03*
X69890000Y29745000D03*
%TD*%
D10*
%TO.C,KiKit_MB_24_2*%
X35300000Y10250000D03*
%TD*%
%TO.C,KiKit_MB_29_2*%
X61100000Y62550000D03*
%TD*%
%TO.C,KiKit_MB_6_2*%
X34300000Y117350000D03*
%TD*%
D27*
%TO.C,R4*%
X28145000Y74580000D03*
X28145000Y76580000D03*
%TD*%
D10*
%TO.C,KiKit_MB_8_3*%
X34300000Y65050000D03*
%TD*%
D27*
%TO.C,R4*%
X67345000Y19780000D03*
X67345000Y21780000D03*
%TD*%
D24*
%TO.C,J20*%
X26600000Y17190000D03*
D25*
X28600000Y17190000D03*
X30600000Y17190000D03*
%TD*%
D14*
%TO.C,J14*%
X57240000Y29920000D03*
D15*
X59780000Y29920000D03*
%TD*%
D10*
%TO.C,KiKit_MB_4_3*%
X46950000Y81900000D03*
%TD*%
%TO.C,KiKit_MB_15_4*%
X60100000Y65050000D03*
%TD*%
%TO.C,KiKit_MB_37_3*%
X1600000Y117600000D03*
%TD*%
D16*
%TO.C,J16*%
X39030000Y97850000D03*
D12*
X39030000Y99850000D03*
X39030000Y101850000D03*
%TD*%
D10*
%TO.C,KiKit_MB_22_3*%
X35300000Y62550000D03*
%TD*%
%TO.C,KiKit_MB_39_9*%
X94800000Y117600000D03*
%TD*%
D26*
%TO.C,C16*%
X84480000Y79622500D03*
X84480000Y81697500D03*
%TD*%
D10*
%TO.C,KiKit_MB_40_10*%
X95600000Y10000000D03*
%TD*%
%TO.C,KiKit_MB_34_5*%
X86400000Y124400000D03*
%TD*%
%TO.C,KiKit_MB_16_3*%
X73500000Y65050000D03*
%TD*%
%TO.C,KiKit_MB_1_1*%
X10250000Y98500000D03*
%TD*%
%TO.C,KiKit_MB_37_10*%
X7200000Y117600000D03*
%TD*%
%TO.C,KiKit_MB_35_5*%
X10000000Y4800000D03*
%TD*%
%TO.C,KiKit_MB_18_2*%
X10250000Y27100000D03*
%TD*%
%TO.C,KiKit_MB_12_1*%
X86150000Y83900000D03*
%TD*%
%TO.C,KiKit_MB_23_2*%
X22900000Y10250000D03*
%TD*%
D28*
%TO.C,LS1*%
X30735000Y56710000D03*
X26235000Y60210000D03*
X30735000Y60210000D03*
%TD*%
D10*
%TO.C,KiKit_MB_17_3*%
X10250000Y45700000D03*
%TD*%
%TO.C,KiKit_MB_36_7*%
X86400000Y3200000D03*
%TD*%
D29*
%TO.C,IC1*%
X36843000Y81635000D03*
X36843000Y80985000D03*
X36843000Y80335000D03*
X36843000Y79685000D03*
X41267000Y79685000D03*
X41267000Y80335000D03*
X41267000Y80985000D03*
X41267000Y81635000D03*
D30*
X39055000Y80660000D03*
%TD*%
D17*
%TO.C,C23*%
X63150000Y25820000D03*
X61075000Y25820000D03*
%TD*%
%TO.C,C23*%
X63150000Y80620000D03*
X61075000Y80620000D03*
%TD*%
D11*
%TO.C,J21*%
X57350000Y81040000D03*
D12*
X57350000Y79040000D03*
%TD*%
D10*
%TO.C,KiKit_MB_38_3*%
X1600000Y10000000D03*
%TD*%
%TO.C,KiKit_MB_36_1*%
X86400000Y8000000D03*
%TD*%
D14*
%TO.C,J15*%
X75840000Y84720000D03*
D15*
X78380000Y84720000D03*
%TD*%
D10*
%TO.C,KiKit_MB_39_11*%
X96400000Y117600000D03*
%TD*%
%TO.C,KiKit_MB_34_8*%
X86400000Y122000000D03*
%TD*%
%TO.C,KiKit_MB_12_4*%
X86150000Y80900000D03*
%TD*%
%TO.C,KiKit_MB_36_9*%
X86400000Y1600000D03*
%TD*%
%TO.C,KiKit_MB_39_4*%
X90800000Y117600000D03*
%TD*%
%TO.C,KiKit_MB_18_4*%
X10250000Y29100000D03*
%TD*%
%TO.C,KiKit_MB_10_4*%
X49450000Y83900000D03*
%TD*%
D26*
%TO.C,C18*%
X30690000Y27670000D03*
X30690000Y29745000D03*
%TD*%
D10*
%TO.C,KiKit_MB_6_3*%
X35300000Y117350000D03*
%TD*%
%TO.C,KiKit_MB_5_2*%
X21900000Y117350000D03*
%TD*%
D13*
%TO.C,R5*%
X66350000Y86080000D03*
X66350000Y84080000D03*
%TD*%
D10*
%TO.C,KiKit_MB_38_10*%
X7200000Y10000000D03*
%TD*%
%TO.C,KiKit_MB_8_4*%
X33300000Y65050000D03*
%TD*%
%TO.C,KiKit_MB_23_4*%
X20900000Y10250000D03*
%TD*%
D14*
%TO.C,J19*%
X83570000Y32470000D03*
D15*
X83570000Y29930000D03*
%TD*%
D10*
%TO.C,KiKit_MB_20_3*%
X46950000Y27100000D03*
%TD*%
D22*
%TO.C,R6*%
X62170000Y23830000D03*
X64170000Y23830000D03*
%TD*%
D10*
%TO.C,KiKit_MB_10_2*%
X49450000Y81900000D03*
%TD*%
D17*
%TO.C,C22*%
X24970000Y84900000D03*
X22895000Y84900000D03*
%TD*%
D26*
%TO.C,C19*%
X71970000Y82460000D03*
X71970000Y84535000D03*
%TD*%
D17*
%TO.C,C22*%
X24970000Y30100000D03*
X22895000Y30100000D03*
%TD*%
D31*
%TO.C,C15*%
X73980000Y27007500D03*
X73980000Y24932500D03*
%TD*%
D10*
%TO.C,KiKit_MB_3_4*%
X46950000Y98500000D03*
%TD*%
%TO.C,KiKit_MB_39_1*%
X88400000Y117600000D03*
%TD*%
%TO.C,KiKit_MB_40_1*%
X88400000Y10000000D03*
%TD*%
D32*
%TO.C,R3*%
X26105000Y75470000D03*
X24105000Y75470000D03*
%TD*%
D10*
%TO.C,KiKit_MB_2_2*%
X10250000Y81900000D03*
%TD*%
D13*
%TO.C,R7*%
X32645000Y47940000D03*
X32645000Y45940000D03*
%TD*%
D14*
%TO.C,J13*%
X81030000Y67635000D03*
D15*
X83570000Y67635000D03*
%TD*%
D10*
%TO.C,KiKit_MB_33_7*%
X10000000Y122800000D03*
%TD*%
%TO.C,KiKit_MB_25_1*%
X49450000Y43700000D03*
%TD*%
D23*
%TO.C,D7*%
X23815000Y115800000D03*
X23815000Y113700000D03*
%TD*%
D14*
%TO.C,J10*%
X57240000Y59960000D03*
D15*
X59780000Y59960000D03*
%TD*%
D10*
%TO.C,KiKit_MB_30_2*%
X73500000Y62550000D03*
%TD*%
%TO.C,KiKit_MB_4_4*%
X46950000Y80900000D03*
%TD*%
D14*
%TO.C,J14*%
X18040000Y84720000D03*
D15*
X20580000Y84720000D03*
%TD*%
D28*
%TO.C,LS1*%
X69935000Y111510000D03*
X65435000Y115010000D03*
X69935000Y115010000D03*
%TD*%
D13*
%TO.C,R1*%
X71300000Y22050000D03*
X71300000Y20050000D03*
%TD*%
D11*
%TO.C,J17*%
X57630000Y46840000D03*
D12*
X57630000Y44840000D03*
X57630000Y42840000D03*
%TD*%
D13*
%TO.C,R2*%
X69320000Y21970000D03*
X69320000Y19970000D03*
%TD*%
D17*
%TO.C,C22*%
X64170000Y30100000D03*
X62095000Y30100000D03*
%TD*%
D10*
%TO.C,KiKit_MB_36_4*%
X86400000Y5600000D03*
%TD*%
D14*
%TO.C,J14*%
X18040000Y29920000D03*
D15*
X20580000Y29920000D03*
%TD*%
D10*
%TO.C,KiKit_MB_14_3*%
X74500000Y117350000D03*
%TD*%
%TO.C,KiKit_MB_38_1*%
X0Y10000000D03*
%TD*%
D17*
%TO.C,C23*%
X23950000Y25820000D03*
X21875000Y25820000D03*
%TD*%
D10*
%TO.C,KiKit_MB_16_2*%
X74500000Y65050000D03*
%TD*%
D28*
%TO.C,LS1*%
X30735000Y111510000D03*
X26235000Y115010000D03*
X30735000Y115010000D03*
%TD*%
D18*
%TO.C,U6*%
X26730998Y26390000D03*
D19*
X26679998Y25990001D03*
X26679998Y25590001D03*
X26679998Y25190002D03*
D20*
X26729998Y24340001D03*
D21*
X27130000Y24140001D03*
D20*
X27529999Y24340001D03*
X27929998Y24340001D03*
X28330000Y24340001D03*
D19*
X28380000Y25190002D03*
X28380000Y25590001D03*
X28380000Y25990001D03*
X28380000Y26390000D03*
D20*
X28330000Y27240001D03*
X27929998Y27240001D03*
X27529999Y27240001D03*
X27130000Y27240001D03*
X26729998Y27240001D03*
%TD*%
D13*
%TO.C,R5*%
X27150000Y86080000D03*
X27150000Y84080000D03*
%TD*%
D10*
%TO.C,KiKit_MB_38_9*%
X6400000Y10000000D03*
%TD*%
%TO.C,KiKit_MB_18_3*%
X10250000Y28100000D03*
%TD*%
%TO.C,KiKit_MB_38_6*%
X4000000Y10000000D03*
%TD*%
D13*
%TO.C,R1*%
X32100000Y22050000D03*
X32100000Y20050000D03*
%TD*%
D14*
%TO.C,J14*%
X57240000Y84720000D03*
D15*
X59780000Y84720000D03*
%TD*%
D10*
%TO.C,KiKit_MB_20_2*%
X46950000Y28100000D03*
%TD*%
%TO.C,KiKit_MB_34_1*%
X86400000Y127600000D03*
%TD*%
D14*
%TO.C,J13*%
X41830000Y12835000D03*
D15*
X44370000Y12835000D03*
%TD*%
D10*
%TO.C,KiKit_MB_35_4*%
X10000000Y5600000D03*
%TD*%
%TO.C,KiKit_MB_36_5*%
X86400000Y4800000D03*
%TD*%
%TO.C,KiKit_MB_34_2*%
X86400000Y126800000D03*
%TD*%
%TO.C,KiKit_MB_35_7*%
X10000000Y3200000D03*
%TD*%
%TO.C,KiKit_MB_27_4*%
X86150000Y43700000D03*
%TD*%
%TO.C,KiKit_MB_24_1*%
X36300000Y10250000D03*
%TD*%
D29*
%TO.C,IC1*%
X76043000Y26835000D03*
X76043000Y26185000D03*
X76043000Y25535000D03*
X76043000Y24885000D03*
X80467000Y24885000D03*
X80467000Y25535000D03*
X80467000Y26185000D03*
X80467000Y26835000D03*
D30*
X78255000Y25860000D03*
%TD*%
D13*
%TO.C,R7*%
X32645000Y102740000D03*
X32645000Y100740000D03*
%TD*%
D26*
%TO.C,C19*%
X71970000Y27660000D03*
X71970000Y29735000D03*
%TD*%
D10*
%TO.C,KiKit_MB_2_4*%
X10250000Y83900000D03*
%TD*%
%TO.C,KiKit_MB_34_6*%
X86400000Y123600000D03*
%TD*%
%TO.C,KiKit_MB_13_4*%
X63100000Y117350000D03*
%TD*%
%TO.C,KiKit_MB_17_4*%
X10250000Y46700000D03*
%TD*%
D13*
%TO.C,R2*%
X69320000Y76770000D03*
X69320000Y74770000D03*
%TD*%
D10*
%TO.C,KiKit_MB_25_2*%
X49450000Y44700000D03*
%TD*%
D14*
%TO.C,J15*%
X75840000Y29920000D03*
D15*
X78380000Y29920000D03*
%TD*%
D22*
%TO.C,R6*%
X22970000Y78630000D03*
X24970000Y78630000D03*
%TD*%
D10*
%TO.C,KiKit_MB_33_2*%
X10000000Y126800000D03*
%TD*%
%TO.C,KiKit_MB_21_4*%
X23900000Y62550000D03*
%TD*%
D14*
%TO.C,J12*%
X12830000Y12830000D03*
D15*
X15370000Y12830000D03*
%TD*%
D23*
%TO.C,D7*%
X63015000Y115800000D03*
X63015000Y113700000D03*
%TD*%
D10*
%TO.C,KiKit_MB_29_1*%
X60100000Y62550000D03*
%TD*%
%TO.C,KiKit_MB_39_10*%
X95600000Y117600000D03*
%TD*%
%TO.C,KiKit_MB_34_4*%
X86400000Y125200000D03*
%TD*%
%TO.C,KiKit_MB_37_8*%
X5600000Y117600000D03*
%TD*%
D17*
%TO.C,C22*%
X64170000Y84900000D03*
X62095000Y84900000D03*
%TD*%
D10*
%TO.C,KiKit_MB_18_1*%
X10250000Y26100000D03*
%TD*%
%TO.C,KiKit_MB_26_4*%
X49450000Y29100000D03*
%TD*%
%TO.C,KiKit_MB_14_1*%
X72500000Y117350000D03*
%TD*%
D14*
%TO.C,J10*%
X18040000Y114760000D03*
D15*
X20580000Y114760000D03*
%TD*%
D26*
%TO.C,C16*%
X45280000Y24822500D03*
X45280000Y26897500D03*
%TD*%
D10*
%TO.C,KiKit_MB_33_9*%
X10000000Y121200000D03*
%TD*%
D26*
%TO.C,C19*%
X32770000Y82460000D03*
X32770000Y84535000D03*
%TD*%
D10*
%TO.C,KiKit_MB_35_8*%
X10000000Y2400000D03*
%TD*%
%TO.C,KiKit_MB_29_3*%
X62100000Y62550000D03*
%TD*%
D14*
%TO.C,J11*%
X75840000Y114760000D03*
D15*
X78380000Y114760000D03*
%TD*%
D14*
%TO.C,J15*%
X36640000Y29920000D03*
D15*
X39180000Y29920000D03*
%TD*%
D14*
%TO.C,J18*%
X52015000Y32470000D03*
D15*
X52015000Y29930000D03*
%TD*%
D10*
%TO.C,KiKit_MB_33_4*%
X10000000Y125200000D03*
%TD*%
%TO.C,KiKit_MB_24_4*%
X33300000Y10250000D03*
%TD*%
D14*
%TO.C,J13*%
X81030000Y12835000D03*
D15*
X83570000Y12835000D03*
%TD*%
D10*
%TO.C,KiKit_MB_22_4*%
X36300000Y62550000D03*
%TD*%
%TO.C,KiKit_MB_35_2*%
X10000000Y7200000D03*
%TD*%
%TO.C,KiKit_MB_28_4*%
X86150000Y26100000D03*
%TD*%
%TO.C,KiKit_MB_4_1*%
X46950000Y83900000D03*
%TD*%
%TO.C,KiKit_MB_37_9*%
X6400000Y117600000D03*
%TD*%
D26*
%TO.C,C18*%
X69890000Y82470000D03*
X69890000Y84545000D03*
%TD*%
D10*
%TO.C,KiKit_MB_40_8*%
X94000000Y10000000D03*
%TD*%
%TO.C,KiKit_MB_22_2*%
X34300000Y62550000D03*
%TD*%
%TO.C,KiKit_MB_35_11*%
X10000000Y0D03*
%TD*%
D11*
%TO.C,J21*%
X18150000Y26240000D03*
D12*
X18150000Y24240000D03*
%TD*%
D10*
%TO.C,KiKit_MB_15_3*%
X61100000Y65050000D03*
%TD*%
%TO.C,KiKit_MB_7_1*%
X23900000Y65050000D03*
%TD*%
D14*
%TO.C,J10*%
X18040000Y59960000D03*
D15*
X20580000Y59960000D03*
%TD*%
D13*
%TO.C,R7*%
X71845000Y47940000D03*
X71845000Y45940000D03*
%TD*%
D10*
%TO.C,KiKit_MB_34_11*%
X86400000Y119600000D03*
%TD*%
%TO.C,KiKit_MB_15_2*%
X62100000Y65050000D03*
%TD*%
%TO.C,KiKit_MB_37_11*%
X8000000Y117600000D03*
%TD*%
D14*
%TO.C,J18*%
X12815000Y32470000D03*
D15*
X12815000Y29930000D03*
%TD*%
D10*
%TO.C,KiKit_MB_37_4*%
X2400000Y117600000D03*
%TD*%
D24*
%TO.C,J20*%
X65800000Y71990000D03*
D25*
X67800000Y71990000D03*
X69800000Y71990000D03*
%TD*%
D10*
%TO.C,KiKit_MB_30_1*%
X72500000Y62550000D03*
%TD*%
%TO.C,KiKit_MB_39_8*%
X94000000Y117600000D03*
%TD*%
%TO.C,KiKit_MB_30_3*%
X74500000Y62550000D03*
%TD*%
D32*
%TO.C,R3*%
X65305000Y75470000D03*
X63305000Y75470000D03*
%TD*%
D10*
%TO.C,KiKit_MB_12_2*%
X86150000Y82900000D03*
%TD*%
%TO.C,KiKit_MB_37_6*%
X4000000Y117600000D03*
%TD*%
D33*
%TO.C,C21*%
X69905000Y25680000D03*
X71980000Y25680000D03*
%TD*%
D10*
%TO.C,KiKit_MB_16_4*%
X72500000Y65050000D03*
%TD*%
%TO.C,KiKit_MB_24_3*%
X34300000Y10250000D03*
%TD*%
%TO.C,KiKit_MB_21_2*%
X21900000Y62550000D03*
%TD*%
%TO.C,KiKit_MB_34_3*%
X86400000Y126000000D03*
%TD*%
%TO.C,KiKit_MB_33_3*%
X10000000Y126000000D03*
%TD*%
%TO.C,KiKit_MB_15_1*%
X63100000Y65050000D03*
%TD*%
%TO.C,KiKit_MB_22_1*%
X33300000Y62550000D03*
%TD*%
%TO.C,KiKit_MB_19_3*%
X46950000Y44700000D03*
%TD*%
%TO.C,KiKit_MB_39_7*%
X93200000Y117600000D03*
%TD*%
%TO.C,KiKit_MB_1_2*%
X10250000Y99500000D03*
%TD*%
%TO.C,KiKit_MB_40_5*%
X91600000Y10000000D03*
%TD*%
D34*
%TO.C,Q1*%
X64755000Y100440000D03*
X64755000Y102340000D03*
X62480000Y101390000D03*
%TD*%
D10*
%TO.C,KiKit_MB_40_2*%
X89200000Y10000000D03*
%TD*%
%TO.C,KiKit_MB_40_7*%
X93200000Y10000000D03*
%TD*%
%TO.C,KiKit_MB_33_11*%
X10000000Y119600000D03*
%TD*%
%TO.C,KiKit_MB_11_3*%
X86150000Y99500000D03*
%TD*%
%TO.C,KiKit_MB_3_1*%
X46950000Y101500000D03*
%TD*%
%TO.C,KiKit_MB_27_2*%
X86150000Y45700000D03*
%TD*%
%TO.C,KiKit_MB_7_3*%
X21900000Y65050000D03*
%TD*%
%TO.C,KiKit_MB_36_3*%
X86400000Y6400000D03*
%TD*%
D22*
%TO.C,R6*%
X62170000Y78630000D03*
X64170000Y78630000D03*
%TD*%
D10*
%TO.C,KiKit_MB_35_10*%
X10000000Y800000D03*
%TD*%
D33*
%TO.C,C21*%
X69905000Y80480000D03*
X71980000Y80480000D03*
%TD*%
D14*
%TO.C,J18*%
X12815000Y87270000D03*
D15*
X12815000Y84730000D03*
%TD*%
D14*
%TO.C,J15*%
X36640000Y84720000D03*
D15*
X39180000Y84720000D03*
%TD*%
D10*
%TO.C,KiKit_MB_35_3*%
X10000000Y6400000D03*
%TD*%
%TO.C,KiKit_MB_27_1*%
X86150000Y46700000D03*
%TD*%
D17*
%TO.C,C20*%
X25000000Y28110000D03*
X22925000Y28110000D03*
%TD*%
D10*
%TO.C,KiKit_MB_20_4*%
X46950000Y26100000D03*
%TD*%
%TO.C,KiKit_MB_6_4*%
X36300000Y117350000D03*
%TD*%
%TO.C,KiKit_MB_31_3*%
X61100000Y10250000D03*
%TD*%
D34*
%TO.C,Q1*%
X25555000Y100440000D03*
X25555000Y102340000D03*
X23280000Y101390000D03*
%TD*%
D10*
%TO.C,KiKit_MB_25_4*%
X49450000Y46700000D03*
%TD*%
%TO.C,KiKit_MB_31_2*%
X62100000Y10250000D03*
%TD*%
D34*
%TO.C,Q1*%
X64755000Y45640000D03*
X64755000Y47540000D03*
X62480000Y46590000D03*
%TD*%
D10*
%TO.C,KiKit_MB_10_1*%
X49450000Y80900000D03*
%TD*%
D13*
%TO.C,R2*%
X30120000Y76770000D03*
X30120000Y74770000D03*
%TD*%
D26*
%TO.C,C16*%
X45280000Y79622500D03*
X45280000Y81697500D03*
%TD*%
D14*
%TO.C,J13*%
X41830000Y67635000D03*
D15*
X44370000Y67635000D03*
%TD*%
D10*
%TO.C,KiKit_MB_26_3*%
X49450000Y28100000D03*
%TD*%
%TO.C,KiKit_MB_4_2*%
X46950000Y82900000D03*
%TD*%
%TO.C,KiKit_MB_37_2*%
X800000Y117600000D03*
%TD*%
%TO.C,KiKit_MB_38_4*%
X2400000Y10000000D03*
%TD*%
D27*
%TO.C,R4*%
X67345000Y74580000D03*
X67345000Y76580000D03*
%TD*%
D10*
%TO.C,KiKit_MB_33_5*%
X10000000Y124400000D03*
%TD*%
%TO.C,KiKit_MB_27_3*%
X86150000Y44700000D03*
%TD*%
%TO.C,KiKit_MB_37_1*%
X0Y117600000D03*
%TD*%
D14*
%TO.C,J11*%
X36640000Y114760000D03*
D15*
X39180000Y114760000D03*
%TD*%
D33*
%TO.C,C21*%
X30705000Y80480000D03*
X32780000Y80480000D03*
%TD*%
D10*
%TO.C,KiKit_MB_40_9*%
X94800000Y10000000D03*
%TD*%
%TO.C,KiKit_MB_32_1*%
X75500000Y10250000D03*
%TD*%
D32*
%TO.C,R3*%
X65305000Y20670000D03*
X63305000Y20670000D03*
%TD*%
D10*
%TO.C,KiKit_MB_11_4*%
X86150000Y98500000D03*
%TD*%
%TO.C,KiKit_MB_14_2*%
X73500000Y117350000D03*
%TD*%
%TO.C,KiKit_MB_3_3*%
X46950000Y99500000D03*
%TD*%
%TO.C,KiKit_MB_12_3*%
X86150000Y81900000D03*
%TD*%
%TO.C,KiKit_MB_32_3*%
X73500000Y10250000D03*
%TD*%
D13*
%TO.C,R1*%
X32100000Y76850000D03*
X32100000Y74850000D03*
%TD*%
D32*
%TO.C,R3*%
X26105000Y20670000D03*
X24105000Y20670000D03*
%TD*%
D10*
%TO.C,KiKit_MB_34_9*%
X86400000Y121200000D03*
%TD*%
%TO.C,KiKit_MB_28_1*%
X86150000Y29100000D03*
%TD*%
%TO.C,KiKit_MB_38_8*%
X5600000Y10000000D03*
%TD*%
D34*
%TO.C,Q1*%
X25555000Y45640000D03*
X25555000Y47540000D03*
X23280000Y46590000D03*
%TD*%
D10*
%TO.C,KiKit_MB_20_1*%
X46950000Y29100000D03*
%TD*%
%TO.C,KiKit_MB_39_6*%
X92400000Y117600000D03*
%TD*%
%TO.C,KiKit_MB_9_1*%
X49450000Y98500000D03*
%TD*%
%TO.C,KiKit_MB_13_3*%
X62100000Y117350000D03*
%TD*%
%TO.C,KiKit_MB_9_3*%
X49450000Y100500000D03*
%TD*%
D24*
%TO.C,J20*%
X26600000Y71990000D03*
D25*
X28600000Y71990000D03*
X30600000Y71990000D03*
%TD*%
D13*
%TO.C,R5*%
X27150000Y31280000D03*
X27150000Y29280000D03*
%TD*%
D10*
%TO.C,KiKit_MB_38_11*%
X8000000Y10000000D03*
%TD*%
%TO.C,KiKit_MB_1_3*%
X10250000Y100500000D03*
%TD*%
%TO.C,KiKit_MB_34_7*%
X86400000Y122800000D03*
%TD*%
D26*
%TO.C,C19*%
X32770000Y27660000D03*
X32770000Y29735000D03*
%TD*%
D31*
%TO.C,C15*%
X34780000Y81807500D03*
X34780000Y79732500D03*
%TD*%
D10*
%TO.C,KiKit_MB_28_3*%
X86150000Y27100000D03*
%TD*%
D28*
%TO.C,LS1*%
X69935000Y56710000D03*
X65435000Y60210000D03*
X69935000Y60210000D03*
%TD*%
D13*
%TO.C,R1*%
X71300000Y76850000D03*
X71300000Y74850000D03*
%TD*%
D10*
%TO.C,KiKit_MB_36_8*%
X86400000Y2400000D03*
%TD*%
D23*
%TO.C,D7*%
X63015000Y61000000D03*
X63015000Y58900000D03*
%TD*%
D14*
%TO.C,J12*%
X52030000Y12830000D03*
D15*
X54570000Y12830000D03*
%TD*%
D10*
%TO.C,KiKit_MB_13_2*%
X61100000Y117350000D03*
%TD*%
D14*
%TO.C,J12*%
X52030000Y67630000D03*
D15*
X54570000Y67630000D03*
%TD*%
D16*
%TO.C,J16*%
X78230000Y43050000D03*
D12*
X78230000Y45050000D03*
X78230000Y47050000D03*
%TD*%
D26*
%TO.C,C16*%
X84480000Y24822500D03*
X84480000Y26897500D03*
%TD*%
D10*
%TO.C,KiKit_MB_30_4*%
X75500000Y62550000D03*
%TD*%
D14*
%TO.C,J11*%
X36640000Y59960000D03*
D15*
X39180000Y59960000D03*
%TD*%
D31*
%TO.C,C15*%
X34780000Y27007500D03*
X34780000Y24932500D03*
%TD*%
D14*
%TO.C,J19*%
X44370000Y32470000D03*
D15*
X44370000Y29930000D03*
%TD*%
D13*
%TO.C,R2*%
X30120000Y21970000D03*
X30120000Y19970000D03*
%TD*%
D18*
%TO.C,U6*%
X65930998Y26390000D03*
D19*
X65879998Y25990001D03*
X65879998Y25590001D03*
X65879998Y25190002D03*
D20*
X65929998Y24340001D03*
D21*
X66330000Y24140001D03*
D20*
X66729999Y24340001D03*
X67129998Y24340001D03*
X67530000Y24340001D03*
D19*
X67580000Y25190002D03*
X67580000Y25590001D03*
X67580000Y25990001D03*
X67580000Y26390000D03*
D20*
X67530000Y27240001D03*
X67129998Y27240001D03*
X66729999Y27240001D03*
X66330000Y27240001D03*
X65929998Y27240001D03*
%TD*%
D33*
%TO.C,C21*%
X30705000Y25680000D03*
X32780000Y25680000D03*
%TD*%
D29*
%TO.C,IC1*%
X76043000Y81635000D03*
X76043000Y80985000D03*
X76043000Y80335000D03*
X76043000Y79685000D03*
X80467000Y79685000D03*
X80467000Y80335000D03*
X80467000Y80985000D03*
X80467000Y81635000D03*
D30*
X78255000Y80660000D03*
%TD*%
D10*
%TO.C,KiKit_MB_33_8*%
X10000000Y122000000D03*
%TD*%
%TO.C,KiKit_MB_36_11*%
X86400000Y0D03*
%TD*%
D16*
%TO.C,J16*%
X78230000Y97850000D03*
D12*
X78230000Y99850000D03*
X78230000Y101850000D03*
%TD*%
D10*
%TO.C,KiKit_MB_39_5*%
X91600000Y117600000D03*
%TD*%
%TO.C,KiKit_MB_40_11*%
X96400000Y10000000D03*
%TD*%
D27*
%TO.C,R4*%
X28145000Y19780000D03*
X28145000Y21780000D03*
%TD*%
D10*
%TO.C,KiKit_MB_19_4*%
X46950000Y43700000D03*
%TD*%
%TO.C,KiKit_MB_1_4*%
X10250000Y101500000D03*
%TD*%
%TO.C,KiKit_MB_40_3*%
X90000000Y10000000D03*
%TD*%
%TO.C,KiKit_MB_2_3*%
X10250000Y82900000D03*
%TD*%
%TO.C,KiKit_MB_33_10*%
X10000000Y120400000D03*
%TD*%
D11*
%TO.C,J17*%
X57630000Y101640000D03*
D12*
X57630000Y99640000D03*
X57630000Y97640000D03*
%TD*%
D29*
%TO.C,IC1*%
X36843000Y26835000D03*
X36843000Y26185000D03*
X36843000Y25535000D03*
X36843000Y24885000D03*
X41267000Y24885000D03*
X41267000Y25535000D03*
X41267000Y26185000D03*
X41267000Y26835000D03*
D30*
X39055000Y25860000D03*
%TD*%
D10*
%TO.C,KiKit_MB_35_9*%
X10000000Y1600000D03*
%TD*%
%TO.C,KiKit_MB_26_2*%
X49450000Y27100000D03*
%TD*%
%TO.C,KiKit_MB_23_1*%
X23900000Y10250000D03*
%TD*%
D18*
%TO.C,U6*%
X26730998Y81190000D03*
D19*
X26679998Y80790001D03*
X26679998Y80390001D03*
X26679998Y79990002D03*
D20*
X26729998Y79140001D03*
D21*
X27130000Y78940001D03*
D20*
X27529999Y79140001D03*
X27929998Y79140001D03*
X28330000Y79140001D03*
D19*
X28380000Y79990002D03*
X28380000Y80390001D03*
X28380000Y80790001D03*
X28380000Y81190000D03*
D20*
X28330000Y82040001D03*
X27929998Y82040001D03*
X27529999Y82040001D03*
X27130000Y82040001D03*
X26729998Y82040001D03*
%TD*%
D14*
%TO.C,J12*%
X12830000Y67630000D03*
D15*
X15370000Y67630000D03*
%TD*%
D10*
%TO.C,KiKit_MB_38_5*%
X3200000Y10000000D03*
%TD*%
%TO.C,KiKit_MB_38_7*%
X4800000Y10000000D03*
%TD*%
%TO.C,KiKit_MB_39_3*%
X90000000Y117600000D03*
%TD*%
%TO.C,KiKit_MB_36_6*%
X86400000Y4000000D03*
%TD*%
%TO.C,KiKit_MB_25_3*%
X49450000Y45700000D03*
%TD*%
%TO.C,KiKit_MB_33_1*%
X10000000Y127600000D03*
%TD*%
%TO.C,KiKit_MB_16_1*%
X75500000Y65050000D03*
%TD*%
%TO.C,KiKit_MB_38_2*%
X800000Y10000000D03*
%TD*%
%TO.C,KiKit_MB_23_3*%
X21900000Y10250000D03*
%TD*%
D26*
%TO.C,C18*%
X30690000Y82470000D03*
X30690000Y84545000D03*
%TD*%
D10*
%TO.C,KiKit_MB_11_2*%
X86150000Y100500000D03*
%TD*%
D31*
%TO.C,C15*%
X73980000Y81807500D03*
X73980000Y79732500D03*
%TD*%
D10*
%TO.C,KiKit_MB_40_4*%
X90800000Y10000000D03*
%TD*%
%TO.C,KiKit_MB_19_1*%
X46950000Y46700000D03*
%TD*%
%TO.C,KiKit_MB_40_6*%
X92400000Y10000000D03*
%TD*%
D17*
%TO.C,C20*%
X25000000Y82910000D03*
X22925000Y82910000D03*
%TD*%
%TO.C,C20*%
X64200000Y82910000D03*
X62125000Y82910000D03*
%TD*%
D10*
%TO.C,KiKit_MB_5_4*%
X23900000Y117350000D03*
%TD*%
%TO.C,KiKit_MB_7_2*%
X22900000Y65050000D03*
%TD*%
D14*
%TO.C,J18*%
X52015000Y87270000D03*
D15*
X52015000Y84730000D03*
%TD*%
D35*
%TO.C,J9*%
X64990000Y54115000D03*
X64990000Y52845000D03*
X66260000Y54115000D03*
X66260000Y52845000D03*
X67530000Y54115000D03*
X67530000Y52845000D03*
X68800000Y54115000D03*
X68800000Y52845000D03*
X70070000Y54115000D03*
X70070000Y52845000D03*
%TD*%
%TO.C,J9*%
X25790000Y108915000D03*
X25790000Y107645000D03*
X27060000Y108915000D03*
X27060000Y107645000D03*
X28330000Y108915000D03*
X28330000Y107645000D03*
X29600000Y108915000D03*
X29600000Y107645000D03*
X30870000Y108915000D03*
X30870000Y107645000D03*
%TD*%
%TO.C,J9*%
X64990000Y108915000D03*
X64990000Y107645000D03*
X66260000Y108915000D03*
X66260000Y107645000D03*
X67530000Y108915000D03*
X67530000Y107645000D03*
X68800000Y108915000D03*
X68800000Y107645000D03*
X70070000Y108915000D03*
X70070000Y107645000D03*
%TD*%
%TO.C,J9*%
X25790000Y54115000D03*
X25790000Y52845000D03*
X27060000Y54115000D03*
X27060000Y52845000D03*
X28330000Y54115000D03*
X28330000Y52845000D03*
X29600000Y54115000D03*
X29600000Y52845000D03*
X30870000Y54115000D03*
X30870000Y52845000D03*
%TD*%
M02*
