%TF.GenerationSoftware,KiCad,Pcbnew,9.0.1*%
%TF.CreationDate,2025-05-14T16:36:12-05:00*%
%TF.ProjectId,Bottom_layer_Panel,426f7474-6f6d-45f6-9c61-7965725f5061,rev?*%
%TF.SameCoordinates,PX5fa74e0PY8cc3280*%
%TF.FileFunction,Paste,Top*%
%TF.FilePolarity,Positive*%
%FSLAX46Y46*%
G04 Gerber Fmt 4.6, Leading zero omitted, Abs format (unit mm)*
G04 Created by KiCad (PCBNEW 9.0.1) date 2025-05-14 16:36:12*
%MOMM*%
%LPD*%
G01*
G04 APERTURE LIST*
G04 Aperture macros list*
%AMRoundRect*
0 Rectangle with rounded corners*
0 $1 Rounding radius*
0 $2 $3 $4 $5 $6 $7 $8 $9 X,Y pos of 4 corners*
0 Add a 4 corners polygon primitive as box body*
4,1,4,$2,$3,$4,$5,$6,$7,$8,$9,$2,$3,0*
0 Add four circle primitives for the rounded corners*
1,1,$1+$1,$2,$3*
1,1,$1+$1,$4,$5*
1,1,$1+$1,$6,$7*
1,1,$1+$1,$8,$9*
0 Add four rect primitives between the rounded corners*
20,1,$1+$1,$2,$3,$4,$5,0*
20,1,$1+$1,$4,$5,$6,$7,0*
20,1,$1+$1,$6,$7,$8,$9,0*
20,1,$1+$1,$8,$9,$2,$3,0*%
G04 Aperture macros list end*
%ADD10RoundRect,0.250000X-0.450000X0.350000X-0.450000X-0.350000X0.450000X-0.350000X0.450000X0.350000X0*%
%ADD11RoundRect,0.250000X0.337500X0.475000X-0.337500X0.475000X-0.337500X-0.475000X0.337500X-0.475000X0*%
%ADD12R,0.990600X0.203200*%
%ADD13R,0.889000X0.203200*%
%ADD14R,0.203200X0.711200*%
%ADD15R,0.203200X1.111200*%
%ADD16RoundRect,0.250000X-0.350000X-0.450000X0.350000X-0.450000X0.350000X0.450000X-0.350000X0.450000X0*%
%ADD17RoundRect,0.112500X-0.112500X0.187500X-0.112500X-0.187500X0.112500X-0.187500X0.112500X0.187500X0*%
%ADD18RoundRect,0.250000X0.475000X-0.337500X0.475000X0.337500X-0.475000X0.337500X-0.475000X-0.337500X0*%
%ADD19RoundRect,0.250000X0.450000X-0.350000X0.450000X0.350000X-0.450000X0.350000X-0.450000X-0.350000X0*%
%ADD20R,1.500000X1.300000*%
%ADD21R,1.425000X0.450000*%
%ADD22R,1.700000X2.000000*%
%ADD23RoundRect,0.250000X-0.475000X0.337500X-0.475000X-0.337500X0.475000X-0.337500X0.475000X0.337500X0*%
%ADD24RoundRect,0.250000X0.350000X0.450000X-0.350000X0.450000X-0.350000X-0.450000X0.350000X-0.450000X0*%
%ADD25RoundRect,0.250000X-0.337500X-0.475000X0.337500X-0.475000X0.337500X0.475000X-0.337500X0.475000X0*%
%ADD26RoundRect,0.150000X0.512500X0.150000X-0.512500X0.150000X-0.512500X-0.150000X0.512500X-0.150000X0*%
G04 APERTURE END LIST*
D10*
%TO.C,R7*%
X71845000Y102740000D03*
X71845000Y100740000D03*
%TD*%
%TO.C,R5*%
X66350000Y31280000D03*
X66350000Y29280000D03*
%TD*%
D11*
%TO.C,C23*%
X23950000Y80620000D03*
X21875000Y80620000D03*
%TD*%
D12*
%TO.C,U6*%
X65930998Y81190000D03*
D13*
X65879998Y80790001D03*
X65879998Y80390001D03*
X65879998Y79990002D03*
D14*
X65929998Y79140001D03*
D15*
X66330000Y78940001D03*
D14*
X66729999Y79140001D03*
X67129998Y79140001D03*
X67530000Y79140001D03*
D13*
X67580000Y79990002D03*
X67580000Y80390001D03*
X67580000Y80790001D03*
X67580000Y81190000D03*
D14*
X67530000Y82040001D03*
X67129998Y82040001D03*
X66729999Y82040001D03*
X66330000Y82040001D03*
X65929998Y82040001D03*
%TD*%
D11*
%TO.C,C20*%
X64200000Y28110000D03*
X62125000Y28110000D03*
%TD*%
D16*
%TO.C,R6*%
X22970000Y23830000D03*
X24970000Y23830000D03*
%TD*%
D17*
%TO.C,D7*%
X23815000Y61000000D03*
X23815000Y58900000D03*
%TD*%
D18*
%TO.C,C18*%
X69890000Y27670000D03*
X69890000Y29745000D03*
%TD*%
D19*
%TO.C,R4*%
X28145000Y74580000D03*
X28145000Y76580000D03*
%TD*%
%TO.C,R4*%
X67345000Y19780000D03*
X67345000Y21780000D03*
%TD*%
D18*
%TO.C,C16*%
X84480000Y79622500D03*
X84480000Y81697500D03*
%TD*%
D20*
%TO.C,LS1*%
X30735000Y56710000D03*
X26235000Y60210000D03*
X30735000Y60210000D03*
%TD*%
D21*
%TO.C,IC1*%
X36843000Y81635000D03*
X36843000Y80985000D03*
X36843000Y80335000D03*
X36843000Y79685000D03*
X41267000Y79685000D03*
X41267000Y80335000D03*
X41267000Y80985000D03*
X41267000Y81635000D03*
D22*
X39055000Y80660000D03*
%TD*%
D11*
%TO.C,C23*%
X63150000Y25820000D03*
X61075000Y25820000D03*
%TD*%
%TO.C,C23*%
X63150000Y80620000D03*
X61075000Y80620000D03*
%TD*%
D18*
%TO.C,C18*%
X30690000Y27670000D03*
X30690000Y29745000D03*
%TD*%
D10*
%TO.C,R5*%
X66350000Y86080000D03*
X66350000Y84080000D03*
%TD*%
D16*
%TO.C,R6*%
X62170000Y23830000D03*
X64170000Y23830000D03*
%TD*%
D11*
%TO.C,C22*%
X24970000Y84900000D03*
X22895000Y84900000D03*
%TD*%
D18*
%TO.C,C19*%
X71970000Y82460000D03*
X71970000Y84535000D03*
%TD*%
D11*
%TO.C,C22*%
X24970000Y30100000D03*
X22895000Y30100000D03*
%TD*%
D23*
%TO.C,C15*%
X73980000Y27007500D03*
X73980000Y24932500D03*
%TD*%
D24*
%TO.C,R3*%
X26105000Y75470000D03*
X24105000Y75470000D03*
%TD*%
D10*
%TO.C,R7*%
X32645000Y47940000D03*
X32645000Y45940000D03*
%TD*%
D17*
%TO.C,D7*%
X23815000Y115800000D03*
X23815000Y113700000D03*
%TD*%
D20*
%TO.C,LS1*%
X69935000Y111510000D03*
X65435000Y115010000D03*
X69935000Y115010000D03*
%TD*%
D10*
%TO.C,R1*%
X71300000Y22050000D03*
X71300000Y20050000D03*
%TD*%
%TO.C,R2*%
X69320000Y21970000D03*
X69320000Y19970000D03*
%TD*%
D11*
%TO.C,C22*%
X64170000Y30100000D03*
X62095000Y30100000D03*
%TD*%
%TO.C,C23*%
X23950000Y25820000D03*
X21875000Y25820000D03*
%TD*%
D20*
%TO.C,LS1*%
X30735000Y111510000D03*
X26235000Y115010000D03*
X30735000Y115010000D03*
%TD*%
D12*
%TO.C,U6*%
X26730998Y26390000D03*
D13*
X26679998Y25990001D03*
X26679998Y25590001D03*
X26679998Y25190002D03*
D14*
X26729998Y24340001D03*
D15*
X27130000Y24140001D03*
D14*
X27529999Y24340001D03*
X27929998Y24340001D03*
X28330000Y24340001D03*
D13*
X28380000Y25190002D03*
X28380000Y25590001D03*
X28380000Y25990001D03*
X28380000Y26390000D03*
D14*
X28330000Y27240001D03*
X27929998Y27240001D03*
X27529999Y27240001D03*
X27130000Y27240001D03*
X26729998Y27240001D03*
%TD*%
D10*
%TO.C,R5*%
X27150000Y86080000D03*
X27150000Y84080000D03*
%TD*%
%TO.C,R1*%
X32100000Y22050000D03*
X32100000Y20050000D03*
%TD*%
D21*
%TO.C,IC1*%
X76043000Y26835000D03*
X76043000Y26185000D03*
X76043000Y25535000D03*
X76043000Y24885000D03*
X80467000Y24885000D03*
X80467000Y25535000D03*
X80467000Y26185000D03*
X80467000Y26835000D03*
D22*
X78255000Y25860000D03*
%TD*%
D10*
%TO.C,R7*%
X32645000Y102740000D03*
X32645000Y100740000D03*
%TD*%
D18*
%TO.C,C19*%
X71970000Y27660000D03*
X71970000Y29735000D03*
%TD*%
D10*
%TO.C,R2*%
X69320000Y76770000D03*
X69320000Y74770000D03*
%TD*%
D16*
%TO.C,R6*%
X22970000Y78630000D03*
X24970000Y78630000D03*
%TD*%
D17*
%TO.C,D7*%
X63015000Y115800000D03*
X63015000Y113700000D03*
%TD*%
D11*
%TO.C,C22*%
X64170000Y84900000D03*
X62095000Y84900000D03*
%TD*%
D18*
%TO.C,C16*%
X45280000Y24822500D03*
X45280000Y26897500D03*
%TD*%
%TO.C,C19*%
X32770000Y82460000D03*
X32770000Y84535000D03*
%TD*%
%TO.C,C18*%
X69890000Y82470000D03*
X69890000Y84545000D03*
%TD*%
D10*
%TO.C,R7*%
X71845000Y47940000D03*
X71845000Y45940000D03*
%TD*%
D24*
%TO.C,R3*%
X65305000Y75470000D03*
X63305000Y75470000D03*
%TD*%
D25*
%TO.C,C21*%
X69905000Y25680000D03*
X71980000Y25680000D03*
%TD*%
D26*
%TO.C,Q1*%
X64755000Y100440000D03*
X64755000Y102340000D03*
X62480000Y101390000D03*
%TD*%
D16*
%TO.C,R6*%
X62170000Y78630000D03*
X64170000Y78630000D03*
%TD*%
D25*
%TO.C,C21*%
X69905000Y80480000D03*
X71980000Y80480000D03*
%TD*%
D11*
%TO.C,C20*%
X25000000Y28110000D03*
X22925000Y28110000D03*
%TD*%
D26*
%TO.C,Q1*%
X25555000Y100440000D03*
X25555000Y102340000D03*
X23280000Y101390000D03*
%TD*%
%TO.C,Q1*%
X64755000Y45640000D03*
X64755000Y47540000D03*
X62480000Y46590000D03*
%TD*%
D10*
%TO.C,R2*%
X30120000Y76770000D03*
X30120000Y74770000D03*
%TD*%
D18*
%TO.C,C16*%
X45280000Y79622500D03*
X45280000Y81697500D03*
%TD*%
D19*
%TO.C,R4*%
X67345000Y74580000D03*
X67345000Y76580000D03*
%TD*%
D25*
%TO.C,C21*%
X30705000Y80480000D03*
X32780000Y80480000D03*
%TD*%
D24*
%TO.C,R3*%
X65305000Y20670000D03*
X63305000Y20670000D03*
%TD*%
D10*
%TO.C,R1*%
X32100000Y76850000D03*
X32100000Y74850000D03*
%TD*%
D24*
%TO.C,R3*%
X26105000Y20670000D03*
X24105000Y20670000D03*
%TD*%
D26*
%TO.C,Q1*%
X25555000Y45640000D03*
X25555000Y47540000D03*
X23280000Y46590000D03*
%TD*%
D10*
%TO.C,R5*%
X27150000Y31280000D03*
X27150000Y29280000D03*
%TD*%
D18*
%TO.C,C19*%
X32770000Y27660000D03*
X32770000Y29735000D03*
%TD*%
D23*
%TO.C,C15*%
X34780000Y81807500D03*
X34780000Y79732500D03*
%TD*%
D20*
%TO.C,LS1*%
X69935000Y56710000D03*
X65435000Y60210000D03*
X69935000Y60210000D03*
%TD*%
D10*
%TO.C,R1*%
X71300000Y76850000D03*
X71300000Y74850000D03*
%TD*%
D17*
%TO.C,D7*%
X63015000Y61000000D03*
X63015000Y58900000D03*
%TD*%
D18*
%TO.C,C16*%
X84480000Y24822500D03*
X84480000Y26897500D03*
%TD*%
D23*
%TO.C,C15*%
X34780000Y27007500D03*
X34780000Y24932500D03*
%TD*%
D10*
%TO.C,R2*%
X30120000Y21970000D03*
X30120000Y19970000D03*
%TD*%
D12*
%TO.C,U6*%
X65930998Y26390000D03*
D13*
X65879998Y25990001D03*
X65879998Y25590001D03*
X65879998Y25190002D03*
D14*
X65929998Y24340001D03*
D15*
X66330000Y24140001D03*
D14*
X66729999Y24340001D03*
X67129998Y24340001D03*
X67530000Y24340001D03*
D13*
X67580000Y25190002D03*
X67580000Y25590001D03*
X67580000Y25990001D03*
X67580000Y26390000D03*
D14*
X67530000Y27240001D03*
X67129998Y27240001D03*
X66729999Y27240001D03*
X66330000Y27240001D03*
X65929998Y27240001D03*
%TD*%
D25*
%TO.C,C21*%
X30705000Y25680000D03*
X32780000Y25680000D03*
%TD*%
D21*
%TO.C,IC1*%
X76043000Y81635000D03*
X76043000Y80985000D03*
X76043000Y80335000D03*
X76043000Y79685000D03*
X80467000Y79685000D03*
X80467000Y80335000D03*
X80467000Y80985000D03*
X80467000Y81635000D03*
D22*
X78255000Y80660000D03*
%TD*%
D19*
%TO.C,R4*%
X28145000Y19780000D03*
X28145000Y21780000D03*
%TD*%
D21*
%TO.C,IC1*%
X36843000Y26835000D03*
X36843000Y26185000D03*
X36843000Y25535000D03*
X36843000Y24885000D03*
X41267000Y24885000D03*
X41267000Y25535000D03*
X41267000Y26185000D03*
X41267000Y26835000D03*
D22*
X39055000Y25860000D03*
%TD*%
D12*
%TO.C,U6*%
X26730998Y81190000D03*
D13*
X26679998Y80790001D03*
X26679998Y80390001D03*
X26679998Y79990002D03*
D14*
X26729998Y79140001D03*
D15*
X27130000Y78940001D03*
D14*
X27529999Y79140001D03*
X27929998Y79140001D03*
X28330000Y79140001D03*
D13*
X28380000Y79990002D03*
X28380000Y80390001D03*
X28380000Y80790001D03*
X28380000Y81190000D03*
D14*
X28330000Y82040001D03*
X27929998Y82040001D03*
X27529999Y82040001D03*
X27130000Y82040001D03*
X26729998Y82040001D03*
%TD*%
D18*
%TO.C,C18*%
X30690000Y82470000D03*
X30690000Y84545000D03*
%TD*%
D23*
%TO.C,C15*%
X73980000Y81807500D03*
X73980000Y79732500D03*
%TD*%
D11*
%TO.C,C20*%
X25000000Y82910000D03*
X22925000Y82910000D03*
%TD*%
%TO.C,C20*%
X64200000Y82910000D03*
X62125000Y82910000D03*
%TD*%
M02*
