%TF.GenerationSoftware,KiCad,Pcbnew,9.0.1*%
%TF.CreationDate,2025-05-14T16:36:13-05:00*%
%TF.ProjectId,Bottom_layer_Panel,426f7474-6f6d-45f6-9c61-7965725f5061,rev?*%
%TF.SameCoordinates,PX5fa74e0PY8cc3280*%
%TF.FileFunction,Soldermask,Bot*%
%TF.FilePolarity,Negative*%
%FSLAX46Y46*%
G04 Gerber Fmt 4.6, Leading zero omitted, Abs format (unit mm)*
G04 Created by KiCad (PCBNEW 9.0.1) date 2025-05-14 16:36:13*
%MOMM*%
%LPD*%
G01*
G04 APERTURE LIST*
G04 Aperture macros list*
%AMRoundRect*
0 Rectangle with rounded corners*
0 $1 Rounding radius*
0 $2 $3 $4 $5 $6 $7 $8 $9 X,Y pos of 4 corners*
0 Add a 4 corners polygon primitive as box body*
4,1,4,$2,$3,$4,$5,$6,$7,$8,$9,$2,$3,0*
0 Add four circle primitives for the rounded corners*
1,1,$1+$1,$2,$3*
1,1,$1+$1,$4,$5*
1,1,$1+$1,$6,$7*
1,1,$1+$1,$8,$9*
0 Add four rect primitives between the rounded corners*
20,1,$1+$1,$2,$3,$4,$5,0*
20,1,$1+$1,$4,$5,$6,$7,0*
20,1,$1+$1,$6,$7,$8,$9,0*
20,1,$1+$1,$8,$9,$2,$3,0*%
G04 Aperture macros list end*
%ADD10C,0.010000*%
%ADD11C,0.500000*%
%ADD12RoundRect,0.312500X-0.562500X0.437500X-0.562500X-0.437500X0.562500X-0.437500X0.562500X0.437500X0*%
%ADD13O,1.750000X1.500000*%
%ADD14R,1.700000X1.700000*%
%ADD15O,1.700000X1.700000*%
%ADD16RoundRect,0.312500X0.562500X-0.437500X0.562500X0.437500X-0.562500X0.437500X-0.562500X-0.437500X0*%
%ADD17RoundRect,0.312500X-0.437500X-0.562500X0.437500X-0.562500X0.437500X0.562500X-0.437500X0.562500X0*%
%ADD18O,1.500000X1.750000*%
%ADD19R,0.400000X0.400000*%
%ADD20O,1.150000X1.150000*%
%ADD21R,2.413000X3.429000*%
%ADD22RoundRect,0.237500X-0.237500X0.300000X-0.237500X-0.300000X0.237500X-0.300000X0.237500X0.300000X0*%
G04 APERTURE END LIST*
D10*
%TO.C,U5*%
X26738135Y45348425D02*
X26088425Y45348425D01*
X26088425Y45751865D01*
X26738135Y45751865D01*
X26738135Y45348425D01*
G36*
X26738135Y45348425D02*
G01*
X26088425Y45348425D01*
X26088425Y45751865D01*
X26738135Y45751865D01*
X26738135Y45348425D01*
G37*
X26739416Y44348643D02*
X26088643Y44348643D01*
X26088643Y44750583D01*
X26739416Y44750583D01*
X26739416Y44348643D01*
G36*
X26739416Y44348643D02*
G01*
X26088643Y44348643D01*
X26088643Y44750583D01*
X26739416Y44750583D01*
X26739416Y44348643D01*
G37*
X26737786Y45848874D02*
X26088873Y45848874D01*
X26088873Y46252214D01*
X26737786Y46252214D01*
X26737786Y45848874D01*
G36*
X26737786Y45848874D02*
G01*
X26088873Y45848874D01*
X26088873Y46252214D01*
X26737786Y46252214D01*
X26737786Y45848874D01*
G37*
X26739770Y43848950D02*
X26088950Y43848950D01*
X26088950Y44250230D01*
X26739770Y44250230D01*
X26739770Y43848950D01*
G36*
X26739770Y43848950D02*
G01*
X26088950Y43848950D01*
X26088950Y44250230D01*
X26739770Y44250230D01*
X26739770Y43848950D01*
G37*
X26739620Y44849479D02*
X26089479Y44849479D01*
X26089479Y45250380D01*
X26739620Y45250380D01*
X26739620Y44849479D01*
G36*
X26739620Y44849479D02*
G01*
X26089479Y44849479D01*
X26089479Y45250380D01*
X26739620Y45250380D01*
X26739620Y44849479D01*
G37*
X26489165Y46349785D02*
X26089785Y46349785D01*
X26089785Y46750835D01*
X26489165Y46750835D01*
X26489165Y46349785D01*
G36*
X26489165Y46349785D02*
G01*
X26089785Y46349785D01*
X26089785Y46750835D01*
X26489165Y46750835D01*
X26489165Y46349785D01*
G37*
X26489930Y43349450D02*
X26089450Y43349450D01*
X26089450Y43750070D01*
X26489930Y43750070D01*
X26489930Y43349450D01*
G36*
X26489930Y43349450D02*
G01*
X26089450Y43349450D01*
X26089450Y43750070D01*
X26489930Y43750070D01*
X26489930Y43349450D01*
G37*
X26990000Y46852050D02*
X26588060Y46852050D01*
X26588060Y47250000D01*
X26990000Y47250000D01*
X26990000Y46852050D01*
G36*
X26990000Y46852050D02*
G01*
X26588060Y46852050D01*
X26588060Y47250000D01*
X26990000Y47250000D01*
X26990000Y46852050D01*
G37*
X26990000Y42846080D02*
X26586970Y42846080D01*
X26586970Y43250000D01*
X26990000Y43250000D01*
X26990000Y42846080D01*
G36*
X26990000Y42846080D02*
G01*
X26586970Y42846080D01*
X26586970Y43250000D01*
X26990000Y43250000D01*
X26990000Y42846080D01*
G37*
X27490000Y46600110D02*
X27089920Y46600110D01*
X27089920Y47250000D01*
X27490000Y47250000D01*
X27490000Y46600110D01*
G36*
X27490000Y46600110D02*
G01*
X27089920Y46600110D01*
X27089920Y47250000D01*
X27490000Y47250000D01*
X27490000Y46600110D01*
G37*
X27490000Y42847600D02*
X27088690Y42847600D01*
X27088690Y43500000D01*
X27490000Y43500000D01*
X27490000Y42847600D01*
G36*
X27490000Y42847600D02*
G01*
X27088690Y42847600D01*
X27088690Y43500000D01*
X27490000Y43500000D01*
X27490000Y42847600D01*
G37*
X27990000Y46601040D02*
X27589531Y46601040D01*
X27589531Y47250000D01*
X27990000Y47250000D01*
X27990000Y46601040D01*
G36*
X27990000Y46601040D02*
G01*
X27589531Y46601040D01*
X27589531Y47250000D01*
X27990000Y47250000D01*
X27990000Y46601040D01*
G37*
X27990000Y42849880D02*
X27589962Y42849880D01*
X27589962Y43500000D01*
X27990000Y43500000D01*
X27990000Y42849880D01*
G36*
X27990000Y42849880D02*
G01*
X27589962Y42849880D01*
X27589962Y43500000D01*
X27990000Y43500000D01*
X27990000Y42849880D01*
G37*
X28490000Y46602720D02*
X28089649Y46602720D01*
X28089649Y47250000D01*
X28490000Y47250000D01*
X28490000Y46602720D01*
G36*
X28490000Y46602720D02*
G01*
X28089649Y46602720D01*
X28089649Y47250000D01*
X28490000Y47250000D01*
X28490000Y46602720D01*
G37*
X28490000Y42849050D02*
X28089914Y42849050D01*
X28089914Y43500000D01*
X28490000Y43500000D01*
X28490000Y42849050D01*
G36*
X28490000Y42849050D02*
G01*
X28089914Y42849050D01*
X28089914Y43500000D01*
X28490000Y43500000D01*
X28490000Y42849050D01*
G37*
X28990000Y46600440D02*
X28590085Y46600440D01*
X28590085Y47250000D01*
X28990000Y47250000D01*
X28990000Y46600440D01*
G36*
X28990000Y46600440D02*
G01*
X28590085Y46600440D01*
X28590085Y47250000D01*
X28990000Y47250000D01*
X28990000Y46600440D01*
G37*
X28990000Y42848060D02*
X28590265Y42848060D01*
X28590265Y43500000D01*
X28990000Y43500000D01*
X28990000Y42848060D01*
G36*
X28990000Y42848060D02*
G01*
X28590265Y42848060D01*
X28590265Y43500000D01*
X28990000Y43500000D01*
X28990000Y42848060D01*
G37*
X29490000Y46600010D02*
X29090003Y46600010D01*
X29090003Y47250000D01*
X29490000Y47250000D01*
X29490000Y46600010D01*
G36*
X29490000Y46600010D02*
G01*
X29090003Y46600010D01*
X29090003Y47250000D01*
X29490000Y47250000D01*
X29490000Y46600010D01*
G37*
X29490000Y42848870D02*
X29090412Y42848870D01*
X29090412Y43500000D01*
X29490000Y43500000D01*
X29490000Y42848870D01*
G36*
X29490000Y42848870D02*
G01*
X29090412Y42848870D01*
X29090412Y43500000D01*
X29490000Y43500000D01*
X29490000Y42848870D01*
G37*
X29990000Y46852500D02*
X29591810Y46852500D01*
X29591810Y47250000D01*
X29990000Y47250000D01*
X29990000Y46852500D01*
G36*
X29990000Y46852500D02*
G01*
X29591810Y46852500D01*
X29591810Y47250000D01*
X29990000Y47250000D01*
X29990000Y46852500D01*
G37*
X30492355Y43850275D02*
X29840275Y43850275D01*
X29840275Y44247645D01*
X30492355Y44247645D01*
X30492355Y43850275D01*
G36*
X30492355Y43850275D02*
G01*
X29840275Y43850275D01*
X29840275Y44247645D01*
X30492355Y44247645D01*
X30492355Y43850275D01*
G37*
X30491069Y44850721D02*
X29840721Y44850721D01*
X29840721Y45248931D01*
X30491069Y45248931D01*
X30491069Y44850721D01*
G36*
X30491069Y44850721D02*
G01*
X29840721Y44850721D01*
X29840721Y45248931D01*
X30491069Y45248931D01*
X30491069Y44850721D01*
G37*
X30492194Y44350746D02*
X29840747Y44350746D01*
X29840747Y44747806D01*
X30492194Y44747806D01*
X30492194Y44350746D01*
G36*
X30492194Y44350746D02*
G01*
X29840747Y44350746D01*
X29840747Y44747806D01*
X30492194Y44747806D01*
X30492194Y44350746D01*
G37*
X30490431Y45851009D02*
X29841009Y45851009D01*
X29841009Y46249569D01*
X30490431Y46249569D01*
X30490431Y45851009D01*
G36*
X30490431Y45851009D02*
G01*
X29841009Y45851009D01*
X29841009Y46249569D01*
X30490431Y46249569D01*
X30490431Y45851009D01*
G37*
X30491061Y45351309D02*
X29841309Y45351309D01*
X29841309Y45748939D01*
X30491061Y45748939D01*
X30491061Y45351309D01*
G36*
X30491061Y45351309D02*
G01*
X29841309Y45351309D01*
X29841309Y45748939D01*
X30491061Y45748939D01*
X30491061Y45351309D01*
G37*
X29990000Y42849060D02*
X29590560Y42849060D01*
X29590560Y43250000D01*
X29990000Y43250000D01*
X29990000Y42849060D01*
G36*
X29990000Y42849060D02*
G01*
X29590560Y42849060D01*
X29590560Y43250000D01*
X29990000Y43250000D01*
X29990000Y42849060D01*
G37*
X30490195Y43350005D02*
X30090005Y43350005D01*
X30090005Y43749805D01*
X30490195Y43749805D01*
X30490195Y43350005D01*
G36*
X30490195Y43350005D02*
G01*
X30090005Y43350005D01*
X30090005Y43749805D01*
X30490195Y43749805D01*
X30490195Y43350005D01*
G37*
X30490105Y46350645D02*
X30090645Y46350645D01*
X30090645Y46749895D01*
X30490105Y46749895D01*
X30490105Y46350645D01*
G36*
X30490105Y46350645D02*
G01*
X30090645Y46350645D01*
X30090645Y46749895D01*
X30490105Y46749895D01*
X30490105Y46350645D01*
G37*
X26690000Y43525000D02*
X26515000Y43350000D01*
X26490000Y43350000D01*
X26490000Y43750000D01*
X26690000Y43750000D01*
X26690000Y43525000D01*
G36*
X26690000Y43525000D02*
G01*
X26515000Y43350000D01*
X26490000Y43350000D01*
X26490000Y43750000D01*
X26690000Y43750000D01*
X26690000Y43525000D01*
G37*
X26690000Y46575000D02*
X26690000Y46350000D01*
X26490000Y46350000D01*
X26490000Y46750000D01*
X26515000Y46750000D01*
X26690000Y46575000D01*
G36*
X26690000Y46575000D02*
G01*
X26690000Y46350000D01*
X26490000Y46350000D01*
X26490000Y46750000D01*
X26515000Y46750000D01*
X26690000Y46575000D01*
G37*
X26990000Y46650000D02*
X26765000Y46650000D01*
X26590000Y46825000D01*
X26590000Y46850000D01*
X26990000Y46850000D01*
X26990000Y46650000D01*
G36*
X26990000Y46650000D02*
G01*
X26765000Y46650000D01*
X26590000Y46825000D01*
X26590000Y46850000D01*
X26990000Y46850000D01*
X26990000Y46650000D01*
G37*
X26990000Y43250000D02*
X26590000Y43250000D01*
X26590000Y43275000D01*
X26765000Y43450000D01*
X26990000Y43450000D01*
X26990000Y43250000D01*
G36*
X26990000Y43250000D02*
G01*
X26590000Y43250000D01*
X26590000Y43275000D01*
X26765000Y43450000D01*
X26990000Y43450000D01*
X26990000Y43250000D01*
G37*
X29990000Y46825000D02*
X29815000Y46650000D01*
X29590000Y46650000D01*
X29590000Y46850000D01*
X29990000Y46850000D01*
X29990000Y46825000D01*
G36*
X29990000Y46825000D02*
G01*
X29815000Y46650000D01*
X29590000Y46650000D01*
X29590000Y46850000D01*
X29990000Y46850000D01*
X29990000Y46825000D01*
G37*
X29990000Y43275000D02*
X29990000Y43250000D01*
X29590000Y43250000D01*
X29590000Y43450000D01*
X29815000Y43450000D01*
X29990000Y43275000D01*
G36*
X29990000Y43275000D02*
G01*
X29990000Y43250000D01*
X29590000Y43250000D01*
X29590000Y43450000D01*
X29815000Y43450000D01*
X29990000Y43275000D01*
G37*
X30090000Y43350000D02*
X30065000Y43350000D01*
X29890000Y43525000D01*
X29890000Y43750000D01*
X30090000Y43750000D01*
X30090000Y43350000D01*
G36*
X30090000Y43350000D02*
G01*
X30065000Y43350000D01*
X29890000Y43525000D01*
X29890000Y43750000D01*
X30090000Y43750000D01*
X30090000Y43350000D01*
G37*
X30090000Y46350000D02*
X29890000Y46350000D01*
X29890000Y46575000D01*
X30065000Y46750000D01*
X30090000Y46750000D01*
X30090000Y46350000D01*
G36*
X30090000Y46350000D02*
G01*
X29890000Y46350000D01*
X29890000Y46575000D01*
X30065000Y46750000D01*
X30090000Y46750000D01*
X30090000Y46350000D01*
G37*
X26738135Y100148425D02*
X26088425Y100148425D01*
X26088425Y100551865D01*
X26738135Y100551865D01*
X26738135Y100148425D01*
G36*
X26738135Y100148425D02*
G01*
X26088425Y100148425D01*
X26088425Y100551865D01*
X26738135Y100551865D01*
X26738135Y100148425D01*
G37*
X26739416Y99148643D02*
X26088643Y99148643D01*
X26088643Y99550583D01*
X26739416Y99550583D01*
X26739416Y99148643D01*
G36*
X26739416Y99148643D02*
G01*
X26088643Y99148643D01*
X26088643Y99550583D01*
X26739416Y99550583D01*
X26739416Y99148643D01*
G37*
X26737786Y100648874D02*
X26088873Y100648874D01*
X26088873Y101052214D01*
X26737786Y101052214D01*
X26737786Y100648874D01*
G36*
X26737786Y100648874D02*
G01*
X26088873Y100648874D01*
X26088873Y101052214D01*
X26737786Y101052214D01*
X26737786Y100648874D01*
G37*
X26739770Y98648950D02*
X26088950Y98648950D01*
X26088950Y99050230D01*
X26739770Y99050230D01*
X26739770Y98648950D01*
G36*
X26739770Y98648950D02*
G01*
X26088950Y98648950D01*
X26088950Y99050230D01*
X26739770Y99050230D01*
X26739770Y98648950D01*
G37*
X26739620Y99649479D02*
X26089479Y99649479D01*
X26089479Y100050380D01*
X26739620Y100050380D01*
X26739620Y99649479D01*
G36*
X26739620Y99649479D02*
G01*
X26089479Y99649479D01*
X26089479Y100050380D01*
X26739620Y100050380D01*
X26739620Y99649479D01*
G37*
X26489165Y101149785D02*
X26089785Y101149785D01*
X26089785Y101550835D01*
X26489165Y101550835D01*
X26489165Y101149785D01*
G36*
X26489165Y101149785D02*
G01*
X26089785Y101149785D01*
X26089785Y101550835D01*
X26489165Y101550835D01*
X26489165Y101149785D01*
G37*
X26489930Y98149450D02*
X26089450Y98149450D01*
X26089450Y98550070D01*
X26489930Y98550070D01*
X26489930Y98149450D01*
G36*
X26489930Y98149450D02*
G01*
X26089450Y98149450D01*
X26089450Y98550070D01*
X26489930Y98550070D01*
X26489930Y98149450D01*
G37*
X26990000Y101652050D02*
X26588060Y101652050D01*
X26588060Y102050000D01*
X26990000Y102050000D01*
X26990000Y101652050D01*
G36*
X26990000Y101652050D02*
G01*
X26588060Y101652050D01*
X26588060Y102050000D01*
X26990000Y102050000D01*
X26990000Y101652050D01*
G37*
X26990000Y97646080D02*
X26586970Y97646080D01*
X26586970Y98050000D01*
X26990000Y98050000D01*
X26990000Y97646080D01*
G36*
X26990000Y97646080D02*
G01*
X26586970Y97646080D01*
X26586970Y98050000D01*
X26990000Y98050000D01*
X26990000Y97646080D01*
G37*
X27490000Y101400110D02*
X27089920Y101400110D01*
X27089920Y102050000D01*
X27490000Y102050000D01*
X27490000Y101400110D01*
G36*
X27490000Y101400110D02*
G01*
X27089920Y101400110D01*
X27089920Y102050000D01*
X27490000Y102050000D01*
X27490000Y101400110D01*
G37*
X27490000Y97647600D02*
X27088690Y97647600D01*
X27088690Y98300000D01*
X27490000Y98300000D01*
X27490000Y97647600D01*
G36*
X27490000Y97647600D02*
G01*
X27088690Y97647600D01*
X27088690Y98300000D01*
X27490000Y98300000D01*
X27490000Y97647600D01*
G37*
X27990000Y101401040D02*
X27589531Y101401040D01*
X27589531Y102050000D01*
X27990000Y102050000D01*
X27990000Y101401040D01*
G36*
X27990000Y101401040D02*
G01*
X27589531Y101401040D01*
X27589531Y102050000D01*
X27990000Y102050000D01*
X27990000Y101401040D01*
G37*
X27990000Y97649880D02*
X27589962Y97649880D01*
X27589962Y98300000D01*
X27990000Y98300000D01*
X27990000Y97649880D01*
G36*
X27990000Y97649880D02*
G01*
X27589962Y97649880D01*
X27589962Y98300000D01*
X27990000Y98300000D01*
X27990000Y97649880D01*
G37*
X28490000Y101402720D02*
X28089649Y101402720D01*
X28089649Y102050000D01*
X28490000Y102050000D01*
X28490000Y101402720D01*
G36*
X28490000Y101402720D02*
G01*
X28089649Y101402720D01*
X28089649Y102050000D01*
X28490000Y102050000D01*
X28490000Y101402720D01*
G37*
X28490000Y97649050D02*
X28089914Y97649050D01*
X28089914Y98300000D01*
X28490000Y98300000D01*
X28490000Y97649050D01*
G36*
X28490000Y97649050D02*
G01*
X28089914Y97649050D01*
X28089914Y98300000D01*
X28490000Y98300000D01*
X28490000Y97649050D01*
G37*
X28990000Y101400440D02*
X28590085Y101400440D01*
X28590085Y102050000D01*
X28990000Y102050000D01*
X28990000Y101400440D01*
G36*
X28990000Y101400440D02*
G01*
X28590085Y101400440D01*
X28590085Y102050000D01*
X28990000Y102050000D01*
X28990000Y101400440D01*
G37*
X28990000Y97648060D02*
X28590265Y97648060D01*
X28590265Y98300000D01*
X28990000Y98300000D01*
X28990000Y97648060D01*
G36*
X28990000Y97648060D02*
G01*
X28590265Y97648060D01*
X28590265Y98300000D01*
X28990000Y98300000D01*
X28990000Y97648060D01*
G37*
X29490000Y101400010D02*
X29090003Y101400010D01*
X29090003Y102050000D01*
X29490000Y102050000D01*
X29490000Y101400010D01*
G36*
X29490000Y101400010D02*
G01*
X29090003Y101400010D01*
X29090003Y102050000D01*
X29490000Y102050000D01*
X29490000Y101400010D01*
G37*
X29490000Y97648870D02*
X29090412Y97648870D01*
X29090412Y98300000D01*
X29490000Y98300000D01*
X29490000Y97648870D01*
G36*
X29490000Y97648870D02*
G01*
X29090412Y97648870D01*
X29090412Y98300000D01*
X29490000Y98300000D01*
X29490000Y97648870D01*
G37*
X29990000Y101652500D02*
X29591810Y101652500D01*
X29591810Y102050000D01*
X29990000Y102050000D01*
X29990000Y101652500D01*
G36*
X29990000Y101652500D02*
G01*
X29591810Y101652500D01*
X29591810Y102050000D01*
X29990000Y102050000D01*
X29990000Y101652500D01*
G37*
X30492355Y98650275D02*
X29840275Y98650275D01*
X29840275Y99047645D01*
X30492355Y99047645D01*
X30492355Y98650275D01*
G36*
X30492355Y98650275D02*
G01*
X29840275Y98650275D01*
X29840275Y99047645D01*
X30492355Y99047645D01*
X30492355Y98650275D01*
G37*
X30491069Y99650721D02*
X29840721Y99650721D01*
X29840721Y100048931D01*
X30491069Y100048931D01*
X30491069Y99650721D01*
G36*
X30491069Y99650721D02*
G01*
X29840721Y99650721D01*
X29840721Y100048931D01*
X30491069Y100048931D01*
X30491069Y99650721D01*
G37*
X30492194Y99150746D02*
X29840747Y99150746D01*
X29840747Y99547806D01*
X30492194Y99547806D01*
X30492194Y99150746D01*
G36*
X30492194Y99150746D02*
G01*
X29840747Y99150746D01*
X29840747Y99547806D01*
X30492194Y99547806D01*
X30492194Y99150746D01*
G37*
X30490431Y100651009D02*
X29841009Y100651009D01*
X29841009Y101049569D01*
X30490431Y101049569D01*
X30490431Y100651009D01*
G36*
X30490431Y100651009D02*
G01*
X29841009Y100651009D01*
X29841009Y101049569D01*
X30490431Y101049569D01*
X30490431Y100651009D01*
G37*
X30491061Y100151309D02*
X29841309Y100151309D01*
X29841309Y100548939D01*
X30491061Y100548939D01*
X30491061Y100151309D01*
G36*
X30491061Y100151309D02*
G01*
X29841309Y100151309D01*
X29841309Y100548939D01*
X30491061Y100548939D01*
X30491061Y100151309D01*
G37*
X29990000Y97649060D02*
X29590560Y97649060D01*
X29590560Y98050000D01*
X29990000Y98050000D01*
X29990000Y97649060D01*
G36*
X29990000Y97649060D02*
G01*
X29590560Y97649060D01*
X29590560Y98050000D01*
X29990000Y98050000D01*
X29990000Y97649060D01*
G37*
X30490195Y98150005D02*
X30090005Y98150005D01*
X30090005Y98549805D01*
X30490195Y98549805D01*
X30490195Y98150005D01*
G36*
X30490195Y98150005D02*
G01*
X30090005Y98150005D01*
X30090005Y98549805D01*
X30490195Y98549805D01*
X30490195Y98150005D01*
G37*
X30490105Y101150645D02*
X30090645Y101150645D01*
X30090645Y101549895D01*
X30490105Y101549895D01*
X30490105Y101150645D01*
G36*
X30490105Y101150645D02*
G01*
X30090645Y101150645D01*
X30090645Y101549895D01*
X30490105Y101549895D01*
X30490105Y101150645D01*
G37*
X26690000Y98325000D02*
X26515000Y98150000D01*
X26490000Y98150000D01*
X26490000Y98550000D01*
X26690000Y98550000D01*
X26690000Y98325000D01*
G36*
X26690000Y98325000D02*
G01*
X26515000Y98150000D01*
X26490000Y98150000D01*
X26490000Y98550000D01*
X26690000Y98550000D01*
X26690000Y98325000D01*
G37*
X26690000Y101375000D02*
X26690000Y101150000D01*
X26490000Y101150000D01*
X26490000Y101550000D01*
X26515000Y101550000D01*
X26690000Y101375000D01*
G36*
X26690000Y101375000D02*
G01*
X26690000Y101150000D01*
X26490000Y101150000D01*
X26490000Y101550000D01*
X26515000Y101550000D01*
X26690000Y101375000D01*
G37*
X26990000Y101450000D02*
X26765000Y101450000D01*
X26590000Y101625000D01*
X26590000Y101650000D01*
X26990000Y101650000D01*
X26990000Y101450000D01*
G36*
X26990000Y101450000D02*
G01*
X26765000Y101450000D01*
X26590000Y101625000D01*
X26590000Y101650000D01*
X26990000Y101650000D01*
X26990000Y101450000D01*
G37*
X26990000Y98050000D02*
X26590000Y98050000D01*
X26590000Y98075000D01*
X26765000Y98250000D01*
X26990000Y98250000D01*
X26990000Y98050000D01*
G36*
X26990000Y98050000D02*
G01*
X26590000Y98050000D01*
X26590000Y98075000D01*
X26765000Y98250000D01*
X26990000Y98250000D01*
X26990000Y98050000D01*
G37*
X29990000Y101625000D02*
X29815000Y101450000D01*
X29590000Y101450000D01*
X29590000Y101650000D01*
X29990000Y101650000D01*
X29990000Y101625000D01*
G36*
X29990000Y101625000D02*
G01*
X29815000Y101450000D01*
X29590000Y101450000D01*
X29590000Y101650000D01*
X29990000Y101650000D01*
X29990000Y101625000D01*
G37*
X29990000Y98075000D02*
X29990000Y98050000D01*
X29590000Y98050000D01*
X29590000Y98250000D01*
X29815000Y98250000D01*
X29990000Y98075000D01*
G36*
X29990000Y98075000D02*
G01*
X29990000Y98050000D01*
X29590000Y98050000D01*
X29590000Y98250000D01*
X29815000Y98250000D01*
X29990000Y98075000D01*
G37*
X30090000Y98150000D02*
X30065000Y98150000D01*
X29890000Y98325000D01*
X29890000Y98550000D01*
X30090000Y98550000D01*
X30090000Y98150000D01*
G36*
X30090000Y98150000D02*
G01*
X30065000Y98150000D01*
X29890000Y98325000D01*
X29890000Y98550000D01*
X30090000Y98550000D01*
X30090000Y98150000D01*
G37*
X30090000Y101150000D02*
X29890000Y101150000D01*
X29890000Y101375000D01*
X30065000Y101550000D01*
X30090000Y101550000D01*
X30090000Y101150000D01*
G36*
X30090000Y101150000D02*
G01*
X29890000Y101150000D01*
X29890000Y101375000D01*
X30065000Y101550000D01*
X30090000Y101550000D01*
X30090000Y101150000D01*
G37*
X65938135Y100148425D02*
X65288425Y100148425D01*
X65288425Y100551865D01*
X65938135Y100551865D01*
X65938135Y100148425D01*
G36*
X65938135Y100148425D02*
G01*
X65288425Y100148425D01*
X65288425Y100551865D01*
X65938135Y100551865D01*
X65938135Y100148425D01*
G37*
X65939416Y99148643D02*
X65288643Y99148643D01*
X65288643Y99550583D01*
X65939416Y99550583D01*
X65939416Y99148643D01*
G36*
X65939416Y99148643D02*
G01*
X65288643Y99148643D01*
X65288643Y99550583D01*
X65939416Y99550583D01*
X65939416Y99148643D01*
G37*
X65937786Y100648874D02*
X65288873Y100648874D01*
X65288873Y101052214D01*
X65937786Y101052214D01*
X65937786Y100648874D01*
G36*
X65937786Y100648874D02*
G01*
X65288873Y100648874D01*
X65288873Y101052214D01*
X65937786Y101052214D01*
X65937786Y100648874D01*
G37*
X65939770Y98648950D02*
X65288950Y98648950D01*
X65288950Y99050230D01*
X65939770Y99050230D01*
X65939770Y98648950D01*
G36*
X65939770Y98648950D02*
G01*
X65288950Y98648950D01*
X65288950Y99050230D01*
X65939770Y99050230D01*
X65939770Y98648950D01*
G37*
X65939620Y99649479D02*
X65289479Y99649479D01*
X65289479Y100050380D01*
X65939620Y100050380D01*
X65939620Y99649479D01*
G36*
X65939620Y99649479D02*
G01*
X65289479Y99649479D01*
X65289479Y100050380D01*
X65939620Y100050380D01*
X65939620Y99649479D01*
G37*
X65689165Y101149785D02*
X65289785Y101149785D01*
X65289785Y101550835D01*
X65689165Y101550835D01*
X65689165Y101149785D01*
G36*
X65689165Y101149785D02*
G01*
X65289785Y101149785D01*
X65289785Y101550835D01*
X65689165Y101550835D01*
X65689165Y101149785D01*
G37*
X65689930Y98149450D02*
X65289450Y98149450D01*
X65289450Y98550070D01*
X65689930Y98550070D01*
X65689930Y98149450D01*
G36*
X65689930Y98149450D02*
G01*
X65289450Y98149450D01*
X65289450Y98550070D01*
X65689930Y98550070D01*
X65689930Y98149450D01*
G37*
X66190000Y101652050D02*
X65788060Y101652050D01*
X65788060Y102050000D01*
X66190000Y102050000D01*
X66190000Y101652050D01*
G36*
X66190000Y101652050D02*
G01*
X65788060Y101652050D01*
X65788060Y102050000D01*
X66190000Y102050000D01*
X66190000Y101652050D01*
G37*
X66190000Y97646080D02*
X65786970Y97646080D01*
X65786970Y98050000D01*
X66190000Y98050000D01*
X66190000Y97646080D01*
G36*
X66190000Y97646080D02*
G01*
X65786970Y97646080D01*
X65786970Y98050000D01*
X66190000Y98050000D01*
X66190000Y97646080D01*
G37*
X66690000Y101400110D02*
X66289920Y101400110D01*
X66289920Y102050000D01*
X66690000Y102050000D01*
X66690000Y101400110D01*
G36*
X66690000Y101400110D02*
G01*
X66289920Y101400110D01*
X66289920Y102050000D01*
X66690000Y102050000D01*
X66690000Y101400110D01*
G37*
X66690000Y97647600D02*
X66288690Y97647600D01*
X66288690Y98300000D01*
X66690000Y98300000D01*
X66690000Y97647600D01*
G36*
X66690000Y97647600D02*
G01*
X66288690Y97647600D01*
X66288690Y98300000D01*
X66690000Y98300000D01*
X66690000Y97647600D01*
G37*
X67190000Y101401040D02*
X66789531Y101401040D01*
X66789531Y102050000D01*
X67190000Y102050000D01*
X67190000Y101401040D01*
G36*
X67190000Y101401040D02*
G01*
X66789531Y101401040D01*
X66789531Y102050000D01*
X67190000Y102050000D01*
X67190000Y101401040D01*
G37*
X67190000Y97649880D02*
X66789962Y97649880D01*
X66789962Y98300000D01*
X67190000Y98300000D01*
X67190000Y97649880D01*
G36*
X67190000Y97649880D02*
G01*
X66789962Y97649880D01*
X66789962Y98300000D01*
X67190000Y98300000D01*
X67190000Y97649880D01*
G37*
X67690000Y101402720D02*
X67289649Y101402720D01*
X67289649Y102050000D01*
X67690000Y102050000D01*
X67690000Y101402720D01*
G36*
X67690000Y101402720D02*
G01*
X67289649Y101402720D01*
X67289649Y102050000D01*
X67690000Y102050000D01*
X67690000Y101402720D01*
G37*
X67690000Y97649050D02*
X67289914Y97649050D01*
X67289914Y98300000D01*
X67690000Y98300000D01*
X67690000Y97649050D01*
G36*
X67690000Y97649050D02*
G01*
X67289914Y97649050D01*
X67289914Y98300000D01*
X67690000Y98300000D01*
X67690000Y97649050D01*
G37*
X68190000Y101400440D02*
X67790085Y101400440D01*
X67790085Y102050000D01*
X68190000Y102050000D01*
X68190000Y101400440D01*
G36*
X68190000Y101400440D02*
G01*
X67790085Y101400440D01*
X67790085Y102050000D01*
X68190000Y102050000D01*
X68190000Y101400440D01*
G37*
X68190000Y97648060D02*
X67790265Y97648060D01*
X67790265Y98300000D01*
X68190000Y98300000D01*
X68190000Y97648060D01*
G36*
X68190000Y97648060D02*
G01*
X67790265Y97648060D01*
X67790265Y98300000D01*
X68190000Y98300000D01*
X68190000Y97648060D01*
G37*
X68690000Y101400010D02*
X68290003Y101400010D01*
X68290003Y102050000D01*
X68690000Y102050000D01*
X68690000Y101400010D01*
G36*
X68690000Y101400010D02*
G01*
X68290003Y101400010D01*
X68290003Y102050000D01*
X68690000Y102050000D01*
X68690000Y101400010D01*
G37*
X68690000Y97648870D02*
X68290412Y97648870D01*
X68290412Y98300000D01*
X68690000Y98300000D01*
X68690000Y97648870D01*
G36*
X68690000Y97648870D02*
G01*
X68290412Y97648870D01*
X68290412Y98300000D01*
X68690000Y98300000D01*
X68690000Y97648870D01*
G37*
X69190000Y101652500D02*
X68791810Y101652500D01*
X68791810Y102050000D01*
X69190000Y102050000D01*
X69190000Y101652500D01*
G36*
X69190000Y101652500D02*
G01*
X68791810Y101652500D01*
X68791810Y102050000D01*
X69190000Y102050000D01*
X69190000Y101652500D01*
G37*
X69692355Y98650275D02*
X69040275Y98650275D01*
X69040275Y99047645D01*
X69692355Y99047645D01*
X69692355Y98650275D01*
G36*
X69692355Y98650275D02*
G01*
X69040275Y98650275D01*
X69040275Y99047645D01*
X69692355Y99047645D01*
X69692355Y98650275D01*
G37*
X69691069Y99650721D02*
X69040721Y99650721D01*
X69040721Y100048931D01*
X69691069Y100048931D01*
X69691069Y99650721D01*
G36*
X69691069Y99650721D02*
G01*
X69040721Y99650721D01*
X69040721Y100048931D01*
X69691069Y100048931D01*
X69691069Y99650721D01*
G37*
X69692194Y99150746D02*
X69040747Y99150746D01*
X69040747Y99547806D01*
X69692194Y99547806D01*
X69692194Y99150746D01*
G36*
X69692194Y99150746D02*
G01*
X69040747Y99150746D01*
X69040747Y99547806D01*
X69692194Y99547806D01*
X69692194Y99150746D01*
G37*
X69690431Y100651009D02*
X69041009Y100651009D01*
X69041009Y101049569D01*
X69690431Y101049569D01*
X69690431Y100651009D01*
G36*
X69690431Y100651009D02*
G01*
X69041009Y100651009D01*
X69041009Y101049569D01*
X69690431Y101049569D01*
X69690431Y100651009D01*
G37*
X69691061Y100151309D02*
X69041309Y100151309D01*
X69041309Y100548939D01*
X69691061Y100548939D01*
X69691061Y100151309D01*
G36*
X69691061Y100151309D02*
G01*
X69041309Y100151309D01*
X69041309Y100548939D01*
X69691061Y100548939D01*
X69691061Y100151309D01*
G37*
X69190000Y97649060D02*
X68790560Y97649060D01*
X68790560Y98050000D01*
X69190000Y98050000D01*
X69190000Y97649060D01*
G36*
X69190000Y97649060D02*
G01*
X68790560Y97649060D01*
X68790560Y98050000D01*
X69190000Y98050000D01*
X69190000Y97649060D01*
G37*
X69690195Y98150005D02*
X69290005Y98150005D01*
X69290005Y98549805D01*
X69690195Y98549805D01*
X69690195Y98150005D01*
G36*
X69690195Y98150005D02*
G01*
X69290005Y98150005D01*
X69290005Y98549805D01*
X69690195Y98549805D01*
X69690195Y98150005D01*
G37*
X69690105Y101150645D02*
X69290645Y101150645D01*
X69290645Y101549895D01*
X69690105Y101549895D01*
X69690105Y101150645D01*
G36*
X69690105Y101150645D02*
G01*
X69290645Y101150645D01*
X69290645Y101549895D01*
X69690105Y101549895D01*
X69690105Y101150645D01*
G37*
X65890000Y98325000D02*
X65715000Y98150000D01*
X65690000Y98150000D01*
X65690000Y98550000D01*
X65890000Y98550000D01*
X65890000Y98325000D01*
G36*
X65890000Y98325000D02*
G01*
X65715000Y98150000D01*
X65690000Y98150000D01*
X65690000Y98550000D01*
X65890000Y98550000D01*
X65890000Y98325000D01*
G37*
X65890000Y101375000D02*
X65890000Y101150000D01*
X65690000Y101150000D01*
X65690000Y101550000D01*
X65715000Y101550000D01*
X65890000Y101375000D01*
G36*
X65890000Y101375000D02*
G01*
X65890000Y101150000D01*
X65690000Y101150000D01*
X65690000Y101550000D01*
X65715000Y101550000D01*
X65890000Y101375000D01*
G37*
X66190000Y101450000D02*
X65965000Y101450000D01*
X65790000Y101625000D01*
X65790000Y101650000D01*
X66190000Y101650000D01*
X66190000Y101450000D01*
G36*
X66190000Y101450000D02*
G01*
X65965000Y101450000D01*
X65790000Y101625000D01*
X65790000Y101650000D01*
X66190000Y101650000D01*
X66190000Y101450000D01*
G37*
X66190000Y98050000D02*
X65790000Y98050000D01*
X65790000Y98075000D01*
X65965000Y98250000D01*
X66190000Y98250000D01*
X66190000Y98050000D01*
G36*
X66190000Y98050000D02*
G01*
X65790000Y98050000D01*
X65790000Y98075000D01*
X65965000Y98250000D01*
X66190000Y98250000D01*
X66190000Y98050000D01*
G37*
X69190000Y101625000D02*
X69015000Y101450000D01*
X68790000Y101450000D01*
X68790000Y101650000D01*
X69190000Y101650000D01*
X69190000Y101625000D01*
G36*
X69190000Y101625000D02*
G01*
X69015000Y101450000D01*
X68790000Y101450000D01*
X68790000Y101650000D01*
X69190000Y101650000D01*
X69190000Y101625000D01*
G37*
X69190000Y98075000D02*
X69190000Y98050000D01*
X68790000Y98050000D01*
X68790000Y98250000D01*
X69015000Y98250000D01*
X69190000Y98075000D01*
G36*
X69190000Y98075000D02*
G01*
X69190000Y98050000D01*
X68790000Y98050000D01*
X68790000Y98250000D01*
X69015000Y98250000D01*
X69190000Y98075000D01*
G37*
X69290000Y98150000D02*
X69265000Y98150000D01*
X69090000Y98325000D01*
X69090000Y98550000D01*
X69290000Y98550000D01*
X69290000Y98150000D01*
G36*
X69290000Y98150000D02*
G01*
X69265000Y98150000D01*
X69090000Y98325000D01*
X69090000Y98550000D01*
X69290000Y98550000D01*
X69290000Y98150000D01*
G37*
X69290000Y101150000D02*
X69090000Y101150000D01*
X69090000Y101375000D01*
X69265000Y101550000D01*
X69290000Y101550000D01*
X69290000Y101150000D01*
G36*
X69290000Y101150000D02*
G01*
X69090000Y101150000D01*
X69090000Y101375000D01*
X69265000Y101550000D01*
X69290000Y101550000D01*
X69290000Y101150000D01*
G37*
X65938135Y45348425D02*
X65288425Y45348425D01*
X65288425Y45751865D01*
X65938135Y45751865D01*
X65938135Y45348425D01*
G36*
X65938135Y45348425D02*
G01*
X65288425Y45348425D01*
X65288425Y45751865D01*
X65938135Y45751865D01*
X65938135Y45348425D01*
G37*
X65939416Y44348643D02*
X65288643Y44348643D01*
X65288643Y44750583D01*
X65939416Y44750583D01*
X65939416Y44348643D01*
G36*
X65939416Y44348643D02*
G01*
X65288643Y44348643D01*
X65288643Y44750583D01*
X65939416Y44750583D01*
X65939416Y44348643D01*
G37*
X65937786Y45848874D02*
X65288873Y45848874D01*
X65288873Y46252214D01*
X65937786Y46252214D01*
X65937786Y45848874D01*
G36*
X65937786Y45848874D02*
G01*
X65288873Y45848874D01*
X65288873Y46252214D01*
X65937786Y46252214D01*
X65937786Y45848874D01*
G37*
X65939770Y43848950D02*
X65288950Y43848950D01*
X65288950Y44250230D01*
X65939770Y44250230D01*
X65939770Y43848950D01*
G36*
X65939770Y43848950D02*
G01*
X65288950Y43848950D01*
X65288950Y44250230D01*
X65939770Y44250230D01*
X65939770Y43848950D01*
G37*
X65939620Y44849479D02*
X65289479Y44849479D01*
X65289479Y45250380D01*
X65939620Y45250380D01*
X65939620Y44849479D01*
G36*
X65939620Y44849479D02*
G01*
X65289479Y44849479D01*
X65289479Y45250380D01*
X65939620Y45250380D01*
X65939620Y44849479D01*
G37*
X65689165Y46349785D02*
X65289785Y46349785D01*
X65289785Y46750835D01*
X65689165Y46750835D01*
X65689165Y46349785D01*
G36*
X65689165Y46349785D02*
G01*
X65289785Y46349785D01*
X65289785Y46750835D01*
X65689165Y46750835D01*
X65689165Y46349785D01*
G37*
X65689930Y43349450D02*
X65289450Y43349450D01*
X65289450Y43750070D01*
X65689930Y43750070D01*
X65689930Y43349450D01*
G36*
X65689930Y43349450D02*
G01*
X65289450Y43349450D01*
X65289450Y43750070D01*
X65689930Y43750070D01*
X65689930Y43349450D01*
G37*
X66190000Y46852050D02*
X65788060Y46852050D01*
X65788060Y47250000D01*
X66190000Y47250000D01*
X66190000Y46852050D01*
G36*
X66190000Y46852050D02*
G01*
X65788060Y46852050D01*
X65788060Y47250000D01*
X66190000Y47250000D01*
X66190000Y46852050D01*
G37*
X66190000Y42846080D02*
X65786970Y42846080D01*
X65786970Y43250000D01*
X66190000Y43250000D01*
X66190000Y42846080D01*
G36*
X66190000Y42846080D02*
G01*
X65786970Y42846080D01*
X65786970Y43250000D01*
X66190000Y43250000D01*
X66190000Y42846080D01*
G37*
X66690000Y46600110D02*
X66289920Y46600110D01*
X66289920Y47250000D01*
X66690000Y47250000D01*
X66690000Y46600110D01*
G36*
X66690000Y46600110D02*
G01*
X66289920Y46600110D01*
X66289920Y47250000D01*
X66690000Y47250000D01*
X66690000Y46600110D01*
G37*
X66690000Y42847600D02*
X66288690Y42847600D01*
X66288690Y43500000D01*
X66690000Y43500000D01*
X66690000Y42847600D01*
G36*
X66690000Y42847600D02*
G01*
X66288690Y42847600D01*
X66288690Y43500000D01*
X66690000Y43500000D01*
X66690000Y42847600D01*
G37*
X67190000Y46601040D02*
X66789531Y46601040D01*
X66789531Y47250000D01*
X67190000Y47250000D01*
X67190000Y46601040D01*
G36*
X67190000Y46601040D02*
G01*
X66789531Y46601040D01*
X66789531Y47250000D01*
X67190000Y47250000D01*
X67190000Y46601040D01*
G37*
X67190000Y42849880D02*
X66789962Y42849880D01*
X66789962Y43500000D01*
X67190000Y43500000D01*
X67190000Y42849880D01*
G36*
X67190000Y42849880D02*
G01*
X66789962Y42849880D01*
X66789962Y43500000D01*
X67190000Y43500000D01*
X67190000Y42849880D01*
G37*
X67690000Y46602720D02*
X67289649Y46602720D01*
X67289649Y47250000D01*
X67690000Y47250000D01*
X67690000Y46602720D01*
G36*
X67690000Y46602720D02*
G01*
X67289649Y46602720D01*
X67289649Y47250000D01*
X67690000Y47250000D01*
X67690000Y46602720D01*
G37*
X67690000Y42849050D02*
X67289914Y42849050D01*
X67289914Y43500000D01*
X67690000Y43500000D01*
X67690000Y42849050D01*
G36*
X67690000Y42849050D02*
G01*
X67289914Y42849050D01*
X67289914Y43500000D01*
X67690000Y43500000D01*
X67690000Y42849050D01*
G37*
X68190000Y46600440D02*
X67790085Y46600440D01*
X67790085Y47250000D01*
X68190000Y47250000D01*
X68190000Y46600440D01*
G36*
X68190000Y46600440D02*
G01*
X67790085Y46600440D01*
X67790085Y47250000D01*
X68190000Y47250000D01*
X68190000Y46600440D01*
G37*
X68190000Y42848060D02*
X67790265Y42848060D01*
X67790265Y43500000D01*
X68190000Y43500000D01*
X68190000Y42848060D01*
G36*
X68190000Y42848060D02*
G01*
X67790265Y42848060D01*
X67790265Y43500000D01*
X68190000Y43500000D01*
X68190000Y42848060D01*
G37*
X68690000Y46600010D02*
X68290003Y46600010D01*
X68290003Y47250000D01*
X68690000Y47250000D01*
X68690000Y46600010D01*
G36*
X68690000Y46600010D02*
G01*
X68290003Y46600010D01*
X68290003Y47250000D01*
X68690000Y47250000D01*
X68690000Y46600010D01*
G37*
X68690000Y42848870D02*
X68290412Y42848870D01*
X68290412Y43500000D01*
X68690000Y43500000D01*
X68690000Y42848870D01*
G36*
X68690000Y42848870D02*
G01*
X68290412Y42848870D01*
X68290412Y43500000D01*
X68690000Y43500000D01*
X68690000Y42848870D01*
G37*
X69190000Y46852500D02*
X68791810Y46852500D01*
X68791810Y47250000D01*
X69190000Y47250000D01*
X69190000Y46852500D01*
G36*
X69190000Y46852500D02*
G01*
X68791810Y46852500D01*
X68791810Y47250000D01*
X69190000Y47250000D01*
X69190000Y46852500D01*
G37*
X69692355Y43850275D02*
X69040275Y43850275D01*
X69040275Y44247645D01*
X69692355Y44247645D01*
X69692355Y43850275D01*
G36*
X69692355Y43850275D02*
G01*
X69040275Y43850275D01*
X69040275Y44247645D01*
X69692355Y44247645D01*
X69692355Y43850275D01*
G37*
X69691069Y44850721D02*
X69040721Y44850721D01*
X69040721Y45248931D01*
X69691069Y45248931D01*
X69691069Y44850721D01*
G36*
X69691069Y44850721D02*
G01*
X69040721Y44850721D01*
X69040721Y45248931D01*
X69691069Y45248931D01*
X69691069Y44850721D01*
G37*
X69692194Y44350746D02*
X69040747Y44350746D01*
X69040747Y44747806D01*
X69692194Y44747806D01*
X69692194Y44350746D01*
G36*
X69692194Y44350746D02*
G01*
X69040747Y44350746D01*
X69040747Y44747806D01*
X69692194Y44747806D01*
X69692194Y44350746D01*
G37*
X69690431Y45851009D02*
X69041009Y45851009D01*
X69041009Y46249569D01*
X69690431Y46249569D01*
X69690431Y45851009D01*
G36*
X69690431Y45851009D02*
G01*
X69041009Y45851009D01*
X69041009Y46249569D01*
X69690431Y46249569D01*
X69690431Y45851009D01*
G37*
X69691061Y45351309D02*
X69041309Y45351309D01*
X69041309Y45748939D01*
X69691061Y45748939D01*
X69691061Y45351309D01*
G36*
X69691061Y45351309D02*
G01*
X69041309Y45351309D01*
X69041309Y45748939D01*
X69691061Y45748939D01*
X69691061Y45351309D01*
G37*
X69190000Y42849060D02*
X68790560Y42849060D01*
X68790560Y43250000D01*
X69190000Y43250000D01*
X69190000Y42849060D01*
G36*
X69190000Y42849060D02*
G01*
X68790560Y42849060D01*
X68790560Y43250000D01*
X69190000Y43250000D01*
X69190000Y42849060D01*
G37*
X69690195Y43350005D02*
X69290005Y43350005D01*
X69290005Y43749805D01*
X69690195Y43749805D01*
X69690195Y43350005D01*
G36*
X69690195Y43350005D02*
G01*
X69290005Y43350005D01*
X69290005Y43749805D01*
X69690195Y43749805D01*
X69690195Y43350005D01*
G37*
X69690105Y46350645D02*
X69290645Y46350645D01*
X69290645Y46749895D01*
X69690105Y46749895D01*
X69690105Y46350645D01*
G36*
X69690105Y46350645D02*
G01*
X69290645Y46350645D01*
X69290645Y46749895D01*
X69690105Y46749895D01*
X69690105Y46350645D01*
G37*
X65890000Y43525000D02*
X65715000Y43350000D01*
X65690000Y43350000D01*
X65690000Y43750000D01*
X65890000Y43750000D01*
X65890000Y43525000D01*
G36*
X65890000Y43525000D02*
G01*
X65715000Y43350000D01*
X65690000Y43350000D01*
X65690000Y43750000D01*
X65890000Y43750000D01*
X65890000Y43525000D01*
G37*
X65890000Y46575000D02*
X65890000Y46350000D01*
X65690000Y46350000D01*
X65690000Y46750000D01*
X65715000Y46750000D01*
X65890000Y46575000D01*
G36*
X65890000Y46575000D02*
G01*
X65890000Y46350000D01*
X65690000Y46350000D01*
X65690000Y46750000D01*
X65715000Y46750000D01*
X65890000Y46575000D01*
G37*
X66190000Y46650000D02*
X65965000Y46650000D01*
X65790000Y46825000D01*
X65790000Y46850000D01*
X66190000Y46850000D01*
X66190000Y46650000D01*
G36*
X66190000Y46650000D02*
G01*
X65965000Y46650000D01*
X65790000Y46825000D01*
X65790000Y46850000D01*
X66190000Y46850000D01*
X66190000Y46650000D01*
G37*
X66190000Y43250000D02*
X65790000Y43250000D01*
X65790000Y43275000D01*
X65965000Y43450000D01*
X66190000Y43450000D01*
X66190000Y43250000D01*
G36*
X66190000Y43250000D02*
G01*
X65790000Y43250000D01*
X65790000Y43275000D01*
X65965000Y43450000D01*
X66190000Y43450000D01*
X66190000Y43250000D01*
G37*
X69190000Y46825000D02*
X69015000Y46650000D01*
X68790000Y46650000D01*
X68790000Y46850000D01*
X69190000Y46850000D01*
X69190000Y46825000D01*
G36*
X69190000Y46825000D02*
G01*
X69015000Y46650000D01*
X68790000Y46650000D01*
X68790000Y46850000D01*
X69190000Y46850000D01*
X69190000Y46825000D01*
G37*
X69190000Y43275000D02*
X69190000Y43250000D01*
X68790000Y43250000D01*
X68790000Y43450000D01*
X69015000Y43450000D01*
X69190000Y43275000D01*
G36*
X69190000Y43275000D02*
G01*
X69190000Y43250000D01*
X68790000Y43250000D01*
X68790000Y43450000D01*
X69015000Y43450000D01*
X69190000Y43275000D01*
G37*
X69290000Y43350000D02*
X69265000Y43350000D01*
X69090000Y43525000D01*
X69090000Y43750000D01*
X69290000Y43750000D01*
X69290000Y43350000D01*
G36*
X69290000Y43350000D02*
G01*
X69265000Y43350000D01*
X69090000Y43525000D01*
X69090000Y43750000D01*
X69290000Y43750000D01*
X69290000Y43350000D01*
G37*
X69290000Y46350000D02*
X69090000Y46350000D01*
X69090000Y46575000D01*
X69265000Y46750000D01*
X69290000Y46750000D01*
X69290000Y46350000D01*
G36*
X69290000Y46350000D02*
G01*
X69090000Y46350000D01*
X69090000Y46575000D01*
X69265000Y46750000D01*
X69290000Y46750000D01*
X69290000Y46350000D01*
G37*
%TD*%
D11*
%TO.C,KiKit_MB_14_4*%
X75500000Y117350000D03*
%TD*%
%TO.C,KiKit_MB_19_2*%
X46950000Y45700000D03*
%TD*%
%TO.C,KiKit_MB_31_1*%
X63100000Y10250000D03*
%TD*%
%TO.C,KiKit_MB_35_6*%
X10000000Y4000000D03*
%TD*%
%TO.C,KiKit_MB_31_4*%
X60100000Y10250000D03*
%TD*%
D12*
%TO.C,J17*%
X18430000Y101640000D03*
D13*
X18430000Y99640000D03*
X18430000Y97640000D03*
%TD*%
D11*
%TO.C,KiKit_MB_26_1*%
X49450000Y26100000D03*
%TD*%
D12*
%TO.C,J21*%
X18150000Y81040000D03*
D13*
X18150000Y79040000D03*
%TD*%
D11*
%TO.C,KiKit_MB_9_2*%
X49450000Y99500000D03*
%TD*%
%TO.C,KiKit_MB_3_2*%
X46950000Y100500000D03*
%TD*%
D14*
%TO.C,J19*%
X83570000Y87270000D03*
D15*
X83570000Y84730000D03*
%TD*%
D14*
%TO.C,J10*%
X57240000Y114760000D03*
D15*
X59780000Y114760000D03*
%TD*%
D11*
%TO.C,KiKit_MB_6_1*%
X33300000Y117350000D03*
%TD*%
%TO.C,KiKit_MB_36_2*%
X86400000Y7200000D03*
%TD*%
D14*
%TO.C,J11*%
X75840000Y59960000D03*
D15*
X78380000Y59960000D03*
%TD*%
D11*
%TO.C,KiKit_MB_36_10*%
X86400000Y800000D03*
%TD*%
%TO.C,KiKit_MB_13_1*%
X60100000Y117350000D03*
%TD*%
%TO.C,KiKit_MB_5_1*%
X20900000Y117350000D03*
%TD*%
%TO.C,KiKit_MB_17_1*%
X10250000Y43700000D03*
%TD*%
D16*
%TO.C,J16*%
X39030000Y43050000D03*
D13*
X39030000Y45050000D03*
X39030000Y47050000D03*
%TD*%
D11*
%TO.C,KiKit_MB_32_4*%
X72500000Y10250000D03*
%TD*%
%TO.C,KiKit_MB_17_2*%
X10250000Y44700000D03*
%TD*%
D12*
%TO.C,J21*%
X57350000Y26240000D03*
D13*
X57350000Y24240000D03*
%TD*%
D11*
%TO.C,KiKit_MB_33_6*%
X10000000Y123600000D03*
%TD*%
D12*
%TO.C,J17*%
X18430000Y46840000D03*
D13*
X18430000Y44840000D03*
X18430000Y42840000D03*
%TD*%
D11*
%TO.C,KiKit_MB_10_3*%
X49450000Y82900000D03*
%TD*%
%TO.C,KiKit_MB_2_1*%
X10250000Y80900000D03*
%TD*%
%TO.C,KiKit_MB_37_7*%
X4800000Y117600000D03*
%TD*%
%TO.C,KiKit_MB_29_4*%
X63100000Y62550000D03*
%TD*%
%TO.C,KiKit_MB_21_1*%
X20900000Y62550000D03*
%TD*%
%TO.C,KiKit_MB_9_4*%
X49450000Y101500000D03*
%TD*%
%TO.C,KiKit_MB_11_1*%
X86150000Y101500000D03*
%TD*%
%TO.C,KiKit_MB_35_1*%
X10000000Y8000000D03*
%TD*%
%TO.C,KiKit_MB_21_3*%
X22900000Y62550000D03*
%TD*%
%TO.C,KiKit_MB_8_1*%
X36300000Y65050000D03*
%TD*%
%TO.C,KiKit_MB_34_10*%
X86400000Y120400000D03*
%TD*%
%TO.C,KiKit_MB_28_2*%
X86150000Y28100000D03*
%TD*%
D14*
%TO.C,J19*%
X44370000Y87270000D03*
D15*
X44370000Y84730000D03*
%TD*%
D11*
%TO.C,KiKit_MB_8_2*%
X35300000Y65050000D03*
%TD*%
%TO.C,KiKit_MB_39_2*%
X89200000Y117600000D03*
%TD*%
%TO.C,KiKit_MB_37_5*%
X3200000Y117600000D03*
%TD*%
%TO.C,KiKit_MB_7_4*%
X20900000Y65050000D03*
%TD*%
%TO.C,KiKit_MB_5_3*%
X22900000Y117350000D03*
%TD*%
%TO.C,KiKit_MB_32_2*%
X74500000Y10250000D03*
%TD*%
D17*
%TO.C,J20*%
X65800000Y17190000D03*
D18*
X67800000Y17190000D03*
X69800000Y17190000D03*
%TD*%
D11*
%TO.C,KiKit_MB_24_2*%
X35300000Y10250000D03*
%TD*%
%TO.C,KiKit_MB_29_2*%
X61100000Y62550000D03*
%TD*%
%TO.C,KiKit_MB_6_2*%
X34300000Y117350000D03*
%TD*%
%TO.C,KiKit_MB_8_3*%
X34300000Y65050000D03*
%TD*%
D17*
%TO.C,J20*%
X26600000Y17190000D03*
D18*
X28600000Y17190000D03*
X30600000Y17190000D03*
%TD*%
D14*
%TO.C,J14*%
X57240000Y29920000D03*
D15*
X59780000Y29920000D03*
%TD*%
D11*
%TO.C,KiKit_MB_4_3*%
X46950000Y81900000D03*
%TD*%
%TO.C,KiKit_MB_15_4*%
X60100000Y65050000D03*
%TD*%
%TO.C,KiKit_MB_37_3*%
X1600000Y117600000D03*
%TD*%
D16*
%TO.C,J16*%
X39030000Y97850000D03*
D13*
X39030000Y99850000D03*
X39030000Y101850000D03*
%TD*%
D11*
%TO.C,KiKit_MB_22_3*%
X35300000Y62550000D03*
%TD*%
%TO.C,KiKit_MB_39_9*%
X94800000Y117600000D03*
%TD*%
%TO.C,KiKit_MB_40_10*%
X95600000Y10000000D03*
%TD*%
%TO.C,KiKit_MB_34_5*%
X86400000Y124400000D03*
%TD*%
%TO.C,KiKit_MB_16_3*%
X73500000Y65050000D03*
%TD*%
%TO.C,KiKit_MB_1_1*%
X10250000Y98500000D03*
%TD*%
%TO.C,KiKit_MB_37_10*%
X7200000Y117600000D03*
%TD*%
%TO.C,KiKit_MB_35_5*%
X10000000Y4800000D03*
%TD*%
%TO.C,KiKit_MB_18_2*%
X10250000Y27100000D03*
%TD*%
%TO.C,KiKit_MB_12_1*%
X86150000Y83900000D03*
%TD*%
%TO.C,KiKit_MB_23_2*%
X22900000Y10250000D03*
%TD*%
%TO.C,KiKit_MB_17_3*%
X10250000Y45700000D03*
%TD*%
%TO.C,KiKit_MB_36_7*%
X86400000Y3200000D03*
%TD*%
D12*
%TO.C,J21*%
X57350000Y81040000D03*
D13*
X57350000Y79040000D03*
%TD*%
D11*
%TO.C,KiKit_MB_38_3*%
X1600000Y10000000D03*
%TD*%
%TO.C,KiKit_MB_36_1*%
X86400000Y8000000D03*
%TD*%
D14*
%TO.C,J15*%
X75840000Y84720000D03*
D15*
X78380000Y84720000D03*
%TD*%
D11*
%TO.C,KiKit_MB_39_11*%
X96400000Y117600000D03*
%TD*%
%TO.C,KiKit_MB_34_8*%
X86400000Y122000000D03*
%TD*%
%TO.C,KiKit_MB_12_4*%
X86150000Y80900000D03*
%TD*%
%TO.C,KiKit_MB_36_9*%
X86400000Y1600000D03*
%TD*%
%TO.C,KiKit_MB_39_4*%
X90800000Y117600000D03*
%TD*%
%TO.C,KiKit_MB_18_4*%
X10250000Y29100000D03*
%TD*%
%TO.C,KiKit_MB_10_4*%
X49450000Y83900000D03*
%TD*%
%TO.C,KiKit_MB_6_3*%
X35300000Y117350000D03*
%TD*%
%TO.C,KiKit_MB_5_2*%
X21900000Y117350000D03*
%TD*%
%TO.C,KiKit_MB_38_10*%
X7200000Y10000000D03*
%TD*%
%TO.C,KiKit_MB_8_4*%
X33300000Y65050000D03*
%TD*%
%TO.C,KiKit_MB_23_4*%
X20900000Y10250000D03*
%TD*%
D14*
%TO.C,J19*%
X83570000Y32470000D03*
D15*
X83570000Y29930000D03*
%TD*%
D11*
%TO.C,KiKit_MB_20_3*%
X46950000Y27100000D03*
%TD*%
%TO.C,KiKit_MB_10_2*%
X49450000Y81900000D03*
%TD*%
%TO.C,KiKit_MB_3_4*%
X46950000Y98500000D03*
%TD*%
%TO.C,KiKit_MB_39_1*%
X88400000Y117600000D03*
%TD*%
%TO.C,KiKit_MB_40_1*%
X88400000Y10000000D03*
%TD*%
%TO.C,KiKit_MB_2_2*%
X10250000Y81900000D03*
%TD*%
D14*
%TO.C,J13*%
X81030000Y67635000D03*
D15*
X83570000Y67635000D03*
%TD*%
D11*
%TO.C,KiKit_MB_33_7*%
X10000000Y122800000D03*
%TD*%
%TO.C,KiKit_MB_25_1*%
X49450000Y43700000D03*
%TD*%
D14*
%TO.C,J10*%
X57240000Y59960000D03*
D15*
X59780000Y59960000D03*
%TD*%
D11*
%TO.C,KiKit_MB_30_2*%
X73500000Y62550000D03*
%TD*%
%TO.C,KiKit_MB_4_4*%
X46950000Y80900000D03*
%TD*%
D14*
%TO.C,J14*%
X18040000Y84720000D03*
D15*
X20580000Y84720000D03*
%TD*%
D12*
%TO.C,J17*%
X57630000Y46840000D03*
D13*
X57630000Y44840000D03*
X57630000Y42840000D03*
%TD*%
D11*
%TO.C,KiKit_MB_36_4*%
X86400000Y5600000D03*
%TD*%
D14*
%TO.C,J14*%
X18040000Y29920000D03*
D15*
X20580000Y29920000D03*
%TD*%
D11*
%TO.C,KiKit_MB_14_3*%
X74500000Y117350000D03*
%TD*%
%TO.C,KiKit_MB_38_1*%
X0Y10000000D03*
%TD*%
%TO.C,KiKit_MB_16_2*%
X74500000Y65050000D03*
%TD*%
%TO.C,KiKit_MB_38_9*%
X6400000Y10000000D03*
%TD*%
%TO.C,KiKit_MB_18_3*%
X10250000Y28100000D03*
%TD*%
%TO.C,KiKit_MB_38_6*%
X4000000Y10000000D03*
%TD*%
D14*
%TO.C,J14*%
X57240000Y84720000D03*
D15*
X59780000Y84720000D03*
%TD*%
D11*
%TO.C,KiKit_MB_20_2*%
X46950000Y28100000D03*
%TD*%
%TO.C,KiKit_MB_34_1*%
X86400000Y127600000D03*
%TD*%
D14*
%TO.C,J13*%
X41830000Y12835000D03*
D15*
X44370000Y12835000D03*
%TD*%
D11*
%TO.C,KiKit_MB_35_4*%
X10000000Y5600000D03*
%TD*%
%TO.C,KiKit_MB_36_5*%
X86400000Y4800000D03*
%TD*%
%TO.C,KiKit_MB_34_2*%
X86400000Y126800000D03*
%TD*%
%TO.C,KiKit_MB_35_7*%
X10000000Y3200000D03*
%TD*%
%TO.C,KiKit_MB_27_4*%
X86150000Y43700000D03*
%TD*%
%TO.C,KiKit_MB_24_1*%
X36300000Y10250000D03*
%TD*%
%TO.C,KiKit_MB_2_4*%
X10250000Y83900000D03*
%TD*%
%TO.C,KiKit_MB_34_6*%
X86400000Y123600000D03*
%TD*%
%TO.C,KiKit_MB_13_4*%
X63100000Y117350000D03*
%TD*%
%TO.C,KiKit_MB_17_4*%
X10250000Y46700000D03*
%TD*%
%TO.C,KiKit_MB_25_2*%
X49450000Y44700000D03*
%TD*%
D14*
%TO.C,J15*%
X75840000Y29920000D03*
D15*
X78380000Y29920000D03*
%TD*%
D11*
%TO.C,KiKit_MB_33_2*%
X10000000Y126800000D03*
%TD*%
%TO.C,KiKit_MB_21_4*%
X23900000Y62550000D03*
%TD*%
D14*
%TO.C,J12*%
X12830000Y12830000D03*
D15*
X15370000Y12830000D03*
%TD*%
D11*
%TO.C,KiKit_MB_29_1*%
X60100000Y62550000D03*
%TD*%
%TO.C,KiKit_MB_39_10*%
X95600000Y117600000D03*
%TD*%
%TO.C,KiKit_MB_34_4*%
X86400000Y125200000D03*
%TD*%
%TO.C,KiKit_MB_37_8*%
X5600000Y117600000D03*
%TD*%
%TO.C,KiKit_MB_18_1*%
X10250000Y26100000D03*
%TD*%
%TO.C,KiKit_MB_26_4*%
X49450000Y29100000D03*
%TD*%
%TO.C,KiKit_MB_14_1*%
X72500000Y117350000D03*
%TD*%
D14*
%TO.C,J10*%
X18040000Y114760000D03*
D15*
X20580000Y114760000D03*
%TD*%
D11*
%TO.C,KiKit_MB_33_9*%
X10000000Y121200000D03*
%TD*%
%TO.C,KiKit_MB_35_8*%
X10000000Y2400000D03*
%TD*%
%TO.C,KiKit_MB_29_3*%
X62100000Y62550000D03*
%TD*%
D14*
%TO.C,J11*%
X75840000Y114760000D03*
D15*
X78380000Y114760000D03*
%TD*%
D14*
%TO.C,J15*%
X36640000Y29920000D03*
D15*
X39180000Y29920000D03*
%TD*%
D14*
%TO.C,J18*%
X52015000Y32470000D03*
D15*
X52015000Y29930000D03*
%TD*%
D11*
%TO.C,KiKit_MB_33_4*%
X10000000Y125200000D03*
%TD*%
%TO.C,KiKit_MB_24_4*%
X33300000Y10250000D03*
%TD*%
D14*
%TO.C,J13*%
X81030000Y12835000D03*
D15*
X83570000Y12835000D03*
%TD*%
D11*
%TO.C,KiKit_MB_22_4*%
X36300000Y62550000D03*
%TD*%
%TO.C,KiKit_MB_35_2*%
X10000000Y7200000D03*
%TD*%
%TO.C,KiKit_MB_28_4*%
X86150000Y26100000D03*
%TD*%
%TO.C,KiKit_MB_4_1*%
X46950000Y83900000D03*
%TD*%
%TO.C,KiKit_MB_37_9*%
X6400000Y117600000D03*
%TD*%
%TO.C,KiKit_MB_40_8*%
X94000000Y10000000D03*
%TD*%
%TO.C,KiKit_MB_22_2*%
X34300000Y62550000D03*
%TD*%
%TO.C,KiKit_MB_35_11*%
X10000000Y0D03*
%TD*%
D12*
%TO.C,J21*%
X18150000Y26240000D03*
D13*
X18150000Y24240000D03*
%TD*%
D11*
%TO.C,KiKit_MB_15_3*%
X61100000Y65050000D03*
%TD*%
%TO.C,KiKit_MB_7_1*%
X23900000Y65050000D03*
%TD*%
D14*
%TO.C,J10*%
X18040000Y59960000D03*
D15*
X20580000Y59960000D03*
%TD*%
D11*
%TO.C,KiKit_MB_34_11*%
X86400000Y119600000D03*
%TD*%
%TO.C,KiKit_MB_15_2*%
X62100000Y65050000D03*
%TD*%
%TO.C,KiKit_MB_37_11*%
X8000000Y117600000D03*
%TD*%
D14*
%TO.C,J18*%
X12815000Y32470000D03*
D15*
X12815000Y29930000D03*
%TD*%
D11*
%TO.C,KiKit_MB_37_4*%
X2400000Y117600000D03*
%TD*%
D17*
%TO.C,J20*%
X65800000Y71990000D03*
D18*
X67800000Y71990000D03*
X69800000Y71990000D03*
%TD*%
D11*
%TO.C,KiKit_MB_30_1*%
X72500000Y62550000D03*
%TD*%
%TO.C,KiKit_MB_39_8*%
X94000000Y117600000D03*
%TD*%
%TO.C,KiKit_MB_30_3*%
X74500000Y62550000D03*
%TD*%
%TO.C,KiKit_MB_12_2*%
X86150000Y82900000D03*
%TD*%
%TO.C,KiKit_MB_37_6*%
X4000000Y117600000D03*
%TD*%
%TO.C,KiKit_MB_16_4*%
X72500000Y65050000D03*
%TD*%
%TO.C,KiKit_MB_24_3*%
X34300000Y10250000D03*
%TD*%
%TO.C,KiKit_MB_21_2*%
X21900000Y62550000D03*
%TD*%
%TO.C,KiKit_MB_34_3*%
X86400000Y126000000D03*
%TD*%
%TO.C,KiKit_MB_33_3*%
X10000000Y126000000D03*
%TD*%
%TO.C,KiKit_MB_15_1*%
X63100000Y65050000D03*
%TD*%
%TO.C,KiKit_MB_22_1*%
X33300000Y62550000D03*
%TD*%
%TO.C,KiKit_MB_19_3*%
X46950000Y44700000D03*
%TD*%
%TO.C,KiKit_MB_39_7*%
X93200000Y117600000D03*
%TD*%
%TO.C,KiKit_MB_1_2*%
X10250000Y99500000D03*
%TD*%
%TO.C,KiKit_MB_40_5*%
X91600000Y10000000D03*
%TD*%
%TO.C,KiKit_MB_40_2*%
X89200000Y10000000D03*
%TD*%
%TO.C,KiKit_MB_40_7*%
X93200000Y10000000D03*
%TD*%
%TO.C,KiKit_MB_33_11*%
X10000000Y119600000D03*
%TD*%
%TO.C,KiKit_MB_11_3*%
X86150000Y99500000D03*
%TD*%
%TO.C,KiKit_MB_3_1*%
X46950000Y101500000D03*
%TD*%
%TO.C,KiKit_MB_27_2*%
X86150000Y45700000D03*
%TD*%
%TO.C,KiKit_MB_7_3*%
X21900000Y65050000D03*
%TD*%
%TO.C,KiKit_MB_36_3*%
X86400000Y6400000D03*
%TD*%
%TO.C,KiKit_MB_35_10*%
X10000000Y800000D03*
%TD*%
D14*
%TO.C,J18*%
X12815000Y87270000D03*
D15*
X12815000Y84730000D03*
%TD*%
D14*
%TO.C,J15*%
X36640000Y84720000D03*
D15*
X39180000Y84720000D03*
%TD*%
D11*
%TO.C,KiKit_MB_35_3*%
X10000000Y6400000D03*
%TD*%
%TO.C,KiKit_MB_27_1*%
X86150000Y46700000D03*
%TD*%
%TO.C,KiKit_MB_20_4*%
X46950000Y26100000D03*
%TD*%
%TO.C,KiKit_MB_6_4*%
X36300000Y117350000D03*
%TD*%
%TO.C,KiKit_MB_31_3*%
X61100000Y10250000D03*
%TD*%
%TO.C,KiKit_MB_25_4*%
X49450000Y46700000D03*
%TD*%
%TO.C,KiKit_MB_31_2*%
X62100000Y10250000D03*
%TD*%
%TO.C,KiKit_MB_10_1*%
X49450000Y80900000D03*
%TD*%
D14*
%TO.C,J13*%
X41830000Y67635000D03*
D15*
X44370000Y67635000D03*
%TD*%
D11*
%TO.C,KiKit_MB_26_3*%
X49450000Y28100000D03*
%TD*%
%TO.C,KiKit_MB_4_2*%
X46950000Y82900000D03*
%TD*%
%TO.C,KiKit_MB_37_2*%
X800000Y117600000D03*
%TD*%
%TO.C,KiKit_MB_38_4*%
X2400000Y10000000D03*
%TD*%
%TO.C,KiKit_MB_33_5*%
X10000000Y124400000D03*
%TD*%
%TO.C,KiKit_MB_27_3*%
X86150000Y44700000D03*
%TD*%
%TO.C,KiKit_MB_37_1*%
X0Y117600000D03*
%TD*%
D14*
%TO.C,J11*%
X36640000Y114760000D03*
D15*
X39180000Y114760000D03*
%TD*%
D11*
%TO.C,KiKit_MB_40_9*%
X94800000Y10000000D03*
%TD*%
%TO.C,KiKit_MB_32_1*%
X75500000Y10250000D03*
%TD*%
%TO.C,KiKit_MB_11_4*%
X86150000Y98500000D03*
%TD*%
%TO.C,KiKit_MB_14_2*%
X73500000Y117350000D03*
%TD*%
%TO.C,KiKit_MB_3_3*%
X46950000Y99500000D03*
%TD*%
%TO.C,KiKit_MB_12_3*%
X86150000Y81900000D03*
%TD*%
%TO.C,KiKit_MB_32_3*%
X73500000Y10250000D03*
%TD*%
%TO.C,KiKit_MB_34_9*%
X86400000Y121200000D03*
%TD*%
%TO.C,KiKit_MB_28_1*%
X86150000Y29100000D03*
%TD*%
%TO.C,KiKit_MB_38_8*%
X5600000Y10000000D03*
%TD*%
%TO.C,KiKit_MB_20_1*%
X46950000Y29100000D03*
%TD*%
%TO.C,KiKit_MB_39_6*%
X92400000Y117600000D03*
%TD*%
%TO.C,KiKit_MB_9_1*%
X49450000Y98500000D03*
%TD*%
%TO.C,KiKit_MB_13_3*%
X62100000Y117350000D03*
%TD*%
%TO.C,KiKit_MB_9_3*%
X49450000Y100500000D03*
%TD*%
D17*
%TO.C,J20*%
X26600000Y71990000D03*
D18*
X28600000Y71990000D03*
X30600000Y71990000D03*
%TD*%
D11*
%TO.C,KiKit_MB_38_11*%
X8000000Y10000000D03*
%TD*%
%TO.C,KiKit_MB_1_3*%
X10250000Y100500000D03*
%TD*%
%TO.C,KiKit_MB_34_7*%
X86400000Y122800000D03*
%TD*%
%TO.C,KiKit_MB_28_3*%
X86150000Y27100000D03*
%TD*%
%TO.C,KiKit_MB_36_8*%
X86400000Y2400000D03*
%TD*%
D14*
%TO.C,J12*%
X52030000Y12830000D03*
D15*
X54570000Y12830000D03*
%TD*%
D11*
%TO.C,KiKit_MB_13_2*%
X61100000Y117350000D03*
%TD*%
D14*
%TO.C,J12*%
X52030000Y67630000D03*
D15*
X54570000Y67630000D03*
%TD*%
D16*
%TO.C,J16*%
X78230000Y43050000D03*
D13*
X78230000Y45050000D03*
X78230000Y47050000D03*
%TD*%
D11*
%TO.C,KiKit_MB_30_4*%
X75500000Y62550000D03*
%TD*%
D14*
%TO.C,J11*%
X36640000Y59960000D03*
D15*
X39180000Y59960000D03*
%TD*%
D14*
%TO.C,J19*%
X44370000Y32470000D03*
D15*
X44370000Y29930000D03*
%TD*%
D11*
%TO.C,KiKit_MB_33_8*%
X10000000Y122000000D03*
%TD*%
%TO.C,KiKit_MB_36_11*%
X86400000Y0D03*
%TD*%
D16*
%TO.C,J16*%
X78230000Y97850000D03*
D13*
X78230000Y99850000D03*
X78230000Y101850000D03*
%TD*%
D11*
%TO.C,KiKit_MB_39_5*%
X91600000Y117600000D03*
%TD*%
%TO.C,KiKit_MB_40_11*%
X96400000Y10000000D03*
%TD*%
%TO.C,KiKit_MB_19_4*%
X46950000Y43700000D03*
%TD*%
%TO.C,KiKit_MB_1_4*%
X10250000Y101500000D03*
%TD*%
%TO.C,KiKit_MB_40_3*%
X90000000Y10000000D03*
%TD*%
%TO.C,KiKit_MB_2_3*%
X10250000Y82900000D03*
%TD*%
%TO.C,KiKit_MB_33_10*%
X10000000Y120400000D03*
%TD*%
D12*
%TO.C,J17*%
X57630000Y101640000D03*
D13*
X57630000Y99640000D03*
X57630000Y97640000D03*
%TD*%
D11*
%TO.C,KiKit_MB_35_9*%
X10000000Y1600000D03*
%TD*%
%TO.C,KiKit_MB_26_2*%
X49450000Y27100000D03*
%TD*%
%TO.C,KiKit_MB_23_1*%
X23900000Y10250000D03*
%TD*%
D14*
%TO.C,J12*%
X12830000Y67630000D03*
D15*
X15370000Y67630000D03*
%TD*%
D11*
%TO.C,KiKit_MB_38_5*%
X3200000Y10000000D03*
%TD*%
%TO.C,KiKit_MB_38_7*%
X4800000Y10000000D03*
%TD*%
%TO.C,KiKit_MB_39_3*%
X90000000Y117600000D03*
%TD*%
%TO.C,KiKit_MB_36_6*%
X86400000Y4000000D03*
%TD*%
%TO.C,KiKit_MB_25_3*%
X49450000Y45700000D03*
%TD*%
%TO.C,KiKit_MB_33_1*%
X10000000Y127600000D03*
%TD*%
%TO.C,KiKit_MB_16_1*%
X75500000Y65050000D03*
%TD*%
%TO.C,KiKit_MB_38_2*%
X800000Y10000000D03*
%TD*%
%TO.C,KiKit_MB_23_3*%
X21900000Y10250000D03*
%TD*%
%TO.C,KiKit_MB_11_2*%
X86150000Y100500000D03*
%TD*%
%TO.C,KiKit_MB_40_4*%
X90800000Y10000000D03*
%TD*%
%TO.C,KiKit_MB_19_1*%
X46950000Y46700000D03*
%TD*%
%TO.C,KiKit_MB_40_6*%
X92400000Y10000000D03*
%TD*%
%TO.C,KiKit_MB_5_4*%
X23900000Y117350000D03*
%TD*%
%TO.C,KiKit_MB_7_2*%
X22900000Y65050000D03*
%TD*%
D14*
%TO.C,J18*%
X52015000Y87270000D03*
D15*
X52015000Y84730000D03*
%TD*%
D19*
%TO.C,D3*%
X75770000Y43060000D03*
X75770000Y43900000D03*
%TD*%
D20*
%TO.C,J9*%
X64990000Y54115000D03*
X64990000Y52845000D03*
X66260000Y54115000D03*
X66260000Y52845000D03*
X67530000Y54115000D03*
X67530000Y52845000D03*
X68800000Y54115000D03*
X68800000Y52845000D03*
X70070000Y54115000D03*
X70070000Y52845000D03*
%TD*%
D19*
%TO.C,D4*%
X75770000Y47050000D03*
X75770000Y46210000D03*
%TD*%
%TO.C,D1*%
X27080000Y50400000D03*
X27920000Y50400000D03*
%TD*%
D21*
%TO.C,L1*%
X70741000Y22560000D03*
X64899000Y22560000D03*
%TD*%
D20*
%TO.C,J9*%
X25790000Y108915000D03*
X25790000Y107645000D03*
X27060000Y108915000D03*
X27060000Y107645000D03*
X28330000Y108915000D03*
X28330000Y107645000D03*
X29600000Y108915000D03*
X29600000Y107645000D03*
X30870000Y108915000D03*
X30870000Y107645000D03*
%TD*%
D19*
%TO.C,D4*%
X36570000Y47050000D03*
X36570000Y46210000D03*
%TD*%
%TO.C,D2*%
X30097500Y105210000D03*
X29257500Y105210000D03*
%TD*%
%TO.C,D3*%
X36570000Y97860000D03*
X36570000Y98700000D03*
%TD*%
%TO.C,D4*%
X36570000Y101850000D03*
X36570000Y101010000D03*
%TD*%
D21*
%TO.C,L1*%
X31541000Y22560000D03*
X25699000Y22560000D03*
%TD*%
D19*
%TO.C,D1*%
X27080000Y105200000D03*
X27920000Y105200000D03*
%TD*%
D22*
%TO.C,C13*%
X28980000Y95670000D03*
X28980000Y93945000D03*
%TD*%
D19*
%TO.C,D5*%
X59270000Y101620000D03*
X59270000Y100780000D03*
%TD*%
%TO.C,D6*%
X20070000Y42630000D03*
X20070000Y43470000D03*
%TD*%
D22*
%TO.C,C14*%
X27500000Y95670000D03*
X27500000Y93945000D03*
%TD*%
D19*
%TO.C,D2*%
X69297500Y105210000D03*
X68457500Y105210000D03*
%TD*%
%TO.C,D3*%
X75770000Y97860000D03*
X75770000Y98700000D03*
%TD*%
%TO.C,D5*%
X20070000Y46820000D03*
X20070000Y45980000D03*
%TD*%
D22*
%TO.C,C14*%
X27500000Y40870000D03*
X27500000Y39145000D03*
%TD*%
D19*
%TO.C,D6*%
X59270000Y42630000D03*
X59270000Y43470000D03*
%TD*%
D22*
%TO.C,C13*%
X68180000Y95670000D03*
X68180000Y93945000D03*
%TD*%
D20*
%TO.C,J9*%
X64990000Y108915000D03*
X64990000Y107645000D03*
X66260000Y108915000D03*
X66260000Y107645000D03*
X67530000Y108915000D03*
X67530000Y107645000D03*
X68800000Y108915000D03*
X68800000Y107645000D03*
X70070000Y108915000D03*
X70070000Y107645000D03*
%TD*%
%TO.C,J9*%
X25790000Y54115000D03*
X25790000Y52845000D03*
X27060000Y54115000D03*
X27060000Y52845000D03*
X28330000Y54115000D03*
X28330000Y52845000D03*
X29600000Y54115000D03*
X29600000Y52845000D03*
X30870000Y54115000D03*
X30870000Y52845000D03*
%TD*%
D22*
%TO.C,C13*%
X28980000Y40870000D03*
X28980000Y39145000D03*
%TD*%
D19*
%TO.C,D1*%
X66280000Y50400000D03*
X67120000Y50400000D03*
%TD*%
D21*
%TO.C,L1*%
X70741000Y77360000D03*
X64899000Y77360000D03*
%TD*%
D19*
%TO.C,D4*%
X75770000Y101850000D03*
X75770000Y101010000D03*
%TD*%
%TO.C,D5*%
X59270000Y46820000D03*
X59270000Y45980000D03*
%TD*%
%TO.C,D2*%
X69297500Y50410000D03*
X68457500Y50410000D03*
%TD*%
%TO.C,D6*%
X20070000Y97430000D03*
X20070000Y98270000D03*
%TD*%
%TO.C,D3*%
X36570000Y43060000D03*
X36570000Y43900000D03*
%TD*%
D21*
%TO.C,L1*%
X31541000Y77360000D03*
X25699000Y77360000D03*
%TD*%
D19*
%TO.C,D6*%
X59270000Y97430000D03*
X59270000Y98270000D03*
%TD*%
D22*
%TO.C,C14*%
X66700000Y95670000D03*
X66700000Y93945000D03*
%TD*%
D19*
%TO.C,D5*%
X20070000Y101620000D03*
X20070000Y100780000D03*
%TD*%
D22*
%TO.C,C13*%
X68180000Y40870000D03*
X68180000Y39145000D03*
%TD*%
%TO.C,C14*%
X66700000Y40870000D03*
X66700000Y39145000D03*
%TD*%
D19*
%TO.C,D1*%
X66280000Y105200000D03*
X67120000Y105200000D03*
%TD*%
%TO.C,D2*%
X30097500Y50410000D03*
X29257500Y50410000D03*
%TD*%
M02*
