%TF.GenerationSoftware,KiCad,Pcbnew,9.0.1*%
%TF.CreationDate,2025-05-14T16:36:12-05:00*%
%TF.ProjectId,Bottom_layer_Panel,426f7474-6f6d-45f6-9c61-7965725f5061,rev?*%
%TF.SameCoordinates,PX5fa74e0PY8cc3280*%
%TF.FileFunction,Paste,Bot*%
%TF.FilePolarity,Positive*%
%FSLAX46Y46*%
G04 Gerber Fmt 4.6, Leading zero omitted, Abs format (unit mm)*
G04 Created by KiCad (PCBNEW 9.0.1) date 2025-05-14 16:36:12*
%MOMM*%
%LPD*%
G01*
G04 APERTURE LIST*
G04 Aperture macros list*
%AMRoundRect*
0 Rectangle with rounded corners*
0 $1 Rounding radius*
0 $2 $3 $4 $5 $6 $7 $8 $9 X,Y pos of 4 corners*
0 Add a 4 corners polygon primitive as box body*
4,1,4,$2,$3,$4,$5,$6,$7,$8,$9,$2,$3,0*
0 Add four circle primitives for the rounded corners*
1,1,$1+$1,$2,$3*
1,1,$1+$1,$4,$5*
1,1,$1+$1,$6,$7*
1,1,$1+$1,$8,$9*
0 Add four rect primitives between the rounded corners*
20,1,$1+$1,$2,$3,$4,$5,0*
20,1,$1+$1,$4,$5,$6,$7,0*
20,1,$1+$1,$6,$7,$8,$9,0*
20,1,$1+$1,$8,$9,$2,$3,0*%
%AMFreePoly0*
4,1,6,0.325000,0.000000,0.175000,-0.150000,-0.175000,-0.150000,-0.175000,0.150000,0.325000,0.150000,0.325000,0.000000,0.325000,0.000000,$1*%
%AMFreePoly1*
4,1,6,0.325000,0.000000,0.325000,-0.150000,-0.175000,-0.150000,-0.175000,0.150000,0.175000,0.150000,0.325000,0.000000,0.325000,0.000000,$1*%
%AMFreePoly2*
4,1,6,0.150000,-0.325000,0.000000,-0.325000,-0.150000,-0.175000,-0.150000,0.175000,0.150000,0.175000,0.150000,-0.325000,0.150000,-0.325000,$1*%
%AMFreePoly3*
4,1,6,0.150000,-0.175000,0.000000,-0.325000,-0.150000,-0.325000,-0.150000,0.175000,0.150000,0.175000,0.150000,-0.175000,0.150000,-0.175000,$1*%
%AMFreePoly4*
4,1,7,0.175000,-0.150000,-0.175000,-0.150000,-0.325000,-0.150000,-0.325000,0.000000,-0.175000,0.150000,0.175000,0.150000,0.175000,-0.150000,0.175000,-0.150000,$1*%
%AMFreePoly5*
4,1,6,0.175000,-0.150000,-0.175000,-0.150000,-0.325000,0.000000,-0.325000,0.150000,0.175000,0.150000,0.175000,-0.150000,0.175000,-0.150000,$1*%
%AMFreePoly6*
4,1,6,0.150000,0.175000,0.150000,-0.175000,-0.150000,-0.175000,-0.150000,0.325000,0.000000,0.325000,0.150000,0.175000,0.150000,0.175000,$1*%
%AMFreePoly7*
4,1,6,0.150000,-0.175000,-0.150000,-0.175000,-0.150000,0.175000,0.000000,0.325000,0.150000,0.325000,0.150000,-0.175000,0.150000,-0.175000,$1*%
G04 Aperture macros list end*
%ADD10C,0.000000*%
%ADD11R,0.400000X0.400000*%
%ADD12FreePoly0,90.000000*%
%ADD13R,0.300000X0.550000*%
%ADD14R,0.300000X0.850000*%
%ADD15FreePoly1,90.000000*%
%ADD16FreePoly2,90.000000*%
%ADD17R,0.550000X0.300000*%
%ADD18FreePoly3,90.000000*%
%ADD19FreePoly4,90.000000*%
%ADD20FreePoly5,90.000000*%
%ADD21FreePoly6,90.000000*%
%ADD22FreePoly7,90.000000*%
%ADD23R,2.413000X3.429000*%
%ADD24RoundRect,0.237500X-0.237500X0.300000X-0.237500X-0.300000X0.237500X-0.300000X0.237500X0.300000X0*%
G04 APERTURE END LIST*
D10*
%TO.C,U5*%
G36*
X26640000Y46550000D02*
G01*
X26640000Y46400000D01*
X26490000Y46400000D01*
X26490000Y46700000D01*
X26640000Y46550000D01*
G37*
G36*
X26640000Y43550000D02*
G01*
X26490000Y43400000D01*
X26490000Y43700000D01*
X26640000Y43700000D01*
X26640000Y43550000D01*
G37*
G36*
X26940000Y43250000D02*
G01*
X26640000Y43250000D01*
X26790000Y43400000D01*
X26940000Y43400000D01*
X26940000Y43250000D01*
G37*
G36*
X26940000Y46700000D02*
G01*
X26790000Y46700000D01*
X26640000Y46850000D01*
X26940000Y46850000D01*
X26940000Y46700000D01*
G37*
G36*
X29940000Y43250000D02*
G01*
X29640000Y43250000D01*
X29640000Y43400000D01*
X29790000Y43400000D01*
X29940000Y43250000D01*
G37*
G36*
X29790000Y46700000D02*
G01*
X29640000Y46700000D01*
X29640000Y46850000D01*
X29940000Y46850000D01*
X29790000Y46700000D01*
G37*
G36*
X30090000Y46400000D02*
G01*
X29940000Y46400000D01*
X29940000Y46550000D01*
X30090000Y46700000D01*
X30090000Y46400000D01*
G37*
G36*
X30090000Y43400000D02*
G01*
X29940000Y43550000D01*
X29940000Y43700000D01*
X30090000Y43700000D01*
X30090000Y43400000D01*
G37*
G36*
X26640000Y101350000D02*
G01*
X26640000Y101200000D01*
X26490000Y101200000D01*
X26490000Y101500000D01*
X26640000Y101350000D01*
G37*
G36*
X26640000Y98350000D02*
G01*
X26490000Y98200000D01*
X26490000Y98500000D01*
X26640000Y98500000D01*
X26640000Y98350000D01*
G37*
G36*
X26940000Y98050000D02*
G01*
X26640000Y98050000D01*
X26790000Y98200000D01*
X26940000Y98200000D01*
X26940000Y98050000D01*
G37*
G36*
X26940000Y101500000D02*
G01*
X26790000Y101500000D01*
X26640000Y101650000D01*
X26940000Y101650000D01*
X26940000Y101500000D01*
G37*
G36*
X29940000Y98050000D02*
G01*
X29640000Y98050000D01*
X29640000Y98200000D01*
X29790000Y98200000D01*
X29940000Y98050000D01*
G37*
G36*
X29790000Y101500000D02*
G01*
X29640000Y101500000D01*
X29640000Y101650000D01*
X29940000Y101650000D01*
X29790000Y101500000D01*
G37*
G36*
X30090000Y101200000D02*
G01*
X29940000Y101200000D01*
X29940000Y101350000D01*
X30090000Y101500000D01*
X30090000Y101200000D01*
G37*
G36*
X30090000Y98200000D02*
G01*
X29940000Y98350000D01*
X29940000Y98500000D01*
X30090000Y98500000D01*
X30090000Y98200000D01*
G37*
G36*
X65840000Y101350000D02*
G01*
X65840000Y101200000D01*
X65690000Y101200000D01*
X65690000Y101500000D01*
X65840000Y101350000D01*
G37*
G36*
X65840000Y98350000D02*
G01*
X65690000Y98200000D01*
X65690000Y98500000D01*
X65840000Y98500000D01*
X65840000Y98350000D01*
G37*
G36*
X66140000Y98050000D02*
G01*
X65840000Y98050000D01*
X65990000Y98200000D01*
X66140000Y98200000D01*
X66140000Y98050000D01*
G37*
G36*
X66140000Y101500000D02*
G01*
X65990000Y101500000D01*
X65840000Y101650000D01*
X66140000Y101650000D01*
X66140000Y101500000D01*
G37*
G36*
X69140000Y98050000D02*
G01*
X68840000Y98050000D01*
X68840000Y98200000D01*
X68990000Y98200000D01*
X69140000Y98050000D01*
G37*
G36*
X68990000Y101500000D02*
G01*
X68840000Y101500000D01*
X68840000Y101650000D01*
X69140000Y101650000D01*
X68990000Y101500000D01*
G37*
G36*
X69290000Y101200000D02*
G01*
X69140000Y101200000D01*
X69140000Y101350000D01*
X69290000Y101500000D01*
X69290000Y101200000D01*
G37*
G36*
X69290000Y98200000D02*
G01*
X69140000Y98350000D01*
X69140000Y98500000D01*
X69290000Y98500000D01*
X69290000Y98200000D01*
G37*
G36*
X65840000Y46550000D02*
G01*
X65840000Y46400000D01*
X65690000Y46400000D01*
X65690000Y46700000D01*
X65840000Y46550000D01*
G37*
G36*
X65840000Y43550000D02*
G01*
X65690000Y43400000D01*
X65690000Y43700000D01*
X65840000Y43700000D01*
X65840000Y43550000D01*
G37*
G36*
X66140000Y43250000D02*
G01*
X65840000Y43250000D01*
X65990000Y43400000D01*
X66140000Y43400000D01*
X66140000Y43250000D01*
G37*
G36*
X66140000Y46700000D02*
G01*
X65990000Y46700000D01*
X65840000Y46850000D01*
X66140000Y46850000D01*
X66140000Y46700000D01*
G37*
G36*
X69140000Y43250000D02*
G01*
X68840000Y43250000D01*
X68840000Y43400000D01*
X68990000Y43400000D01*
X69140000Y43250000D01*
G37*
G36*
X68990000Y46700000D02*
G01*
X68840000Y46700000D01*
X68840000Y46850000D01*
X69140000Y46850000D01*
X68990000Y46700000D01*
G37*
G36*
X69290000Y46400000D02*
G01*
X69140000Y46400000D01*
X69140000Y46550000D01*
X69290000Y46700000D01*
X69290000Y46400000D01*
G37*
G36*
X69290000Y43400000D02*
G01*
X69140000Y43550000D01*
X69140000Y43700000D01*
X69290000Y43700000D01*
X69290000Y43400000D01*
G37*
%TD*%
D11*
%TO.C,D3*%
X75770000Y43060000D03*
X75770000Y43900000D03*
%TD*%
%TO.C,D4*%
X75770000Y47050000D03*
X75770000Y46210000D03*
%TD*%
D12*
%TO.C,U5*%
X29790000Y43075000D03*
D13*
X29290000Y43175000D03*
X28790000Y43175000D03*
D14*
X28290000Y43325000D03*
D13*
X27790000Y43175000D03*
X27290000Y43175000D03*
D15*
X26790000Y43075000D03*
D16*
X26315000Y43550000D03*
D17*
X26415000Y44050000D03*
X26415000Y44550000D03*
X26415000Y45050000D03*
X26415000Y45550000D03*
X26415000Y46050000D03*
D18*
X26315000Y46550000D03*
D19*
X26790000Y47025000D03*
D13*
X27290000Y46925000D03*
X27790000Y46925000D03*
X28290000Y46925000D03*
X28790000Y46925000D03*
X29290000Y46925000D03*
D20*
X29790000Y47025000D03*
D21*
X30265000Y46550000D03*
D17*
X30165000Y46050000D03*
X30165000Y45550000D03*
X30165000Y45050000D03*
X30165000Y44550000D03*
X30165000Y44050000D03*
D22*
X30265000Y43550000D03*
%TD*%
D11*
%TO.C,D1*%
X27080000Y50400000D03*
X27920000Y50400000D03*
%TD*%
D23*
%TO.C,L1*%
X70741000Y22560000D03*
X64899000Y22560000D03*
%TD*%
D11*
%TO.C,D4*%
X36570000Y47050000D03*
X36570000Y46210000D03*
%TD*%
D12*
%TO.C,U5*%
X29790000Y97875000D03*
D13*
X29290000Y97975000D03*
X28790000Y97975000D03*
D14*
X28290000Y98125000D03*
D13*
X27790000Y97975000D03*
X27290000Y97975000D03*
D15*
X26790000Y97875000D03*
D16*
X26315000Y98350000D03*
D17*
X26415000Y98850000D03*
X26415000Y99350000D03*
X26415000Y99850000D03*
X26415000Y100350000D03*
X26415000Y100850000D03*
D18*
X26315000Y101350000D03*
D19*
X26790000Y101825000D03*
D13*
X27290000Y101725000D03*
X27790000Y101725000D03*
X28290000Y101725000D03*
X28790000Y101725000D03*
X29290000Y101725000D03*
D20*
X29790000Y101825000D03*
D21*
X30265000Y101350000D03*
D17*
X30165000Y100850000D03*
X30165000Y100350000D03*
X30165000Y99850000D03*
X30165000Y99350000D03*
X30165000Y98850000D03*
D22*
X30265000Y98350000D03*
%TD*%
D11*
%TO.C,D2*%
X30097500Y105210000D03*
X29257500Y105210000D03*
%TD*%
%TO.C,D3*%
X36570000Y97860000D03*
X36570000Y98700000D03*
%TD*%
%TO.C,D4*%
X36570000Y101850000D03*
X36570000Y101010000D03*
%TD*%
D23*
%TO.C,L1*%
X31541000Y22560000D03*
X25699000Y22560000D03*
%TD*%
D12*
%TO.C,U5*%
X68990000Y97875000D03*
D13*
X68490000Y97975000D03*
X67990000Y97975000D03*
D14*
X67490000Y98125000D03*
D13*
X66990000Y97975000D03*
X66490000Y97975000D03*
D15*
X65990000Y97875000D03*
D16*
X65515000Y98350000D03*
D17*
X65615000Y98850000D03*
X65615000Y99350000D03*
X65615000Y99850000D03*
X65615000Y100350000D03*
X65615000Y100850000D03*
D18*
X65515000Y101350000D03*
D19*
X65990000Y101825000D03*
D13*
X66490000Y101725000D03*
X66990000Y101725000D03*
X67490000Y101725000D03*
X67990000Y101725000D03*
X68490000Y101725000D03*
D20*
X68990000Y101825000D03*
D21*
X69465000Y101350000D03*
D17*
X69365000Y100850000D03*
X69365000Y100350000D03*
X69365000Y99850000D03*
X69365000Y99350000D03*
X69365000Y98850000D03*
D22*
X69465000Y98350000D03*
%TD*%
D11*
%TO.C,D1*%
X27080000Y105200000D03*
X27920000Y105200000D03*
%TD*%
D24*
%TO.C,C13*%
X28980000Y95670000D03*
X28980000Y93945000D03*
%TD*%
D11*
%TO.C,D5*%
X59270000Y101620000D03*
X59270000Y100780000D03*
%TD*%
%TO.C,D6*%
X20070000Y42630000D03*
X20070000Y43470000D03*
%TD*%
D24*
%TO.C,C14*%
X27500000Y95670000D03*
X27500000Y93945000D03*
%TD*%
D11*
%TO.C,D2*%
X69297500Y105210000D03*
X68457500Y105210000D03*
%TD*%
%TO.C,D3*%
X75770000Y97860000D03*
X75770000Y98700000D03*
%TD*%
%TO.C,D5*%
X20070000Y46820000D03*
X20070000Y45980000D03*
%TD*%
D12*
%TO.C,U5*%
X68990000Y43075000D03*
D13*
X68490000Y43175000D03*
X67990000Y43175000D03*
D14*
X67490000Y43325000D03*
D13*
X66990000Y43175000D03*
X66490000Y43175000D03*
D15*
X65990000Y43075000D03*
D16*
X65515000Y43550000D03*
D17*
X65615000Y44050000D03*
X65615000Y44550000D03*
X65615000Y45050000D03*
X65615000Y45550000D03*
X65615000Y46050000D03*
D18*
X65515000Y46550000D03*
D19*
X65990000Y47025000D03*
D13*
X66490000Y46925000D03*
X66990000Y46925000D03*
X67490000Y46925000D03*
X67990000Y46925000D03*
X68490000Y46925000D03*
D20*
X68990000Y47025000D03*
D21*
X69465000Y46550000D03*
D17*
X69365000Y46050000D03*
X69365000Y45550000D03*
X69365000Y45050000D03*
X69365000Y44550000D03*
X69365000Y44050000D03*
D22*
X69465000Y43550000D03*
%TD*%
D24*
%TO.C,C14*%
X27500000Y40870000D03*
X27500000Y39145000D03*
%TD*%
D11*
%TO.C,D6*%
X59270000Y42630000D03*
X59270000Y43470000D03*
%TD*%
D24*
%TO.C,C13*%
X68180000Y95670000D03*
X68180000Y93945000D03*
%TD*%
%TO.C,C13*%
X28980000Y40870000D03*
X28980000Y39145000D03*
%TD*%
D11*
%TO.C,D1*%
X66280000Y50400000D03*
X67120000Y50400000D03*
%TD*%
D23*
%TO.C,L1*%
X70741000Y77360000D03*
X64899000Y77360000D03*
%TD*%
D11*
%TO.C,D4*%
X75770000Y101850000D03*
X75770000Y101010000D03*
%TD*%
%TO.C,D5*%
X59270000Y46820000D03*
X59270000Y45980000D03*
%TD*%
%TO.C,D2*%
X69297500Y50410000D03*
X68457500Y50410000D03*
%TD*%
%TO.C,D6*%
X20070000Y97430000D03*
X20070000Y98270000D03*
%TD*%
%TO.C,D3*%
X36570000Y43060000D03*
X36570000Y43900000D03*
%TD*%
D23*
%TO.C,L1*%
X31541000Y77360000D03*
X25699000Y77360000D03*
%TD*%
D11*
%TO.C,D6*%
X59270000Y97430000D03*
X59270000Y98270000D03*
%TD*%
D24*
%TO.C,C14*%
X66700000Y95670000D03*
X66700000Y93945000D03*
%TD*%
D11*
%TO.C,D5*%
X20070000Y101620000D03*
X20070000Y100780000D03*
%TD*%
D24*
%TO.C,C13*%
X68180000Y40870000D03*
X68180000Y39145000D03*
%TD*%
%TO.C,C14*%
X66700000Y40870000D03*
X66700000Y39145000D03*
%TD*%
D11*
%TO.C,D1*%
X66280000Y105200000D03*
X67120000Y105200000D03*
%TD*%
%TO.C,D2*%
X30097500Y50410000D03*
X29257500Y50410000D03*
%TD*%
M02*
