  0
SECTION
  2
HEADER
  9
$ANGBASE
  50
0.0
  9
$ANGDIR
  70
1
  9
$MEASUREMENT
  70
0
  0
ENDSEC
  0
SECTION
  2
TABLES
  0
TABLE
  2
LTYPE
  70
4
  0
LTYPE
  5
40F
  2
CONTINUOUS
  70
0
  3
Solid line
  72
65
  73
0
  40
0.0
  0
LTYPE
  5
410
  2
DASHDOT
 70
0
  3
Dash Dot ____ _ ____ _
 72
65
 73
4
 40
2.0
 49
1.25
 49
-0.25
 49
0.25
 49
-0.25
  0
LTYPE
  5
411
  2
DASHED
 70
0
  3
Dashed __ __ __ __ __
 72
65
 73
2
 40
0.75
 49
0.5
 49
-0.25
  0
LTYPE
  5
43B
  2
DOTTED
 70
0
  3
Dotted .  .  .  .
 72
65
 73
2
 40
0.2
 49
0.0
 49
-0.2
  0
ENDTAB
  0
TABLE
  2
STYLE
  70
4
  0
STYLE
  2
KICAD
  70
0
  40
0
  41
1
  42
1
  50
0
  71
0
  3
isocp.shx
  0
STYLE
  2
KICADB
  70
0
  40
0
  41
1
  42
1
  50
0
  71
0
  3
isocp.shx
  0
STYLE
  2
KICADI
  70
0
  40
0
  41
1
  42
1
  50
15
  71
0
  3
isocp.shx
  0
STYLE
  2
KICADBI
  70
0
  40
0
  41
1
  42
1
  50
15
  71
0
  3
isocp.shx
  0
ENDTAB
  0
TABLE
  2
LAYER
  70
1
  0
LAYER
  2
BLACK
  70
0
  62
7
  6
CONTINUOUS
  0
ENDTAB
  0
ENDSEC
  0
SECTION
  2
ENTITIES
0
LINE
8
BLACK
6
CONTINUOUS
10
4.8764043700787401
20
-3.6601980314960629
11
4.8795975196850394
21
-3.6623316141732283
0
LINE
8
BLACK
6
CONTINUOUS
10
4.8795975196850394
20
-3.6623316141732283
11
4.8817311023622043
21
-3.6655247637795276
0
LINE
8
BLACK
6
CONTINUOUS
10
4.8817311023622043
20
-3.6655247637795276
11
4.8824803149606302
21
-3.6692913385826769
0
LINE
8
BLACK
6
CONTINUOUS
10
4.8824803149606302
20
-3.6692913385826769
11
4.8824803149606302
21
-3.6968503937007875
0
LINE
8
BLACK
6
CONTINUOUS
10
4.8824803149606302
20
-3.6968503937007875
11
4.8817311023622043
21
-3.7006169685039367
0
LINE
8
BLACK
6
CONTINUOUS
10
4.8817311023622043
20
-3.7006169685039367
11
4.8795975196850394
21
-3.7038101181102361
0
LINE
8
BLACK
6
CONTINUOUS
10
4.8795975196850394
20
-3.7038101181102361
11
4.8764043700787401
21
-3.7059437007874014
0
LINE
8
BLACK
6
CONTINUOUS
10
4.8764043700787401
20
-3.7059437007874014
11
4.8726377952755904
21
-3.7066929133858268
0
LINE
8
BLACK
6
CONTINUOUS
10
4.8726377952755904
20
-3.7066929133858268
11
4.8372047244094487
21
-3.7066929133858268
0
LINE
8
BLACK
6
CONTINUOUS
10
4.8372047244094487
20
-3.7066929133858268
11
4.833438149606299
21
-3.7059437007874014
0
LINE
8
BLACK
6
CONTINUOUS
10
4.833438149606299
20
-3.7059437007874014
11
4.8302449999999997
21
-3.7038101181102361
0
LINE
8
BLACK
6
CONTINUOUS
10
4.8302449999999997
20
-3.7038101181102361
11
4.8281114173228348
21
-3.7006169685039367
0
LINE
8
BLACK
6
CONTINUOUS
10
4.8281114173228348
20
-3.7006169685039367
11
4.8273622047244089
21
-3.6968503937007875
0
LINE
8
BLACK
6
CONTINUOUS
10
4.8273622047244089
20
-3.6968503937007875
11
4.8273622047244089
21
-3.6692913385826769
0
LINE
8
BLACK
6
CONTINUOUS
10
4.8273622047244089
20
-3.6692913385826769
11
4.8281114173228348
21
-3.6655247637795276
0
LINE
8
BLACK
6
CONTINUOUS
10
4.8281114173228348
20
-3.6655247637795276
11
4.8302449999999997
21
-3.6623316141732283
0
LINE
8
BLACK
6
CONTINUOUS
10
4.8302449999999997
20
-3.6623316141732283
11
4.833438149606299
21
-3.6601980314960629
0
LINE
8
BLACK
6
CONTINUOUS
10
4.833438149606299
20
-3.6601980314960629
11
4.8372047244094487
21
-3.6594488188976375
0
LINE
8
BLACK
6
CONTINUOUS
10
4.8372047244094487
20
-3.6594488188976375
11
4.8726377952755904
21
-3.6594488188976375
0
LINE
8
BLACK
6
CONTINUOUS
10
4.8726377952755904
20
-3.6594488188976375
11
4.8764043700787401
21
-3.6601980314960629
0
LINE
8
BLACK
6
CONTINUOUS
10
4.9539634251968501
20
-3.6586232283464568
11
4.9571565748031494
21
-3.6607568110236222
0
LINE
8
BLACK
6
CONTINUOUS
10
4.9571565748031494
20
-3.6607568110236222
11
4.9592901574803152
21
-3.6639499606299211
0
LINE
8
BLACK
6
CONTINUOUS
10
4.9592901574803152
20
-3.6639499606299211
11
4.9600393700787402
21
-3.6677165354330707
0
LINE
8
BLACK
6
CONTINUOUS
10
4.9600393700787402
20
-3.6677165354330707
11
4.9600393700787402
21
-3.6952755905511809
0
LINE
8
BLACK
6
CONTINUOUS
10
4.9600393700787402
20
-3.6952755905511809
11
4.9592901574803152
21
-3.6990421653543306
0
LINE
8
BLACK
6
CONTINUOUS
10
4.9592901574803152
20
-3.6990421653543306
11
4.9571565748031494
21
-3.70223531496063
0
LINE
8
BLACK
6
CONTINUOUS
10
4.9571565748031494
20
-3.70223531496063
11
4.9539634251968501
21
-3.7043688976377953
0
LINE
8
BLACK
6
CONTINUOUS
10
4.9539634251968501
20
-3.7043688976377953
11
4.9501968503937004
21
-3.7051181102362203
0
LINE
8
BLACK
6
CONTINUOUS
10
4.9501968503937004
20
-3.7051181102362203
11
4.9147637795275587
21
-3.7051181102362203
0
LINE
8
BLACK
6
CONTINUOUS
10
4.9147637795275587
20
-3.7051181102362203
11
4.910997204724409
21
-3.7043688976377953
0
LINE
8
BLACK
6
CONTINUOUS
10
4.910997204724409
20
-3.7043688976377953
11
4.9078040551181097
21
-3.70223531496063
0
LINE
8
BLACK
6
CONTINUOUS
10
4.9078040551181097
20
-3.70223531496063
11
4.9056704724409448
21
-3.6990421653543306
0
LINE
8
BLACK
6
CONTINUOUS
10
4.9056704724409448
20
-3.6990421653543306
11
4.9049212598425198
21
-3.6952755905511809
0
LINE
8
BLACK
6
CONTINUOUS
10
4.9049212598425198
20
-3.6952755905511809
11
4.9049212598425198
21
-3.6677165354330707
0
LINE
8
BLACK
6
CONTINUOUS
10
4.9049212598425198
20
-3.6677165354330707
11
4.9056704724409448
21
-3.6639499606299211
0
LINE
8
BLACK
6
CONTINUOUS
10
4.9056704724409448
20
-3.6639499606299211
11
4.9078040551181097
21
-3.6607568110236222
0
LINE
8
BLACK
6
CONTINUOUS
10
4.9078040551181097
20
-3.6607568110236222
11
4.910997204724409
21
-3.6586232283464568
0
LINE
8
BLACK
6
CONTINUOUS
10
4.910997204724409
20
-3.6586232283464568
11
4.9147637795275587
21
-3.6578740157480314
0
LINE
8
BLACK
6
CONTINUOUS
10
4.9147637795275587
20
-3.6578740157480314
11
4.9501968503937004
21
-3.6578740157480314
0
LINE
8
BLACK
6
CONTINUOUS
10
4.9501968503937004
20
-3.6578740157480314
11
4.9539634251968501
21
-3.6586232283464568
0
LINE
8
BLACK
6
CONTINUOUS
10
5.0315224803149601
20
-3.6550799212598424
11
5.0347156299212594
21
-3.6572135039370077
0
LINE
8
BLACK
6
CONTINUOUS
10
5.0347156299212594
20
-3.6572135039370077
11
5.0368492125984252
21
-3.6604066535433071
0
LINE
8
BLACK
6
CONTINUOUS
10
5.0368492125984252
20
-3.6604066535433071
11
5.0375984251968502
21
-3.6641732283464568
0
LINE
8
BLACK
6
CONTINUOUS
10
5.0375984251968502
20
-3.6641732283464568
11
5.0375984251968502
21
-3.6917322834645669
0
LINE
8
BLACK
6
CONTINUOUS
10
5.0375984251968502
20
-3.6917322834645669
11
5.0368492125984252
21
-3.6954988582677166
0
LINE
8
BLACK
6
CONTINUOUS
10
5.0368492125984252
20
-3.6954988582677166
11
5.0347156299212594
21
-3.6986920078740155
0
LINE
8
BLACK
6
CONTINUOUS
10
5.0347156299212594
20
-3.6986920078740155
11
5.0315224803149601
21
-3.7008255905511809
0
LINE
8
BLACK
6
CONTINUOUS
10
5.0315224803149601
20
-3.7008255905511809
11
5.0277559055118113
21
-3.7015748031496063
0
LINE
8
BLACK
6
CONTINUOUS
10
5.0277559055118113
20
-3.7015748031496063
11
4.9923228346456696
21
-3.7015748031496063
0
LINE
8
BLACK
6
CONTINUOUS
10
4.9923228346456696
20
-3.7015748031496063
11
4.9885562598425199
21
-3.7008255905511809
0
LINE
8
BLACK
6
CONTINUOUS
10
4.9885562598425199
20
-3.7008255905511809
11
4.9853631102362206
21
-3.6986920078740155
0
LINE
8
BLACK
6
CONTINUOUS
10
4.9853631102362206
20
-3.6986920078740155
11
4.9832295275590548
21
-3.6954988582677166
0
LINE
8
BLACK
6
CONTINUOUS
10
4.9832295275590548
20
-3.6954988582677166
11
4.9824803149606298
21
-3.6917322834645669
0
LINE
8
BLACK
6
CONTINUOUS
10
4.9824803149606298
20
-3.6917322834645669
11
4.9824803149606298
21
-3.6641732283464568
0
LINE
8
BLACK
6
CONTINUOUS
10
4.9824803149606298
20
-3.6641732283464568
11
4.9832295275590548
21
-3.6604066535433071
0
LINE
8
BLACK
6
CONTINUOUS
10
4.9832295275590548
20
-3.6604066535433071
11
4.9853631102362206
21
-3.6572135039370077
0
LINE
8
BLACK
6
CONTINUOUS
10
4.9853631102362206
20
-3.6572135039370077
11
4.9885562598425199
21
-3.6550799212598424
0
LINE
8
BLACK
6
CONTINUOUS
10
4.9885562598425199
20
-3.6550799212598424
11
4.9923228346456696
21
-3.6543307086614174
0
LINE
8
BLACK
6
CONTINUOUS
10
4.9923228346456696
20
-3.6543307086614174
11
5.0277559055118113
21
-3.6543307086614174
0
LINE
8
BLACK
6
CONTINUOUS
10
5.0277559055118113
20
-3.6543307086614174
11
5.0315224803149601
21
-3.6550799212598424
0
LINE
8
BLACK
6
CONTINUOUS
10
5.1094752362204723
20
-3.6519303149606297
11
5.1126683858267716
21
-3.654063897637795
0
LINE
8
BLACK
6
CONTINUOUS
10
5.1126683858267716
20
-3.654063897637795
11
5.1148019685039365
21
-3.6572570472440944
0
LINE
8
BLACK
6
CONTINUOUS
10
5.1148019685039365
20
-3.6572570472440944
11
5.1155511811023624
21
-3.6610236220472441
0
LINE
8
BLACK
6
CONTINUOUS
10
5.1155511811023624
20
-3.6610236220472441
11
5.1155511811023624
21
-3.6885826771653543
0
LINE
8
BLACK
6
CONTINUOUS
10
5.1155511811023624
20
-3.6885826771653543
11
5.1148019685039365
21
-3.6923492519685039
0
LINE
8
BLACK
6
CONTINUOUS
10
5.1148019685039365
20
-3.6923492519685039
11
5.1126683858267716
21
-3.6955424015748028
0
LINE
8
BLACK
6
CONTINUOUS
10
5.1126683858267716
20
-3.6955424015748028
11
5.1094752362204723
21
-3.6976759842519686
0
LINE
8
BLACK
6
CONTINUOUS
10
5.1094752362204723
20
-3.6976759842519686
11
5.1057086614173226
21
-3.6984251968503936
0
LINE
8
BLACK
6
CONTINUOUS
10
5.1057086614173226
20
-3.6984251968503936
11
5.0702755905511809
21
-3.6984251968503936
0
LINE
8
BLACK
6
CONTINUOUS
10
5.0702755905511809
20
-3.6984251968503936
11
5.0665090157480313
21
-3.6976759842519686
0
LINE
8
BLACK
6
CONTINUOUS
10
5.0665090157480313
20
-3.6976759842519686
11
5.0633158661417319
21
-3.6955424015748028
0
LINE
8
BLACK
6
CONTINUOUS
10
5.0633158661417319
20
-3.6955424015748028
11
5.061182283464567
21
-3.6923492519685039
0
LINE
8
BLACK
6
CONTINUOUS
10
5.061182283464567
20
-3.6923492519685039
11
5.060433070866142
21
-3.6885826771653543
0
LINE
8
BLACK
6
CONTINUOUS
10
5.060433070866142
20
-3.6885826771653543
11
5.060433070866142
21
-3.6610236220472441
0
LINE
8
BLACK
6
CONTINUOUS
10
5.060433070866142
20
-3.6610236220472441
11
5.061182283464567
21
-3.6572570472440944
0
LINE
8
BLACK
6
CONTINUOUS
10
5.061182283464567
20
-3.6572570472440944
11
5.0633158661417319
21
-3.654063897637795
0
LINE
8
BLACK
6
CONTINUOUS
10
5.0633158661417319
20
-3.654063897637795
11
5.0665090157480313
21
-3.6519303149606297
0
LINE
8
BLACK
6
CONTINUOUS
10
5.0665090157480313
20
-3.6519303149606297
11
5.0702755905511809
21
-3.6511811023622047
0
LINE
8
BLACK
6
CONTINUOUS
10
5.0702755905511809
20
-3.6511811023622047
11
5.1057086614173226
21
-3.6511811023622047
0
LINE
8
BLACK
6
CONTINUOUS
10
5.1057086614173226
20
-3.6511811023622047
11
5.1094752362204723
21
-3.6519303149606297
0
LINE
8
BLACK
6
CONTINUOUS
10
4.8764043700787401
20
-3.5814578740157481
11
4.8795975196850394
21
-3.5835914566929135
0
LINE
8
BLACK
6
CONTINUOUS
10
4.8795975196850394
20
-3.5835914566929135
11
4.8817311023622043
21
-3.5867846062992124
0
LINE
8
BLACK
6
CONTINUOUS
10
4.8817311023622043
20
-3.5867846062992124
11
4.8824803149606302
21
-3.590551181102362
0
LINE
8
BLACK
6
CONTINUOUS
10
4.8824803149606302
20
-3.590551181102362
11
4.8824803149606302
21
-3.6181102362204722
0
LINE
8
BLACK
6
CONTINUOUS
10
4.8824803149606302
20
-3.6181102362204722
11
4.8817311023622043
21
-3.6218768110236219
0
LINE
8
BLACK
6
CONTINUOUS
10
4.8817311023622043
20
-3.6218768110236219
11
4.8795975196850394
21
-3.6250699606299213
0
LINE
8
BLACK
6
CONTINUOUS
10
4.8795975196850394
20
-3.6250699606299213
11
4.8764043700787401
21
-3.6272035433070866
0
LINE
8
BLACK
6
CONTINUOUS
10
4.8764043700787401
20
-3.6272035433070866
11
4.8726377952755904
21
-3.6279527559055116
0
LINE
8
BLACK
6
CONTINUOUS
10
4.8726377952755904
20
-3.6279527559055116
11
4.8372047244094487
21
-3.6279527559055116
0
LINE
8
BLACK
6
CONTINUOUS
10
4.8372047244094487
20
-3.6279527559055116
11
4.833438149606299
21
-3.6272035433070866
0
LINE
8
BLACK
6
CONTINUOUS
10
4.833438149606299
20
-3.6272035433070866
11
4.8302449999999997
21
-3.6250699606299213
0
LINE
8
BLACK
6
CONTINUOUS
10
4.8302449999999997
20
-3.6250699606299213
11
4.8281114173228348
21
-3.6218768110236219
0
LINE
8
BLACK
6
CONTINUOUS
10
4.8281114173228348
20
-3.6218768110236219
11
4.8273622047244089
21
-3.6181102362204722
0
LINE
8
BLACK
6
CONTINUOUS
10
4.8273622047244089
20
-3.6181102362204722
11
4.8273622047244089
21
-3.590551181102362
0
LINE
8
BLACK
6
CONTINUOUS
10
4.8273622047244089
20
-3.590551181102362
11
4.8281114173228348
21
-3.5867846062992124
0
LINE
8
BLACK
6
CONTINUOUS
10
4.8281114173228348
20
-3.5867846062992124
11
4.8302449999999997
21
-3.5835914566929135
0
LINE
8
BLACK
6
CONTINUOUS
10
4.8302449999999997
20
-3.5835914566929135
11
4.833438149606299
21
-3.5814578740157481
0
LINE
8
BLACK
6
CONTINUOUS
10
4.833438149606299
20
-3.5814578740157481
11
4.8372047244094487
21
-3.5807086614173227
0
LINE
8
BLACK
6
CONTINUOUS
10
4.8372047244094487
20
-3.5807086614173227
11
4.8726377952755904
21
-3.5807086614173227
0
LINE
8
BLACK
6
CONTINUOUS
10
4.8726377952755904
20
-3.5807086614173227
11
4.8764043700787401
21
-3.5814578740157481
0
LINE
8
BLACK
6
CONTINUOUS
10
4.9539634251968501
20
-3.5798830708661415
11
4.9571565748031494
21
-3.5820166535433069
0
LINE
8
BLACK
6
CONTINUOUS
10
4.9571565748031494
20
-3.5820166535433069
11
4.9592901574803152
21
-3.5852098031496062
0
LINE
8
BLACK
6
CONTINUOUS
10
4.9592901574803152
20
-3.5852098031496062
11
4.9600393700787402
21
-3.5889763779527559
0
LINE
8
BLACK
6
CONTINUOUS
10
4.9600393700787402
20
-3.5889763779527559
11
4.9600393700787402
21
-3.6165354330708661
0
LINE
8
BLACK
6
CONTINUOUS
10
4.9600393700787402
20
-3.6165354330708661
11
4.9592901574803152
21
-3.6203020078740158
0
LINE
8
BLACK
6
CONTINUOUS
10
4.9592901574803152
20
-3.6203020078740158
11
4.9571565748031494
21
-3.6234951574803147
0
LINE
8
BLACK
6
CONTINUOUS
10
4.9571565748031494
20
-3.6234951574803147
11
4.9539634251968501
21
-3.62562874015748
0
LINE
8
BLACK
6
CONTINUOUS
10
4.9539634251968501
20
-3.62562874015748
11
4.9501968503937004
21
-3.6263779527559055
0
LINE
8
BLACK
6
CONTINUOUS
10
4.9501968503937004
20
-3.6263779527559055
11
4.9147637795275587
21
-3.6263779527559055
0
LINE
8
BLACK
6
CONTINUOUS
10
4.9147637795275587
20
-3.6263779527559055
11
4.910997204724409
21
-3.62562874015748
0
LINE
8
BLACK
6
CONTINUOUS
10
4.910997204724409
20
-3.62562874015748
11
4.9078040551181097
21
-3.6234951574803147
0
LINE
8
BLACK
6
CONTINUOUS
10
4.9078040551181097
20
-3.6234951574803147
11
4.9056704724409448
21
-3.6203020078740158
0
LINE
8
BLACK
6
CONTINUOUS
10
4.9056704724409448
20
-3.6203020078740158
11
4.9049212598425198
21
-3.6165354330708661
0
LINE
8
BLACK
6
CONTINUOUS
10
4.9049212598425198
20
-3.6165354330708661
11
4.9049212598425198
21
-3.5889763779527559
0
LINE
8
BLACK
6
CONTINUOUS
10
4.9049212598425198
20
-3.5889763779527559
11
4.9056704724409448
21
-3.5852098031496062
0
LINE
8
BLACK
6
CONTINUOUS
10
4.9056704724409448
20
-3.5852098031496062
11
4.9078040551181097
21
-3.5820166535433069
0
LINE
8
BLACK
6
CONTINUOUS
10
4.9078040551181097
20
-3.5820166535433069
11
4.910997204724409
21
-3.5798830708661415
0
LINE
8
BLACK
6
CONTINUOUS
10
4.910997204724409
20
-3.5798830708661415
11
4.9147637795275587
21
-3.5791338582677166
0
LINE
8
BLACK
6
CONTINUOUS
10
4.9147637795275587
20
-3.5791338582677166
11
4.9501968503937004
21
-3.5791338582677166
0
LINE
8
BLACK
6
CONTINUOUS
10
4.9501968503937004
20
-3.5791338582677166
11
4.9539634251968501
21
-3.5798830708661415
0
LINE
8
BLACK
6
CONTINUOUS
10
5.0315224803149601
20
-3.5763397637795276
11
5.0347156299212594
21
-3.5784733464566929
0
LINE
8
BLACK
6
CONTINUOUS
10
5.0347156299212594
20
-3.5784733464566929
11
5.0368492125984252
21
-3.5816664960629923
0
LINE
8
BLACK
6
CONTINUOUS
10
5.0368492125984252
20
-3.5816664960629923
11
5.0375984251968502
21
-3.5854330708661415
0
LINE
8
BLACK
6
CONTINUOUS
10
5.0375984251968502
20
-3.5854330708661415
11
5.0375984251968502
21
-3.6129921259842517
0
LINE
8
BLACK
6
CONTINUOUS
10
5.0375984251968502
20
-3.6129921259842517
11
5.0368492125984252
21
-3.6167587007874014
0
LINE
8
BLACK
6
CONTINUOUS
10
5.0368492125984252
20
-3.6167587007874014
11
5.0347156299212594
21
-3.6199518503937007
0
LINE
8
BLACK
6
CONTINUOUS
10
5.0347156299212594
20
-3.6199518503937007
11
5.0315224803149601
21
-3.6220854330708661
0
LINE
8
BLACK
6
CONTINUOUS
10
5.0315224803149601
20
-3.6220854330708661
11
5.0277559055118113
21
-3.6228346456692915
0
LINE
8
BLACK
6
CONTINUOUS
10
5.0277559055118113
20
-3.6228346456692915
11
4.9923228346456696
21
-3.6228346456692915
0
LINE
8
BLACK
6
CONTINUOUS
10
4.9923228346456696
20
-3.6228346456692915
11
4.9885562598425199
21
-3.6220854330708661
0
LINE
8
BLACK
6
CONTINUOUS
10
4.9885562598425199
20
-3.6220854330708661
11
4.9853631102362206
21
-3.6199518503937007
0
LINE
8
BLACK
6
CONTINUOUS
10
4.9853631102362206
20
-3.6199518503937007
11
4.9832295275590548
21
-3.6167587007874014
0
LINE
8
BLACK
6
CONTINUOUS
10
4.9832295275590548
20
-3.6167587007874014
11
4.9824803149606298
21
-3.6129921259842517
0
LINE
8
BLACK
6
CONTINUOUS
10
4.9824803149606298
20
-3.6129921259842517
11
4.9824803149606298
21
-3.5854330708661415
0
LINE
8
BLACK
6
CONTINUOUS
10
4.9824803149606298
20
-3.5854330708661415
11
4.9832295275590548
21
-3.5816664960629923
0
LINE
8
BLACK
6
CONTINUOUS
10
4.9832295275590548
20
-3.5816664960629923
11
4.9853631102362206
21
-3.5784733464566929
0
LINE
8
BLACK
6
CONTINUOUS
10
4.9853631102362206
20
-3.5784733464566929
11
4.9885562598425199
21
-3.5763397637795276
0
LINE
8
BLACK
6
CONTINUOUS
10
4.9885562598425199
20
-3.5763397637795276
11
4.9923228346456696
21
-3.5755905511811021
0
LINE
8
BLACK
6
CONTINUOUS
10
4.9923228346456696
20
-3.5755905511811021
11
5.0277559055118113
21
-3.5755905511811021
0
LINE
8
BLACK
6
CONTINUOUS
10
5.0277559055118113
20
-3.5755905511811021
11
5.0315224803149601
21
-3.5763397637795276
0
LINE
8
BLACK
6
CONTINUOUS
10
5.1094752362204723
20
-3.5731901574803149
11
5.1126683858267716
21
-3.5753237401574802
0
LINE
8
BLACK
6
CONTINUOUS
10
5.1126683858267716
20
-3.5753237401574802
11
5.1148019685039365
21
-3.5785168897637796
0
LINE
8
BLACK
6
CONTINUOUS
10
5.1148019685039365
20
-3.5785168897637796
11
5.1155511811023624
21
-3.5822834645669293
0
LINE
8
BLACK
6
CONTINUOUS
10
5.1155511811023624
20
-3.5822834645669293
11
5.1155511811023624
21
-3.6098425196850394
0
LINE
8
BLACK
6
CONTINUOUS
10
5.1155511811023624
20
-3.6098425196850394
11
5.1148019685039365
21
-3.6136090944881887
0
LINE
8
BLACK
6
CONTINUOUS
10
5.1148019685039365
20
-3.6136090944881887
11
5.1126683858267716
21
-3.616802244094488
0
LINE
8
BLACK
6
CONTINUOUS
10
5.1126683858267716
20
-3.616802244094488
11
5.1094752362204723
21
-3.6189358267716534
0
LINE
8
BLACK
6
CONTINUOUS
10
5.1094752362204723
20
-3.6189358267716534
11
5.1057086614173226
21
-3.6196850393700788
0
LINE
8
BLACK
6
CONTINUOUS
10
5.1057086614173226
20
-3.6196850393700788
11
5.0702755905511809
21
-3.6196850393700788
0
LINE
8
BLACK
6
CONTINUOUS
10
5.0702755905511809
20
-3.6196850393700788
11
5.0665090157480313
21
-3.6189358267716534
0
LINE
8
BLACK
6
CONTINUOUS
10
5.0665090157480313
20
-3.6189358267716534
11
5.0633158661417319
21
-3.616802244094488
0
LINE
8
BLACK
6
CONTINUOUS
10
5.0633158661417319
20
-3.616802244094488
11
5.061182283464567
21
-3.6136090944881887
0
LINE
8
BLACK
6
CONTINUOUS
10
5.061182283464567
20
-3.6136090944881887
11
5.060433070866142
21
-3.6098425196850394
0
LINE
8
BLACK
6
CONTINUOUS
10
5.060433070866142
20
-3.6098425196850394
11
5.060433070866142
21
-3.5822834645669293
0
LINE
8
BLACK
6
CONTINUOUS
10
5.060433070866142
20
-3.5822834645669293
11
5.061182283464567
21
-3.5785168897637796
0
LINE
8
BLACK
6
CONTINUOUS
10
5.061182283464567
20
-3.5785168897637796
11
5.0633158661417319
21
-3.5753237401574802
0
LINE
8
BLACK
6
CONTINUOUS
10
5.0633158661417319
20
-3.5753237401574802
11
5.0665090157480313
21
-3.5731901574803149
0
LINE
8
BLACK
6
CONTINUOUS
10
5.0665090157480313
20
-3.5731901574803149
11
5.0702755905511809
21
-3.5724409448818899
0
LINE
8
BLACK
6
CONTINUOUS
10
5.0702755905511809
20
-3.5724409448818899
11
5.1057086614173226
21
-3.5724409448818899
0
LINE
8
BLACK
6
CONTINUOUS
10
5.1057086614173226
20
-3.5724409448818899
11
5.1094752362204723
21
-3.5731901574803149
0
LINE
8
BLACK
6
CONTINUOUS
10
4.7460894094488184
20
-3.4991744094488189
11
4.7492825590551178
21
-3.5013079921259842
0
LINE
8
BLACK
6
CONTINUOUS
10
4.7492825590551178
20
-3.5013079921259842
11
4.7514161417322835
21
-3.5045011417322836
0
LINE
8
BLACK
6
CONTINUOUS
10
4.7514161417322835
20
-3.5045011417322836
11
4.7521653543307085
21
-3.5082677165354328
0
LINE
8
BLACK
6
CONTINUOUS
10
4.7521653543307085
20
-3.5082677165354328
11
4.7521653543307085
21
-3.5437007874015749
0
LINE
8
BLACK
6
CONTINUOUS
10
4.7521653543307085
20
-3.5437007874015749
11
4.7514161417322835
21
-3.5474673622047241
0
LINE
8
BLACK
6
CONTINUOUS
10
4.7514161417322835
20
-3.5474673622047241
11
4.7492825590551178
21
-3.5506605118110235
0
LINE
8
BLACK
6
CONTINUOUS
10
4.7492825590551178
20
-3.5506605118110235
11
4.7460894094488184
21
-3.5527940944881888
0
LINE
8
BLACK
6
CONTINUOUS
10
4.7460894094488184
20
-3.5527940944881888
11
4.7423228346456696
21
-3.5535433070866143
0
LINE
8
BLACK
6
CONTINUOUS
10
4.7423228346456696
20
-3.5535433070866143
11
4.7147637795275585
21
-3.5535433070866143
0
LINE
8
BLACK
6
CONTINUOUS
10
4.7147637795275585
20
-3.5535433070866143
11
4.7109972047244097
21
-3.5527940944881888
0
LINE
8
BLACK
6
CONTINUOUS
10
4.7109972047244097
20
-3.5527940944881888
11
4.7078040551181104
21
-3.5506605118110235
0
LINE
8
BLACK
6
CONTINUOUS
10
4.7078040551181104
20
-3.5506605118110235
11
4.7056704724409446
21
-3.5474673622047241
0
LINE
8
BLACK
6
CONTINUOUS
10
4.7056704724409446
20
-3.5474673622047241
11
4.7049212598425196
21
-3.5437007874015749
0
LINE
8
BLACK
6
CONTINUOUS
10
4.7049212598425196
20
-3.5437007874015749
11
4.7049212598425196
21
-3.5082677165354328
0
LINE
8
BLACK
6
CONTINUOUS
10
4.7049212598425196
20
-3.5082677165354328
11
4.7056704724409446
21
-3.5045011417322836
0
LINE
8
BLACK
6
CONTINUOUS
10
4.7056704724409446
20
-3.5045011417322836
11
4.7078040551181104
21
-3.5013079921259842
0
LINE
8
BLACK
6
CONTINUOUS
10
4.7078040551181104
20
-3.5013079921259842
11
4.7109972047244097
21
-3.4991744094488189
0
LINE
8
BLACK
6
CONTINUOUS
10
4.7109972047244097
20
-3.4991744094488189
11
4.7147637795275585
21
-3.4984251968503934
0
LINE
8
BLACK
6
CONTINUOUS
10
4.7147637795275585
20
-3.4984251968503934
11
4.7423228346456696
21
-3.4984251968503934
0
LINE
8
BLACK
6
CONTINUOUS
10
4.7423228346456696
20
-3.4984251968503934
11
4.7460894094488184
21
-3.4991744094488189
0
LINE
8
BLACK
6
CONTINUOUS
10
4.8248295669291341
20
-3.4991744094488189
11
4.8280227165354326
21
-3.5013079921259842
0
LINE
8
BLACK
6
CONTINUOUS
10
4.8280227165354326
20
-3.5013079921259842
11
4.8301562992125984
21
-3.5045011417322836
0
LINE
8
BLACK
6
CONTINUOUS
10
4.8301562992125984
20
-3.5045011417322836
11
4.8309055118110233
21
-3.5082677165354328
0
LINE
8
BLACK
6
CONTINUOUS
10
4.8309055118110233
20
-3.5082677165354328
11
4.8309055118110233
21
-3.5437007874015749
0
LINE
8
BLACK
6
CONTINUOUS
10
4.8309055118110233
20
-3.5437007874015749
11
4.8301562992125984
21
-3.5474673622047241
0
LINE
8
BLACK
6
CONTINUOUS
10
4.8301562992125984
20
-3.5474673622047241
11
4.8280227165354326
21
-3.5506605118110235
0
LINE
8
BLACK
6
CONTINUOUS
10
4.8280227165354326
20
-3.5506605118110235
11
4.8248295669291341
21
-3.5527940944881888
0
LINE
8
BLACK
6
CONTINUOUS
10
4.8248295669291341
20
-3.5527940944881888
11
4.8210629921259844
21
-3.5535433070866143
0
LINE
8
BLACK
6
CONTINUOUS
10
4.8210629921259844
20
-3.5535433070866143
11
4.7935039370078742
21
-3.5535433070866143
0
LINE
8
BLACK
6
CONTINUOUS
10
4.7935039370078742
20
-3.5535433070866143
11
4.7897373622047246
21
-3.5527940944881888
0
LINE
8
BLACK
6
CONTINUOUS
10
4.7897373622047246
20
-3.5527940944881888
11
4.7865442125984252
21
-3.5506605118110235
0
LINE
8
BLACK
6
CONTINUOUS
10
4.7865442125984252
20
-3.5506605118110235
11
4.7844106299212594
21
-3.5474673622047241
0
LINE
8
BLACK
6
CONTINUOUS
10
4.7844106299212594
20
-3.5474673622047241
11
4.7836614173228345
21
-3.5437007874015749
0
LINE
8
BLACK
6
CONTINUOUS
10
4.7836614173228345
20
-3.5437007874015749
11
4.7836614173228345
21
-3.5082677165354328
0
LINE
8
BLACK
6
CONTINUOUS
10
4.7836614173228345
20
-3.5082677165354328
11
4.7844106299212594
21
-3.5045011417322836
0
LINE
8
BLACK
6
CONTINUOUS
10
4.7844106299212594
20
-3.5045011417322836
11
4.7865442125984252
21
-3.5013079921259842
0
LINE
8
BLACK
6
CONTINUOUS
10
4.7865442125984252
20
-3.5013079921259842
11
4.7897373622047246
21
-3.4991744094488189
0
LINE
8
BLACK
6
CONTINUOUS
10
4.7897373622047246
20
-3.4991744094488189
11
4.7935039370078742
21
-3.4984251968503934
0
LINE
8
BLACK
6
CONTINUOUS
10
4.7935039370078742
20
-3.4984251968503934
11
4.8210629921259844
21
-3.4984251968503934
0
LINE
8
BLACK
6
CONTINUOUS
10
4.8210629921259844
20
-3.4984251968503934
11
4.8248295669291341
21
-3.4991744094488189
0
LINE
8
BLACK
6
CONTINUOUS
10
4.8963228346456695
20
-3.5356535039370076
11
4.8883228346456695
21
-3.5356535039370076
0
LINE
8
BLACK
6
CONTINUOUS
10
4.8883228346456695
20
-3.5356535039370076
11
4.8883228346456695
21
-3.4919054724409446
0
LINE
8
BLACK
6
CONTINUOUS
10
4.8883228346456695
20
-3.4919054724409446
11
4.8963228346456695
21
-3.4919054724409446
0
LINE
8
BLACK
6
CONTINUOUS
10
4.8963228346456695
20
-3.4919054724409446
11
4.8963228346456695
21
-3.5356535039370076
0
LINE
8
BLACK
6
CONTINUOUS
10
4.8805747244094491
20
-3.5199054724409446
11
4.8725747244094491
21
-3.5199054724409446
0
LINE
8
BLACK
6
CONTINUOUS
10
4.8725747244094491
20
-3.5199054724409446
11
4.8725747244094491
21
-3.4919054724409446
0
LINE
8
BLACK
6
CONTINUOUS
10
4.8725747244094491
20
-3.4919054724409446
11
4.8805747244094491
21
-3.4919054724409446
0
LINE
8
BLACK
6
CONTINUOUS
10
4.8805747244094491
20
-3.4919054724409446
11
4.8805747244094491
21
-3.5199054724409446
0
LINE
8
BLACK
6
CONTINUOUS
10
4.9120708267716537
20
-3.5199054724409446
11
4.9040708267716537
21
-3.5199054724409446
0
LINE
8
BLACK
6
CONTINUOUS
10
4.9040708267716537
20
-3.5199054724409446
11
4.9040708267716537
21
-3.4919054724409446
0
LINE
8
BLACK
6
CONTINUOUS
10
4.9040708267716537
20
-3.4919054724409446
11
4.9120708267716537
21
-3.4919054724409446
0
LINE
8
BLACK
6
CONTINUOUS
10
4.9120708267716537
20
-3.4919054724409446
11
4.9120708267716537
21
-3.5199054724409446
0
LINE
8
BLACK
6
CONTINUOUS
10
4.927818818897638
20
-3.5199054724409446
11
4.9198188188976379
21
-3.5199054724409446
0
LINE
8
BLACK
6
CONTINUOUS
10
4.9198188188976379
20
-3.5199054724409446
11
4.9198188188976379
21
-3.4919054724409446
0
LINE
8
BLACK
6
CONTINUOUS
10
4.9198188188976379
20
-3.4919054724409446
11
4.927818818897638
21
-3.4919054724409446
0
LINE
8
BLACK
6
CONTINUOUS
10
4.927818818897638
20
-3.4919054724409446
11
4.927818818897638
21
-3.5199054724409446
0
LINE
8
BLACK
6
CONTINUOUS
10
4.9435669291338584
20
-3.5199054724409446
11
4.9355669291338584
21
-3.5199054724409446
0
LINE
8
BLACK
6
CONTINUOUS
10
4.9355669291338584
20
-3.5199054724409446
11
4.9355669291338584
21
-3.4919054724409446
0
LINE
8
BLACK
6
CONTINUOUS
10
4.9355669291338584
20
-3.4919054724409446
11
4.9435669291338584
21
-3.4919054724409446
0
LINE
8
BLACK
6
CONTINUOUS
10
4.9435669291338584
20
-3.4919054724409446
11
4.9435669291338584
21
-3.5199054724409446
0
LINE
8
BLACK
6
CONTINUOUS
10
5.5474673622047241
20
-3.464922440944882
11
5.5506605118110235
21
-3.4670560236220473
0
LINE
8
BLACK
6
CONTINUOUS
10
5.5506605118110235
20
-3.4670560236220473
11
5.5527940944881893
21
-3.4702491732283463
0
LINE
8
BLACK
6
CONTINUOUS
10
5.5527940944881893
20
-3.4702491732283463
11
5.5535433070866143
21
-3.4740157480314959
0
LINE
8
BLACK
6
CONTINUOUS
10
5.5535433070866143
20
-3.4740157480314959
11
5.5535433070866143
21
-3.5005905511811024
0
LINE
8
BLACK
6
CONTINUOUS
10
5.5535433070866143
20
-3.5005905511811024
11
5.5527940944881893
21
-3.5043571259842521
0
LINE
8
BLACK
6
CONTINUOUS
10
5.5527940944881893
20
-3.5043571259842521
11
5.5506605118110235
21
-3.507550275590551
0
LINE
8
BLACK
6
CONTINUOUS
10
5.5506605118110235
20
-3.507550275590551
11
5.5474673622047241
21
-3.5096838582677163
0
LINE
8
BLACK
6
CONTINUOUS
10
5.5474673622047241
20
-3.5096838582677163
11
5.5437007874015745
21
-3.5104330708661418
0
LINE
8
BLACK
6
CONTINUOUS
10
5.5437007874015745
20
-3.5104330708661418
11
5.5062992125984254
21
-3.5104330708661418
0
LINE
8
BLACK
6
CONTINUOUS
10
5.5062992125984254
20
-3.5104330708661418
11
5.5025326377952757
21
-3.5096838582677163
0
LINE
8
BLACK
6
CONTINUOUS
10
5.5025326377952757
20
-3.5096838582677163
11
5.4993394881889763
21
-3.507550275590551
0
LINE
8
BLACK
6
CONTINUOUS
10
5.4993394881889763
20
-3.507550275590551
11
5.4972059055118105
21
-3.5043571259842521
0
LINE
8
BLACK
6
CONTINUOUS
10
5.4972059055118105
20
-3.5043571259842521
11
5.4964566929133856
21
-3.5005905511811024
0
LINE
8
BLACK
6
CONTINUOUS
10
5.4964566929133856
20
-3.5005905511811024
11
5.4964566929133856
21
-3.4740157480314959
0
LINE
8
BLACK
6
CONTINUOUS
10
5.4964566929133856
20
-3.4740157480314959
11
5.4972059055118105
21
-3.4702491732283463
0
LINE
8
BLACK
6
CONTINUOUS
10
5.4972059055118105
20
-3.4702491732283463
11
5.4993394881889763
21
-3.4670560236220473
0
LINE
8
BLACK
6
CONTINUOUS
10
5.4993394881889763
20
-3.4670560236220473
11
5.5025326377952757
21
-3.464922440944882
0
LINE
8
BLACK
6
CONTINUOUS
10
5.5025326377952757
20
-3.464922440944882
11
5.5062992125984254
21
-3.4641732283464566
0
LINE
8
BLACK
6
CONTINUOUS
10
5.5062992125984254
20
-3.4641732283464566
11
5.5437007874015745
21
-3.4641732283464566
0
LINE
8
BLACK
6
CONTINUOUS
10
5.5437007874015745
20
-3.4641732283464566
11
5.5474673622047241
21
-3.464922440944882
0
LINE
8
BLACK
6
CONTINUOUS
10
5.6293571259842521
20
-3.4645287401574802
11
5.6325502755905514
21
-3.4666623228346456
0
LINE
8
BLACK
6
CONTINUOUS
10
5.6325502755905514
20
-3.4666623228346456
11
5.6346838582677163
21
-3.4698554724409449
0
LINE
8
BLACK
6
CONTINUOUS
10
5.6346838582677163
20
-3.4698554724409449
11
5.6354330708661413
21
-3.4736220472440946
0
LINE
8
BLACK
6
CONTINUOUS
10
5.6354330708661413
20
-3.4736220472440946
11
5.6354330708661413
21
-3.5001968503937007
0
LINE
8
BLACK
6
CONTINUOUS
10
5.6354330708661413
20
-3.5001968503937007
11
5.6346838582677163
21
-3.5039634251968503
0
LINE
8
BLACK
6
CONTINUOUS
10
5.6346838582677163
20
-3.5039634251968503
11
5.6325502755905514
21
-3.5071565748031497
0
LINE
8
BLACK
6
CONTINUOUS
10
5.6325502755905514
20
-3.5071565748031497
11
5.6293571259842521
21
-3.509290157480315
0
LINE
8
BLACK
6
CONTINUOUS
10
5.6293571259842521
20
-3.509290157480315
11
5.6255905511811024
21
-3.51003937007874
0
LINE
8
BLACK
6
CONTINUOUS
10
5.6255905511811024
20
-3.51003937007874
11
5.5881889763779524
21
-3.51003937007874
0
LINE
8
BLACK
6
CONTINUOUS
10
5.5881889763779524
20
-3.51003937007874
11
5.5844224015748027
21
-3.509290157480315
0
LINE
8
BLACK
6
CONTINUOUS
10
5.5844224015748027
20
-3.509290157480315
11
5.5812292519685034
21
-3.5071565748031497
0
LINE
8
BLACK
6
CONTINUOUS
10
5.5812292519685034
20
-3.5071565748031497
11
5.5790956692913385
21
-3.5039634251968503
0
LINE
8
BLACK
6
CONTINUOUS
10
5.5790956692913385
20
-3.5039634251968503
11
5.5783464566929135
21
-3.5001968503937007
0
LINE
8
BLACK
6
CONTINUOUS
10
5.5783464566929135
20
-3.5001968503937007
11
5.5783464566929135
21
-3.4736220472440946
0
LINE
8
BLACK
6
CONTINUOUS
10
5.5783464566929135
20
-3.4736220472440946
11
5.5790956692913385
21
-3.4698554724409449
0
LINE
8
BLACK
6
CONTINUOUS
10
5.5790956692913385
20
-3.4698554724409449
11
5.5812292519685034
21
-3.4666623228346456
0
LINE
8
BLACK
6
CONTINUOUS
10
5.5812292519685034
20
-3.4666623228346456
11
5.5844224015748027
21
-3.4645287401574802
0
LINE
8
BLACK
6
CONTINUOUS
10
5.5844224015748027
20
-3.4645287401574802
11
5.5881889763779524
21
-3.4637795275590548
0
LINE
8
BLACK
6
CONTINUOUS
10
5.5881889763779524
20
-3.4637795275590548
11
5.6255905511811024
21
-3.4637795275590548
0
LINE
8
BLACK
6
CONTINUOUS
10
5.6255905511811024
20
-3.4637795275590548
11
5.6293571259842521
21
-3.4645287401574802
0
LINE
8
BLACK
6
CONTINUOUS
10
5.2159712992125984
20
-3.4601980314960628
11
5.2191644488188977
21
-3.4623316141732281
0
LINE
8
BLACK
6
CONTINUOUS
10
5.2191644488188977
20
-3.4623316141732281
11
5.2212980314960626
21
-3.4655247637795275
0
LINE
8
BLACK
6
CONTINUOUS
10
5.2212980314960626
20
-3.4655247637795275
11
5.2220472440944885
21
-3.4692913385826771
0
LINE
8
BLACK
6
CONTINUOUS
10
5.2220472440944885
20
-3.4692913385826771
11
5.2220472440944885
21
-3.4958661417322836
0
LINE
8
BLACK
6
CONTINUOUS
10
5.2220472440944885
20
-3.4958661417322836
11
5.2212980314960626
21
-3.4996327165354328
0
LINE
8
BLACK
6
CONTINUOUS
10
5.2212980314960626
20
-3.4996327165354328
11
5.2191644488188977
21
-3.5028258661417322
0
LINE
8
BLACK
6
CONTINUOUS
10
5.2191644488188977
20
-3.5028258661417322
11
5.2159712992125984
21
-3.5049594488188975
0
LINE
8
BLACK
6
CONTINUOUS
10
5.2159712992125984
20
-3.5049594488188975
11
5.2122047244094487
21
-3.505708661417323
0
LINE
8
BLACK
6
CONTINUOUS
10
5.2122047244094487
20
-3.505708661417323
11
5.1748031496062987
21
-3.505708661417323
0
LINE
8
BLACK
6
CONTINUOUS
10
5.1748031496062987
20
-3.505708661417323
11
5.1710365748031499
21
-3.5049594488188975
0
LINE
8
BLACK
6
CONTINUOUS
10
5.1710365748031499
20
-3.5049594488188975
11
5.1678434251968506
21
-3.5028258661417322
0
LINE
8
BLACK
6
CONTINUOUS
10
5.1678434251968506
20
-3.5028258661417322
11
5.1657098425196848
21
-3.4996327165354328
0
LINE
8
BLACK
6
CONTINUOUS
10
5.1657098425196848
20
-3.4996327165354328
11
5.1649606299212598
21
-3.4958661417322836
0
LINE
8
BLACK
6
CONTINUOUS
10
5.1649606299212598
20
-3.4958661417322836
11
5.1649606299212598
21
-3.4692913385826771
0
LINE
8
BLACK
6
CONTINUOUS
10
5.1649606299212598
20
-3.4692913385826771
11
5.1657098425196848
21
-3.4655247637795275
0
LINE
8
BLACK
6
CONTINUOUS
10
5.1657098425196848
20
-3.4655247637795275
11
5.1678434251968506
21
-3.4623316141732281
0
LINE
8
BLACK
6
CONTINUOUS
10
5.1678434251968506
20
-3.4623316141732281
11
5.1710365748031499
21
-3.4601980314960628
0
LINE
8
BLACK
6
CONTINUOUS
10
5.1710365748031499
20
-3.4601980314960628
11
5.1748031496062987
21
-3.4594488188976378
0
LINE
8
BLACK
6
CONTINUOUS
10
5.1748031496062987
20
-3.4594488188976378
11
5.2122047244094487
21
-3.4594488188976378
0
LINE
8
BLACK
6
CONTINUOUS
10
5.2122047244094487
20
-3.4594488188976378
11
5.2159712992125984
21
-3.4601980314960628
0
LINE
8
BLACK
6
CONTINUOUS
10
5.3052467716535432
20
-3.4745122834645668
11
5.3065240551181105
21
-3.4753657086614171
0
LINE
8
BLACK
6
CONTINUOUS
10
5.3065240551181105
20
-3.4753657086614171
11
5.3073774803149609
21
-3.476642992125984
0
LINE
8
BLACK
6
CONTINUOUS
10
5.3073774803149609
20
-3.476642992125984
11
5.3076771653543302
21
-3.4781496062992123
0
LINE
8
BLACK
6
CONTINUOUS
10
5.3076771653543302
20
-3.4781496062992123
11
5.3076771653543302
21
-3.4860236220472438
0
LINE
8
BLACK
6
CONTINUOUS
10
5.3076771653543302
20
-3.4860236220472438
11
5.3073774803149609
21
-3.4875302362204725
0
LINE
8
BLACK
6
CONTINUOUS
10
5.3073774803149609
20
-3.4875302362204725
11
5.3065240551181105
21
-3.4888075196850394
0
LINE
8
BLACK
6
CONTINUOUS
10
5.3065240551181105
20
-3.4888075196850394
11
5.3052467716535432
21
-3.4896609448818898
0
LINE
8
BLACK
6
CONTINUOUS
10
5.3052467716535432
20
-3.4896609448818898
11
5.3037401574803145
21
-3.4899606299212595
0
LINE
8
BLACK
6
CONTINUOUS
10
5.3037401574803145
20
-3.4899606299212595
11
5.2476377952755904
21
-3.4899606299212595
0
LINE
8
BLACK
6
CONTINUOUS
10
5.2476377952755904
20
-3.4899606299212595
11
5.2461311811023617
21
-3.4896609448818898
0
LINE
8
BLACK
6
CONTINUOUS
10
5.2461311811023617
20
-3.4896609448818898
11
5.2448538976377952
21
-3.4888075196850394
0
LINE
8
BLACK
6
CONTINUOUS
10
5.2448538976377952
20
-3.4888075196850394
11
5.2440004724409448
21
-3.4875302362204725
0
LINE
8
BLACK
6
CONTINUOUS
10
5.2440004724409448
20
-3.4875302362204725
11
5.2437007874015746
21
-3.4860236220472438
0
LINE
8
BLACK
6
CONTINUOUS
10
5.2437007874015746
20
-3.4860236220472438
11
5.2437007874015746
21
-3.4781496062992123
0
LINE
8
BLACK
6
CONTINUOUS
10
5.2437007874015746
20
-3.4781496062992123
11
5.2440004724409448
21
-3.476642992125984
0
LINE
8
BLACK
6
CONTINUOUS
10
5.2440004724409448
20
-3.476642992125984
11
5.2448538976377952
21
-3.4753657086614171
0
LINE
8
BLACK
6
CONTINUOUS
10
5.2448538976377952
20
-3.4753657086614171
11
5.2461311811023617
21
-3.4745122834645668
0
LINE
8
BLACK
6
CONTINUOUS
10
5.2461311811023617
20
-3.4745122834645668
11
5.2476377952755904
21
-3.4742125984251966
0
LINE
8
BLACK
6
CONTINUOUS
10
5.2476377952755904
20
-3.4742125984251966
11
5.3037401574803145
21
-3.4742125984251966
0
LINE
8
BLACK
6
CONTINUOUS
10
5.3037401574803145
20
-3.4742125984251966
11
5.3052467716535432
21
-3.4745122834645668
0
LINE
8
BLACK
6
CONTINUOUS
10
5.4715853543307089
20
-3.4745122834645668
11
5.4728626377952754
21
-3.4753657086614171
0
LINE
8
BLACK
6
CONTINUOUS
10
5.4728626377952754
20
-3.4753657086614171
11
5.4737160629921258
21
-3.476642992125984
0
LINE
8
BLACK
6
CONTINUOUS
10
5.4737160629921258
20
-3.476642992125984
11
5.4740157480314959
21
-3.4781496062992123
0
LINE
8
BLACK
6
CONTINUOUS
10
5.4740157480314959
20
-3.4781496062992123
11
5.4740157480314959
21
-3.4860236220472438
0
LINE
8
BLACK
6
CONTINUOUS
10
5.4740157480314959
20
-3.4860236220472438
11
5.4737160629921258
21
-3.4875302362204725
0
LINE
8
BLACK
6
CONTINUOUS
10
5.4737160629921258
20
-3.4875302362204725
11
5.4728626377952754
21
-3.4888075196850394
0
LINE
8
BLACK
6
CONTINUOUS
10
5.4728626377952754
20
-3.4888075196850394
11
5.4715853543307089
21
-3.4896609448818898
0
LINE
8
BLACK
6
CONTINUOUS
10
5.4715853543307089
20
-3.4896609448818898
11
5.4700787401574802
21
-3.4899606299212595
0
LINE
8
BLACK
6
CONTINUOUS
10
5.4700787401574802
20
-3.4899606299212595
11
5.4139763779527561
21
-3.4899606299212595
0
LINE
8
BLACK
6
CONTINUOUS
10
5.4139763779527561
20
-3.4899606299212595
11
5.4124697637795274
21
-3.4896609448818898
0
LINE
8
BLACK
6
CONTINUOUS
10
5.4124697637795274
20
-3.4896609448818898
11
5.4111924803149609
21
-3.4888075196850394
0
LINE
8
BLACK
6
CONTINUOUS
10
5.4111924803149609
20
-3.4888075196850394
11
5.4103390551181105
21
-3.4875302362204725
0
LINE
8
BLACK
6
CONTINUOUS
10
5.4103390551181105
20
-3.4875302362204725
11
5.4100393700787404
21
-3.4860236220472438
0
LINE
8
BLACK
6
CONTINUOUS
10
5.4100393700787404
20
-3.4860236220472438
11
5.4100393700787404
21
-3.4781496062992123
0
LINE
8
BLACK
6
CONTINUOUS
10
5.4100393700787404
20
-3.4781496062992123
11
5.4103390551181105
21
-3.476642992125984
0
LINE
8
BLACK
6
CONTINUOUS
10
5.4103390551181105
20
-3.476642992125984
11
5.4111924803149609
21
-3.4753657086614171
0
LINE
8
BLACK
6
CONTINUOUS
10
5.4111924803149609
20
-3.4753657086614171
11
5.4124697637795274
21
-3.4745122834645668
0
LINE
8
BLACK
6
CONTINUOUS
10
5.4124697637795274
20
-3.4745122834645668
11
5.4139763779527561
21
-3.4742125984251966
0
LINE
8
BLACK
6
CONTINUOUS
10
5.4139763779527561
20
-3.4742125984251966
11
5.4700787401574802
21
-3.4742125984251966
0
LINE
8
BLACK
6
CONTINUOUS
10
5.4700787401574802
20
-3.4742125984251966
11
5.4715853543307089
21
-3.4745122834645668
0
LINE
8
BLACK
6
CONTINUOUS
10
5.0501248425196845
20
-3.4253555118110235
11
5.0533179921259839
21
-3.4274890944881888
0
LINE
8
BLACK
6
CONTINUOUS
10
5.0533179921259839
20
-3.4274890944881888
11
5.0554515748031497
21
-3.4306822440944882
0
LINE
8
BLACK
6
CONTINUOUS
10
5.0554515748031497
20
-3.4306822440944882
11
5.0562007874015746
21
-3.4344488188976379
0
LINE
8
BLACK
6
CONTINUOUS
10
5.0562007874015746
20
-3.4344488188976379
11
5.0562007874015746
21
-3.4718503937007874
0
LINE
8
BLACK
6
CONTINUOUS
10
5.0562007874015746
20
-3.4718503937007874
11
5.0554515748031497
21
-3.4756169685039371
0
LINE
8
BLACK
6
CONTINUOUS
10
5.0554515748031497
20
-3.4756169685039371
11
5.0533179921259839
21
-3.478810118110236
0
LINE
8
BLACK
6
CONTINUOUS
10
5.0533179921259839
20
-3.478810118110236
11
5.0501248425196845
21
-3.4809437007874013
0
LINE
8
BLACK
6
CONTINUOUS
10
5.0501248425196845
20
-3.4809437007874013
11
5.0463582677165357
21
-3.4816929133858268
0
LINE
8
BLACK
6
CONTINUOUS
10
5.0463582677165357
20
-3.4816929133858268
11
5.0197834645669293
21
-3.4816929133858268
0
LINE
8
BLACK
6
CONTINUOUS
10
5.0197834645669293
20
-3.4816929133858268
11
5.0160168897637796
21
-3.4809437007874013
0
LINE
8
BLACK
6
CONTINUOUS
10
5.0160168897637796
20
-3.4809437007874013
11
5.0128237401574802
21
-3.478810118110236
0
LINE
8
BLACK
6
CONTINUOUS
10
5.0128237401574802
20
-3.478810118110236
11
5.0106901574803144
21
-3.4756169685039371
0
LINE
8
BLACK
6
CONTINUOUS
10
5.0106901574803144
20
-3.4756169685039371
11
5.0099409448818895
21
-3.4718503937007874
0
LINE
8
BLACK
6
CONTINUOUS
10
5.0099409448818895
20
-3.4718503937007874
11
5.0099409448818895
21
-3.4344488188976379
0
LINE
8
BLACK
6
CONTINUOUS
10
5.0099409448818895
20
-3.4344488188976379
11
5.0106901574803144
21
-3.4306822440944882
0
LINE
8
BLACK
6
CONTINUOUS
10
5.0106901574803144
20
-3.4306822440944882
11
5.0128237401574802
21
-3.4274890944881888
0
LINE
8
BLACK
6
CONTINUOUS
10
5.0128237401574802
20
-3.4274890944881888
11
5.0160168897637796
21
-3.4253555118110235
0
LINE
8
BLACK
6
CONTINUOUS
10
5.0160168897637796
20
-3.4253555118110235
11
5.0197834645669293
21
-3.4246062992125985
0
LINE
8
BLACK
6
CONTINUOUS
10
5.0197834645669293
20
-3.4246062992125985
11
5.0463582677165357
21
-3.4246062992125985
0
LINE
8
BLACK
6
CONTINUOUS
10
5.0463582677165357
20
-3.4246062992125985
11
5.0501248425196845
21
-3.4253555118110235
0
LINE
8
BLACK
6
CONTINUOUS
10
5.1318177559055114
20
-3.4253555118110235
11
5.1350109055118107
21
-3.4274890944881888
0
LINE
8
BLACK
6
CONTINUOUS
10
5.1350109055118107
20
-3.4274890944881888
11
5.1371444881889765
21
-3.4306822440944882
0
LINE
8
BLACK
6
CONTINUOUS
10
5.1371444881889765
20
-3.4306822440944882
11
5.1378937007874015
21
-3.4344488188976379
0
LINE
8
BLACK
6
CONTINUOUS
10
5.1378937007874015
20
-3.4344488188976379
11
5.1378937007874015
21
-3.4718503937007874
0
LINE
8
BLACK
6
CONTINUOUS
10
5.1378937007874015
20
-3.4718503937007874
11
5.1371444881889765
21
-3.4756169685039371
0
LINE
8
BLACK
6
CONTINUOUS
10
5.1371444881889765
20
-3.4756169685039371
11
5.1350109055118107
21
-3.478810118110236
0
LINE
8
BLACK
6
CONTINUOUS
10
5.1350109055118107
20
-3.478810118110236
11
5.1318177559055114
21
-3.4809437007874013
0
LINE
8
BLACK
6
CONTINUOUS
10
5.1318177559055114
20
-3.4809437007874013
11
5.1280511811023617
21
-3.4816929133858268
0
LINE
8
BLACK
6
CONTINUOUS
10
5.1280511811023617
20
-3.4816929133858268
11
5.1014763779527561
21
-3.4816929133858268
0
LINE
8
BLACK
6
CONTINUOUS
10
5.1014763779527561
20
-3.4816929133858268
11
5.0977098031496064
21
-3.4809437007874013
0
LINE
8
BLACK
6
CONTINUOUS
10
5.0977098031496064
20
-3.4809437007874013
11
5.0945166535433071
21
-3.478810118110236
0
LINE
8
BLACK
6
CONTINUOUS
10
5.0945166535433071
20
-3.478810118110236
11
5.0923830708661413
21
-3.4756169685039371
0
LINE
8
BLACK
6
CONTINUOUS
10
5.0923830708661413
20
-3.4756169685039371
11
5.0916338582677163
21
-3.4718503937007874
0
LINE
8
BLACK
6
CONTINUOUS
10
5.0916338582677163
20
-3.4718503937007874
11
5.0916338582677163
21
-3.4344488188976379
0
LINE
8
BLACK
6
CONTINUOUS
10
5.0916338582677163
20
-3.4344488188976379
11
5.0923830708661413
21
-3.4306822440944882
0
LINE
8
BLACK
6
CONTINUOUS
10
5.0923830708661413
20
-3.4306822440944882
11
5.0945166535433071
21
-3.4274890944881888
0
LINE
8
BLACK
6
CONTINUOUS
10
5.0945166535433071
20
-3.4274890944881888
11
5.0977098031496064
21
-3.4253555118110235
0
LINE
8
BLACK
6
CONTINUOUS
10
5.0977098031496064
20
-3.4253555118110235
11
5.1014763779527561
21
-3.4246062992125985
0
LINE
8
BLACK
6
CONTINUOUS
10
5.1014763779527561
20
-3.4246062992125985
11
5.1280511811023617
21
-3.4246062992125985
0
LINE
8
BLACK
6
CONTINUOUS
10
5.1280511811023617
20
-3.4246062992125985
11
5.1318177559055114
21
-3.4253555118110235
0
LINE
8
BLACK
6
CONTINUOUS
10
4.8921062204724413
20
-3.4764408661417323
11
4.8571062204724411
21
-3.4764408661417323
0
LINE
8
BLACK
6
CONTINUOUS
10
4.8571062204724411
20
-3.4764408661417323
11
4.8571062204724411
21
-3.4684408661417323
0
LINE
8
BLACK
6
CONTINUOUS
10
4.8571062204724411
20
-3.4684408661417323
11
4.8921062204724413
21
-3.4684408661417323
0
LINE
8
BLACK
6
CONTINUOUS
10
4.8921062204724413
20
-3.4684408661417323
11
4.8921062204724413
21
-3.4764408661417323
0
LINE
8
BLACK
6
CONTINUOUS
10
4.9590354330708664
20
-3.4764408661417323
11
4.9240354330708662
21
-3.4764408661417323
0
LINE
8
BLACK
6
CONTINUOUS
10
4.9240354330708662
20
-3.4764408661417323
11
4.9240354330708662
21
-3.4684408661417323
0
LINE
8
BLACK
6
CONTINUOUS
10
4.9240354330708662
20
-3.4684408661417323
11
4.9590354330708664
21
-3.4684408661417323
0
LINE
8
BLACK
6
CONTINUOUS
10
4.9590354330708664
20
-3.4684408661417323
11
4.9590354330708664
21
-3.4764408661417323
0
LINE
8
BLACK
6
CONTINUOUS
10
4.7024870472440945
20
-3.4198437007874016
11
4.7056801968503938
21
-3.421977283464567
0
LINE
8
BLACK
6
CONTINUOUS
10
4.7056801968503938
20
-3.421977283464567
11
4.7078137795275588
21
-3.4251704330708659
0
LINE
8
BLACK
6
CONTINUOUS
10
4.7078137795275588
20
-3.4251704330708659
11
4.7085629921259837
21
-3.4289370078740156
0
LINE
8
BLACK
6
CONTINUOUS
10
4.7085629921259837
20
-3.4289370078740156
11
4.7085629921259837
21
-3.4663385826771651
0
LINE
8
BLACK
6
CONTINUOUS
10
4.7085629921259837
20
-3.4663385826771651
11
4.7078137795275588
21
-3.4701051574803148
0
LINE
8
BLACK
6
CONTINUOUS
10
4.7078137795275588
20
-3.4701051574803148
11
4.7056801968503938
21
-3.4732983070866141
0
LINE
8
BLACK
6
CONTINUOUS
10
4.7056801968503938
20
-3.4732983070866141
11
4.7024870472440945
21
-3.4754318897637795
0
LINE
8
BLACK
6
CONTINUOUS
10
4.7024870472440945
20
-3.4754318897637795
11
4.6987204724409448
21
-3.4761811023622045
0
LINE
8
BLACK
6
CONTINUOUS
10
4.6987204724409448
20
-3.4761811023622045
11
4.6721456692913383
21
-3.4761811023622045
0
LINE
8
BLACK
6
CONTINUOUS
10
4.6721456692913383
20
-3.4761811023622045
11
4.6683790944881887
21
-3.4754318897637795
0
LINE
8
BLACK
6
CONTINUOUS
10
4.6683790944881887
20
-3.4754318897637795
11
4.6651859448818893
21
-3.4732983070866141
0
LINE
8
BLACK
6
CONTINUOUS
10
4.6651859448818893
20
-3.4732983070866141
11
4.6630523622047244
21
-3.4701051574803148
0
LINE
8
BLACK
6
CONTINUOUS
10
4.6630523622047244
20
-3.4701051574803148
11
4.6623031496062994
21
-3.4663385826771651
0
LINE
8
BLACK
6
CONTINUOUS
10
4.6623031496062994
20
-3.4663385826771651
11
4.6623031496062994
21
-3.4289370078740156
0
LINE
8
BLACK
6
CONTINUOUS
10
4.6623031496062994
20
-3.4289370078740156
11
4.6630523622047244
21
-3.4251704330708659
0
LINE
8
BLACK
6
CONTINUOUS
10
4.6630523622047244
20
-3.4251704330708659
11
4.6651859448818893
21
-3.421977283464567
0
LINE
8
BLACK
6
CONTINUOUS
10
4.6651859448818893
20
-3.421977283464567
11
4.6683790944881887
21
-3.4198437007874016
0
LINE
8
BLACK
6
CONTINUOUS
10
4.6683790944881887
20
-3.4198437007874016
11
4.6721456692913383
21
-3.4190944881889762
0
LINE
8
BLACK
6
CONTINUOUS
10
4.6721456692913383
20
-3.4190944881889762
11
4.6987204724409448
21
-3.4190944881889762
0
LINE
8
BLACK
6
CONTINUOUS
10
4.6987204724409448
20
-3.4190944881889762
11
4.7024870472440945
21
-3.4198437007874016
0
LINE
8
BLACK
6
CONTINUOUS
10
4.7841799606299213
20
-3.4198437007874016
11
4.7873731102362207
21
-3.421977283464567
0
LINE
8
BLACK
6
CONTINUOUS
10
4.7873731102362207
20
-3.421977283464567
11
4.7895066929133856
21
-3.4251704330708659
0
LINE
8
BLACK
6
CONTINUOUS
10
4.7895066929133856
20
-3.4251704330708659
11
4.7902559055118106
21
-3.4289370078740156
0
LINE
8
BLACK
6
CONTINUOUS
10
4.7902559055118106
20
-3.4289370078740156
11
4.7902559055118106
21
-3.4663385826771651
0
LINE
8
BLACK
6
CONTINUOUS
10
4.7902559055118106
20
-3.4663385826771651
11
4.7895066929133856
21
-3.4701051574803148
0
LINE
8
BLACK
6
CONTINUOUS
10
4.7895066929133856
20
-3.4701051574803148
11
4.7873731102362207
21
-3.4732983070866141
0
LINE
8
BLACK
6
CONTINUOUS
10
4.7873731102362207
20
-3.4732983070866141
11
4.7841799606299213
21
-3.4754318897637795
0
LINE
8
BLACK
6
CONTINUOUS
10
4.7841799606299213
20
-3.4754318897637795
11
4.7804133858267717
21
-3.4761811023622045
0
LINE
8
BLACK
6
CONTINUOUS
10
4.7804133858267717
20
-3.4761811023622045
11
4.7538385826771652
21
-3.4761811023622045
0
LINE
8
BLACK
6
CONTINUOUS
10
4.7538385826771652
20
-3.4761811023622045
11
4.7500720078740155
21
-3.4754318897637795
0
LINE
8
BLACK
6
CONTINUOUS
10
4.7500720078740155
20
-3.4754318897637795
11
4.7468788582677162
21
-3.4732983070866141
0
LINE
8
BLACK
6
CONTINUOUS
10
4.7468788582677162
20
-3.4732983070866141
11
4.7447452755905513
21
-3.4701051574803148
0
LINE
8
BLACK
6
CONTINUOUS
10
4.7447452755905513
20
-3.4701051574803148
11
4.7439960629921263
21
-3.4663385826771651
0
LINE
8
BLACK
6
CONTINUOUS
10
4.7439960629921263
20
-3.4663385826771651
11
4.7439960629921263
21
-3.4289370078740156
0
LINE
8
BLACK
6
CONTINUOUS
10
4.7439960629921263
20
-3.4289370078740156
11
4.7447452755905513
21
-3.4251704330708659
0
LINE
8
BLACK
6
CONTINUOUS
10
4.7447452755905513
20
-3.4251704330708659
11
4.7468788582677162
21
-3.421977283464567
0
LINE
8
BLACK
6
CONTINUOUS
10
4.7468788582677162
20
-3.421977283464567
11
4.7500720078740155
21
-3.4198437007874016
0
LINE
8
BLACK
6
CONTINUOUS
10
4.7500720078740155
20
-3.4198437007874016
11
4.7538385826771652
21
-3.4190944881889762
0
LINE
8
BLACK
6
CONTINUOUS
10
4.7538385826771652
20
-3.4190944881889762
11
4.7804133858267717
21
-3.4190944881889762
0
LINE
8
BLACK
6
CONTINUOUS
10
4.7804133858267717
20
-3.4190944881889762
11
4.7841799606299213
21
-3.4198437007874016
0
LINE
8
BLACK
6
CONTINUOUS
10
5.3052467716535432
20
-3.4489217322834644
11
5.3065240551181105
21
-3.4497751574803148
0
LINE
8
BLACK
6
CONTINUOUS
10
5.3065240551181105
20
-3.4497751574803148
11
5.3073774803149609
21
-3.4510524409448817
0
LINE
8
BLACK
6
CONTINUOUS
10
5.3073774803149609
20
-3.4510524409448817
11
5.3076771653543302
21
-3.45255905511811
0
LINE
8
BLACK
6
CONTINUOUS
10
5.3076771653543302
20
-3.45255905511811
11
5.3076771653543302
21
-3.4604330708661415
0
LINE
8
BLACK
6
CONTINUOUS
10
5.3076771653543302
20
-3.4604330708661415
11
5.3073774803149609
21
-3.4619396850393702
0
LINE
8
BLACK
6
CONTINUOUS
10
5.3073774803149609
20
-3.4619396850393702
11
5.3065240551181105
21
-3.4632169685039371
0
LINE
8
BLACK
6
CONTINUOUS
10
5.3065240551181105
20
-3.4632169685039371
11
5.3052467716535432
21
-3.4640703937007875
0
LINE
8
BLACK
6
CONTINUOUS
10
5.3052467716535432
20
-3.4640703937007875
11
5.3037401574803145
21
-3.4643700787401572
0
LINE
8
BLACK
6
CONTINUOUS
10
5.3037401574803145
20
-3.4643700787401572
11
5.2476377952755904
21
-3.4643700787401572
0
LINE
8
BLACK
6
CONTINUOUS
10
5.2476377952755904
20
-3.4643700787401572
11
5.2461311811023617
21
-3.4640703937007875
0
LINE
8
BLACK
6
CONTINUOUS
10
5.2461311811023617
20
-3.4640703937007875
11
5.2448538976377952
21
-3.4632169685039371
0
LINE
8
BLACK
6
CONTINUOUS
10
5.2448538976377952
20
-3.4632169685039371
11
5.2440004724409448
21
-3.4619396850393702
0
LINE
8
BLACK
6
CONTINUOUS
10
5.2440004724409448
20
-3.4619396850393702
11
5.2437007874015746
21
-3.4604330708661415
0
LINE
8
BLACK
6
CONTINUOUS
10
5.2437007874015746
20
-3.4604330708661415
11
5.2437007874015746
21
-3.45255905511811
0
LINE
8
BLACK
6
CONTINUOUS
10
5.2437007874015746
20
-3.45255905511811
11
5.2440004724409448
21
-3.4510524409448817
0
LINE
8
BLACK
6
CONTINUOUS
10
5.2440004724409448
20
-3.4510524409448817
11
5.2448538976377952
21
-3.4497751574803148
0
LINE
8
BLACK
6
CONTINUOUS
10
5.2448538976377952
20
-3.4497751574803148
11
5.2461311811023617
21
-3.4489217322834644
0
LINE
8
BLACK
6
CONTINUOUS
10
5.2461311811023617
20
-3.4489217322834644
11
5.2476377952755904
21
-3.4486220472440943
0
LINE
8
BLACK
6
CONTINUOUS
10
5.2476377952755904
20
-3.4486220472440943
11
5.3037401574803145
21
-3.4486220472440943
0
LINE
8
BLACK
6
CONTINUOUS
10
5.3037401574803145
20
-3.4486220472440943
11
5.3052467716535432
21
-3.4489217322834644
0
LINE
8
BLACK
6
CONTINUOUS
10
5.4715853543307089
20
-3.4489217322834644
11
5.4728626377952754
21
-3.4497751574803148
0
LINE
8
BLACK
6
CONTINUOUS
10
5.4728626377952754
20
-3.4497751574803148
11
5.4737160629921258
21
-3.4510524409448817
0
LINE
8
BLACK
6
CONTINUOUS
10
5.4737160629921258
20
-3.4510524409448817
11
5.4740157480314959
21
-3.45255905511811
0
LINE
8
BLACK
6
CONTINUOUS
10
5.4740157480314959
20
-3.45255905511811
11
5.4740157480314959
21
-3.4604330708661415
0
LINE
8
BLACK
6
CONTINUOUS
10
5.4740157480314959
20
-3.4604330708661415
11
5.4737160629921258
21
-3.4619396850393702
0
LINE
8
BLACK
6
CONTINUOUS
10
5.4737160629921258
20
-3.4619396850393702
11
5.4728626377952754
21
-3.4632169685039371
0
LINE
8
BLACK
6
CONTINUOUS
10
5.4728626377952754
20
-3.4632169685039371
11
5.4715853543307089
21
-3.4640703937007875
0
LINE
8
BLACK
6
CONTINUOUS
10
5.4715853543307089
20
-3.4640703937007875
11
5.4700787401574802
21
-3.4643700787401572
0
LINE
8
BLACK
6
CONTINUOUS
10
5.4700787401574802
20
-3.4643700787401572
11
5.4139763779527561
21
-3.4643700787401572
0
LINE
8
BLACK
6
CONTINUOUS
10
5.4139763779527561
20
-3.4643700787401572
11
5.4124697637795274
21
-3.4640703937007875
0
LINE
8
BLACK
6
CONTINUOUS
10
5.4124697637795274
20
-3.4640703937007875
11
5.4111924803149609
21
-3.4632169685039371
0
LINE
8
BLACK
6
CONTINUOUS
10
5.4111924803149609
20
-3.4632169685039371
11
5.4103390551181105
21
-3.4619396850393702
0
LINE
8
BLACK
6
CONTINUOUS
10
5.4103390551181105
20
-3.4619396850393702
11
5.4100393700787404
21
-3.4604330708661415
0
LINE
8
BLACK
6
CONTINUOUS
10
5.4100393700787404
20
-3.4604330708661415
11
5.4100393700787404
21
-3.45255905511811
0
LINE
8
BLACK
6
CONTINUOUS
10
5.4100393700787404
20
-3.45255905511811
11
5.4103390551181105
21
-3.4510524409448817
0
LINE
8
BLACK
6
CONTINUOUS
10
5.4103390551181105
20
-3.4510524409448817
11
5.4111924803149609
21
-3.4497751574803148
0
LINE
8
BLACK
6
CONTINUOUS
10
5.4111924803149609
20
-3.4497751574803148
11
5.4124697637795274
21
-3.4489217322834644
0
LINE
8
BLACK
6
CONTINUOUS
10
5.4124697637795274
20
-3.4489217322834644
11
5.4139763779527561
21
-3.4486220472440943
0
LINE
8
BLACK
6
CONTINUOUS
10
5.4139763779527561
20
-3.4486220472440943
11
5.4700787401574802
21
-3.4486220472440943
0
LINE
8
BLACK
6
CONTINUOUS
10
5.4700787401574802
20
-3.4486220472440943
11
5.4715853543307089
21
-3.4489217322834644
0
LINE
8
BLACK
6
CONTINUOUS
10
4.8921062204724413
20
-3.4606928740157481
11
4.8571062204724411
21
-3.4606928740157481
0
LINE
8
BLACK
6
CONTINUOUS
10
4.8571062204724411
20
-3.4606928740157481
11
4.8571062204724411
21
-3.4526928740157481
0
LINE
8
BLACK
6
CONTINUOUS
10
4.8571062204724411
20
-3.4526928740157481
11
4.8921062204724413
21
-3.4526928740157481
0
LINE
8
BLACK
6
CONTINUOUS
10
4.8921062204724413
20
-3.4526928740157481
11
4.8921062204724413
21
-3.4606928740157481
0
LINE
8
BLACK
6
CONTINUOUS
10
4.9590354330708664
20
-3.4606928740157481
11
4.9240354330708662
21
-3.4606928740157481
0
LINE
8
BLACK
6
CONTINUOUS
10
4.9240354330708662
20
-3.4606928740157481
11
4.9240354330708662
21
-3.4526928740157481
0
LINE
8
BLACK
6
CONTINUOUS
10
4.9240354330708662
20
-3.4526928740157481
11
4.9590354330708664
21
-3.4526928740157481
0
LINE
8
BLACK
6
CONTINUOUS
10
4.9590354330708664
20
-3.4526928740157481
11
4.9590354330708664
21
-3.4606928740157481
0
LINE
8
BLACK
6
CONTINUOUS
10
4.8921062204724413
20
-3.4449448425196851
11
4.8571062204724411
21
-3.4449448425196851
0
LINE
8
BLACK
6
CONTINUOUS
10
4.8571062204724411
20
-3.4449448425196851
11
4.8571062204724411
21
-3.4369448425196851
0
LINE
8
BLACK
6
CONTINUOUS
10
4.8571062204724411
20
-3.4369448425196851
11
4.8921062204724413
21
-3.4369448425196851
0
LINE
8
BLACK
6
CONTINUOUS
10
4.8921062204724413
20
-3.4369448425196851
11
4.8921062204724413
21
-3.4449448425196851
0
LINE
8
BLACK
6
CONTINUOUS
10
4.9590354330708664
20
-3.4449448425196851
11
4.9240354330708662
21
-3.4449448425196851
0
LINE
8
BLACK
6
CONTINUOUS
10
4.9240354330708662
20
-3.4449448425196851
11
4.9240354330708662
21
-3.4369448425196851
0
LINE
8
BLACK
6
CONTINUOUS
10
4.9240354330708662
20
-3.4369448425196851
11
4.9590354330708664
21
-3.4369448425196851
0
LINE
8
BLACK
6
CONTINUOUS
10
4.9590354330708664
20
-3.4369448425196851
11
4.9590354330708664
21
-3.4449448425196851
0
LINE
8
BLACK
6
CONTINUOUS
10
5.3052467716535432
20
-3.4233311811023621
11
5.3065240551181105
21
-3.4241846062992125
0
LINE
8
BLACK
6
CONTINUOUS
10
5.3065240551181105
20
-3.4241846062992125
11
5.3073774803149609
21
-3.4254618897637794
0
LINE
8
BLACK
6
CONTINUOUS
10
5.3073774803149609
20
-3.4254618897637794
11
5.3076771653543302
21
-3.4269685039370077
0
LINE
8
BLACK
6
CONTINUOUS
10
5.3076771653543302
20
-3.4269685039370077
11
5.3076771653543302
21
-3.4348425196850392
0
LINE
8
BLACK
6
CONTINUOUS
10
5.3076771653543302
20
-3.4348425196850392
11
5.3073774803149609
21
-3.4363491338582675
0
LINE
8
BLACK
6
CONTINUOUS
10
5.3073774803149609
20
-3.4363491338582675
11
5.3065240551181105
21
-3.4376264173228344
0
LINE
8
BLACK
6
CONTINUOUS
10
5.3065240551181105
20
-3.4376264173228344
11
5.3052467716535432
21
-3.4384798425196847
0
LINE
8
BLACK
6
CONTINUOUS
10
5.3052467716535432
20
-3.4384798425196847
11
5.3037401574803145
21
-3.4387795275590549
0
LINE
8
BLACK
6
CONTINUOUS
10
5.3037401574803145
20
-3.4387795275590549
11
5.2476377952755904
21
-3.4387795275590549
0
LINE
8
BLACK
6
CONTINUOUS
10
5.2476377952755904
20
-3.4387795275590549
11
5.2461311811023617
21
-3.4384798425196847
0
LINE
8
BLACK
6
CONTINUOUS
10
5.2461311811023617
20
-3.4384798425196847
11
5.2448538976377952
21
-3.4376264173228344
0
LINE
8
BLACK
6
CONTINUOUS
10
5.2448538976377952
20
-3.4376264173228344
11
5.2440004724409448
21
-3.4363491338582675
0
LINE
8
BLACK
6
CONTINUOUS
10
5.2440004724409448
20
-3.4363491338582675
11
5.2437007874015746
21
-3.4348425196850392
0
LINE
8
BLACK
6
CONTINUOUS
10
5.2437007874015746
20
-3.4348425196850392
11
5.2437007874015746
21
-3.4269685039370077
0
LINE
8
BLACK
6
CONTINUOUS
10
5.2437007874015746
20
-3.4269685039370077
11
5.2440004724409448
21
-3.4254618897637794
0
LINE
8
BLACK
6
CONTINUOUS
10
5.2440004724409448
20
-3.4254618897637794
11
5.2448538976377952
21
-3.4241846062992125
0
LINE
8
BLACK
6
CONTINUOUS
10
5.2448538976377952
20
-3.4241846062992125
11
5.2461311811023617
21
-3.4233311811023621
0
LINE
8
BLACK
6
CONTINUOUS
10
5.2461311811023617
20
-3.4233311811023621
11
5.2476377952755904
21
-3.423031496062992
0
LINE
8
BLACK
6
CONTINUOUS
10
5.2476377952755904
20
-3.423031496062992
11
5.3037401574803145
21
-3.423031496062992
0
LINE
8
BLACK
6
CONTINUOUS
10
5.3037401574803145
20
-3.423031496062992
11
5.3052467716535432
21
-3.4233311811023621
0
LINE
8
BLACK
6
CONTINUOUS
10
5.4715853543307089
20
-3.4233311811023621
11
5.4728626377952754
21
-3.4241846062992125
0
LINE
8
BLACK
6
CONTINUOUS
10
5.4728626377952754
20
-3.4241846062992125
11
5.4737160629921258
21
-3.4254618897637794
0
LINE
8
BLACK
6
CONTINUOUS
10
5.4737160629921258
20
-3.4254618897637794
11
5.4740157480314959
21
-3.4269685039370077
0
LINE
8
BLACK
6
CONTINUOUS
10
5.4740157480314959
20
-3.4269685039370077
11
5.4740157480314959
21
-3.4348425196850392
0
LINE
8
BLACK
6
CONTINUOUS
10
5.4740157480314959
20
-3.4348425196850392
11
5.4737160629921258
21
-3.4363491338582675
0
LINE
8
BLACK
6
CONTINUOUS
10
5.4737160629921258
20
-3.4363491338582675
11
5.4728626377952754
21
-3.4376264173228344
0
LINE
8
BLACK
6
CONTINUOUS
10
5.4728626377952754
20
-3.4376264173228344
11
5.4715853543307089
21
-3.4384798425196847
0
LINE
8
BLACK
6
CONTINUOUS
10
5.4715853543307089
20
-3.4384798425196847
11
5.4700787401574802
21
-3.4387795275590549
0
LINE
8
BLACK
6
CONTINUOUS
10
5.4700787401574802
20
-3.4387795275590549
11
5.4139763779527561
21
-3.4387795275590549
0
LINE
8
BLACK
6
CONTINUOUS
10
5.4139763779527561
20
-3.4387795275590549
11
5.4124697637795274
21
-3.4384798425196847
0
LINE
8
BLACK
6
CONTINUOUS
10
5.4124697637795274
20
-3.4384798425196847
11
5.4111924803149609
21
-3.4376264173228344
0
LINE
8
BLACK
6
CONTINUOUS
10
5.4111924803149609
20
-3.4376264173228344
11
5.4103390551181105
21
-3.4363491338582675
0
LINE
8
BLACK
6
CONTINUOUS
10
5.4103390551181105
20
-3.4363491338582675
11
5.4100393700787404
21
-3.4348425196850392
0
LINE
8
BLACK
6
CONTINUOUS
10
5.4100393700787404
20
-3.4348425196850392
11
5.4100393700787404
21
-3.4269685039370077
0
LINE
8
BLACK
6
CONTINUOUS
10
5.4100393700787404
20
-3.4269685039370077
11
5.4103390551181105
21
-3.4254618897637794
0
LINE
8
BLACK
6
CONTINUOUS
10
5.4103390551181105
20
-3.4254618897637794
11
5.4111924803149609
21
-3.4241846062992125
0
LINE
8
BLACK
6
CONTINUOUS
10
5.4111924803149609
20
-3.4241846062992125
11
5.4124697637795274
21
-3.4233311811023621
0
LINE
8
BLACK
6
CONTINUOUS
10
5.4124697637795274
20
-3.4233311811023621
11
5.4139763779527561
21
-3.423031496062992
0
LINE
8
BLACK
6
CONTINUOUS
10
5.4139763779527561
20
-3.423031496062992
11
5.4700787401574802
21
-3.423031496062992
0
LINE
8
BLACK
6
CONTINUOUS
10
5.4700787401574802
20
-3.423031496062992
11
5.4715853543307089
21
-3.4233311811023621
0
LINE
8
BLACK
6
CONTINUOUS
10
4.8961140944881887
20
-3.4291968503937009
11
4.857114094488189
21
-3.4291968503937009
0
LINE
8
BLACK
6
CONTINUOUS
10
4.857114094488189
20
-3.4291968503937009
11
4.857114094488189
21
-3.4211968503937009
0
LINE
8
BLACK
6
CONTINUOUS
10
4.857114094488189
20
-3.4211968503937009
11
4.8961140944881887
21
-3.4211968503937009
0
LINE
8
BLACK
6
CONTINUOUS
10
4.8961140944881887
20
-3.4211968503937009
11
4.8961140944881887
21
-3.4291968503937009
0
LINE
8
BLACK
6
CONTINUOUS
10
4.9590354330708664
20
-3.4291968503937009
11
4.9240354330708662
21
-3.4291968503937009
0
LINE
8
BLACK
6
CONTINUOUS
10
4.9240354330708662
20
-3.4291968503937009
11
4.9240354330708662
21
-3.4211968503937009
0
LINE
8
BLACK
6
CONTINUOUS
10
4.9240354330708662
20
-3.4211968503937009
11
4.9590354330708664
21
-3.4211968503937009
0
LINE
8
BLACK
6
CONTINUOUS
10
4.9590354330708664
20
-3.4211968503937009
11
4.9590354330708664
21
-3.4291968503937009
0
LINE
8
BLACK
6
CONTINUOUS
10
5.5474673622047241
20
-3.3832295275590551
11
5.5506605118110235
21
-3.3853631102362205
0
LINE
8
BLACK
6
CONTINUOUS
10
5.5506605118110235
20
-3.3853631102362205
11
5.5527940944881893
21
-3.3885562598425194
0
LINE
8
BLACK
6
CONTINUOUS
10
5.5527940944881893
20
-3.3885562598425194
11
5.5535433070866143
21
-3.3923228346456691
0
LINE
8
BLACK
6
CONTINUOUS
10
5.5535433070866143
20
-3.3923228346456691
11
5.5535433070866143
21
-3.4188976377952756
0
LINE
8
BLACK
6
CONTINUOUS
10
5.5535433070866143
20
-3.4188976377952756
11
5.5527940944881893
21
-3.4226642125984252
0
LINE
8
BLACK
6
CONTINUOUS
10
5.5527940944881893
20
-3.4226642125984252
11
5.5506605118110235
21
-3.4258573622047241
0
LINE
8
BLACK
6
CONTINUOUS
10
5.5506605118110235
20
-3.4258573622047241
11
5.5474673622047241
21
-3.4279909448818895
0
LINE
8
BLACK
6
CONTINUOUS
10
5.5474673622047241
20
-3.4279909448818895
11
5.5437007874015745
21
-3.4287401574803149
0
LINE
8
BLACK
6
CONTINUOUS
10
5.5437007874015745
20
-3.4287401574803149
11
5.5062992125984254
21
-3.4287401574803149
0
LINE
8
BLACK
6
CONTINUOUS
10
5.5062992125984254
20
-3.4287401574803149
11
5.5025326377952757
21
-3.4279909448818895
0
LINE
8
BLACK
6
CONTINUOUS
10
5.5025326377952757
20
-3.4279909448818895
11
5.4993394881889763
21
-3.4258573622047241
0
LINE
8
BLACK
6
CONTINUOUS
10
5.4993394881889763
20
-3.4258573622047241
11
5.4972059055118105
21
-3.4226642125984252
0
LINE
8
BLACK
6
CONTINUOUS
10
5.4972059055118105
20
-3.4226642125984252
11
5.4964566929133856
21
-3.4188976377952756
0
LINE
8
BLACK
6
CONTINUOUS
10
5.4964566929133856
20
-3.4188976377952756
11
5.4964566929133856
21
-3.3923228346456691
0
LINE
8
BLACK
6
CONTINUOUS
10
5.4964566929133856
20
-3.3923228346456691
11
5.4972059055118105
21
-3.3885562598425194
0
LINE
8
BLACK
6
CONTINUOUS
10
5.4972059055118105
20
-3.3885562598425194
11
5.4993394881889763
21
-3.3853631102362205
0
LINE
8
BLACK
6
CONTINUOUS
10
5.4993394881889763
20
-3.3853631102362205
11
5.5025326377952757
21
-3.3832295275590551
0
LINE
8
BLACK
6
CONTINUOUS
10
5.5025326377952757
20
-3.3832295275590551
11
5.5062992125984254
21
-3.3824803149606297
0
LINE
8
BLACK
6
CONTINUOUS
10
5.5062992125984254
20
-3.3824803149606297
11
5.5437007874015745
21
-3.3824803149606297
0
LINE
8
BLACK
6
CONTINUOUS
10
5.5437007874015745
20
-3.3824803149606297
11
5.5474673622047241
21
-3.3832295275590551
0
LINE
8
BLACK
6
CONTINUOUS
10
5.6293571259842521
20
-3.3828358267716534
11
5.6325502755905514
21
-3.3849694094488187
0
LINE
8
BLACK
6
CONTINUOUS
10
5.6325502755905514
20
-3.3849694094488187
11
5.6346838582677163
21
-3.3881625590551181
0
LINE
8
BLACK
6
CONTINUOUS
10
5.6346838582677163
20
-3.3881625590551181
11
5.6354330708661413
21
-3.3919291338582678
0
LINE
8
BLACK
6
CONTINUOUS
10
5.6354330708661413
20
-3.3919291338582678
11
5.6354330708661413
21
-3.4185039370078738
0
LINE
8
BLACK
6
CONTINUOUS
10
5.6354330708661413
20
-3.4185039370078738
11
5.6346838582677163
21
-3.4222705118110235
0
LINE
8
BLACK
6
CONTINUOUS
10
5.6346838582677163
20
-3.4222705118110235
11
5.6325502755905514
21
-3.4254636614173228
0
LINE
8
BLACK
6
CONTINUOUS
10
5.6325502755905514
20
-3.4254636614173228
11
5.6293571259842521
21
-3.4275972440944882
0
LINE
8
BLACK
6
CONTINUOUS
10
5.6293571259842521
20
-3.4275972440944882
11
5.6255905511811024
21
-3.4283464566929132
0
LINE
8
BLACK
6
CONTINUOUS
10
5.6255905511811024
20
-3.4283464566929132
11
5.5881889763779524
21
-3.4283464566929132
0
LINE
8
BLACK
6
CONTINUOUS
10
5.5881889763779524
20
-3.4283464566929132
11
5.5844224015748027
21
-3.4275972440944882
0
LINE
8
BLACK
6
CONTINUOUS
10
5.5844224015748027
20
-3.4275972440944882
11
5.5812292519685034
21
-3.4254636614173228
0
LINE
8
BLACK
6
CONTINUOUS
10
5.5812292519685034
20
-3.4254636614173228
11
5.5790956692913385
21
-3.4222705118110235
0
LINE
8
BLACK
6
CONTINUOUS
10
5.5790956692913385
20
-3.4222705118110235
11
5.5783464566929135
21
-3.4185039370078738
0
LINE
8
BLACK
6
CONTINUOUS
10
5.5783464566929135
20
-3.4185039370078738
11
5.5783464566929135
21
-3.3919291338582678
0
LINE
8
BLACK
6
CONTINUOUS
10
5.5783464566929135
20
-3.3919291338582678
11
5.5790956692913385
21
-3.3881625590551181
0
LINE
8
BLACK
6
CONTINUOUS
10
5.5790956692913385
20
-3.3881625590551181
11
5.5812292519685034
21
-3.3849694094488187
0
LINE
8
BLACK
6
CONTINUOUS
10
5.5812292519685034
20
-3.3849694094488187
11
5.5844224015748027
21
-3.3828358267716534
0
LINE
8
BLACK
6
CONTINUOUS
10
5.5844224015748027
20
-3.3828358267716534
11
5.5881889763779524
21
-3.3820866141732284
0
LINE
8
BLACK
6
CONTINUOUS
10
5.5881889763779524
20
-3.3820866141732284
11
5.6255905511811024
21
-3.3820866141732284
0
LINE
8
BLACK
6
CONTINUOUS
10
5.6255905511811024
20
-3.3820866141732284
11
5.6293571259842521
21
-3.3828358267716534
0
LINE
8
BLACK
6
CONTINUOUS
10
5.2159712992125984
20
-3.3785051181102363
11
5.2191644488188977
21
-3.3806387007874017
0
LINE
8
BLACK
6
CONTINUOUS
10
5.2191644488188977
20
-3.3806387007874017
11
5.2212980314960626
21
-3.3838318503937006
0
LINE
8
BLACK
6
CONTINUOUS
10
5.2212980314960626
20
-3.3838318503937006
11
5.2220472440944885
21
-3.3875984251968503
0
LINE
8
BLACK
6
CONTINUOUS
10
5.2220472440944885
20
-3.3875984251968503
11
5.2220472440944885
21
-3.4141732283464568
0
LINE
8
BLACK
6
CONTINUOUS
10
5.2220472440944885
20
-3.4141732283464568
11
5.2212980314960626
21
-3.4179398031496064
0
LINE
8
BLACK
6
CONTINUOUS
10
5.2212980314960626
20
-3.4179398031496064
11
5.2191644488188977
21
-3.4211329527559053
0
LINE
8
BLACK
6
CONTINUOUS
10
5.2191644488188977
20
-3.4211329527559053
11
5.2159712992125984
21
-3.4232665354330707
0
LINE
8
BLACK
6
CONTINUOUS
10
5.2159712992125984
20
-3.4232665354330707
11
5.2122047244094487
21
-3.4240157480314961
0
LINE
8
BLACK
6
CONTINUOUS
10
5.2122047244094487
20
-3.4240157480314961
11
5.1748031496062987
21
-3.4240157480314961
0
LINE
8
BLACK
6
CONTINUOUS
10
5.1748031496062987
20
-3.4240157480314961
11
5.1710365748031499
21
-3.4232665354330707
0
LINE
8
BLACK
6
CONTINUOUS
10
5.1710365748031499
20
-3.4232665354330707
11
5.1678434251968506
21
-3.4211329527559053
0
LINE
8
BLACK
6
CONTINUOUS
10
5.1678434251968506
20
-3.4211329527559053
11
5.1657098425196848
21
-3.4179398031496064
0
LINE
8
BLACK
6
CONTINUOUS
10
5.1657098425196848
20
-3.4179398031496064
11
5.1649606299212598
21
-3.4141732283464568
0
LINE
8
BLACK
6
CONTINUOUS
10
5.1649606299212598
20
-3.4141732283464568
11
5.1649606299212598
21
-3.3875984251968503
0
LINE
8
BLACK
6
CONTINUOUS
10
5.1649606299212598
20
-3.3875984251968503
11
5.1657098425196848
21
-3.3838318503937006
0
LINE
8
BLACK
6
CONTINUOUS
10
5.1657098425196848
20
-3.3838318503937006
11
5.1678434251968506
21
-3.3806387007874017
0
LINE
8
BLACK
6
CONTINUOUS
10
5.1678434251968506
20
-3.3806387007874017
11
5.1710365748031499
21
-3.3785051181102363
0
LINE
8
BLACK
6
CONTINUOUS
10
5.1710365748031499
20
-3.3785051181102363
11
5.1748031496062987
21
-3.3777559055118109
0
LINE
8
BLACK
6
CONTINUOUS
10
5.1748031496062987
20
-3.3777559055118109
11
5.2122047244094487
21
-3.3777559055118109
0
LINE
8
BLACK
6
CONTINUOUS
10
5.2122047244094487
20
-3.3777559055118109
11
5.2159712992125984
21
-3.3785051181102363
0
LINE
8
BLACK
6
CONTINUOUS
10
5.3052467716535432
20
-3.3977406299212598
11
5.3065240551181105
21
-3.3985940551181102
0
LINE
8
BLACK
6
CONTINUOUS
10
5.3065240551181105
20
-3.3985940551181102
11
5.3073774803149609
21
-3.3998713385826771
0
LINE
8
BLACK
6
CONTINUOUS
10
5.3073774803149609
20
-3.3998713385826771
11
5.3076771653543302
21
-3.4013779527559054
0
LINE
8
BLACK
6
CONTINUOUS
10
5.3076771653543302
20
-3.4013779527559054
11
5.3076771653543302
21
-3.4092519685039369
0
LINE
8
BLACK
6
CONTINUOUS
10
5.3076771653543302
20
-3.4092519685039369
11
5.3073774803149609
21
-3.4107585826771651
0
LINE
8
BLACK
6
CONTINUOUS
10
5.3073774803149609
20
-3.4107585826771651
11
5.3065240551181105
21
-3.412035866141732
0
LINE
8
BLACK
6
CONTINUOUS
10
5.3065240551181105
20
-3.412035866141732
11
5.3052467716535432
21
-3.4128892913385824
0
LINE
8
BLACK
6
CONTINUOUS
10
5.3052467716535432
20
-3.4128892913385824
11
5.3037401574803145
21
-3.4131889763779526
0
LINE
8
BLACK
6
CONTINUOUS
10
5.3037401574803145
20
-3.4131889763779526
11
5.2476377952755904
21
-3.4131889763779526
0
LINE
8
BLACK
6
CONTINUOUS
10
5.2476377952755904
20
-3.4131889763779526
11
5.2461311811023617
21
-3.4128892913385824
0
LINE
8
BLACK
6
CONTINUOUS
10
5.2461311811023617
20
-3.4128892913385824
11
5.2448538976377952
21
-3.412035866141732
0
LINE
8
BLACK
6
CONTINUOUS
10
5.2448538976377952
20
-3.412035866141732
11
5.2440004724409448
21
-3.4107585826771651
0
LINE
8
BLACK
6
CONTINUOUS
10
5.2440004724409448
20
-3.4107585826771651
11
5.2437007874015746
21
-3.4092519685039369
0
LINE
8
BLACK
6
CONTINUOUS
10
5.2437007874015746
20
-3.4092519685039369
11
5.2437007874015746
21
-3.4013779527559054
0
LINE
8
BLACK
6
CONTINUOUS
10
5.2437007874015746
20
-3.4013779527559054
11
5.2440004724409448
21
-3.3998713385826771
0
LINE
8
BLACK
6
CONTINUOUS
10
5.2440004724409448
20
-3.3998713385826771
11
5.2448538976377952
21
-3.3985940551181102
0
LINE
8
BLACK
6
CONTINUOUS
10
5.2448538976377952
20
-3.3985940551181102
11
5.2461311811023617
21
-3.3977406299212598
0
LINE
8
BLACK
6
CONTINUOUS
10
5.2461311811023617
20
-3.3977406299212598
11
5.2476377952755904
21
-3.3974409448818896
0
LINE
8
BLACK
6
CONTINUOUS
10
5.2476377952755904
20
-3.3974409448818896
11
5.3037401574803145
21
-3.3974409448818896
0
LINE
8
BLACK
6
CONTINUOUS
10
5.3037401574803145
20
-3.3974409448818896
11
5.3052467716535432
21
-3.3977406299212598
0
LINE
8
BLACK
6
CONTINUOUS
10
5.4715853543307089
20
-3.3977406299212598
11
5.4728626377952754
21
-3.3985940551181102
0
LINE
8
BLACK
6
CONTINUOUS
10
5.4728626377952754
20
-3.3985940551181102
11
5.4737160629921258
21
-3.3998713385826771
0
LINE
8
BLACK
6
CONTINUOUS
10
5.4737160629921258
20
-3.3998713385826771
11
5.4740157480314959
21
-3.4013779527559054
0
LINE
8
BLACK
6
CONTINUOUS
10
5.4740157480314959
20
-3.4013779527559054
11
5.4740157480314959
21
-3.4092519685039369
0
LINE
8
BLACK
6
CONTINUOUS
10
5.4740157480314959
20
-3.4092519685039369
11
5.4737160629921258
21
-3.4107585826771651
0
LINE
8
BLACK
6
CONTINUOUS
10
5.4737160629921258
20
-3.4107585826771651
11
5.4728626377952754
21
-3.412035866141732
0
LINE
8
BLACK
6
CONTINUOUS
10
5.4728626377952754
20
-3.412035866141732
11
5.4715853543307089
21
-3.4128892913385824
0
LINE
8
BLACK
6
CONTINUOUS
10
5.4715853543307089
20
-3.4128892913385824
11
5.4700787401574802
21
-3.4131889763779526
0
LINE
8
BLACK
6
CONTINUOUS
10
5.4700787401574802
20
-3.4131889763779526
11
5.4139763779527561
21
-3.4131889763779526
0
LINE
8
BLACK
6
CONTINUOUS
10
5.4139763779527561
20
-3.4131889763779526
11
5.4124697637795274
21
-3.4128892913385824
0
LINE
8
BLACK
6
CONTINUOUS
10
5.4124697637795274
20
-3.4128892913385824
11
5.4111924803149609
21
-3.412035866141732
0
LINE
8
BLACK
6
CONTINUOUS
10
5.4111924803149609
20
-3.412035866141732
11
5.4103390551181105
21
-3.4107585826771651
0
LINE
8
BLACK
6
CONTINUOUS
10
5.4103390551181105
20
-3.4107585826771651
11
5.4100393700787404
21
-3.4092519685039369
0
LINE
8
BLACK
6
CONTINUOUS
10
5.4100393700787404
20
-3.4092519685039369
11
5.4100393700787404
21
-3.4013779527559054
0
LINE
8
BLACK
6
CONTINUOUS
10
5.4100393700787404
20
-3.4013779527559054
11
5.4103390551181105
21
-3.3998713385826771
0
LINE
8
BLACK
6
CONTINUOUS
10
5.4103390551181105
20
-3.3998713385826771
11
5.4111924803149609
21
-3.3985940551181102
0
LINE
8
BLACK
6
CONTINUOUS
10
5.4111924803149609
20
-3.3985940551181102
11
5.4124697637795274
21
-3.3977406299212598
0
LINE
8
BLACK
6
CONTINUOUS
10
5.4124697637795274
20
-3.3977406299212598
11
5.4139763779527561
21
-3.3974409448818896
0
LINE
8
BLACK
6
CONTINUOUS
10
5.4139763779527561
20
-3.3974409448818896
11
5.4700787401574802
21
-3.3974409448818896
0
LINE
8
BLACK
6
CONTINUOUS
10
5.4700787401574802
20
-3.3974409448818896
11
5.4715853543307089
21
-3.3977406299212598
0
LINE
8
BLACK
6
CONTINUOUS
10
4.8805747244094491
20
-3.4057322440944882
11
4.8725747244094491
21
-3.4057322440944882
0
LINE
8
BLACK
6
CONTINUOUS
10
4.8725747244094491
20
-3.4057322440944882
11
4.8725747244094491
21
-3.3777322440944881
0
LINE
8
BLACK
6
CONTINUOUS
10
4.8725747244094491
20
-3.3777322440944881
11
4.8805747244094491
21
-3.3777322440944881
0
LINE
8
BLACK
6
CONTINUOUS
10
4.8805747244094491
20
-3.3777322440944881
11
4.8805747244094491
21
-3.4057322440944882
0
LINE
8
BLACK
6
CONTINUOUS
10
4.8963228346456695
20
-3.4057322440944882
11
4.8883228346456695
21
-3.4057322440944882
0
LINE
8
BLACK
6
CONTINUOUS
10
4.8883228346456695
20
-3.4057322440944882
11
4.8883228346456695
21
-3.3777322440944881
0
LINE
8
BLACK
6
CONTINUOUS
10
4.8883228346456695
20
-3.3777322440944881
11
4.8963228346456695
21
-3.3777322440944881
0
LINE
8
BLACK
6
CONTINUOUS
10
4.8963228346456695
20
-3.3777322440944881
11
4.8963228346456695
21
-3.4057322440944882
0
LINE
8
BLACK
6
CONTINUOUS
10
4.9120708267716537
20
-3.4057322440944882
11
4.9040708267716537
21
-3.4057322440944882
0
LINE
8
BLACK
6
CONTINUOUS
10
4.9040708267716537
20
-3.4057322440944882
11
4.9040708267716537
21
-3.3777322440944881
0
LINE
8
BLACK
6
CONTINUOUS
10
4.9040708267716537
20
-3.3777322440944881
11
4.9120708267716537
21
-3.3777322440944881
0
LINE
8
BLACK
6
CONTINUOUS
10
4.9120708267716537
20
-3.3777322440944881
11
4.9120708267716537
21
-3.4057322440944882
0
LINE
8
BLACK
6
CONTINUOUS
10
4.927818818897638
20
-3.4057322440944882
11
4.9198188188976379
21
-3.4057322440944882
0
LINE
8
BLACK
6
CONTINUOUS
10
4.9198188188976379
20
-3.4057322440944882
11
4.9198188188976379
21
-3.3777322440944881
0
LINE
8
BLACK
6
CONTINUOUS
10
4.9198188188976379
20
-3.3777322440944881
11
4.927818818897638
21
-3.3777322440944881
0
LINE
8
BLACK
6
CONTINUOUS
10
4.927818818897638
20
-3.3777322440944881
11
4.927818818897638
21
-3.4057322440944882
0
LINE
8
BLACK
6
CONTINUOUS
10
4.9435669291338584
20
-3.4057322440944882
11
4.9355669291338584
21
-3.4057322440944882
0
LINE
8
BLACK
6
CONTINUOUS
10
4.9355669291338584
20
-3.4057322440944882
11
4.9355669291338584
21
-3.3777322440944881
0
LINE
8
BLACK
6
CONTINUOUS
10
4.9355669291338584
20
-3.3777322440944881
11
4.9435669291338584
21
-3.3777322440944881
0
LINE
8
BLACK
6
CONTINUOUS
10
4.9435669291338584
20
-3.3777322440944881
11
4.9435669291338584
21
-3.4057322440944882
0
LINE
8
BLACK
6
CONTINUOUS
10
5.1368374409448814
20
-3.3528161417322835
11
5.1400305905511807
21
-3.3549497244094488
0
LINE
8
BLACK
6
CONTINUOUS
10
5.1400305905511807
20
-3.3549497244094488
11
5.1421641732283465
21
-3.3581428740157477
0
LINE
8
BLACK
6
CONTINUOUS
10
5.1421641732283465
20
-3.3581428740157477
11
5.1429133858267715
21
-3.3619094488188974
0
LINE
8
BLACK
6
CONTINUOUS
10
5.1429133858267715
20
-3.3619094488188974
11
5.1429133858267715
21
-3.3884842519685039
0
LINE
8
BLACK
6
CONTINUOUS
10
5.1429133858267715
20
-3.3884842519685039
11
5.1421641732283465
21
-3.3922508267716536
0
LINE
8
BLACK
6
CONTINUOUS
10
5.1421641732283465
20
-3.3922508267716536
11
5.1400305905511807
21
-3.3954439763779525
0
LINE
8
BLACK
6
CONTINUOUS
10
5.1400305905511807
20
-3.3954439763779525
11
5.1368374409448814
21
-3.3975775590551178
0
LINE
8
BLACK
6
CONTINUOUS
10
5.1368374409448814
20
-3.3975775590551178
11
5.1330708661417326
21
-3.3983267716535432
0
LINE
8
BLACK
6
CONTINUOUS
10
5.1330708661417326
20
-3.3983267716535432
11
5.0956692913385826
21
-3.3983267716535432
0
LINE
8
BLACK
6
CONTINUOUS
10
5.0956692913385826
20
-3.3983267716535432
11
5.0919027165354329
21
-3.3975775590551178
0
LINE
8
BLACK
6
CONTINUOUS
10
5.0919027165354329
20
-3.3975775590551178
11
5.0887095669291336
21
-3.3954439763779525
0
LINE
8
BLACK
6
CONTINUOUS
10
5.0887095669291336
20
-3.3954439763779525
11
5.0865759842519687
21
-3.3922508267716536
0
LINE
8
BLACK
6
CONTINUOUS
10
5.0865759842519687
20
-3.3922508267716536
11
5.0858267716535428
21
-3.3884842519685039
0
LINE
8
BLACK
6
CONTINUOUS
10
5.0858267716535428
20
-3.3884842519685039
11
5.0858267716535428
21
-3.3619094488188974
0
LINE
8
BLACK
6
CONTINUOUS
10
5.0858267716535428
20
-3.3619094488188974
11
5.0865759842519687
21
-3.3581428740157477
0
LINE
8
BLACK
6
CONTINUOUS
10
5.0865759842519687
20
-3.3581428740157477
11
5.0887095669291336
21
-3.3549497244094488
0
LINE
8
BLACK
6
CONTINUOUS
10
5.0887095669291336
20
-3.3549497244094488
11
5.0919027165354329
21
-3.3528161417322835
0
LINE
8
BLACK
6
CONTINUOUS
10
5.0919027165354329
20
-3.3528161417322835
11
5.0956692913385826
21
-3.3520669291338581
0
LINE
8
BLACK
6
CONTINUOUS
10
5.0956692913385826
20
-3.3520669291338581
11
5.1330708661417326
21
-3.3520669291338581
0
LINE
8
BLACK
6
CONTINUOUS
10
5.1330708661417326
20
-3.3520669291338581
11
5.1368374409448814
21
-3.3528161417322835
0
LINE
8
BLACK
6
CONTINUOUS
10
5.0549476771653543
20
-3.3524224409448817
11
5.0581408267716537
21
-3.3545560236220471
0
LINE
8
BLACK
6
CONTINUOUS
10
5.0581408267716537
20
-3.3545560236220471
11
5.0602744094488186
21
-3.3577491732283464
0
LINE
8
BLACK
6
CONTINUOUS
10
5.0602744094488186
20
-3.3577491732283464
11
5.0610236220472435
21
-3.3615157480314961
0
LINE
8
BLACK
6
CONTINUOUS
10
5.0610236220472435
20
-3.3615157480314961
11
5.0610236220472435
21
-3.3880905511811021
0
LINE
8
BLACK
6
CONTINUOUS
10
5.0610236220472435
20
-3.3880905511811021
11
5.0602744094488186
21
-3.3918571259842518
0
LINE
8
BLACK
6
CONTINUOUS
10
5.0602744094488186
20
-3.3918571259842518
11
5.0581408267716537
21
-3.3950502755905512
0
LINE
8
BLACK
6
CONTINUOUS
10
5.0581408267716537
20
-3.3950502755905512
11
5.0549476771653543
21
-3.3971838582677165
0
LINE
8
BLACK
6
CONTINUOUS
10
5.0549476771653543
20
-3.3971838582677165
11
5.0511811023622046
21
-3.3979330708661415
0
LINE
8
BLACK
6
CONTINUOUS
10
5.0511811023622046
20
-3.3979330708661415
11
5.0137795275590546
21
-3.3979330708661415
0
LINE
8
BLACK
6
CONTINUOUS
10
5.0137795275590546
20
-3.3979330708661415
11
5.010012952755905
21
-3.3971838582677165
0
LINE
8
BLACK
6
CONTINUOUS
10
5.010012952755905
20
-3.3971838582677165
11
5.0068198031496065
21
-3.3950502755905512
0
LINE
8
BLACK
6
CONTINUOUS
10
5.0068198031496065
20
-3.3950502755905512
11
5.0046862204724407
21
-3.3918571259842518
0
LINE
8
BLACK
6
CONTINUOUS
10
5.0046862204724407
20
-3.3918571259842518
11
5.0039370078740157
21
-3.3880905511811021
0
LINE
8
BLACK
6
CONTINUOUS
10
5.0039370078740157
20
-3.3880905511811021
11
5.0039370078740157
21
-3.3615157480314961
0
LINE
8
BLACK
6
CONTINUOUS
10
5.0039370078740157
20
-3.3615157480314961
11
5.0046862204724407
21
-3.3577491732283464
0
LINE
8
BLACK
6
CONTINUOUS
10
5.0046862204724407
20
-3.3577491732283464
11
5.0068198031496065
21
-3.3545560236220471
0
LINE
8
BLACK
6
CONTINUOUS
10
5.0068198031496065
20
-3.3545560236220471
11
5.010012952755905
21
-3.3524224409448817
0
LINE
8
BLACK
6
CONTINUOUS
10
5.010012952755905
20
-3.3524224409448817
11
5.0137795275590546
21
-3.3516732283464568
0
LINE
8
BLACK
6
CONTINUOUS
10
5.0137795275590546
20
-3.3516732283464568
11
5.0511811023622046
21
-3.3516732283464568
0
LINE
8
BLACK
6
CONTINUOUS
10
5.0511811023622046
20
-3.3516732283464568
11
5.0549476771653543
21
-3.3524224409448817
0
LINE
8
BLACK
6
CONTINUOUS
10
4.7438256299212593
20
-3.3296862204724409
11
4.7470187795275587
21
-3.3318198031496062
0
LINE
8
BLACK
6
CONTINUOUS
10
4.7470187795275587
20
-3.3318198031496062
11
4.7491523622047245
21
-3.3350129527559056
0
LINE
8
BLACK
6
CONTINUOUS
10
4.7491523622047245
20
-3.3350129527559056
11
4.7499015748031495
21
-3.3387795275590548
0
LINE
8
BLACK
6
CONTINUOUS
10
4.7499015748031495
20
-3.3387795275590548
11
4.7499015748031495
21
-3.3761811023622048
0
LINE
8
BLACK
6
CONTINUOUS
10
4.7499015748031495
20
-3.3761811023622048
11
4.7491523622047245
21
-3.379947677165354
0
LINE
8
BLACK
6
CONTINUOUS
10
4.7491523622047245
20
-3.379947677165354
11
4.7470187795275587
21
-3.3831408267716534
0
LINE
8
BLACK
6
CONTINUOUS
10
4.7470187795275587
20
-3.3831408267716534
11
4.7438256299212593
21
-3.3852744094488187
0
LINE
8
BLACK
6
CONTINUOUS
10
4.7438256299212593
20
-3.3852744094488187
11
4.7400590551181105
21
-3.3860236220472442
0
LINE
8
BLACK
6
CONTINUOUS
10
4.7400590551181105
20
-3.3860236220472442
11
4.7134842519685041
21
-3.3860236220472442
0
LINE
8
BLACK
6
CONTINUOUS
10
4.7134842519685041
20
-3.3860236220472442
11
4.7097176771653544
21
-3.3852744094488187
0
LINE
8
BLACK
6
CONTINUOUS
10
4.7097176771653544
20
-3.3852744094488187
11
4.706524527559055
21
-3.3831408267716534
0
LINE
8
BLACK
6
CONTINUOUS
10
4.706524527559055
20
-3.3831408267716534
11
4.7043909448818892
21
-3.379947677165354
0
LINE
8
BLACK
6
CONTINUOUS
10
4.7043909448818892
20
-3.379947677165354
11
4.7036417322834643
21
-3.3761811023622048
0
LINE
8
BLACK
6
CONTINUOUS
10
4.7036417322834643
20
-3.3761811023622048
11
4.7036417322834643
21
-3.3387795275590548
0
LINE
8
BLACK
6
CONTINUOUS
10
4.7036417322834643
20
-3.3387795275590548
11
4.7043909448818892
21
-3.3350129527559056
0
LINE
8
BLACK
6
CONTINUOUS
10
4.7043909448818892
20
-3.3350129527559056
11
4.706524527559055
21
-3.3318198031496062
0
LINE
8
BLACK
6
CONTINUOUS
10
4.706524527559055
20
-3.3318198031496062
11
4.7097176771653544
21
-3.3296862204724409
0
LINE
8
BLACK
6
CONTINUOUS
10
4.7097176771653544
20
-3.3296862204724409
11
4.7134842519685041
21
-3.3289370078740155
0
LINE
8
BLACK
6
CONTINUOUS
10
4.7134842519685041
20
-3.3289370078740155
11
4.7400590551181105
21
-3.3289370078740155
0
LINE
8
BLACK
6
CONTINUOUS
10
4.7400590551181105
20
-3.3289370078740155
11
4.7438256299212593
21
-3.3296862204724409
0
LINE
8
BLACK
6
CONTINUOUS
10
4.8255185433070862
20
-3.3296862204724409
11
4.8287116929133855
21
-3.3318198031496062
0
LINE
8
BLACK
6
CONTINUOUS
10
4.8287116929133855
20
-3.3318198031496062
11
4.8308452755905513
21
-3.3350129527559056
0
LINE
8
BLACK
6
CONTINUOUS
10
4.8308452755905513
20
-3.3350129527559056
11
4.8315944881889763
21
-3.3387795275590548
0
LINE
8
BLACK
6
CONTINUOUS
10
4.8315944881889763
20
-3.3387795275590548
11
4.8315944881889763
21
-3.3761811023622048
0
LINE
8
BLACK
6
CONTINUOUS
10
4.8315944881889763
20
-3.3761811023622048
11
4.8308452755905513
21
-3.379947677165354
0
LINE
8
BLACK
6
CONTINUOUS
10
4.8308452755905513
20
-3.379947677165354
11
4.8287116929133855
21
-3.3831408267716534
0
LINE
8
BLACK
6
CONTINUOUS
10
4.8287116929133855
20
-3.3831408267716534
11
4.8255185433070862
21
-3.3852744094488187
0
LINE
8
BLACK
6
CONTINUOUS
10
4.8255185433070862
20
-3.3852744094488187
11
4.8217519685039365
21
-3.3860236220472442
0
LINE
8
BLACK
6
CONTINUOUS
10
4.8217519685039365
20
-3.3860236220472442
11
4.7951771653543309
21
-3.3860236220472442
0
LINE
8
BLACK
6
CONTINUOUS
10
4.7951771653543309
20
-3.3860236220472442
11
4.7914105905511812
21
-3.3852744094488187
0
LINE
8
BLACK
6
CONTINUOUS
10
4.7914105905511812
20
-3.3852744094488187
11
4.7882174409448819
21
-3.3831408267716534
0
LINE
8
BLACK
6
CONTINUOUS
10
4.7882174409448819
20
-3.3831408267716534
11
4.7860838582677161
21
-3.379947677165354
0
LINE
8
BLACK
6
CONTINUOUS
10
4.7860838582677161
20
-3.379947677165354
11
4.7853346456692911
21
-3.3761811023622048
0
LINE
8
BLACK
6
CONTINUOUS
10
4.7853346456692911
20
-3.3761811023622048
11
4.7853346456692911
21
-3.3387795275590548
0
LINE
8
BLACK
6
CONTINUOUS
10
4.7853346456692911
20
-3.3387795275590548
11
4.7860838582677161
21
-3.3350129527559056
0
LINE
8
BLACK
6
CONTINUOUS
10
4.7860838582677161
20
-3.3350129527559056
11
4.7882174409448819
21
-3.3318198031496062
0
LINE
8
BLACK
6
CONTINUOUS
10
4.7882174409448819
20
-3.3318198031496062
11
4.7914105905511812
21
-3.3296862204724409
0
LINE
8
BLACK
6
CONTINUOUS
10
4.7914105905511812
20
-3.3296862204724409
11
4.7951771653543309
21
-3.3289370078740155
0
LINE
8
BLACK
6
CONTINUOUS
10
4.7951771653543309
20
-3.3289370078740155
11
4.8217519685039365
21
-3.3289370078740155
0
LINE
8
BLACK
6
CONTINUOUS
10
4.8217519685039365
20
-3.3289370078740155
11
4.8255185433070862
21
-3.3296862204724409
0
LINE
8
BLACK
6
CONTINUOUS
10
4.9145933464566927
20
-3.2885444881889763
11
4.917786496062992
21
-3.2906780708661416
0
LINE
8
BLACK
6
CONTINUOUS
10
4.917786496062992
20
-3.2906780708661416
11
4.9199200787401578
21
-3.293871220472441
0
LINE
8
BLACK
6
CONTINUOUS
10
4.9199200787401578
20
-3.293871220472441
11
4.9206692913385828
21
-3.2976377952755906
0
LINE
8
BLACK
6
CONTINUOUS
10
4.9206692913385828
20
-3.2976377952755906
11
4.9206692913385828
21
-3.3251968503937008
0
LINE
8
BLACK
6
CONTINUOUS
10
4.9206692913385828
20
-3.3251968503937008
11
4.9199200787401578
21
-3.3289634251968505
0
LINE
8
BLACK
6
CONTINUOUS
10
4.9199200787401578
20
-3.3289634251968505
11
4.917786496062992
21
-3.3321565748031494
0
LINE
8
BLACK
6
CONTINUOUS
10
4.917786496062992
20
-3.3321565748031494
11
4.9145933464566927
21
-3.3342901574803148
0
LINE
8
BLACK
6
CONTINUOUS
10
4.9145933464566927
20
-3.3342901574803148
11
4.910826771653543
21
-3.3350393700787402
0
LINE
8
BLACK
6
CONTINUOUS
10
4.910826771653543
20
-3.3350393700787402
11
4.8753937007874013
21
-3.3350393700787402
0
LINE
8
BLACK
6
CONTINUOUS
10
4.8753937007874013
20
-3.3350393700787402
11
4.8716271259842516
21
-3.3342901574803148
0
LINE
8
BLACK
6
CONTINUOUS
10
4.8716271259842516
20
-3.3342901574803148
11
4.8684339763779523
21
-3.3321565748031494
0
LINE
8
BLACK
6
CONTINUOUS
10
4.8684339763779523
20
-3.3321565748031494
11
4.8663003937007874
21
-3.3289634251968505
0
LINE
8
BLACK
6
CONTINUOUS
10
4.8663003937007874
20
-3.3289634251968505
11
4.8655511811023624
21
-3.3251968503937008
0
LINE
8
BLACK
6
CONTINUOUS
10
4.8655511811023624
20
-3.3251968503937008
11
4.8655511811023624
21
-3.2976377952755906
0
LINE
8
BLACK
6
CONTINUOUS
10
4.8655511811023624
20
-3.2976377952755906
11
4.8663003937007874
21
-3.293871220472441
0
LINE
8
BLACK
6
CONTINUOUS
10
4.8663003937007874
20
-3.293871220472441
11
4.8684339763779523
21
-3.2906780708661416
0
LINE
8
BLACK
6
CONTINUOUS
10
4.8684339763779523
20
-3.2906780708661416
11
4.8716271259842516
21
-3.2885444881889763
0
LINE
8
BLACK
6
CONTINUOUS
10
4.8716271259842516
20
-3.2885444881889763
11
4.8753937007874013
21
-3.2877952755905513
0
LINE
8
BLACK
6
CONTINUOUS
10
4.8753937007874013
20
-3.2877952755905513
11
4.910826771653543
21
-3.2877952755905513
0
LINE
8
BLACK
6
CONTINUOUS
10
4.910826771653543
20
-3.2877952755905513
11
4.9145933464566927
21
-3.2885444881889763
0
LINE
8
BLACK
6
CONTINUOUS
10
5.1368374409448814
20
-3.2711232283464566
11
5.1400305905511807
21
-3.273256811023622
0
LINE
8
BLACK
6
CONTINUOUS
10
5.1400305905511807
20
-3.273256811023622
11
5.1421641732283465
21
-3.2764499606299213
0
LINE
8
BLACK
6
CONTINUOUS
10
5.1421641732283465
20
-3.2764499606299213
11
5.1429133858267715
21
-3.280216535433071
0
LINE
8
BLACK
6
CONTINUOUS
10
5.1429133858267715
20
-3.280216535433071
11
5.1429133858267715
21
-3.306791338582677
0
LINE
8
BLACK
6
CONTINUOUS
10
5.1429133858267715
20
-3.306791338582677
11
5.1421641732283465
21
-3.3105579133858267
0
LINE
8
BLACK
6
CONTINUOUS
10
5.1421641732283465
20
-3.3105579133858267
11
5.1400305905511807
21
-3.3137510629921261
0
LINE
8
BLACK
6
CONTINUOUS
10
5.1400305905511807
20
-3.3137510629921261
11
5.1368374409448814
21
-3.3158846456692914
0
LINE
8
BLACK
6
CONTINUOUS
10
5.1368374409448814
20
-3.3158846456692914
11
5.1330708661417326
21
-3.3166338582677164
0
LINE
8
BLACK
6
CONTINUOUS
10
5.1330708661417326
20
-3.3166338582677164
11
5.0956692913385826
21
-3.3166338582677164
0
LINE
8
BLACK
6
CONTINUOUS
10
5.0956692913385826
20
-3.3166338582677164
11
5.0919027165354329
21
-3.3158846456692914
0
LINE
8
BLACK
6
CONTINUOUS
10
5.0919027165354329
20
-3.3158846456692914
11
5.0887095669291336
21
-3.3137510629921261
0
LINE
8
BLACK
6
CONTINUOUS
10
5.0887095669291336
20
-3.3137510629921261
11
5.0865759842519687
21
-3.3105579133858267
0
LINE
8
BLACK
6
CONTINUOUS
10
5.0865759842519687
20
-3.3105579133858267
11
5.0858267716535428
21
-3.306791338582677
0
LINE
8
BLACK
6
CONTINUOUS
10
5.0858267716535428
20
-3.306791338582677
11
5.0858267716535428
21
-3.280216535433071
0
LINE
8
BLACK
6
CONTINUOUS
10
5.0858267716535428
20
-3.280216535433071
11
5.0865759842519687
21
-3.2764499606299213
0
LINE
8
BLACK
6
CONTINUOUS
10
5.0865759842519687
20
-3.2764499606299213
11
5.0887095669291336
21
-3.273256811023622
0
LINE
8
BLACK
6
CONTINUOUS
10
5.0887095669291336
20
-3.273256811023622
11
5.0919027165354329
21
-3.2711232283464566
0
LINE
8
BLACK
6
CONTINUOUS
10
5.0919027165354329
20
-3.2711232283464566
11
5.0956692913385826
21
-3.2703740157480312
0
LINE
8
BLACK
6
CONTINUOUS
10
5.0956692913385826
20
-3.2703740157480312
11
5.1330708661417326
21
-3.2703740157480312
0
LINE
8
BLACK
6
CONTINUOUS
10
5.1330708661417326
20
-3.2703740157480312
11
5.1368374409448814
21
-3.2711232283464566
0
LINE
8
BLACK
6
CONTINUOUS
10
5.0549476771653543
20
-3.2707295275590549
11
5.0581408267716537
21
-3.2728631102362202
0
LINE
8
BLACK
6
CONTINUOUS
10
5.0581408267716537
20
-3.2728631102362202
11
5.0602744094488186
21
-3.2760562598425196
0
LINE
8
BLACK
6
CONTINUOUS
10
5.0602744094488186
20
-3.2760562598425196
11
5.0610236220472435
21
-3.2798228346456693
0
LINE
8
BLACK
6
CONTINUOUS
10
5.0610236220472435
20
-3.2798228346456693
11
5.0610236220472435
21
-3.3063976377952757
0
LINE
8
BLACK
6
CONTINUOUS
10
5.0610236220472435
20
-3.3063976377952757
11
5.0602744094488186
21
-3.310164212598425
0
LINE
8
BLACK
6
CONTINUOUS
10
5.0602744094488186
20
-3.310164212598425
11
5.0581408267716537
21
-3.3133573622047243
0
LINE
8
BLACK
6
CONTINUOUS
10
5.0581408267716537
20
-3.3133573622047243
11
5.0549476771653543
21
-3.3154909448818897
0
LINE
8
BLACK
6
CONTINUOUS
10
5.0549476771653543
20
-3.3154909448818897
11
5.0511811023622046
21
-3.3162401574803151
0
LINE
8
BLACK
6
CONTINUOUS
10
5.0511811023622046
20
-3.3162401574803151
11
5.0137795275590546
21
-3.3162401574803151
0
LINE
8
BLACK
6
CONTINUOUS
10
5.0137795275590546
20
-3.3162401574803151
11
5.010012952755905
21
-3.3154909448818897
0
LINE
8
BLACK
6
CONTINUOUS
10
5.010012952755905
20
-3.3154909448818897
11
5.0068198031496065
21
-3.3133573622047243
0
LINE
8
BLACK
6
CONTINUOUS
10
5.0068198031496065
20
-3.3133573622047243
11
5.0046862204724407
21
-3.310164212598425
0
LINE
8
BLACK
6
CONTINUOUS
10
5.0046862204724407
20
-3.310164212598425
11
5.0039370078740157
21
-3.3063976377952757
0
LINE
8
BLACK
6
CONTINUOUS
10
5.0039370078740157
20
-3.3063976377952757
11
5.0039370078740157
21
-3.2798228346456693
0
LINE
8
BLACK
6
CONTINUOUS
10
5.0039370078740157
20
-3.2798228346456693
11
5.0046862204724407
21
-3.2760562598425196
0
LINE
8
BLACK
6
CONTINUOUS
10
5.0046862204724407
20
-3.2760562598425196
11
5.0068198031496065
21
-3.2728631102362202
0
LINE
8
BLACK
6
CONTINUOUS
10
5.0068198031496065
20
-3.2728631102362202
11
5.010012952755905
21
-3.2707295275590549
0
LINE
8
BLACK
6
CONTINUOUS
10
5.010012952755905
20
-3.2707295275590549
11
5.0137795275590546
21
-3.2699803149606299
0
LINE
8
BLACK
6
CONTINUOUS
10
5.0137795275590546
20
-3.2699803149606299
11
5.0511811023622046
21
-3.2699803149606299
0
LINE
8
BLACK
6
CONTINUOUS
10
5.0511811023622046
20
-3.2699803149606299
11
5.0549476771653543
21
-3.2707295275590549
0
LINE
8
BLACK
6
CONTINUOUS
10
4.7426445275590554
20
-3.2513397637795274
11
4.7458376771653539
21
-3.2534733464566927
0
LINE
8
BLACK
6
CONTINUOUS
10
4.7458376771653539
20
-3.2534733464566927
11
4.7479712598425197
21
-3.2566664960629921
0
LINE
8
BLACK
6
CONTINUOUS
10
4.7479712598425197
20
-3.2566664960629921
11
4.7487204724409446
21
-3.2604330708661418
0
LINE
8
BLACK
6
CONTINUOUS
10
4.7487204724409446
20
-3.2604330708661418
11
4.7487204724409446
21
-3.2978346456692913
0
LINE
8
BLACK
6
CONTINUOUS
10
4.7487204724409446
20
-3.2978346456692913
11
4.7479712598425197
21
-3.301601220472441
0
LINE
8
BLACK
6
CONTINUOUS
10
4.7479712598425197
20
-3.301601220472441
11
4.7458376771653539
21
-3.3047943700787399
0
LINE
8
BLACK
6
CONTINUOUS
10
4.7458376771653539
20
-3.3047943700787399
11
4.7426445275590554
21
-3.3069279527559052
0
LINE
8
BLACK
6
CONTINUOUS
10
4.7426445275590554
20
-3.3069279527559052
11
4.7388779527559057
21
-3.3076771653543307
0
LINE
8
BLACK
6
CONTINUOUS
10
4.7388779527559057
20
-3.3076771653543307
11
4.7123031496062993
21
-3.3076771653543307
0
LINE
8
BLACK
6
CONTINUOUS
10
4.7123031496062993
20
-3.3076771653543307
11
4.7085365748031496
21
-3.3069279527559052
0
LINE
8
BLACK
6
CONTINUOUS
10
4.7085365748031496
20
-3.3069279527559052
11
4.7053434251968502
21
-3.3047943700787399
0
LINE
8
BLACK
6
CONTINUOUS
10
4.7053434251968502
20
-3.3047943700787399
11
4.7032098425196853
21
-3.301601220472441
0
LINE
8
BLACK
6
CONTINUOUS
10
4.7032098425196853
20
-3.301601220472441
11
4.7024606299212595
21
-3.2978346456692913
0
LINE
8
BLACK
6
CONTINUOUS
10
4.7024606299212595
20
-3.2978346456692913
11
4.7024606299212595
21
-3.2604330708661418
0
LINE
8
BLACK
6
CONTINUOUS
10
4.7024606299212595
20
-3.2604330708661418
11
4.7032098425196853
21
-3.2566664960629921
0
LINE
8
BLACK
6
CONTINUOUS
10
4.7032098425196853
20
-3.2566664960629921
11
4.7053434251968502
21
-3.2534733464566927
0
LINE
8
BLACK
6
CONTINUOUS
10
4.7053434251968502
20
-3.2534733464566927
11
4.7085365748031496
21
-3.2513397637795274
0
LINE
8
BLACK
6
CONTINUOUS
10
4.7085365748031496
20
-3.2513397637795274
11
4.7123031496062993
21
-3.2505905511811024
0
LINE
8
BLACK
6
CONTINUOUS
10
4.7123031496062993
20
-3.2505905511811024
11
4.7388779527559057
21
-3.2505905511811024
0
LINE
8
BLACK
6
CONTINUOUS
10
4.7388779527559057
20
-3.2505905511811024
11
4.7426445275590554
21
-3.2513397637795274
0
LINE
8
BLACK
6
CONTINUOUS
10
4.8243374409448814
20
-3.2513397637795274
11
4.8275305905511807
21
-3.2534733464566927
0
LINE
8
BLACK
6
CONTINUOUS
10
4.8275305905511807
20
-3.2534733464566927
11
4.8296641732283465
21
-3.2566664960629921
0
LINE
8
BLACK
6
CONTINUOUS
10
4.8296641732283465
20
-3.2566664960629921
11
4.8304133858267715
21
-3.2604330708661418
0
LINE
8
BLACK
6
CONTINUOUS
10
4.8304133858267715
20
-3.2604330708661418
11
4.8304133858267715
21
-3.2978346456692913
0
LINE
8
BLACK
6
CONTINUOUS
10
4.8304133858267715
20
-3.2978346456692913
11
4.8296641732283465
21
-3.301601220472441
0
LINE
8
BLACK
6
CONTINUOUS
10
4.8296641732283465
20
-3.301601220472441
11
4.8275305905511807
21
-3.3047943700787399
0
LINE
8
BLACK
6
CONTINUOUS
10
4.8275305905511807
20
-3.3047943700787399
11
4.8243374409448814
21
-3.3069279527559052
0
LINE
8
BLACK
6
CONTINUOUS
10
4.8243374409448814
20
-3.3069279527559052
11
4.8205708661417326
21
-3.3076771653543307
0
LINE
8
BLACK
6
CONTINUOUS
10
4.8205708661417326
20
-3.3076771653543307
11
4.7939960629921261
21
-3.3076771653543307
0
LINE
8
BLACK
6
CONTINUOUS
10
4.7939960629921261
20
-3.3076771653543307
11
4.7902294881889764
21
-3.3069279527559052
0
LINE
8
BLACK
6
CONTINUOUS
10
4.7902294881889764
20
-3.3069279527559052
11
4.7870363385826771
21
-3.3047943700787399
0
LINE
8
BLACK
6
CONTINUOUS
10
4.7870363385826771
20
-3.3047943700787399
11
4.7849027559055113
21
-3.301601220472441
0
LINE
8
BLACK
6
CONTINUOUS
10
4.7849027559055113
20
-3.301601220472441
11
4.7841535433070863
21
-3.2978346456692913
0
LINE
8
BLACK
6
CONTINUOUS
10
4.7841535433070863
20
-3.2978346456692913
11
4.7841535433070863
21
-3.2604330708661418
0
LINE
8
BLACK
6
CONTINUOUS
10
4.7841535433070863
20
-3.2604330708661418
11
4.7849027559055113
21
-3.2566664960629921
0
LINE
8
BLACK
6
CONTINUOUS
10
4.7849027559055113
20
-3.2566664960629921
11
4.7870363385826771
21
-3.2534733464566927
0
LINE
8
BLACK
6
CONTINUOUS
10
4.7870363385826771
20
-3.2534733464566927
11
4.7902294881889764
21
-3.2513397637795274
0
LINE
8
BLACK
6
CONTINUOUS
10
4.7902294881889764
20
-3.2513397637795274
11
4.7939960629921261
21
-3.2505905511811024
0
LINE
8
BLACK
6
CONTINUOUS
10
4.7939960629921261
20
-3.2505905511811024
11
4.8205708661417326
21
-3.2505905511811024
0
LINE
8
BLACK
6
CONTINUOUS
10
4.8205708661417326
20
-3.2505905511811024
11
4.8243374409448814
21
-3.2513397637795274
0
LINE
8
BLACK
6
CONTINUOUS
10
4.9145933464566927
20
-3.2098043307086614
11
4.917786496062992
21
-3.2119379133858268
0
LINE
8
BLACK
6
CONTINUOUS
10
4.917786496062992
20
-3.2119379133858268
11
4.9199200787401578
21
-3.2151310629921257
0
LINE
8
BLACK
6
CONTINUOUS
10
4.9199200787401578
20
-3.2151310629921257
11
4.9206692913385828
21
-3.2188976377952754
0
LINE
8
BLACK
6
CONTINUOUS
10
4.9206692913385828
20
-3.2188976377952754
11
4.9206692913385828
21
-3.2464566929133856
0
LINE
8
BLACK
6
CONTINUOUS
10
4.9206692913385828
20
-3.2464566929133856
11
4.9199200787401578
21
-3.2502232677165352
0
LINE
8
BLACK
6
CONTINUOUS
10
4.9199200787401578
20
-3.2502232677165352
11
4.917786496062992
21
-3.2534164173228346
0
LINE
8
BLACK
6
CONTINUOUS
10
4.917786496062992
20
-3.2534164173228346
11
4.9145933464566927
21
-3.2555499999999999
0
LINE
8
BLACK
6
CONTINUOUS
10
4.9145933464566927
20
-3.2555499999999999
11
4.910826771653543
21
-3.2562992125984249
0
LINE
8
BLACK
6
CONTINUOUS
10
4.910826771653543
20
-3.2562992125984249
11
4.8753937007874013
21
-3.2562992125984249
0
LINE
8
BLACK
6
CONTINUOUS
10
4.8753937007874013
20
-3.2562992125984249
11
4.8716271259842516
21
-3.2555499999999999
0
LINE
8
BLACK
6
CONTINUOUS
10
4.8716271259842516
20
-3.2555499999999999
11
4.8684339763779523
21
-3.2534164173228346
0
LINE
8
BLACK
6
CONTINUOUS
10
4.8684339763779523
20
-3.2534164173228346
11
4.8663003937007874
21
-3.2502232677165352
0
LINE
8
BLACK
6
CONTINUOUS
10
4.8663003937007874
20
-3.2502232677165352
11
4.8655511811023624
21
-3.2464566929133856
0
LINE
8
BLACK
6
CONTINUOUS
10
4.8655511811023624
20
-3.2464566929133856
11
4.8655511811023624
21
-3.2188976377952754
0
LINE
8
BLACK
6
CONTINUOUS
10
4.8655511811023624
20
-3.2188976377952754
11
4.8663003937007874
21
-3.2151310629921257
0
LINE
8
BLACK
6
CONTINUOUS
10
4.8663003937007874
20
-3.2151310629921257
11
4.8684339763779523
21
-3.2119379133858268
0
LINE
8
BLACK
6
CONTINUOUS
10
4.8684339763779523
20
-3.2119379133858268
11
4.8716271259842516
21
-3.2098043307086614
0
LINE
8
BLACK
6
CONTINUOUS
10
4.8716271259842516
20
-3.2098043307086614
11
4.8753937007874013
21
-3.209055118110236
0
LINE
8
BLACK
6
CONTINUOUS
10
4.8753937007874013
20
-3.209055118110236
11
4.910826771653543
21
-3.209055118110236
0
LINE
8
BLACK
6
CONTINUOUS
10
4.910826771653543
20
-3.209055118110236
11
4.9145933464566927
21
-3.2098043307086614
  0
ENDSEC
  0
EOF
