<?xml version="1.0" standalone="no"?>
 <!DOCTYPE svg PUBLIC "-//W3C//DTD SVG 1.1//EN" 
 "http://www.w3.org/Graphics/SVG/1.1/DTD/svg11.dtd"> 
<svg
  xmlns:svg="http://www.w3.org/2000/svg"
  xmlns="http://www.w3.org/2000/svg"
  xmlns:xlink="http://www.w3.org/1999/xlink"
  version="1.1"
  width="297.002200mm" height="210.007200mm" viewBox="0.000000 0.000000 297.002200 210.007200">
<title>SVG Image created as Bottom_layer-F_Paste.svg date 2025/04/24 12:25:32 </title>
  <desc>Image generated by PCBNEW </desc>
<g style="fill:#000000; fill-opacity:1.000000;stroke:#000000; stroke-opacity:1.000000;
stroke-linecap:round; stroke-linejoin:round;"
 transform="translate(0 0) scale(1 1)">
</g>
<g style="fill:#000000; fill-opacity:1.000000; 
stroke:#000000; stroke-width:0.021200; stroke-opacity:1; 
stroke-linecap:round; stroke-linejoin:round;">
<rect x="103.885000" y="48.240000" width="41.560001" height="55.260001" rx="0.000000" />
<path style="fill:#FFFFFF; fill-opacity:1.000000; stroke:none;fill-rule:evenodd;"
d="M 127.705000,90.820000
127.800671,90.839030
127.881777,90.893223
127.935970,90.974329
127.955000,91.070000
127.955000,91.770000
127.935970,91.865671
127.881777,91.946777
127.800671,92.000970
127.705000,92.020000
126.805000,92.020000
126.709329,92.000970
126.628223,91.946777
126.574030,91.865671
126.555000,91.770000
126.555000,91.070000
126.574030,90.974329
126.628223,90.893223
126.709329,90.839030
126.805000,90.820000
Z" /> 
<path style="fill:#FFFFFF; fill-opacity:1.000000; stroke:none;fill-rule:evenodd;"
d="M 127.705000,92.820000
127.800671,92.839030
127.881777,92.893223
127.935970,92.974329
127.955000,93.070000
127.955000,93.770000
127.935970,93.865671
127.881777,93.946777
127.800671,94.000970
127.705000,94.020000
126.805000,94.020000
126.709329,94.000970
126.628223,93.946777
126.574030,93.865671
126.555000,93.770000
126.555000,93.070000
126.574030,92.974329
126.628223,92.893223
126.709329,92.839030
126.805000,92.820000
Z" /> 
<path style="fill:#FFFFFF; fill-opacity:1.000000; stroke:none;fill-rule:evenodd;"
d="M 139.860000,89.165000
139.764329,89.145970
139.683223,89.091777
139.629030,89.010671
139.610000,88.915000
139.610000,88.240000
139.629030,88.144329
139.683223,88.063223
139.764329,88.009030
139.860000,87.990000
140.810000,87.990000
140.905671,88.009030
140.986777,88.063223
141.040970,88.144329
141.060000,88.240000
141.060000,88.915000
141.040970,89.010671
140.986777,89.091777
140.905671,89.145970
140.810000,89.165000
Z" /> 
<path style="fill:#FFFFFF; fill-opacity:1.000000; stroke:none;fill-rule:evenodd;"
d="M 139.860000,87.090000
139.764329,87.070970
139.683223,87.016777
139.629030,86.935671
139.610000,86.840000
139.610000,86.165000
139.629030,86.069329
139.683223,85.988223
139.764329,85.934030
139.860000,85.915000
140.810000,85.915000
140.905671,85.934030
140.986777,85.988223
141.040970,86.069329
141.060000,86.165000
141.060000,86.840000
141.040970,86.935671
140.986777,87.016777
140.905671,87.070970
140.810000,87.090000
Z" /> 
<path style="fill:#FFFFFF; fill-opacity:1.000000; stroke:none;fill-rule:evenodd;"
d="M 132.390000,85.795000
132.485671,85.814030
132.566777,85.868223
132.620970,85.949329
132.640000,86.045000
132.640000,86.720000
132.620970,86.815671
132.566777,86.896777
132.485671,86.950970
132.390000,86.970000
131.440000,86.970000
131.344329,86.950970
131.263223,86.896777
131.209030,86.815671
131.190000,86.720000
131.190000,86.045000
131.209030,85.949329
131.263223,85.868223
131.344329,85.814030
131.440000,85.795000
Z" /> 
<path style="fill:#FFFFFF; fill-opacity:1.000000; stroke:none;fill-rule:evenodd;"
d="M 132.390000,87.870000
132.485671,87.889030
132.566777,87.943223
132.620970,88.024329
132.640000,88.120000
132.640000,88.795000
132.620970,88.890671
132.566777,88.971777
132.485671,89.025970
132.390000,89.045000
131.440000,89.045000
131.344329,89.025970
131.263223,88.971777
131.209030,88.890671
131.190000,88.795000
131.190000,88.120000
131.209030,88.024329
131.263223,87.943223
131.344329,87.889030
131.440000,87.870000
Z" /> 
<path style="fill:#FFFFFF; fill-opacity:1.000000; stroke:none;fill-rule:evenodd;"
d="M 129.430000,86.317500
129.334329,86.298470
129.253223,86.244277
129.199030,86.163171
129.180000,86.067500
129.180000,85.392500
129.199030,85.296829
129.253223,85.215723
129.334329,85.161530
129.430000,85.142500
130.380000,85.142500
130.475671,85.161530
130.556777,85.215723
130.610970,85.296829
130.630000,85.392500
130.630000,86.067500
130.610970,86.163171
130.556777,86.244277
130.475671,86.298470
130.380000,86.317500
Z" /> 
<path style="fill:#FFFFFF; fill-opacity:1.000000; stroke:none;fill-rule:evenodd;"
d="M 129.430000,84.242500
129.334329,84.223470
129.253223,84.169277
129.199030,84.088171
129.180000,83.992500
129.180000,83.317500
129.199030,83.221829
129.253223,83.140723
129.334329,83.086530
129.430000,83.067500
130.380000,83.067500
130.475671,83.086530
130.556777,83.140723
130.610970,83.221829
130.630000,83.317500
130.630000,83.992500
130.610970,84.088171
130.556777,84.169277
130.475671,84.223470
130.380000,84.242500
Z" /> 
<path style="fill:#FFFFFF; fill-opacity:1.000000; stroke:none;fill-rule:evenodd;"
d="M 122.722500,85.755000
122.703470,85.850671
122.649277,85.931777
122.568171,85.985970
122.472500,86.005000
121.797500,86.005000
121.701829,85.985970
121.620723,85.931777
121.566530,85.850671
121.547500,85.755000
121.547500,84.805000
121.566530,84.709329
121.620723,84.628223
121.701829,84.574030
121.797500,84.555000
122.472500,84.555000
122.568171,84.574030
122.649277,84.628223
122.703470,84.709329
122.722500,84.805000
Z" /> 
<path style="fill:#FFFFFF; fill-opacity:1.000000; stroke:none;fill-rule:evenodd;"
d="M 120.647500,85.755000
120.628470,85.850671
120.574277,85.931777
120.493171,85.985970
120.397500,86.005000
119.722500,86.005000
119.626829,85.985970
119.545723,85.931777
119.491530,85.850671
119.472500,85.755000
119.472500,84.805000
119.491530,84.709329
119.545723,84.628223
119.626829,84.574030
119.722500,84.555000
120.397500,84.555000
120.493171,84.574030
120.574277,84.628223
120.628470,84.709329
120.647500,84.805000
Z" /> 
<path style="fill:#FFFFFF; fill-opacity:1.000000; stroke:none;fill-rule:evenodd;"
d="M 119.505000,89.110000
119.524030,89.014329
119.578223,88.933223
119.659329,88.879030
119.755000,88.860000
120.455000,88.860000
120.550671,88.879030
120.631777,88.933223
120.685970,89.014329
120.705000,89.110000
120.705000,90.010000
120.685970,90.105671
120.631777,90.186777
120.550671,90.240970
120.455000,90.260000
119.755000,90.260000
119.659329,90.240970
119.578223,90.186777
119.524030,90.105671
119.505000,90.010000
Z" /> 
<path style="fill:#FFFFFF; fill-opacity:1.000000; stroke:none;fill-rule:evenodd;"
d="M 121.505000,89.110000
121.524030,89.014329
121.578223,88.933223
121.659329,88.879030
121.755000,88.860000
122.455000,88.860000
122.550671,88.879030
122.631777,88.933223
122.685970,89.014329
122.705000,89.110000
122.705000,90.010000
122.685970,90.105671
122.631777,90.186777
122.550671,90.240970
122.455000,90.260000
121.755000,90.260000
121.659329,90.240970
121.578223,90.186777
121.524030,90.105671
121.505000,90.010000
Z" /> 
<path style="fill:#FFFFFF; fill-opacity:1.000000; stroke:none;fill-rule:evenodd;"
d="M 124.835000,94.110000
124.739329,94.090970
124.658223,94.036777
124.604030,93.955671
124.585000,93.860000
124.585000,93.160000
124.604030,93.064329
124.658223,92.983223
124.739329,92.929030
124.835000,92.910000
125.735000,92.910000
125.830671,92.929030
125.911777,92.983223
125.965970,93.064329
125.985000,93.160000
125.985000,93.860000
125.965970,93.955671
125.911777,94.036777
125.830671,94.090970
125.735000,94.110000
Z" /> 
<path style="fill:#FFFFFF; fill-opacity:1.000000; stroke:none;fill-rule:evenodd;"
d="M 124.835000,92.110000
124.739329,92.090970
124.658223,92.036777
124.604030,91.955671
124.585000,91.860000
124.585000,91.160000
124.604030,91.064329
124.658223,90.983223
124.739329,90.929030
124.835000,90.910000
125.735000,90.910000
125.830671,90.929030
125.911777,90.983223
125.965970,91.064329
125.985000,91.160000
125.985000,91.860000
125.965970,91.955671
125.911777,92.036777
125.830671,92.090970
125.735000,92.110000
Z" /> 
<path style="fill:#FFFFFF; fill-opacity:1.000000; stroke:none;fill-rule:evenodd;"
d="M 129.685000,90.740000
129.780671,90.759030
129.861777,90.813223
129.915970,90.894329
129.935000,90.990000
129.935000,91.690000
129.915970,91.785671
129.861777,91.866777
129.780671,91.920970
129.685000,91.940000
128.785000,91.940000
128.689329,91.920970
128.608223,91.866777
128.554030,91.785671
128.535000,91.690000
128.535000,90.990000
128.554030,90.894329
128.608223,90.813223
128.689329,90.759030
128.785000,90.740000
Z" /> 
<path style="fill:#FFFFFF; fill-opacity:1.000000; stroke:none;fill-rule:evenodd;"
d="M 129.685000,92.740000
129.780671,92.759030
129.861777,92.813223
129.915970,92.894329
129.935000,92.990000
129.935000,93.690000
129.915970,93.785671
129.861777,93.866777
129.780671,93.920970
129.685000,93.940000
128.785000,93.940000
128.689329,93.920970
128.608223,93.866777
128.554030,93.785671
128.535000,93.690000
128.535000,92.990000
128.554030,92.894329
128.608223,92.813223
128.689329,92.759030
128.785000,92.740000
Z" /> 
<path style="fill:#FFFFFF; fill-opacity:1.000000; stroke:none;fill-rule:evenodd;"
d="M 122.692500,83.765000
122.673470,83.860671
122.619277,83.941777
122.538171,83.995970
122.442500,84.015000
121.767500,84.015000
121.671829,83.995970
121.590723,83.941777
121.536530,83.860671
121.517500,83.765000
121.517500,82.815000
121.536530,82.719329
121.590723,82.638223
121.671829,82.584030
121.767500,82.565000
122.442500,82.565000
122.538171,82.584030
122.619277,82.638223
122.673470,82.719329
122.692500,82.815000
Z" /> 
<path style="fill:#FFFFFF; fill-opacity:1.000000; stroke:none;fill-rule:evenodd;"
d="M 120.617500,83.765000
120.598470,83.860671
120.544277,83.941777
120.463171,83.995970
120.367500,84.015000
119.692500,84.015000
119.596829,83.995970
119.515723,83.941777
119.461530,83.860671
119.442500,83.765000
119.442500,82.815000
119.461530,82.719329
119.515723,82.638223
119.596829,82.584030
119.692500,82.565000
120.367500,82.565000
120.463171,82.584030
120.544277,82.638223
120.598470,82.719329
120.617500,82.815000
Z" /> 
<path style="fill:#FFFFFF; fill-opacity:1.000000; stroke:none;fill-rule:evenodd;"
d="M 122.865000,94.150000
122.769329,94.130970
122.688223,94.076777
122.634030,93.995671
122.615000,93.900000
122.615000,93.200000
122.634030,93.104329
122.688223,93.023223
122.769329,92.969030
122.865000,92.950000
123.765000,92.950000
123.860671,92.969030
123.941777,93.023223
123.995970,93.104329
124.015000,93.200000
124.015000,93.900000
123.995970,93.995671
123.941777,94.076777
123.860671,94.130970
123.765000,94.150000
Z" /> 
<path style="fill:#FFFFFF; fill-opacity:1.000000; stroke:none;fill-rule:evenodd;"
d="M 122.865000,92.150000
122.769329,92.130970
122.688223,92.076777
122.634030,91.995671
122.615000,91.900000
122.615000,91.200000
122.634030,91.104329
122.688223,91.023223
122.769329,90.969030
122.865000,90.950000
123.765000,90.950000
123.860671,90.969030
123.941777,91.023223
123.995970,91.104329
124.015000,91.200000
124.015000,91.900000
123.995970,91.995671
123.941777,92.076777
123.860671,92.130970
123.765000,92.150000
Z" /> 
<path style="fill:#FFFFFF; fill-opacity:1.000000; stroke:none;fill-rule:evenodd;"
d="M 141.940000,89.155000
141.844329,89.135970
141.763223,89.081777
141.709030,89.000671
141.690000,88.905000
141.690000,88.230000
141.709030,88.134329
141.763223,88.053223
141.844329,87.999030
141.940000,87.980000
142.890000,87.980000
142.985671,87.999030
143.066777,88.053223
143.120970,88.134329
143.140000,88.230000
143.140000,88.905000
143.120970,89.000671
143.066777,89.081777
142.985671,89.135970
142.890000,89.155000
Z" /> 
<path style="fill:#FFFFFF; fill-opacity:1.000000; stroke:none;fill-rule:evenodd;"
d="M 141.940000,87.080000
141.844329,87.060970
141.763223,87.006777
141.709030,86.925671
141.690000,86.830000
141.690000,86.155000
141.709030,86.059329
141.763223,85.978223
141.844329,85.924030
141.940000,85.905000
142.890000,85.905000
142.985671,85.924030
143.066777,85.978223
143.120970,86.059329
143.140000,86.155000
143.140000,86.830000
143.120970,86.925671
143.066777,87.006777
142.985671,87.060970
142.890000,87.080000
Z" /> 
<path style="fill:#FFFFFF; fill-opacity:1.000000; stroke:none;fill-rule:evenodd;"
d="M 127.252500,87.235000
127.271530,87.139329
127.325723,87.058223
127.406829,87.004030
127.502500,86.985000
128.177500,86.985000
128.273171,87.004030
128.354277,87.058223
128.408470,87.139329
128.427500,87.235000
128.427500,88.185000
128.408470,88.280671
128.354277,88.361777
128.273171,88.415970
128.177500,88.435000
127.502500,88.435000
127.406829,88.415970
127.325723,88.361777
127.271530,88.280671
127.252500,88.185000
Z" /> 
<path style="fill:#FFFFFF; fill-opacity:1.000000; stroke:none;fill-rule:evenodd;"
d="M 129.327500,87.235000
129.346530,87.139329
129.400723,87.058223
129.481829,87.004030
129.577500,86.985000
130.252500,86.985000
130.348171,87.004030
130.429277,87.058223
130.483470,87.139329
130.502500,87.235000
130.502500,88.185000
130.483470,88.280671
130.429277,88.361777
130.348171,88.415970
130.252500,88.435000
129.577500,88.435000
129.481829,88.415970
129.400723,88.361777
129.346530,88.280671
129.327500,88.185000
Z" /> 
<path style="fill:#FFFFFF; fill-opacity:1.000000; stroke:none;fill-rule:evenodd;"
d="M 124.735000,81.510000
124.830671,81.529030
124.911777,81.583223
124.965970,81.664329
124.985000,81.760000
124.985000,82.460000
124.965970,82.555671
124.911777,82.636777
124.830671,82.690970
124.735000,82.710000
123.835000,82.710000
123.739329,82.690970
123.658223,82.636777
123.604030,82.555671
123.585000,82.460000
123.585000,81.760000
123.604030,81.664329
123.658223,81.583223
123.739329,81.529030
123.835000,81.510000
Z" /> 
<path style="fill:#FFFFFF; fill-opacity:1.000000; stroke:none;fill-rule:evenodd;"
d="M 124.735000,83.510000
124.830671,83.529030
124.911777,83.583223
124.965970,83.664329
124.985000,83.760000
124.985000,84.460000
124.965970,84.555671
124.911777,84.636777
124.830671,84.690970
124.735000,84.710000
123.835000,84.710000
123.739329,84.690970
123.658223,84.636777
123.604030,84.555671
123.585000,84.460000
123.585000,83.760000
123.604030,83.664329
123.658223,83.583223
123.739329,83.529030
123.835000,83.510000
Z" /> 
<path style="fill:#FFFFFF; fill-opacity:1.000000; stroke:none;fill-rule:evenodd;"
d="M 139.040000,88.545000
139.032388,88.583268
139.010711,88.615711
138.978268,88.637388
138.940000,88.645000
137.515000,88.645000
137.476732,88.637388
137.444289,88.615711
137.422612,88.583268
137.415000,88.545000
137.415000,88.345000
137.422612,88.306732
137.444289,88.274289
137.476732,88.252612
137.515000,88.245000
138.940000,88.245000
138.978268,88.252612
139.010711,88.274289
139.032388,88.306732
139.040000,88.345000
Z" /> 
<path style="fill:#FFFFFF; fill-opacity:1.000000; stroke:none;fill-rule:evenodd;"
d="M 139.040000,87.895000
139.032388,87.933268
139.010711,87.965711
138.978268,87.987388
138.940000,87.995000
137.515000,87.995000
137.476732,87.987388
137.444289,87.965711
137.422612,87.933268
137.415000,87.895000
137.415000,87.695000
137.422612,87.656732
137.444289,87.624289
137.476732,87.602612
137.515000,87.595000
138.940000,87.595000
138.978268,87.602612
139.010711,87.624289
139.032388,87.656732
139.040000,87.695000
Z" /> 
<path style="fill:#FFFFFF; fill-opacity:1.000000; stroke:none;fill-rule:evenodd;"
d="M 139.040000,87.245000
139.032388,87.283268
139.010711,87.315711
138.978268,87.337388
138.940000,87.345000
137.515000,87.345000
137.476732,87.337388
137.444289,87.315711
137.422612,87.283268
137.415000,87.245000
137.415000,87.045000
137.422612,87.006732
137.444289,86.974289
137.476732,86.952612
137.515000,86.945000
138.940000,86.945000
138.978268,86.952612
139.010711,86.974289
139.032388,87.006732
139.040000,87.045000
Z" /> 
<path style="fill:#FFFFFF; fill-opacity:1.000000; stroke:none;fill-rule:evenodd;"
d="M 139.040000,86.595000
139.032388,86.633268
139.010711,86.665711
138.978268,86.687388
138.940000,86.695000
137.515000,86.695000
137.476732,86.687388
137.444289,86.665711
137.422612,86.633268
137.415000,86.595000
137.415000,86.395000
137.422612,86.356732
137.444289,86.324289
137.476732,86.302612
137.515000,86.295000
138.940000,86.295000
138.978268,86.302612
139.010711,86.324289
139.032388,86.356732
139.040000,86.395000
Z" /> 
<path style="fill:#FFFFFF; fill-opacity:1.000000; stroke:none;fill-rule:evenodd;"
d="M 134.815000,86.595000
134.807388,86.633268
134.785711,86.665711
134.753268,86.687388
134.715000,86.695000
133.290000,86.695000
133.251732,86.687388
133.219289,86.665711
133.197612,86.633268
133.190000,86.595000
133.190000,86.395000
133.197612,86.356732
133.219289,86.324289
133.251732,86.302612
133.290000,86.295000
134.715000,86.295000
134.753268,86.302612
134.785711,86.324289
134.807388,86.356732
134.815000,86.395000
Z" /> 
<path style="fill:#FFFFFF; fill-opacity:1.000000; stroke:none;fill-rule:evenodd;"
d="M 134.815000,87.245000
134.807388,87.283268
134.785711,87.315711
134.753268,87.337388
134.715000,87.345000
133.290000,87.345000
133.251732,87.337388
133.219289,87.315711
133.197612,87.283268
133.190000,87.245000
133.190000,87.045000
133.197612,87.006732
133.219289,86.974289
133.251732,86.952612
133.290000,86.945000
134.715000,86.945000
134.753268,86.952612
134.785711,86.974289
134.807388,87.006732
134.815000,87.045000
Z" /> 
<path style="fill:#FFFFFF; fill-opacity:1.000000; stroke:none;fill-rule:evenodd;"
d="M 134.815000,87.895000
134.807388,87.933268
134.785711,87.965711
134.753268,87.987388
134.715000,87.995000
133.290000,87.995000
133.251732,87.987388
133.219289,87.965711
133.197612,87.933268
133.190000,87.895000
133.190000,87.695000
133.197612,87.656732
133.219289,87.624289
133.251732,87.602612
133.290000,87.595000
134.715000,87.595000
134.753268,87.602612
134.785711,87.624289
134.807388,87.656732
134.815000,87.695000
Z" /> 
<path style="fill:#FFFFFF; fill-opacity:1.000000; stroke:none;fill-rule:evenodd;"
d="M 134.815000,88.545000
134.807388,88.583268
134.785711,88.615711
134.753268,88.637388
134.715000,88.645000
133.290000,88.645000
133.251732,88.637388
133.219289,88.615711
133.197612,88.583268
133.190000,88.545000
133.190000,88.345000
133.197612,88.306732
133.219289,88.274289
133.251732,88.252612
133.290000,88.245000
134.715000,88.245000
134.753268,88.252612
134.785711,88.274289
134.807388,88.306732
134.815000,88.345000
Z" /> 
<path style="fill:#FFFFFF; fill-opacity:1.000000; stroke:none;fill-rule:evenodd;"
d="M 123.370698,87.101600
123.370698,86.898400
124.361298,86.898400
124.361298,87.101600
Z" /> 
<path style="fill:#FFFFFF; fill-opacity:1.000000; stroke:none;fill-rule:evenodd;"
d="M 123.370498,87.501599
123.370498,87.298399
124.259498,87.298399
124.259498,87.501599
Z" /> 
<path style="fill:#FFFFFF; fill-opacity:1.000000; stroke:none;fill-rule:evenodd;"
d="M 123.370498,87.901599
123.370498,87.698399
124.259498,87.698399
124.259498,87.901599
Z" /> 
<path style="fill:#FFFFFF; fill-opacity:1.000000; stroke:none;fill-rule:evenodd;"
d="M 123.370498,88.301598
123.370498,88.098398
124.259498,88.098398
124.259498,88.301598
Z" /> 
<path style="fill:#FFFFFF; fill-opacity:1.000000; stroke:none;fill-rule:evenodd;"
d="M 123.966598,89.405599
123.763398,89.405599
123.763398,88.694399
123.966598,88.694399
Z" /> 
<path style="fill:#FFFFFF; fill-opacity:1.000000; stroke:none;fill-rule:evenodd;"
d="M 124.366600,89.805599
124.163400,89.805599
124.163400,88.694399
124.366600,88.694399
Z" /> 
<path style="fill:#FFFFFF; fill-opacity:1.000000; stroke:none;fill-rule:evenodd;"
d="M 124.766599,89.405599
124.563399,89.405599
124.563399,88.694399
124.766599,88.694399
Z" /> 
<path style="fill:#FFFFFF; fill-opacity:1.000000; stroke:none;fill-rule:evenodd;"
d="M 125.166598,89.405599
124.963398,89.405599
124.963398,88.694399
125.166598,88.694399
Z" /> 
<path style="fill:#FFFFFF; fill-opacity:1.000000; stroke:none;fill-rule:evenodd;"
d="M 125.566600,89.405599
125.363400,89.405599
125.363400,88.694399
125.566600,88.694399
Z" /> 
<path style="fill:#FFFFFF; fill-opacity:1.000000; stroke:none;fill-rule:evenodd;"
d="M 125.070500,88.301598
125.070500,88.098398
125.959500,88.098398
125.959500,88.301598
Z" /> 
<path style="fill:#FFFFFF; fill-opacity:1.000000; stroke:none;fill-rule:evenodd;"
d="M 125.070500,87.901599
125.070500,87.698399
125.959500,87.698399
125.959500,87.901599
Z" /> 
<path style="fill:#FFFFFF; fill-opacity:1.000000; stroke:none;fill-rule:evenodd;"
d="M 125.070500,87.501599
125.070500,87.298399
125.959500,87.298399
125.959500,87.501599
Z" /> 
<path style="fill:#FFFFFF; fill-opacity:1.000000; stroke:none;fill-rule:evenodd;"
d="M 125.070500,87.101600
125.070500,86.898400
125.959500,86.898400
125.959500,87.101600
Z" /> 
<path style="fill:#FFFFFF; fill-opacity:1.000000; stroke:none;fill-rule:evenodd;"
d="M 125.566600,86.505599
125.363400,86.505599
125.363400,85.794399
125.566600,85.794399
Z" /> 
<path style="fill:#FFFFFF; fill-opacity:1.000000; stroke:none;fill-rule:evenodd;"
d="M 125.166598,86.505599
124.963398,86.505599
124.963398,85.794399
125.166598,85.794399
Z" /> 
<path style="fill:#FFFFFF; fill-opacity:1.000000; stroke:none;fill-rule:evenodd;"
d="M 124.766599,86.505599
124.563399,86.505599
124.563399,85.794399
124.766599,85.794399
Z" /> 
<path style="fill:#FFFFFF; fill-opacity:1.000000; stroke:none;fill-rule:evenodd;"
d="M 124.366600,86.505599
124.163400,86.505599
124.163400,85.794399
124.366600,85.794399
Z" /> 
<path style="fill:#FFFFFF; fill-opacity:1.000000; stroke:none;fill-rule:evenodd;"
d="M 123.966598,86.505599
123.763398,86.505599
123.763398,85.794399
123.966598,85.794399
Z" /> 
<path style="fill:#FFFFFF; fill-opacity:1.000000; stroke:none;fill-rule:evenodd;"
d="M 121.672500,88.045000
121.653470,88.140671
121.599277,88.221777
121.518171,88.275970
121.422500,88.295000
120.747500,88.295000
120.651829,88.275970
120.570723,88.221777
120.516530,88.140671
120.497500,88.045000
120.497500,87.095000
120.516530,86.999329
120.570723,86.918223
120.651829,86.864030
120.747500,86.845000
121.422500,86.845000
121.518171,86.864030
121.599277,86.918223
121.653470,86.999329
121.672500,87.095000
Z" /> 
<path style="fill:#FFFFFF; fill-opacity:1.000000; stroke:none;fill-rule:evenodd;"
d="M 119.597500,88.045000
119.578470,88.140671
119.524277,88.221777
119.443171,88.275970
119.347500,88.295000
118.672500,88.295000
118.576829,88.275970
118.495723,88.221777
118.441530,88.140671
118.422500,88.045000
118.422500,87.095000
118.441530,86.999329
118.495723,86.918223
118.576829,86.864030
118.672500,86.845000
119.347500,86.845000
119.443171,86.864030
119.524277,86.918223
119.578470,86.999329
119.597500,87.095000
Z" /> 
<path style="fill:#FFFFFF; fill-opacity:1.000000; stroke:none;fill-rule:evenodd;"
d="M 127.350000,86.307500
127.254329,86.288470
127.173223,86.234277
127.119030,86.153171
127.100000,86.057500
127.100000,85.382500
127.119030,85.286829
127.173223,85.205723
127.254329,85.151530
127.350000,85.132500
128.300000,85.132500
128.395671,85.151530
128.476777,85.205723
128.530970,85.286829
128.550000,85.382500
128.550000,86.057500
128.530970,86.153171
128.476777,86.234277
128.395671,86.288470
128.300000,86.307500
Z" /> 
<path style="fill:#FFFFFF; fill-opacity:1.000000; stroke:none;fill-rule:evenodd;"
d="M 127.350000,84.232500
127.254329,84.213470
127.173223,84.159277
127.119030,84.078171
127.100000,83.982500
127.100000,83.307500
127.119030,83.211829
127.173223,83.130723
127.254329,83.076530
127.350000,83.057500
128.300000,83.057500
128.395671,83.076530
128.476777,83.130723
128.530970,83.211829
128.550000,83.307500
128.550000,83.982500
128.530970,84.078171
128.476777,84.159277
128.395671,84.213470
128.300000,84.232500
Z" /> 
</g> 
</svg>
