  0
SECTION
  2
HEADER
  9
$ANGBASE
  50
0.0
  9
$ANGDIR
  70
1
  9
$MEASUREMENT
  70
1
  0
ENDSEC
  0
SECTION
  2
TABLES
  0
TABLE
  2
LTYPE
  70
4
  0
LTYPE
  5
40F
  2
CONTINUOUS
  70
0
  3
Solid line
  72
65
  73
0
  40
0.0
  0
LTYPE
  5
410
  2
DASHDOT
 70
0
  3
Dash Dot ____ _ ____ _
 72
65
 73
4
 40
2.0
 49
1.25
 49
-0.25
 49
0.25
 49
-0.25
  0
LTYPE
  5
411
  2
DASHED
 70
0
  3
Dashed __ __ __ __ __
 72
65
 73
2
 40
0.75
 49
0.5
 49
-0.25
  0
LTYPE
  5
43B
  2
DOTTED
 70
0
  3
Dotted .  .  .  .
 72
65
 73
2
 40
0.2
 49
0.0
 49
-0.2
  0
ENDTAB
  0
TABLE
  2
STYLE
  70
4
  0
STYLE
  2
KICAD
  70
0
  40
0
  41
1
  42
1
  50
0
  71
0
  3
isocp.shx
  0
STYLE
  2
KICADB
  70
0
  40
0
  41
1
  42
1
  50
0
  71
0
  3
isocp.shx
  0
STYLE
  2
KICADI
  70
0
  40
0
  41
1
  42
1
  50
15
  71
0
  3
isocp.shx
  0
STYLE
  2
KICADBI
  70
0
  40
0
  41
1
  42
1
  50
15
  71
0
  3
isocp.shx
  0
ENDTAB
  0
TABLE
  2
LAYER
  70
1
  0
LAYER
  2
BLACK
  70
0
  62
7
  6
CONTINUOUS
  0
ENDTAB
  0
ENDSEC
  0
SECTION
  2
ENTITIES
0
LINE
8
BLACK
6
CONTINUOUS
10
91.5183869999999899
20
-99.8730789999999899
11
91.5954380000000015
21
-99.9245619999999946
0
LINE
8
BLACK
6
CONTINUOUS
10
91.5954380000000015
20
-99.9245619999999946
11
91.6469209999999919
21
-100.0016129999999919
0
LINE
8
BLACK
6
CONTINUOUS
10
91.6469209999999919
20
-100.0016129999999919
11
91.664999999999992
21
-100.0925000000000011
0
LINE
8
BLACK
6
CONTINUOUS
10
91.664999999999992
20
-100.0925000000000011
11
91.664999999999992
21
-100.6924999999999955
0
LINE
8
BLACK
6
CONTINUOUS
10
91.664999999999992
20
-100.6924999999999955
11
91.6469209999999919
21
-100.7833869999999905
0
LINE
8
BLACK
6
CONTINUOUS
10
91.6469209999999919
20
-100.7833869999999905
11
91.5954380000000015
21
-100.860438000000002
0
LINE
8
BLACK
6
CONTINUOUS
10
91.5954380000000015
20
-100.860438000000002
11
91.5183869999999899
21
-100.9119209999999924
0
LINE
8
BLACK
6
CONTINUOUS
10
91.5183869999999899
20
-100.9119209999999924
11
91.4274999999999949
21
-100.9299999999999926
0
LINE
8
BLACK
6
CONTINUOUS
10
91.4274999999999949
20
-100.9299999999999926
11
90.9525000000000006
21
-100.9299999999999926
0
LINE
8
BLACK
6
CONTINUOUS
10
90.9525000000000006
20
-100.9299999999999926
11
90.8616129999999913
21
-100.9119209999999924
0
LINE
8
BLACK
6
CONTINUOUS
10
90.8616129999999913
20
-100.9119209999999924
11
90.784561999999994
21
-100.860438000000002
0
LINE
8
BLACK
6
CONTINUOUS
10
90.784561999999994
20
-100.860438000000002
11
90.7330789999999894
21
-100.7833869999999905
0
LINE
8
BLACK
6
CONTINUOUS
10
90.7330789999999894
20
-100.7833869999999905
11
90.7149999999999892
21
-100.6924999999999955
0
LINE
8
BLACK
6
CONTINUOUS
10
90.7149999999999892
20
-100.6924999999999955
11
90.7149999999999892
21
-100.0925000000000011
0
LINE
8
BLACK
6
CONTINUOUS
10
90.7149999999999892
20
-100.0925000000000011
11
90.7330789999999894
21
-100.0016129999999919
0
LINE
8
BLACK
6
CONTINUOUS
10
90.7330789999999894
20
-100.0016129999999919
11
90.784561999999994
21
-99.9245619999999946
0
LINE
8
BLACK
6
CONTINUOUS
10
90.784561999999994
20
-99.9245619999999946
11
90.8616129999999913
21
-99.8730789999999899
0
LINE
8
BLACK
6
CONTINUOUS
10
90.8616129999999913
20
-99.8730789999999899
11
90.9525000000000006
21
-99.8549999999999898
0
LINE
8
BLACK
6
CONTINUOUS
10
90.9525000000000006
20
-99.8549999999999898
11
91.4274999999999949
21
-99.8549999999999898
0
LINE
8
BLACK
6
CONTINUOUS
10
91.4274999999999949
20
-99.8549999999999898
11
91.5183869999999899
21
-99.8730789999999899
0
LINE
8
BLACK
6
CONTINUOUS
10
89.9183869999999956
20
-99.8705789999999922
11
89.9954379999999929
21
-99.9220619999999968
0
LINE
8
BLACK
6
CONTINUOUS
10
89.9954379999999929
20
-99.9220619999999968
11
90.0469209999999975
21
-99.9991129999999941
0
LINE
8
BLACK
6
CONTINUOUS
10
90.0469209999999975
20
-99.9991129999999941
11
90.0649999999999977
21
-100.0899999999999892
0
LINE
8
BLACK
6
CONTINUOUS
10
90.0649999999999977
20
-100.0899999999999892
11
90.0649999999999977
21
-100.6899999999999977
0
LINE
8
BLACK
6
CONTINUOUS
10
90.0649999999999977
20
-100.6899999999999977
11
90.0469209999999975
21
-100.7808869999999928
0
LINE
8
BLACK
6
CONTINUOUS
10
90.0469209999999975
20
-100.7808869999999928
11
89.9954379999999929
21
-100.8579379999999901
0
LINE
8
BLACK
6
CONTINUOUS
10
89.9954379999999929
20
-100.8579379999999901
11
89.9183869999999956
21
-100.9094209999999947
0
LINE
8
BLACK
6
CONTINUOUS
10
89.9183869999999956
20
-100.9094209999999947
11
89.8275000000000006
21
-100.9274999999999949
0
LINE
8
BLACK
6
CONTINUOUS
10
89.8275000000000006
20
-100.9274999999999949
11
89.352499999999992
21
-100.9274999999999949
0
LINE
8
BLACK
6
CONTINUOUS
10
89.352499999999992
20
-100.9274999999999949
11
89.261612999999997
21
-100.9094209999999947
0
LINE
8
BLACK
6
CONTINUOUS
10
89.261612999999997
20
-100.9094209999999947
11
89.1845619999999997
21
-100.8579379999999901
0
LINE
8
BLACK
6
CONTINUOUS
10
89.1845619999999997
20
-100.8579379999999901
11
89.1330789999999951
21
-100.7808869999999928
0
LINE
8
BLACK
6
CONTINUOUS
10
89.1330789999999951
20
-100.7808869999999928
11
89.1149999999999949
21
-100.6899999999999977
0
LINE
8
BLACK
6
CONTINUOUS
10
89.1149999999999949
20
-100.6899999999999977
11
89.1149999999999949
21
-100.0899999999999892
0
LINE
8
BLACK
6
CONTINUOUS
10
89.1149999999999949
20
-100.0899999999999892
11
89.1330789999999951
21
-99.9991129999999941
0
LINE
8
BLACK
6
CONTINUOUS
10
89.1330789999999951
20
-99.9991129999999941
11
89.1845619999999997
21
-99.9220619999999968
0
LINE
8
BLACK
6
CONTINUOUS
10
89.1845619999999997
20
-99.9220619999999968
11
89.261612999999997
21
-99.8705789999999922
0
LINE
8
BLACK
6
CONTINUOUS
10
89.261612999999997
20
-99.8705789999999922
11
89.352499999999992
21
-99.852499999999992
0
LINE
8
BLACK
6
CONTINUOUS
10
89.352499999999992
20
-99.852499999999992
11
89.8275000000000006
21
-99.852499999999992
0
LINE
8
BLACK
6
CONTINUOUS
10
89.8275000000000006
20
-99.852499999999992
11
89.9183869999999956
21
-99.8705789999999922
0
LINE
8
BLACK
6
CONTINUOUS
10
81.8663870000000031
20
-99.8455790000000007
11
81.9434380000000004
21
-99.8970619999999911
0
LINE
8
BLACK
6
CONTINUOUS
10
81.9434380000000004
20
-99.8970619999999911
11
81.9949209999999908
21
-99.9741129999999885
0
LINE
8
BLACK
6
CONTINUOUS
10
81.9949209999999908
20
-99.9741129999999885
11
82.012999999999991
21
-100.0649999999999977
0
LINE
8
BLACK
6
CONTINUOUS
10
82.012999999999991
20
-100.0649999999999977
11
82.012999999999991
21
-100.664999999999992
0
LINE
8
BLACK
6
CONTINUOUS
10
82.012999999999991
20
-100.664999999999992
11
81.9949209999999908
21
-100.7558870000000013
0
LINE
8
BLACK
6
CONTINUOUS
10
81.9949209999999908
20
-100.7558870000000013
11
81.9434380000000004
21
-100.8329379999999986
0
LINE
8
BLACK
6
CONTINUOUS
10
81.9434380000000004
20
-100.8329379999999986
11
81.8663870000000031
21
-100.884420999999989
0
LINE
8
BLACK
6
CONTINUOUS
10
81.8663870000000031
20
-100.884420999999989
11
81.7754999999999939
21
-100.9024999999999892
0
LINE
8
BLACK
6
CONTINUOUS
10
81.7754999999999939
20
-100.9024999999999892
11
81.3004999999999995
21
-100.9024999999999892
0
LINE
8
BLACK
6
CONTINUOUS
10
81.3004999999999995
20
-100.9024999999999892
11
81.2096129999999903
21
-100.884420999999989
0
LINE
8
BLACK
6
CONTINUOUS
10
81.2096129999999903
20
-100.884420999999989
11
81.132561999999993
21
-100.8329379999999986
0
LINE
8
BLACK
6
CONTINUOUS
10
81.132561999999993
20
-100.8329379999999986
11
81.0810790000000026
21
-100.7558870000000013
0
LINE
8
BLACK
6
CONTINUOUS
10
81.0810790000000026
20
-100.7558870000000013
11
81.0630000000000024
21
-100.664999999999992
0
LINE
8
BLACK
6
CONTINUOUS
10
81.0630000000000024
20
-100.664999999999992
11
81.0630000000000024
21
-100.0649999999999977
0
LINE
8
BLACK
6
CONTINUOUS
10
81.0630000000000024
20
-100.0649999999999977
11
81.0810790000000026
21
-99.9741129999999885
0
LINE
8
BLACK
6
CONTINUOUS
10
81.0810790000000026
20
-99.9741129999999885
11
81.132561999999993
21
-99.8970619999999911
0
LINE
8
BLACK
6
CONTINUOUS
10
81.132561999999993
20
-99.8970619999999911
11
81.2096129999999903
21
-99.8455790000000007
0
LINE
8
BLACK
6
CONTINUOUS
10
81.2096129999999903
20
-99.8455790000000007
11
81.3004999999999995
21
-99.8275000000000006
0
LINE
8
BLACK
6
CONTINUOUS
10
81.3004999999999995
20
-99.8275000000000006
11
81.7754999999999939
21
-99.8275000000000006
0
LINE
8
BLACK
6
CONTINUOUS
10
81.7754999999999939
20
-99.8275000000000006
11
81.8663870000000031
21
-99.8455790000000007
0
LINE
8
BLACK
6
CONTINUOUS
10
83.4083869999999905
20
-99.8430789999999888
11
83.485438000000002
21
-99.8945619999999934
0
LINE
8
BLACK
6
CONTINUOUS
10
83.485438000000002
20
-99.8945619999999934
11
83.5369209999999924
21
-99.9716129999999907
0
LINE
8
BLACK
6
CONTINUOUS
10
83.5369209999999924
20
-99.9716129999999907
11
83.5549999999999926
21
-100.0625
0
LINE
8
BLACK
6
CONTINUOUS
10
83.5549999999999926
20
-100.0625
11
83.5549999999999926
21
-100.6624999999999943
0
LINE
8
BLACK
6
CONTINUOUS
10
83.5549999999999926
20
-100.6624999999999943
11
83.5369209999999924
21
-100.7533869999999894
0
LINE
8
BLACK
6
CONTINUOUS
10
83.5369209999999924
20
-100.7533869999999894
11
83.485438000000002
21
-100.8304380000000009
0
LINE
8
BLACK
6
CONTINUOUS
10
83.485438000000002
20
-100.8304380000000009
11
83.4083869999999905
21
-100.8819209999999913
0
LINE
8
BLACK
6
CONTINUOUS
10
83.4083869999999905
20
-100.8819209999999913
11
83.3174999999999955
21
-100.8999999999999915
0
LINE
8
BLACK
6
CONTINUOUS
10
83.3174999999999955
20
-100.8999999999999915
11
82.8425000000000011
21
-100.8999999999999915
0
LINE
8
BLACK
6
CONTINUOUS
10
82.8425000000000011
20
-100.8999999999999915
11
82.7516129999999919
21
-100.8819209999999913
0
LINE
8
BLACK
6
CONTINUOUS
10
82.7516129999999919
20
-100.8819209999999913
11
82.6745619999999946
21
-100.8304380000000009
0
LINE
8
BLACK
6
CONTINUOUS
10
82.6745619999999946
20
-100.8304380000000009
11
82.6230789999999899
21
-100.7533869999999894
0
LINE
8
BLACK
6
CONTINUOUS
10
82.6230789999999899
20
-100.7533869999999894
11
82.6049999999999898
21
-100.6624999999999943
0
LINE
8
BLACK
6
CONTINUOUS
10
82.6049999999999898
20
-100.6624999999999943
11
82.6049999999999898
21
-100.0625
0
LINE
8
BLACK
6
CONTINUOUS
10
82.6049999999999898
20
-100.0625
11
82.6230789999999899
21
-99.9716129999999907
0
LINE
8
BLACK
6
CONTINUOUS
10
82.6230789999999899
20
-99.9716129999999907
11
82.6745619999999946
21
-99.8945619999999934
0
LINE
8
BLACK
6
CONTINUOUS
10
82.6745619999999946
20
-99.8945619999999934
11
82.7516129999999919
21
-99.8430789999999888
0
LINE
8
BLACK
6
CONTINUOUS
10
82.7516129999999919
20
-99.8430789999999888
11
82.8425000000000011
21
-99.8249999999999886
0
LINE
8
BLACK
6
CONTINUOUS
10
82.8425000000000011
20
-99.8249999999999886
11
83.3174999999999955
21
-99.8249999999999886
0
LINE
8
BLACK
6
CONTINUOUS
10
83.3174999999999955
20
-99.8249999999999886
11
83.4083869999999905
21
-99.8430789999999888
0
LINE
8
BLACK
6
CONTINUOUS
10
91.5183869999999899
20
-98.1480789999999956
11
91.5954380000000015
21
-98.1995620000000002
0
LINE
8
BLACK
6
CONTINUOUS
10
91.5954380000000015
20
-98.1995620000000002
11
91.6469209999999919
21
-98.2766129999999976
0
LINE
8
BLACK
6
CONTINUOUS
10
91.6469209999999919
20
-98.2766129999999976
11
91.664999999999992
21
-98.3674999999999926
0
LINE
8
BLACK
6
CONTINUOUS
10
91.664999999999992
20
-98.3674999999999926
11
91.664999999999992
21
-98.9675000000000011
0
LINE
8
BLACK
6
CONTINUOUS
10
91.664999999999992
20
-98.9675000000000011
11
91.6469209999999919
21
-99.0583869999999962
0
LINE
8
BLACK
6
CONTINUOUS
10
91.6469209999999919
20
-99.0583869999999962
11
91.5954380000000015
21
-99.1354379999999935
0
LINE
8
BLACK
6
CONTINUOUS
10
91.5954380000000015
20
-99.1354379999999935
11
91.5183869999999899
21
-99.1869209999999981
0
LINE
8
BLACK
6
CONTINUOUS
10
91.5183869999999899
20
-99.1869209999999981
11
91.4274999999999949
21
-99.2049999999999983
0
LINE
8
BLACK
6
CONTINUOUS
10
91.4274999999999949
20
-99.2049999999999983
11
90.9525000000000006
21
-99.2049999999999983
0
LINE
8
BLACK
6
CONTINUOUS
10
90.9525000000000006
20
-99.2049999999999983
11
90.8616129999999913
21
-99.1869209999999981
0
LINE
8
BLACK
6
CONTINUOUS
10
90.8616129999999913
20
-99.1869209999999981
11
90.784561999999994
21
-99.1354379999999935
0
LINE
8
BLACK
6
CONTINUOUS
10
90.784561999999994
20
-99.1354379999999935
11
90.7330789999999894
21
-99.0583869999999962
0
LINE
8
BLACK
6
CONTINUOUS
10
90.7330789999999894
20
-99.0583869999999962
11
90.7149999999999892
21
-98.9675000000000011
0
LINE
8
BLACK
6
CONTINUOUS
10
90.7149999999999892
20
-98.9675000000000011
11
90.7149999999999892
21
-98.3674999999999926
0
LINE
8
BLACK
6
CONTINUOUS
10
90.7149999999999892
20
-98.3674999999999926
11
90.7330789999999894
21
-98.2766129999999976
0
LINE
8
BLACK
6
CONTINUOUS
10
90.7330789999999894
20
-98.2766129999999976
11
90.784561999999994
21
-98.1995620000000002
0
LINE
8
BLACK
6
CONTINUOUS
10
90.784561999999994
20
-98.1995620000000002
11
90.8616129999999913
21
-98.1480789999999956
0
LINE
8
BLACK
6
CONTINUOUS
10
90.8616129999999913
20
-98.1480789999999956
11
90.9525000000000006
21
-98.1299999999999955
0
LINE
8
BLACK
6
CONTINUOUS
10
90.9525000000000006
20
-98.1299999999999955
11
91.4274999999999949
21
-98.1299999999999955
0
LINE
8
BLACK
6
CONTINUOUS
10
91.4274999999999949
20
-98.1299999999999955
11
91.5183869999999899
21
-98.1480789999999956
0
LINE
8
BLACK
6
CONTINUOUS
10
89.9183869999999956
20
-98.1455789999999979
11
89.9954379999999929
21
-98.1970620000000025
0
LINE
8
BLACK
6
CONTINUOUS
10
89.9954379999999929
20
-98.1970620000000025
11
90.0469209999999975
21
-98.2741129999999998
0
LINE
8
BLACK
6
CONTINUOUS
10
90.0469209999999975
20
-98.2741129999999998
11
90.0649999999999977
21
-98.3649999999999949
0
LINE
8
BLACK
6
CONTINUOUS
10
90.0649999999999977
20
-98.3649999999999949
11
90.0649999999999977
21
-98.9649999999999892
0
LINE
8
BLACK
6
CONTINUOUS
10
90.0649999999999977
20
-98.9649999999999892
11
90.0469209999999975
21
-99.0558869999999985
0
LINE
8
BLACK
6
CONTINUOUS
10
90.0469209999999975
20
-99.0558869999999985
11
89.9954379999999929
21
-99.1329379999999958
0
LINE
8
BLACK
6
CONTINUOUS
10
89.9954379999999929
20
-99.1329379999999958
11
89.9183869999999956
21
-99.1844210000000004
0
LINE
8
BLACK
6
CONTINUOUS
10
89.9183869999999956
20
-99.1844210000000004
11
89.8275000000000006
21
-99.2025000000000006
0
LINE
8
BLACK
6
CONTINUOUS
10
89.8275000000000006
20
-99.2025000000000006
11
89.352499999999992
21
-99.2025000000000006
0
LINE
8
BLACK
6
CONTINUOUS
10
89.352499999999992
20
-99.2025000000000006
11
89.261612999999997
21
-99.1844210000000004
0
LINE
8
BLACK
6
CONTINUOUS
10
89.261612999999997
20
-99.1844210000000004
11
89.1845619999999997
21
-99.1329379999999958
0
LINE
8
BLACK
6
CONTINUOUS
10
89.1845619999999997
20
-99.1329379999999958
11
89.1330789999999951
21
-99.0558869999999985
0
LINE
8
BLACK
6
CONTINUOUS
10
89.1330789999999951
20
-99.0558869999999985
11
89.1149999999999949
21
-98.9649999999999892
0
LINE
8
BLACK
6
CONTINUOUS
10
89.1149999999999949
20
-98.9649999999999892
11
89.1149999999999949
21
-98.3649999999999949
0
LINE
8
BLACK
6
CONTINUOUS
10
89.1149999999999949
20
-98.3649999999999949
11
89.1330789999999951
21
-98.2741129999999998
0
LINE
8
BLACK
6
CONTINUOUS
10
89.1330789999999951
20
-98.2741129999999998
11
89.1845619999999997
21
-98.1970620000000025
0
LINE
8
BLACK
6
CONTINUOUS
10
89.1845619999999997
20
-98.1970620000000025
11
89.261612999999997
21
-98.1455789999999979
0
LINE
8
BLACK
6
CONTINUOUS
10
89.261612999999997
20
-98.1455789999999979
11
89.352499999999992
21
-98.1274999999999977
0
LINE
8
BLACK
6
CONTINUOUS
10
89.352499999999992
20
-98.1274999999999977
11
89.8275000000000006
21
-98.1274999999999977
0
LINE
8
BLACK
6
CONTINUOUS
10
89.8275000000000006
20
-98.1274999999999977
11
89.9183869999999956
21
-98.1455789999999979
0
LINE
8
BLACK
6
CONTINUOUS
10
81.8663870000000031
20
-98.1205789999999922
11
81.9434380000000004
21
-98.1720619999999968
0
LINE
8
BLACK
6
CONTINUOUS
10
81.9434380000000004
20
-98.1720619999999968
11
81.9949209999999908
21
-98.2491129999999941
0
LINE
8
BLACK
6
CONTINUOUS
10
81.9949209999999908
20
-98.2491129999999941
11
82.012999999999991
21
-98.3399999999999892
0
LINE
8
BLACK
6
CONTINUOUS
10
82.012999999999991
20
-98.3399999999999892
11
82.012999999999991
21
-98.9399999999999977
0
LINE
8
BLACK
6
CONTINUOUS
10
82.012999999999991
20
-98.9399999999999977
11
81.9949209999999908
21
-99.0308869999999928
0
LINE
8
BLACK
6
CONTINUOUS
10
81.9949209999999908
20
-99.0308869999999928
11
81.9434380000000004
21
-99.1079379999999901
0
LINE
8
BLACK
6
CONTINUOUS
10
81.9434380000000004
20
-99.1079379999999901
11
81.8663870000000031
21
-99.1594209999999947
0
LINE
8
BLACK
6
CONTINUOUS
10
81.8663870000000031
20
-99.1594209999999947
11
81.7754999999999939
21
-99.1774999999999949
0
LINE
8
BLACK
6
CONTINUOUS
10
81.7754999999999939
20
-99.1774999999999949
11
81.3004999999999995
21
-99.1774999999999949
0
LINE
8
BLACK
6
CONTINUOUS
10
81.3004999999999995
20
-99.1774999999999949
11
81.2096129999999903
21
-99.1594209999999947
0
LINE
8
BLACK
6
CONTINUOUS
10
81.2096129999999903
20
-99.1594209999999947
11
81.132561999999993
21
-99.1079379999999901
0
LINE
8
BLACK
6
CONTINUOUS
10
81.132561999999993
20
-99.1079379999999901
11
81.0810790000000026
21
-99.0308869999999928
0
LINE
8
BLACK
6
CONTINUOUS
10
81.0810790000000026
20
-99.0308869999999928
11
81.0630000000000024
21
-98.9399999999999977
0
LINE
8
BLACK
6
CONTINUOUS
10
81.0630000000000024
20
-98.9399999999999977
11
81.0630000000000024
21
-98.3399999999999892
0
LINE
8
BLACK
6
CONTINUOUS
10
81.0630000000000024
20
-98.3399999999999892
11
81.0810790000000026
21
-98.2491129999999941
0
LINE
8
BLACK
6
CONTINUOUS
10
81.0810790000000026
20
-98.2491129999999941
11
81.132561999999993
21
-98.1720619999999968
0
LINE
8
BLACK
6
CONTINUOUS
10
81.132561999999993
20
-98.1720619999999968
11
81.2096129999999903
21
-98.1205789999999922
0
LINE
8
BLACK
6
CONTINUOUS
10
81.2096129999999903
20
-98.1205789999999922
11
81.3004999999999995
21
-98.102499999999992
0
LINE
8
BLACK
6
CONTINUOUS
10
81.3004999999999995
20
-98.102499999999992
11
81.7754999999999939
21
-98.102499999999992
0
LINE
8
BLACK
6
CONTINUOUS
10
81.7754999999999939
20
-98.102499999999992
11
81.8663870000000031
21
-98.1205789999999922
0
LINE
8
BLACK
6
CONTINUOUS
10
83.4083869999999905
20
-98.1180789999999945
11
83.485438000000002
21
-98.1695619999999991
0
LINE
8
BLACK
6
CONTINUOUS
10
83.485438000000002
20
-98.1695619999999991
11
83.5369209999999924
21
-98.2466129999999964
0
LINE
8
BLACK
6
CONTINUOUS
10
83.5369209999999924
20
-98.2466129999999964
11
83.5549999999999926
21
-98.3374999999999915
0
LINE
8
BLACK
6
CONTINUOUS
10
83.5549999999999926
20
-98.3374999999999915
11
83.5549999999999926
21
-98.9375
0
LINE
8
BLACK
6
CONTINUOUS
10
83.5549999999999926
20
-98.9375
11
83.5369209999999924
21
-99.0283869999999951
0
LINE
8
BLACK
6
CONTINUOUS
10
83.5369209999999924
20
-99.0283869999999951
11
83.485438000000002
21
-99.1054379999999924
0
LINE
8
BLACK
6
CONTINUOUS
10
83.485438000000002
20
-99.1054379999999924
11
83.4083869999999905
21
-99.156920999999997
0
LINE
8
BLACK
6
CONTINUOUS
10
83.4083869999999905
20
-99.156920999999997
11
83.3174999999999955
21
-99.1749999999999972
0
LINE
8
BLACK
6
CONTINUOUS
10
83.3174999999999955
20
-99.1749999999999972
11
82.8425000000000011
21
-99.1749999999999972
0
LINE
8
BLACK
6
CONTINUOUS
10
82.8425000000000011
20
-99.1749999999999972
11
82.7516129999999919
21
-99.156920999999997
0
LINE
8
BLACK
6
CONTINUOUS
10
82.7516129999999919
20
-99.156920999999997
11
82.6745619999999946
21
-99.1054379999999924
0
LINE
8
BLACK
6
CONTINUOUS
10
82.6745619999999946
20
-99.1054379999999924
11
82.6230789999999899
21
-99.0283869999999951
0
LINE
8
BLACK
6
CONTINUOUS
10
82.6230789999999899
20
-99.0283869999999951
11
82.6049999999999898
21
-98.9375
0
LINE
8
BLACK
6
CONTINUOUS
10
82.6049999999999898
20
-98.9375
11
82.6049999999999898
21
-98.3374999999999915
0
LINE
8
BLACK
6
CONTINUOUS
10
82.6049999999999898
20
-98.3374999999999915
11
82.6230789999999899
21
-98.2466129999999964
0
LINE
8
BLACK
6
CONTINUOUS
10
82.6230789999999899
20
-98.2466129999999964
11
82.6745619999999946
21
-98.1695619999999991
0
LINE
8
BLACK
6
CONTINUOUS
10
82.6745619999999946
20
-98.1695619999999991
11
82.7516129999999919
21
-98.1180789999999945
0
LINE
8
BLACK
6
CONTINUOUS
10
82.7516129999999919
20
-98.1180789999999945
11
82.8425000000000011
21
-98.0999999999999943
0
LINE
8
BLACK
6
CONTINUOUS
10
82.8425000000000011
20
-98.0999999999999943
11
83.3174999999999955
21
-98.0999999999999943
0
LINE
8
BLACK
6
CONTINUOUS
10
83.3174999999999955
20
-98.0999999999999943
11
83.4083869999999905
21
-98.1180789999999945
0
LINE
8
BLACK
6
CONTINUOUS
10
82.6499999999999915
20
-97.4749999999999943
11
82.2000000000000028
21
-97.4749999999999943
0
LINE
8
BLACK
6
CONTINUOUS
10
82.2000000000000028
20
-97.4749999999999943
11
82.2000000000000028
21
-95.7249999999999943
0
LINE
8
BLACK
6
CONTINUOUS
10
82.2000000000000028
20
-95.7249999999999943
11
82.6499999999999915
21
-95.7249999999999943
0
LINE
8
BLACK
6
CONTINUOUS
10
82.6499999999999915
20
-95.7249999999999943
11
82.6499999999999915
21
-97.4749999999999943
0
LINE
8
BLACK
6
CONTINUOUS
10
83.2999999999999972
20
-97.4749999999999943
11
82.8499999999999943
21
-97.4749999999999943
0
LINE
8
BLACK
6
CONTINUOUS
10
82.8499999999999943
20
-97.4749999999999943
11
82.8499999999999943
21
-95.7249999999999943
0
LINE
8
BLACK
6
CONTINUOUS
10
82.8499999999999943
20
-95.7249999999999943
11
83.2999999999999972
21
-95.7249999999999943
0
LINE
8
BLACK
6
CONTINUOUS
10
83.2999999999999972
20
-95.7249999999999943
11
83.2999999999999972
21
-97.4749999999999943
0
LINE
8
BLACK
6
CONTINUOUS
10
83.9500000000000028
20
-97.4749999999999943
11
83.5
21
-97.4749999999999943
0
LINE
8
BLACK
6
CONTINUOUS
10
83.5
20
-97.4749999999999943
11
83.5
21
-95.7249999999999943
0
LINE
8
BLACK
6
CONTINUOUS
10
83.5
20
-95.7249999999999943
11
83.9500000000000028
21
-95.7249999999999943
0
LINE
8
BLACK
6
CONTINUOUS
10
83.9500000000000028
20
-95.7249999999999943
11
83.9500000000000028
21
-97.4749999999999943
0
LINE
8
BLACK
6
CONTINUOUS
10
84.5999999999999943
20
-97.4749999999999943
11
84.1499999999999915
21
-97.4749999999999943
0
LINE
8
BLACK
6
CONTINUOUS
10
84.1499999999999915
20
-97.4749999999999943
11
84.1499999999999915
21
-95.7249999999999943
0
LINE
8
BLACK
6
CONTINUOUS
10
84.1499999999999915
20
-95.7249999999999943
11
84.5999999999999943
21
-95.7249999999999943
0
LINE
8
BLACK
6
CONTINUOUS
10
84.5999999999999943
20
-95.7249999999999943
11
84.5999999999999943
21
-97.4749999999999943
0
LINE
8
BLACK
6
CONTINUOUS
10
85.25
20
-97.4749999999999943
11
84.7999999999999972
21
-97.4749999999999943
0
LINE
8
BLACK
6
CONTINUOUS
10
84.7999999999999972
20
-97.4749999999999943
11
84.7999999999999972
21
-95.7249999999999943
0
LINE
8
BLACK
6
CONTINUOUS
10
84.7999999999999972
20
-95.7249999999999943
11
85.25
21
-95.7249999999999943
0
LINE
8
BLACK
6
CONTINUOUS
10
85.25
20
-95.7249999999999943
11
85.25
21
-97.4749999999999943
0
LINE
8
BLACK
6
CONTINUOUS
10
85.8999999999999915
20
-97.4749999999999943
11
85.4500000000000028
21
-97.4749999999999943
0
LINE
8
BLACK
6
CONTINUOUS
10
85.4500000000000028
20
-97.4749999999999943
11
85.4500000000000028
21
-95.7249999999999943
0
LINE
8
BLACK
6
CONTINUOUS
10
85.4500000000000028
20
-95.7249999999999943
11
85.8999999999999915
21
-95.7249999999999943
0
LINE
8
BLACK
6
CONTINUOUS
10
85.8999999999999915
20
-95.7249999999999943
11
85.8999999999999915
21
-97.4749999999999943
0
LINE
8
BLACK
6
CONTINUOUS
10
86.5499999999999972
20
-97.4749999999999943
11
86.0999999999999943
21
-97.4749999999999943
0
LINE
8
BLACK
6
CONTINUOUS
10
86.0999999999999943
20
-97.4749999999999943
11
86.0999999999999943
21
-95.7249999999999943
0
LINE
8
BLACK
6
CONTINUOUS
10
86.0999999999999943
20
-95.7249999999999943
11
86.5499999999999972
21
-95.7249999999999943
0
LINE
8
BLACK
6
CONTINUOUS
10
86.5499999999999972
20
-95.7249999999999943
11
86.5499999999999972
21
-97.4749999999999943
0
LINE
8
BLACK
6
CONTINUOUS
10
87.2000000000000028
20
-97.4749999999999943
11
86.75
21
-97.4749999999999943
0
LINE
8
BLACK
6
CONTINUOUS
10
86.75
20
-97.4749999999999943
11
86.75
21
-95.7249999999999943
0
LINE
8
BLACK
6
CONTINUOUS
10
86.75
20
-95.7249999999999943
11
87.2000000000000028
21
-95.7249999999999943
0
LINE
8
BLACK
6
CONTINUOUS
10
87.2000000000000028
20
-95.7249999999999943
11
87.2000000000000028
21
-97.4749999999999943
0
LINE
8
BLACK
6
CONTINUOUS
10
87.8499999999999943
20
-97.4749999999999943
11
87.3999999999999915
21
-97.4749999999999943
0
LINE
8
BLACK
6
CONTINUOUS
10
87.3999999999999915
20
-97.4749999999999943
11
87.3999999999999915
21
-95.7249999999999943
0
LINE
8
BLACK
6
CONTINUOUS
10
87.3999999999999915
20
-95.7249999999999943
11
87.8499999999999943
21
-95.7249999999999943
0
LINE
8
BLACK
6
CONTINUOUS
10
87.8499999999999943
20
-95.7249999999999943
11
87.8499999999999943
21
-97.4749999999999943
0
LINE
8
BLACK
6
CONTINUOUS
10
88.5
20
-97.4749999999999943
11
88.0499999999999972
21
-97.4749999999999943
0
LINE
8
BLACK
6
CONTINUOUS
10
88.0499999999999972
20
-97.4749999999999943
11
88.0499999999999972
21
-95.7249999999999943
0
LINE
8
BLACK
6
CONTINUOUS
10
88.0499999999999972
20
-95.7249999999999943
11
88.5
21
-95.7249999999999943
0
LINE
8
BLACK
6
CONTINUOUS
10
88.5
20
-95.7249999999999943
11
88.5
21
-97.4749999999999943
0
LINE
8
BLACK
6
CONTINUOUS
10
89.1499999999999915
20
-97.4749999999999943
11
88.7000000000000028
21
-97.4749999999999943
0
LINE
8
BLACK
6
CONTINUOUS
10
88.7000000000000028
20
-97.4749999999999943
11
88.7000000000000028
21
-95.7249999999999943
0
LINE
8
BLACK
6
CONTINUOUS
10
88.7000000000000028
20
-95.7249999999999943
11
89.1499999999999915
21
-95.7249999999999943
0
LINE
8
BLACK
6
CONTINUOUS
10
89.1499999999999915
20
-95.7249999999999943
11
89.1499999999999915
21
-97.4749999999999943
0
LINE
8
BLACK
6
CONTINUOUS
10
89.7999999999999972
20
-97.4749999999999943
11
89.3499999999999943
21
-97.4749999999999943
0
LINE
8
BLACK
6
CONTINUOUS
10
89.3499999999999943
20
-97.4749999999999943
11
89.3499999999999943
21
-95.7249999999999943
0
LINE
8
BLACK
6
CONTINUOUS
10
89.3499999999999943
20
-95.7249999999999943
11
89.7999999999999972
21
-95.7249999999999943
0
LINE
8
BLACK
6
CONTINUOUS
10
89.7999999999999972
20
-95.7249999999999943
11
89.7999999999999972
21
-97.4749999999999943
0
LINE
8
BLACK
6
CONTINUOUS
10
124.0404999999999944
20
-92.5444999999999993
11
121.6274999999999977
21
-92.5444999999999993
0
LINE
8
BLACK
6
CONTINUOUS
10
121.6274999999999977
20
-92.5444999999999993
11
121.6274999999999977
21
-89.1154999999999973
0
LINE
8
BLACK
6
CONTINUOUS
10
121.6274999999999977
20
-89.1154999999999973
11
124.0404999999999944
21
-89.1154999999999973
0
LINE
8
BLACK
6
CONTINUOUS
10
124.0404999999999944
20
-89.1154999999999973
11
124.0404999999999944
21
-92.5444999999999993
0
LINE
8
BLACK
6
CONTINUOUS
10
129.8824999999999932
20
-92.5444999999999993
11
127.4694999999999965
21
-92.5444999999999993
0
LINE
8
BLACK
6
CONTINUOUS
10
127.4694999999999965
20
-92.5444999999999993
11
127.4694999999999965
21
-89.1154999999999973
0
LINE
8
BLACK
6
CONTINUOUS
10
127.4694999999999965
20
-89.1154999999999973
11
129.8824999999999932
21
-89.1154999999999973
0
LINE
8
BLACK
6
CONTINUOUS
10
129.8824999999999932
20
-89.1154999999999973
11
129.8824999999999932
21
-92.5444999999999993
0
LINE
8
BLACK
6
CONTINUOUS
10
82.6499999999999915
20
-90.2749999999999915
11
82.2000000000000028
21
-90.2749999999999915
0
LINE
8
BLACK
6
CONTINUOUS
10
82.2000000000000028
20
-90.2749999999999915
11
82.2000000000000028
21
-88.5249999999999915
0
LINE
8
BLACK
6
CONTINUOUS
10
82.2000000000000028
20
-88.5249999999999915
11
82.6499999999999915
21
-88.5249999999999915
0
LINE
8
BLACK
6
CONTINUOUS
10
82.6499999999999915
20
-88.5249999999999915
11
82.6499999999999915
21
-90.2749999999999915
0
LINE
8
BLACK
6
CONTINUOUS
10
83.2999999999999972
20
-90.2749999999999915
11
82.8499999999999943
21
-90.2749999999999915
0
LINE
8
BLACK
6
CONTINUOUS
10
82.8499999999999943
20
-90.2749999999999915
11
82.8499999999999943
21
-88.5249999999999915
0
LINE
8
BLACK
6
CONTINUOUS
10
82.8499999999999943
20
-88.5249999999999915
11
83.2999999999999972
21
-88.5249999999999915
0
LINE
8
BLACK
6
CONTINUOUS
10
83.2999999999999972
20
-88.5249999999999915
11
83.2999999999999972
21
-90.2749999999999915
0
LINE
8
BLACK
6
CONTINUOUS
10
83.9500000000000028
20
-90.2749999999999915
11
83.5
21
-90.2749999999999915
0
LINE
8
BLACK
6
CONTINUOUS
10
83.5
20
-90.2749999999999915
11
83.5
21
-88.5249999999999915
0
LINE
8
BLACK
6
CONTINUOUS
10
83.5
20
-88.5249999999999915
11
83.9500000000000028
21
-88.5249999999999915
0
LINE
8
BLACK
6
CONTINUOUS
10
83.9500000000000028
20
-88.5249999999999915
11
83.9500000000000028
21
-90.2749999999999915
0
LINE
8
BLACK
6
CONTINUOUS
10
84.5999999999999943
20
-90.2749999999999915
11
84.1499999999999915
21
-90.2749999999999915
0
LINE
8
BLACK
6
CONTINUOUS
10
84.1499999999999915
20
-90.2749999999999915
11
84.1499999999999915
21
-88.5249999999999915
0
LINE
8
BLACK
6
CONTINUOUS
10
84.1499999999999915
20
-88.5249999999999915
11
84.5999999999999943
21
-88.5249999999999915
0
LINE
8
BLACK
6
CONTINUOUS
10
84.5999999999999943
20
-88.5249999999999915
11
84.5999999999999943
21
-90.2749999999999915
0
LINE
8
BLACK
6
CONTINUOUS
10
85.25
20
-90.2749999999999915
11
84.7999999999999972
21
-90.2749999999999915
0
LINE
8
BLACK
6
CONTINUOUS
10
84.7999999999999972
20
-90.2749999999999915
11
84.7999999999999972
21
-88.5249999999999915
0
LINE
8
BLACK
6
CONTINUOUS
10
84.7999999999999972
20
-88.5249999999999915
11
85.25
21
-88.5249999999999915
0
LINE
8
BLACK
6
CONTINUOUS
10
85.25
20
-88.5249999999999915
11
85.25
21
-90.2749999999999915
0
LINE
8
BLACK
6
CONTINUOUS
10
85.8999999999999915
20
-90.2749999999999915
11
85.4500000000000028
21
-90.2749999999999915
0
LINE
8
BLACK
6
CONTINUOUS
10
85.4500000000000028
20
-90.2749999999999915
11
85.4500000000000028
21
-88.5249999999999915
0
LINE
8
BLACK
6
CONTINUOUS
10
85.4500000000000028
20
-88.5249999999999915
11
85.8999999999999915
21
-88.5249999999999915
0
LINE
8
BLACK
6
CONTINUOUS
10
85.8999999999999915
20
-88.5249999999999915
11
85.8999999999999915
21
-90.2749999999999915
0
LINE
8
BLACK
6
CONTINUOUS
10
86.5499999999999972
20
-90.2749999999999915
11
86.0999999999999943
21
-90.2749999999999915
0
LINE
8
BLACK
6
CONTINUOUS
10
86.0999999999999943
20
-90.2749999999999915
11
86.0999999999999943
21
-88.5249999999999915
0
LINE
8
BLACK
6
CONTINUOUS
10
86.0999999999999943
20
-88.5249999999999915
11
86.5499999999999972
21
-88.5249999999999915
0
LINE
8
BLACK
6
CONTINUOUS
10
86.5499999999999972
20
-88.5249999999999915
11
86.5499999999999972
21
-90.2749999999999915
0
LINE
8
BLACK
6
CONTINUOUS
10
87.2000000000000028
20
-90.2749999999999915
11
86.75
21
-90.2749999999999915
0
LINE
8
BLACK
6
CONTINUOUS
10
86.75
20
-90.2749999999999915
11
86.75
21
-88.5249999999999915
0
LINE
8
BLACK
6
CONTINUOUS
10
86.75
20
-88.5249999999999915
11
87.2000000000000028
21
-88.5249999999999915
0
LINE
8
BLACK
6
CONTINUOUS
10
87.2000000000000028
20
-88.5249999999999915
11
87.2000000000000028
21
-90.2749999999999915
0
LINE
8
BLACK
6
CONTINUOUS
10
87.8499999999999943
20
-90.2749999999999915
11
87.3999999999999915
21
-90.2749999999999915
0
LINE
8
BLACK
6
CONTINUOUS
10
87.3999999999999915
20
-90.2749999999999915
11
87.3999999999999915
21
-88.5249999999999915
0
LINE
8
BLACK
6
CONTINUOUS
10
87.3999999999999915
20
-88.5249999999999915
11
87.8499999999999943
21
-88.5249999999999915
0
LINE
8
BLACK
6
CONTINUOUS
10
87.8499999999999943
20
-88.5249999999999915
11
87.8499999999999943
21
-90.2749999999999915
0
LINE
8
BLACK
6
CONTINUOUS
10
88.5
20
-90.2749999999999915
11
88.0499999999999972
21
-90.2749999999999915
0
LINE
8
BLACK
6
CONTINUOUS
10
88.0499999999999972
20
-90.2749999999999915
11
88.0499999999999972
21
-88.5249999999999915
0
LINE
8
BLACK
6
CONTINUOUS
10
88.0499999999999972
20
-88.5249999999999915
11
88.5
21
-88.5249999999999915
0
LINE
8
BLACK
6
CONTINUOUS
10
88.5
20
-88.5249999999999915
11
88.5
21
-90.2749999999999915
0
LINE
8
BLACK
6
CONTINUOUS
10
89.1499999999999915
20
-90.2749999999999915
11
88.7000000000000028
21
-90.2749999999999915
0
LINE
8
BLACK
6
CONTINUOUS
10
88.7000000000000028
20
-90.2749999999999915
11
88.7000000000000028
21
-88.5249999999999915
0
LINE
8
BLACK
6
CONTINUOUS
10
88.7000000000000028
20
-88.5249999999999915
11
89.1499999999999915
21
-88.5249999999999915
0
LINE
8
BLACK
6
CONTINUOUS
10
89.1499999999999915
20
-88.5249999999999915
11
89.1499999999999915
21
-90.2749999999999915
0
LINE
8
BLACK
6
CONTINUOUS
10
89.7999999999999972
20
-90.2749999999999915
11
89.3499999999999943
21
-90.2749999999999915
0
LINE
8
BLACK
6
CONTINUOUS
10
89.3499999999999943
20
-90.2749999999999915
11
89.3499999999999943
21
-88.5249999999999915
0
LINE
8
BLACK
6
CONTINUOUS
10
89.3499999999999943
20
-88.5249999999999915
11
89.7999999999999972
21
-88.5249999999999915
0
LINE
8
BLACK
6
CONTINUOUS
10
89.7999999999999972
20
-88.5249999999999915
11
89.7999999999999972
21
-90.2749999999999915
0
LINE
8
BLACK
6
CONTINUOUS
10
89.7683869999999899
20
-84.4735790000000009
11
89.8454380000000015
21
-84.5250619999999913
0
LINE
8
BLACK
6
CONTINUOUS
10
89.8454380000000015
20
-84.5250619999999913
11
89.8969209999999919
21
-84.6021130000000028
0
LINE
8
BLACK
6
CONTINUOUS
10
89.8969209999999919
20
-84.6021130000000028
11
89.914999999999992
21
-84.6929999999999978
0
LINE
8
BLACK
6
CONTINUOUS
10
89.914999999999992
20
-84.6929999999999978
11
89.914999999999992
21
-85.2929999999999922
0
LINE
8
BLACK
6
CONTINUOUS
10
89.914999999999992
20
-85.2929999999999922
11
89.8969209999999919
21
-85.3838870000000014
0
LINE
8
BLACK
6
CONTINUOUS
10
89.8969209999999919
20
-85.3838870000000014
11
89.8454380000000015
21
-85.4609379999999987
0
LINE
8
BLACK
6
CONTINUOUS
10
89.8454380000000015
20
-85.4609379999999987
11
89.7683869999999899
21
-85.5124209999999891
0
LINE
8
BLACK
6
CONTINUOUS
10
89.7683869999999899
20
-85.5124209999999891
11
89.6774999999999949
21
-85.5304999999999893
0
LINE
8
BLACK
6
CONTINUOUS
10
89.6774999999999949
20
-85.5304999999999893
11
89.2025000000000006
21
-85.5304999999999893
0
LINE
8
BLACK
6
CONTINUOUS
10
89.2025000000000006
20
-85.5304999999999893
11
89.1116129999999913
21
-85.5124209999999891
0
LINE
8
BLACK
6
CONTINUOUS
10
89.1116129999999913
20
-85.5124209999999891
11
89.034561999999994
21
-85.4609379999999987
0
LINE
8
BLACK
6
CONTINUOUS
10
89.034561999999994
20
-85.4609379999999987
11
88.9830789999999894
21
-85.3838870000000014
0
LINE
8
BLACK
6
CONTINUOUS
10
88.9830789999999894
20
-85.3838870000000014
11
88.9649999999999892
21
-85.2929999999999922
0
LINE
8
BLACK
6
CONTINUOUS
10
88.9649999999999892
20
-85.2929999999999922
11
88.9649999999999892
21
-84.6929999999999978
0
LINE
8
BLACK
6
CONTINUOUS
10
88.9649999999999892
20
-84.6929999999999978
11
88.9830789999999894
21
-84.6021130000000028
0
LINE
8
BLACK
6
CONTINUOUS
10
88.9830789999999894
20
-84.6021130000000028
11
89.034561999999994
21
-84.5250619999999913
0
LINE
8
BLACK
6
CONTINUOUS
10
89.034561999999994
20
-84.5250619999999913
11
89.1116129999999913
21
-84.4735790000000009
0
LINE
8
BLACK
6
CONTINUOUS
10
89.1116129999999913
20
-84.4735790000000009
11
89.2025000000000006
21
-84.4555000000000007
0
LINE
8
BLACK
6
CONTINUOUS
10
89.2025000000000006
20
-84.4555000000000007
11
89.6774999999999949
21
-84.4555000000000007
0
LINE
8
BLACK
6
CONTINUOUS
10
89.6774999999999949
20
-84.4555000000000007
11
89.7683869999999899
21
-84.4735790000000009
0
LINE
8
BLACK
6
CONTINUOUS
10
91.2643869999999993
20
-84.4660789999999935
11
91.3414379999999966
21
-84.5175619999999981
0
LINE
8
BLACK
6
CONTINUOUS
10
91.3414379999999966
20
-84.5175619999999981
11
91.3929210000000012
21
-84.5946129999999954
0
LINE
8
BLACK
6
CONTINUOUS
10
91.3929210000000012
20
-84.5946129999999954
11
91.4110000000000014
21
-84.6854999999999905
0
LINE
8
BLACK
6
CONTINUOUS
10
91.4110000000000014
20
-84.6854999999999905
11
91.4110000000000014
21
-85.285499999999999
0
LINE
8
BLACK
6
CONTINUOUS
10
91.4110000000000014
20
-85.285499999999999
11
91.3929210000000012
21
-85.376386999999994
0
LINE
8
BLACK
6
CONTINUOUS
10
91.3929210000000012
20
-85.376386999999994
11
91.3414379999999966
21
-85.4534379999999913
0
LINE
8
BLACK
6
CONTINUOUS
10
91.3414379999999966
20
-85.4534379999999913
11
91.2643869999999993
21
-85.504920999999996
0
LINE
8
BLACK
6
CONTINUOUS
10
91.2643869999999993
20
-85.504920999999996
11
91.17349999999999
21
-85.5229999999999961
0
LINE
8
BLACK
6
CONTINUOUS
10
91.17349999999999
20
-85.5229999999999961
11
90.6984999999999957
21
-85.5229999999999961
0
LINE
8
BLACK
6
CONTINUOUS
10
90.6984999999999957
20
-85.5229999999999961
11
90.6076130000000006
21
-85.504920999999996
0
LINE
8
BLACK
6
CONTINUOUS
10
90.6076130000000006
20
-85.504920999999996
11
90.5305619999999891
21
-85.4534379999999913
0
LINE
8
BLACK
6
CONTINUOUS
10
90.5305619999999891
20
-85.4534379999999913
11
90.4790789999999987
21
-85.376386999999994
0
LINE
8
BLACK
6
CONTINUOUS
10
90.4790789999999987
20
-85.376386999999994
11
90.4609999999999985
21
-85.285499999999999
0
LINE
8
BLACK
6
CONTINUOUS
10
90.4609999999999985
20
-85.285499999999999
11
90.4609999999999985
21
-84.6854999999999905
0
LINE
8
BLACK
6
CONTINUOUS
10
90.4609999999999985
20
-84.6854999999999905
11
90.4790789999999987
21
-84.5946129999999954
0
LINE
8
BLACK
6
CONTINUOUS
10
90.4790789999999987
20
-84.5946129999999954
11
90.5305619999999891
21
-84.5175619999999981
0
LINE
8
BLACK
6
CONTINUOUS
10
90.5305619999999891
20
-84.5175619999999981
11
90.6076130000000006
21
-84.4660789999999935
0
LINE
8
BLACK
6
CONTINUOUS
10
90.6076130000000006
20
-84.4660789999999935
11
90.6984999999999957
21
-84.4479999999999933
0
LINE
8
BLACK
6
CONTINUOUS
10
90.6984999999999957
20
-84.4479999999999933
11
91.17349999999999
21
-84.4479999999999933
0
LINE
8
BLACK
6
CONTINUOUS
10
91.17349999999999
20
-84.4479999999999933
11
91.2643869999999993
21
-84.4660789999999935
0
LINE
8
BLACK
6
CONTINUOUS
10
83.1283869999999894
20
-84.4655789999999911
11
83.2054380000000009
21
-84.5170619999999957
0
LINE
8
BLACK
6
CONTINUOUS
10
83.2054380000000009
20
-84.5170619999999957
11
83.2569209999999913
21
-84.594112999999993
0
LINE
8
BLACK
6
CONTINUOUS
10
83.2569209999999913
20
-84.594112999999993
11
83.2749999999999915
21
-84.6850000000000023
0
LINE
8
BLACK
6
CONTINUOUS
10
83.2749999999999915
20
-84.6850000000000023
11
83.2749999999999915
21
-85.2849999999999966
0
LINE
8
BLACK
6
CONTINUOUS
10
83.2749999999999915
20
-85.2849999999999966
11
83.2569209999999913
21
-85.3758869999999916
0
LINE
8
BLACK
6
CONTINUOUS
10
83.2569209999999913
20
-85.3758869999999916
11
83.2054380000000009
21
-85.4529380000000032
0
LINE
8
BLACK
6
CONTINUOUS
10
83.2054380000000009
20
-85.4529380000000032
11
83.1283869999999894
21
-85.5044209999999936
0
LINE
8
BLACK
6
CONTINUOUS
10
83.1283869999999894
20
-85.5044209999999936
11
83.0374999999999943
21
-85.5224999999999937
0
LINE
8
BLACK
6
CONTINUOUS
10
83.0374999999999943
20
-85.5224999999999937
11
82.5625
21
-85.5224999999999937
0
LINE
8
BLACK
6
CONTINUOUS
10
82.5625
20
-85.5224999999999937
11
82.4716129999999907
21
-85.5044209999999936
0
LINE
8
BLACK
6
CONTINUOUS
10
82.4716129999999907
20
-85.5044209999999936
11
82.3945619999999934
21
-85.4529380000000032
0
LINE
8
BLACK
6
CONTINUOUS
10
82.3945619999999934
20
-85.4529380000000032
11
82.343079000000003
21
-85.3758869999999916
0
LINE
8
BLACK
6
CONTINUOUS
10
82.343079000000003
20
-85.3758869999999916
11
82.3250000000000028
21
-85.2849999999999966
0
LINE
8
BLACK
6
CONTINUOUS
10
82.3250000000000028
20
-85.2849999999999966
11
82.3250000000000028
21
-84.6850000000000023
0
LINE
8
BLACK
6
CONTINUOUS
10
82.3250000000000028
20
-84.6850000000000023
11
82.343079000000003
21
-84.594112999999993
0
LINE
8
BLACK
6
CONTINUOUS
10
82.343079000000003
20
-84.594112999999993
11
82.3945619999999934
21
-84.5170619999999957
0
LINE
8
BLACK
6
CONTINUOUS
10
82.3945619999999934
20
-84.5170619999999957
11
82.4716129999999907
21
-84.4655789999999911
0
LINE
8
BLACK
6
CONTINUOUS
10
82.4716129999999907
20
-84.4655789999999911
11
82.5625
21
-84.4474999999999909
0
LINE
8
BLACK
6
CONTINUOUS
10
82.5625
20
-84.4474999999999909
11
83.0374999999999943
21
-84.4474999999999909
0
LINE
8
BLACK
6
CONTINUOUS
10
83.0374999999999943
20
-84.4474999999999909
11
83.1283869999999894
21
-84.4655789999999911
0
LINE
8
BLACK
6
CONTINUOUS
10
81.6123869999999982
20
-84.4460789999999974
11
81.6894379999999956
21
-84.4975620000000021
0
LINE
8
BLACK
6
CONTINUOUS
10
81.6894379999999956
20
-84.4975620000000021
11
81.7409210000000002
21
-84.5746129999999994
0
LINE
8
BLACK
6
CONTINUOUS
10
81.7409210000000002
20
-84.5746129999999994
11
81.7590000000000003
21
-84.6654999999999944
0
LINE
8
BLACK
6
CONTINUOUS
10
81.7590000000000003
20
-84.6654999999999944
11
81.7590000000000003
21
-85.265500000000003
0
LINE
8
BLACK
6
CONTINUOUS
10
81.7590000000000003
20
-85.265500000000003
11
81.7409210000000002
21
-85.356386999999998
0
LINE
8
BLACK
6
CONTINUOUS
10
81.7409210000000002
20
-85.356386999999998
11
81.6894379999999956
21
-85.4334379999999953
0
LINE
8
BLACK
6
CONTINUOUS
10
81.6894379999999956
20
-85.4334379999999953
11
81.6123869999999982
21
-85.4849209999999999
0
LINE
8
BLACK
6
CONTINUOUS
10
81.6123869999999982
20
-85.4849209999999999
11
81.5215000000000032
21
-85.5030000000000001
0
LINE
8
BLACK
6
CONTINUOUS
10
81.5215000000000032
20
-85.5030000000000001
11
81.0464999999999947
21
-85.5030000000000001
0
LINE
8
BLACK
6
CONTINUOUS
10
81.0464999999999947
20
-85.5030000000000001
11
80.9556129999999996
21
-85.4849209999999999
0
LINE
8
BLACK
6
CONTINUOUS
10
80.9556129999999996
20
-85.4849209999999999
11
80.8785620000000023
21
-85.4334379999999953
0
LINE
8
BLACK
6
CONTINUOUS
10
80.8785620000000023
20
-85.4334379999999953
11
80.8270789999999977
21
-85.356386999999998
0
LINE
8
BLACK
6
CONTINUOUS
10
80.8270789999999977
20
-85.356386999999998
11
80.8089999999999975
21
-85.265500000000003
0
LINE
8
BLACK
6
CONTINUOUS
10
80.8089999999999975
20
-85.265500000000003
11
80.8089999999999975
21
-84.6654999999999944
0
LINE
8
BLACK
6
CONTINUOUS
10
80.8089999999999975
20
-84.6654999999999944
11
80.8270789999999977
21
-84.5746129999999994
0
LINE
8
BLACK
6
CONTINUOUS
10
80.8270789999999977
20
-84.5746129999999994
11
80.8785620000000023
21
-84.4975620000000021
0
LINE
8
BLACK
6
CONTINUOUS
10
80.8785620000000023
20
-84.4975620000000021
11
80.9556129999999996
21
-84.4460789999999974
0
LINE
8
BLACK
6
CONTINUOUS
10
80.9556129999999996
20
-84.4460789999999974
11
81.0464999999999947
21
-84.4279999999999973
0
LINE
8
BLACK
6
CONTINUOUS
10
81.0464999999999947
20
-84.4279999999999973
11
81.5215000000000032
21
-84.4279999999999973
0
LINE
8
BLACK
6
CONTINUOUS
10
81.5215000000000032
20
-84.4279999999999973
11
81.6123869999999982
21
-84.4460789999999974
0
LINE
8
BLACK
6
CONTINUOUS
10
89.7683869999999899
20
-82.7485789999999923
11
89.8454380000000015
21
-82.8000619999999969
0
LINE
8
BLACK
6
CONTINUOUS
10
89.8454380000000015
20
-82.8000619999999969
11
89.8969209999999919
21
-82.8771129999999943
0
LINE
8
BLACK
6
CONTINUOUS
10
89.8969209999999919
20
-82.8771129999999943
11
89.914999999999992
21
-82.9679999999999893
0
LINE
8
BLACK
6
CONTINUOUS
10
89.914999999999992
20
-82.9679999999999893
11
89.914999999999992
21
-83.5679999999999978
0
LINE
8
BLACK
6
CONTINUOUS
10
89.914999999999992
20
-83.5679999999999978
11
89.8969209999999919
21
-83.6588869999999929
0
LINE
8
BLACK
6
CONTINUOUS
10
89.8969209999999919
20
-83.6588869999999929
11
89.8454380000000015
21
-83.7359379999999902
0
LINE
8
BLACK
6
CONTINUOUS
10
89.8454380000000015
20
-83.7359379999999902
11
89.7683869999999899
21
-83.7874209999999948
0
LINE
8
BLACK
6
CONTINUOUS
10
89.7683869999999899
20
-83.7874209999999948
11
89.6774999999999949
21
-83.805499999999995
0
LINE
8
BLACK
6
CONTINUOUS
10
89.6774999999999949
20
-83.805499999999995
11
89.2025000000000006
21
-83.805499999999995
0
LINE
8
BLACK
6
CONTINUOUS
10
89.2025000000000006
20
-83.805499999999995
11
89.1116129999999913
21
-83.7874209999999948
0
LINE
8
BLACK
6
CONTINUOUS
10
89.1116129999999913
20
-83.7874209999999948
11
89.034561999999994
21
-83.7359379999999902
0
LINE
8
BLACK
6
CONTINUOUS
10
89.034561999999994
20
-83.7359379999999902
11
88.9830789999999894
21
-83.6588869999999929
0
LINE
8
BLACK
6
CONTINUOUS
10
88.9830789999999894
20
-83.6588869999999929
11
88.9649999999999892
21
-83.5679999999999978
0
LINE
8
BLACK
6
CONTINUOUS
10
88.9649999999999892
20
-83.5679999999999978
11
88.9649999999999892
21
-82.9679999999999893
0
LINE
8
BLACK
6
CONTINUOUS
10
88.9649999999999892
20
-82.9679999999999893
11
88.9830789999999894
21
-82.8771129999999943
0
LINE
8
BLACK
6
CONTINUOUS
10
88.9830789999999894
20
-82.8771129999999943
11
89.034561999999994
21
-82.8000619999999969
0
LINE
8
BLACK
6
CONTINUOUS
10
89.034561999999994
20
-82.8000619999999969
11
89.1116129999999913
21
-82.7485789999999923
0
LINE
8
BLACK
6
CONTINUOUS
10
89.1116129999999913
20
-82.7485789999999923
11
89.2025000000000006
21
-82.7304999999999922
0
LINE
8
BLACK
6
CONTINUOUS
10
89.2025000000000006
20
-82.7304999999999922
11
89.6774999999999949
21
-82.7304999999999922
0
LINE
8
BLACK
6
CONTINUOUS
10
89.6774999999999949
20
-82.7304999999999922
11
89.7683869999999899
21
-82.7485789999999923
0
LINE
8
BLACK
6
CONTINUOUS
10
91.2643869999999993
20
-82.7410789999999992
11
91.3414379999999966
21
-82.7925619999999896
0
LINE
8
BLACK
6
CONTINUOUS
10
91.3414379999999966
20
-82.7925619999999896
11
91.3929210000000012
21
-82.8696130000000011
0
LINE
8
BLACK
6
CONTINUOUS
10
91.3929210000000012
20
-82.8696130000000011
11
91.4110000000000014
21
-82.9604999999999961
0
LINE
8
BLACK
6
CONTINUOUS
10
91.4110000000000014
20
-82.9604999999999961
11
91.4110000000000014
21
-83.5604999999999905
0
LINE
8
BLACK
6
CONTINUOUS
10
91.4110000000000014
20
-83.5604999999999905
11
91.3929210000000012
21
-83.6513869999999997
0
LINE
8
BLACK
6
CONTINUOUS
10
91.3929210000000012
20
-83.6513869999999997
11
91.3414379999999966
21
-83.728437999999997
0
LINE
8
BLACK
6
CONTINUOUS
10
91.3414379999999966
20
-83.728437999999997
11
91.2643869999999993
21
-83.7799210000000016
0
LINE
8
BLACK
6
CONTINUOUS
10
91.2643869999999993
20
-83.7799210000000016
11
91.17349999999999
21
-83.7980000000000018
0
LINE
8
BLACK
6
CONTINUOUS
10
91.17349999999999
20
-83.7980000000000018
11
90.6984999999999957
21
-83.7980000000000018
0
LINE
8
BLACK
6
CONTINUOUS
10
90.6984999999999957
20
-83.7980000000000018
11
90.6076130000000006
21
-83.7799210000000016
0
LINE
8
BLACK
6
CONTINUOUS
10
90.6076130000000006
20
-83.7799210000000016
11
90.5305619999999891
21
-83.728437999999997
0
LINE
8
BLACK
6
CONTINUOUS
10
90.5305619999999891
20
-83.728437999999997
11
90.4790789999999987
21
-83.6513869999999997
0
LINE
8
BLACK
6
CONTINUOUS
10
90.4790789999999987
20
-83.6513869999999997
11
90.4609999999999985
21
-83.5604999999999905
0
LINE
8
BLACK
6
CONTINUOUS
10
90.4609999999999985
20
-83.5604999999999905
11
90.4609999999999985
21
-82.9604999999999961
0
LINE
8
BLACK
6
CONTINUOUS
10
90.4609999999999985
20
-82.9604999999999961
11
90.4790789999999987
21
-82.8696130000000011
0
LINE
8
BLACK
6
CONTINUOUS
10
90.4790789999999987
20
-82.8696130000000011
11
90.5305619999999891
21
-82.7925619999999896
0
LINE
8
BLACK
6
CONTINUOUS
10
90.5305619999999891
20
-82.7925619999999896
11
90.6076130000000006
21
-82.7410789999999992
0
LINE
8
BLACK
6
CONTINUOUS
10
90.6076130000000006
20
-82.7410789999999992
11
90.6984999999999957
21
-82.722999999999999
0
LINE
8
BLACK
6
CONTINUOUS
10
90.6984999999999957
20
-82.722999999999999
11
91.17349999999999
21
-82.722999999999999
0
LINE
8
BLACK
6
CONTINUOUS
10
91.17349999999999
20
-82.722999999999999
11
91.2643869999999993
21
-82.7410789999999992
0
LINE
8
BLACK
6
CONTINUOUS
10
83.1283869999999894
20
-82.7405789999999968
11
83.2054380000000009
21
-82.7920620000000014
0
LINE
8
BLACK
6
CONTINUOUS
10
83.2054380000000009
20
-82.7920620000000014
11
83.2569209999999913
21
-82.8691129999999987
0
LINE
8
BLACK
6
CONTINUOUS
10
83.2569209999999913
20
-82.8691129999999987
11
83.2749999999999915
21
-82.9599999999999937
0
LINE
8
BLACK
6
CONTINUOUS
10
83.2749999999999915
20
-82.9599999999999937
11
83.2749999999999915
21
-83.5600000000000023
0
LINE
8
BLACK
6
CONTINUOUS
10
83.2749999999999915
20
-83.5600000000000023
11
83.2569209999999913
21
-83.6508869999999973
0
LINE
8
BLACK
6
CONTINUOUS
10
83.2569209999999913
20
-83.6508869999999973
11
83.2054380000000009
21
-83.7279379999999946
0
LINE
8
BLACK
6
CONTINUOUS
10
83.2054380000000009
20
-83.7279379999999946
11
83.1283869999999894
21
-83.7794209999999993
0
LINE
8
BLACK
6
CONTINUOUS
10
83.1283869999999894
20
-83.7794209999999993
11
83.0374999999999943
21
-83.7974999999999994
0
LINE
8
BLACK
6
CONTINUOUS
10
83.0374999999999943
20
-83.7974999999999994
11
82.5625
21
-83.7974999999999994
0
LINE
8
BLACK
6
CONTINUOUS
10
82.5625
20
-83.7974999999999994
11
82.4716129999999907
21
-83.7794209999999993
0
LINE
8
BLACK
6
CONTINUOUS
10
82.4716129999999907
20
-83.7794209999999993
11
82.3945619999999934
21
-83.7279379999999946
0
LINE
8
BLACK
6
CONTINUOUS
10
82.3945619999999934
20
-83.7279379999999946
11
82.343079000000003
21
-83.6508869999999973
0
LINE
8
BLACK
6
CONTINUOUS
10
82.343079000000003
20
-83.6508869999999973
11
82.3250000000000028
21
-83.5600000000000023
0
LINE
8
BLACK
6
CONTINUOUS
10
82.3250000000000028
20
-83.5600000000000023
11
82.3250000000000028
21
-82.9599999999999937
0
LINE
8
BLACK
6
CONTINUOUS
10
82.3250000000000028
20
-82.9599999999999937
11
82.343079000000003
21
-82.8691129999999987
0
LINE
8
BLACK
6
CONTINUOUS
10
82.343079000000003
20
-82.8691129999999987
11
82.3945619999999934
21
-82.7920620000000014
0
LINE
8
BLACK
6
CONTINUOUS
10
82.3945619999999934
20
-82.7920620000000014
11
82.4716129999999907
21
-82.7405789999999968
0
LINE
8
BLACK
6
CONTINUOUS
10
82.4716129999999907
20
-82.7405789999999968
11
82.5625
21
-82.7224999999999966
0
LINE
8
BLACK
6
CONTINUOUS
10
82.5625
20
-82.7224999999999966
11
83.0374999999999943
21
-82.7224999999999966
0
LINE
8
BLACK
6
CONTINUOUS
10
83.0374999999999943
20
-82.7224999999999966
11
83.1283869999999894
21
-82.7405789999999968
0
LINE
8
BLACK
6
CONTINUOUS
10
81.6123869999999982
20
-82.7210790000000031
11
81.6894379999999956
21
-82.7725619999999935
0
LINE
8
BLACK
6
CONTINUOUS
10
81.6894379999999956
20
-82.7725619999999935
11
81.7409210000000002
21
-82.8496129999999908
0
LINE
8
BLACK
6
CONTINUOUS
10
81.7409210000000002
20
-82.8496129999999908
11
81.7590000000000003
21
-82.9405000000000001
0
LINE
8
BLACK
6
CONTINUOUS
10
81.7590000000000003
20
-82.9405000000000001
11
81.7590000000000003
21
-83.5404999999999944
0
LINE
8
BLACK
6
CONTINUOUS
10
81.7590000000000003
20
-83.5404999999999944
11
81.7409210000000002
21
-83.6313869999999895
0
LINE
8
BLACK
6
CONTINUOUS
10
81.7409210000000002
20
-83.6313869999999895
11
81.6894379999999956
21
-83.708438000000001
0
LINE
8
BLACK
6
CONTINUOUS
10
81.6894379999999956
20
-83.708438000000001
11
81.6123869999999982
21
-83.7599209999999914
0
LINE
8
BLACK
6
CONTINUOUS
10
81.6123869999999982
20
-83.7599209999999914
11
81.5215000000000032
21
-83.7779999999999916
0
LINE
8
BLACK
6
CONTINUOUS
10
81.5215000000000032
20
-83.7779999999999916
11
81.0464999999999947
21
-83.7779999999999916
0
LINE
8
BLACK
6
CONTINUOUS
10
81.0464999999999947
20
-83.7779999999999916
11
80.9556129999999996
21
-83.7599209999999914
0
LINE
8
BLACK
6
CONTINUOUS
10
80.9556129999999996
20
-83.7599209999999914
11
80.8785620000000023
21
-83.708438000000001
0
LINE
8
BLACK
6
CONTINUOUS
10
80.8785620000000023
20
-83.708438000000001
11
80.8270789999999977
21
-83.6313869999999895
0
LINE
8
BLACK
6
CONTINUOUS
10
80.8270789999999977
20
-83.6313869999999895
11
80.8089999999999975
21
-83.5404999999999944
0
LINE
8
BLACK
6
CONTINUOUS
10
80.8089999999999975
20
-83.5404999999999944
11
80.8089999999999975
21
-82.9405000000000001
0
LINE
8
BLACK
6
CONTINUOUS
10
80.8089999999999975
20
-82.9405000000000001
11
80.8270789999999977
21
-82.8496129999999908
0
LINE
8
BLACK
6
CONTINUOUS
10
80.8270789999999977
20
-82.8496129999999908
11
80.8785620000000023
21
-82.7725619999999935
0
LINE
8
BLACK
6
CONTINUOUS
10
80.8785620000000023
20
-82.7725619999999935
11
80.9556129999999996
21
-82.7210790000000031
0
LINE
8
BLACK
6
CONTINUOUS
10
80.9556129999999996
20
-82.7210790000000031
11
81.0464999999999947
21
-82.703000000000003
0
LINE
8
BLACK
6
CONTINUOUS
10
81.0464999999999947
20
-82.703000000000003
11
81.5215000000000032
21
-82.703000000000003
0
LINE
8
BLACK
6
CONTINUOUS
10
81.5215000000000032
20
-82.703000000000003
11
81.6123869999999982
21
-82.7210790000000031
0
LINE
8
BLACK
6
CONTINUOUS
10
82.5249999999999915
20
-79.5750000000000028
11
82.0750000000000028
21
-79.5750000000000028
0
LINE
8
BLACK
6
CONTINUOUS
10
82.0750000000000028
20
-79.5750000000000028
11
82.0750000000000028
21
-77.8250000000000028
0
LINE
8
BLACK
6
CONTINUOUS
10
82.0750000000000028
20
-77.8250000000000028
11
82.5249999999999915
21
-77.8250000000000028
0
LINE
8
BLACK
6
CONTINUOUS
10
82.5249999999999915
20
-77.8250000000000028
11
82.5249999999999915
21
-79.5750000000000028
0
LINE
8
BLACK
6
CONTINUOUS
10
83.1749999999999972
20
-79.5750000000000028
11
82.7249999999999943
21
-79.5750000000000028
0
LINE
8
BLACK
6
CONTINUOUS
10
82.7249999999999943
20
-79.5750000000000028
11
82.7249999999999943
21
-77.8250000000000028
0
LINE
8
BLACK
6
CONTINUOUS
10
82.7249999999999943
20
-77.8250000000000028
11
83.1749999999999972
21
-77.8250000000000028
0
LINE
8
BLACK
6
CONTINUOUS
10
83.1749999999999972
20
-77.8250000000000028
11
83.1749999999999972
21
-79.5750000000000028
0
LINE
8
BLACK
6
CONTINUOUS
10
83.8250000000000028
20
-79.5750000000000028
11
83.375
21
-79.5750000000000028
0
LINE
8
BLACK
6
CONTINUOUS
10
83.375
20
-79.5750000000000028
11
83.375
21
-77.8250000000000028
0
LINE
8
BLACK
6
CONTINUOUS
10
83.375
20
-77.8250000000000028
11
83.8250000000000028
21
-77.8250000000000028
0
LINE
8
BLACK
6
CONTINUOUS
10
83.8250000000000028
20
-77.8250000000000028
11
83.8250000000000028
21
-79.5750000000000028
0
LINE
8
BLACK
6
CONTINUOUS
10
84.4749999999999943
20
-79.5750000000000028
11
84.0249999999999915
21
-79.5750000000000028
0
LINE
8
BLACK
6
CONTINUOUS
10
84.0249999999999915
20
-79.5750000000000028
11
84.0249999999999915
21
-77.8250000000000028
0
LINE
8
BLACK
6
CONTINUOUS
10
84.0249999999999915
20
-77.8250000000000028
11
84.4749999999999943
21
-77.8250000000000028
0
LINE
8
BLACK
6
CONTINUOUS
10
84.4749999999999943
20
-77.8250000000000028
11
84.4749999999999943
21
-79.5750000000000028
0
LINE
8
BLACK
6
CONTINUOUS
10
85.125
20
-79.5750000000000028
11
84.6749999999999972
21
-79.5750000000000028
0
LINE
8
BLACK
6
CONTINUOUS
10
84.6749999999999972
20
-79.5750000000000028
11
84.6749999999999972
21
-77.8250000000000028
0
LINE
8
BLACK
6
CONTINUOUS
10
84.6749999999999972
20
-77.8250000000000028
11
85.125
21
-77.8250000000000028
0
LINE
8
BLACK
6
CONTINUOUS
10
85.125
20
-77.8250000000000028
11
85.125
21
-79.5750000000000028
0
LINE
8
BLACK
6
CONTINUOUS
10
85.7749999999999915
20
-79.5750000000000028
11
85.3250000000000028
21
-79.5750000000000028
0
LINE
8
BLACK
6
CONTINUOUS
10
85.3250000000000028
20
-79.5750000000000028
11
85.3250000000000028
21
-77.8250000000000028
0
LINE
8
BLACK
6
CONTINUOUS
10
85.3250000000000028
20
-77.8250000000000028
11
85.7749999999999915
21
-77.8250000000000028
0
LINE
8
BLACK
6
CONTINUOUS
10
85.7749999999999915
20
-77.8250000000000028
11
85.7749999999999915
21
-79.5750000000000028
0
LINE
8
BLACK
6
CONTINUOUS
10
86.4249999999999972
20
-79.5750000000000028
11
85.9749999999999943
21
-79.5750000000000028
0
LINE
8
BLACK
6
CONTINUOUS
10
85.9749999999999943
20
-79.5750000000000028
11
85.9749999999999943
21
-77.8250000000000028
0
LINE
8
BLACK
6
CONTINUOUS
10
85.9749999999999943
20
-77.8250000000000028
11
86.4249999999999972
21
-77.8250000000000028
0
LINE
8
BLACK
6
CONTINUOUS
10
86.4249999999999972
20
-77.8250000000000028
11
86.4249999999999972
21
-79.5750000000000028
0
LINE
8
BLACK
6
CONTINUOUS
10
87.0750000000000028
20
-79.5750000000000028
11
86.625
21
-79.5750000000000028
0
LINE
8
BLACK
6
CONTINUOUS
10
86.625
20
-79.5750000000000028
11
86.625
21
-77.8250000000000028
0
LINE
8
BLACK
6
CONTINUOUS
10
86.625
20
-77.8250000000000028
11
87.0750000000000028
21
-77.8250000000000028
0
LINE
8
BLACK
6
CONTINUOUS
10
87.0750000000000028
20
-77.8250000000000028
11
87.0750000000000028
21
-79.5750000000000028
0
LINE
8
BLACK
6
CONTINUOUS
10
87.7249999999999943
20
-79.5750000000000028
11
87.2749999999999915
21
-79.5750000000000028
0
LINE
8
BLACK
6
CONTINUOUS
10
87.2749999999999915
20
-79.5750000000000028
11
87.2749999999999915
21
-77.8250000000000028
0
LINE
8
BLACK
6
CONTINUOUS
10
87.2749999999999915
20
-77.8250000000000028
11
87.7249999999999943
21
-77.8250000000000028
0
LINE
8
BLACK
6
CONTINUOUS
10
87.7249999999999943
20
-77.8250000000000028
11
87.7249999999999943
21
-79.5750000000000028
0
LINE
8
BLACK
6
CONTINUOUS
10
88.375
20
-79.5750000000000028
11
87.9249999999999972
21
-79.5750000000000028
0
LINE
8
BLACK
6
CONTINUOUS
10
87.9249999999999972
20
-79.5750000000000028
11
87.9249999999999972
21
-77.8250000000000028
0
LINE
8
BLACK
6
CONTINUOUS
10
87.9249999999999972
20
-77.8250000000000028
11
88.375
21
-77.8250000000000028
0
LINE
8
BLACK
6
CONTINUOUS
10
88.375
20
-77.8250000000000028
11
88.375
21
-79.5750000000000028
0
LINE
8
BLACK
6
CONTINUOUS
10
89.0249999999999915
20
-79.5750000000000028
11
88.5750000000000028
21
-79.5750000000000028
0
LINE
8
BLACK
6
CONTINUOUS
10
88.5750000000000028
20
-79.5750000000000028
11
88.5750000000000028
21
-77.8250000000000028
0
LINE
8
BLACK
6
CONTINUOUS
10
88.5750000000000028
20
-77.8250000000000028
11
89.0249999999999915
21
-77.8250000000000028
0
LINE
8
BLACK
6
CONTINUOUS
10
89.0249999999999915
20
-77.8250000000000028
11
89.0249999999999915
21
-79.5750000000000028
0
LINE
8
BLACK
6
CONTINUOUS
10
89.6749999999999972
20
-79.5750000000000028
11
89.2249999999999943
21
-79.5750000000000028
0
LINE
8
BLACK
6
CONTINUOUS
10
89.2249999999999943
20
-79.5750000000000028
11
89.2249999999999943
21
-77.8250000000000028
0
LINE
8
BLACK
6
CONTINUOUS
10
89.2249999999999943
20
-77.8250000000000028
11
89.6749999999999972
21
-77.8250000000000028
0
LINE
8
BLACK
6
CONTINUOUS
10
89.6749999999999972
20
-77.8250000000000028
11
89.6749999999999972
21
-79.5750000000000028
0
LINE
8
BLACK
6
CONTINUOUS
10
124.9633869999999973
20
-73.7255789999999962
11
125.0404379999999946
21
-73.7770620000000008
0
LINE
8
BLACK
6
CONTINUOUS
10
125.0404379999999946
20
-73.7770620000000008
11
125.0919209999999993
21
-73.8541129999999981
0
LINE
8
BLACK
6
CONTINUOUS
10
125.0919209999999993
20
-73.8541129999999981
11
125.1099999999999994
21
-73.9449999999999932
0
LINE
8
BLACK
6
CONTINUOUS
10
125.1099999999999994
20
-73.9449999999999932
11
125.1099999999999994
21
-74.5450000000000017
0
LINE
8
BLACK
6
CONTINUOUS
10
125.1099999999999994
20
-74.5450000000000017
11
125.0919209999999993
21
-74.6358869999999968
0
LINE
8
BLACK
6
CONTINUOUS
10
125.0919209999999993
20
-74.6358869999999968
11
125.0404379999999946
21
-74.7129379999999941
0
LINE
8
BLACK
6
CONTINUOUS
10
125.0404379999999946
20
-74.7129379999999941
11
124.9633869999999973
21
-74.7644209999999987
0
LINE
8
BLACK
6
CONTINUOUS
10
124.9633869999999973
20
-74.7644209999999987
11
124.8724999999999881
21
-74.7824999999999989
0
LINE
8
BLACK
6
CONTINUOUS
10
124.8724999999999881
20
-74.7824999999999989
11
124.3974999999999937
21
-74.7824999999999989
0
LINE
8
BLACK
6
CONTINUOUS
10
124.3974999999999937
20
-74.7824999999999989
11
124.3066129999999987
21
-74.7644209999999987
0
LINE
8
BLACK
6
CONTINUOUS
10
124.3066129999999987
20
-74.7644209999999987
11
124.2295620000000014
21
-74.7129379999999941
0
LINE
8
BLACK
6
CONTINUOUS
10
124.2295620000000014
20
-74.7129379999999941
11
124.1780789999999968
21
-74.6358869999999968
0
LINE
8
BLACK
6
CONTINUOUS
10
124.1780789999999968
20
-74.6358869999999968
11
124.1599999999999966
21
-74.5450000000000017
0
LINE
8
BLACK
6
CONTINUOUS
10
124.1599999999999966
20
-74.5450000000000017
11
124.1599999999999966
21
-73.9449999999999932
0
LINE
8
BLACK
6
CONTINUOUS
10
124.1599999999999966
20
-73.9449999999999932
11
124.1780789999999968
21
-73.8541129999999981
0
LINE
8
BLACK
6
CONTINUOUS
10
124.1780789999999968
20
-73.8541129999999981
11
124.2295620000000014
21
-73.7770620000000008
0
LINE
8
BLACK
6
CONTINUOUS
10
124.2295620000000014
20
-73.7770620000000008
11
124.3066129999999987
21
-73.7255789999999962
0
LINE
8
BLACK
6
CONTINUOUS
10
124.3066129999999987
20
-73.7255789999999962
11
124.3974999999999937
21
-73.707499999999996
0
LINE
8
BLACK
6
CONTINUOUS
10
124.3974999999999937
20
-73.707499999999996
11
124.8724999999999881
21
-73.707499999999996
0
LINE
8
BLACK
6
CONTINUOUS
10
124.8724999999999881
20
-73.707499999999996
11
124.9633869999999973
21
-73.7255789999999962
0
LINE
8
BLACK
6
CONTINUOUS
10
126.4433870000000013
20
-73.7255789999999962
11
126.5204379999999986
21
-73.7770620000000008
0
LINE
8
BLACK
6
CONTINUOUS
10
126.5204379999999986
20
-73.7770620000000008
11
126.571920999999989
21
-73.8541129999999981
0
LINE
8
BLACK
6
CONTINUOUS
10
126.571920999999989
20
-73.8541129999999981
11
126.5899999999999892
21
-73.9449999999999932
0
LINE
8
BLACK
6
CONTINUOUS
10
126.5899999999999892
20
-73.9449999999999932
11
126.5899999999999892
21
-74.5450000000000017
0
LINE
8
BLACK
6
CONTINUOUS
10
126.5899999999999892
20
-74.5450000000000017
11
126.571920999999989
21
-74.6358869999999968
0
LINE
8
BLACK
6
CONTINUOUS
10
126.571920999999989
20
-74.6358869999999968
11
126.5204379999999986
21
-74.7129379999999941
0
LINE
8
BLACK
6
CONTINUOUS
10
126.5204379999999986
20
-74.7129379999999941
11
126.4433870000000013
21
-74.7644209999999987
0
LINE
8
BLACK
6
CONTINUOUS
10
126.4433870000000013
20
-74.7644209999999987
11
126.352499999999992
21
-74.7824999999999989
0
LINE
8
BLACK
6
CONTINUOUS
10
126.352499999999992
20
-74.7824999999999989
11
125.8774999999999977
21
-74.7824999999999989
0
LINE
8
BLACK
6
CONTINUOUS
10
125.8774999999999977
20
-74.7824999999999989
11
125.7866129999999885
21
-74.7644209999999987
0
LINE
8
BLACK
6
CONTINUOUS
10
125.7866129999999885
20
-74.7644209999999987
11
125.7095619999999911
21
-74.7129379999999941
0
LINE
8
BLACK
6
CONTINUOUS
10
125.7095619999999911
20
-74.7129379999999941
11
125.6580790000000007
21
-74.6358869999999968
0
LINE
8
BLACK
6
CONTINUOUS
10
125.6580790000000007
20
-74.6358869999999968
11
125.6400000000000006
21
-74.5450000000000017
0
LINE
8
BLACK
6
CONTINUOUS
10
125.6400000000000006
20
-74.5450000000000017
11
125.6400000000000006
21
-73.9449999999999932
0
LINE
8
BLACK
6
CONTINUOUS
10
125.6400000000000006
20
-73.9449999999999932
11
125.6580790000000007
21
-73.8541129999999981
0
LINE
8
BLACK
6
CONTINUOUS
10
125.6580790000000007
20
-73.8541129999999981
11
125.7095619999999911
21
-73.7770620000000008
0
LINE
8
BLACK
6
CONTINUOUS
10
125.7095619999999911
20
-73.7770620000000008
11
125.7866129999999885
21
-73.7255789999999962
0
LINE
8
BLACK
6
CONTINUOUS
10
125.7866129999999885
20
-73.7255789999999962
11
125.8774999999999977
21
-73.707499999999996
0
LINE
8
BLACK
6
CONTINUOUS
10
125.8774999999999977
20
-73.707499999999996
11
126.352499999999992
21
-73.707499999999996
0
LINE
8
BLACK
6
CONTINUOUS
10
126.352499999999992
20
-73.707499999999996
11
126.4433870000000013
21
-73.7255789999999962
0
LINE
8
BLACK
6
CONTINUOUS
10
124.9633869999999973
20
-72.0005790000000019
11
125.0404379999999946
21
-72.0520619999999923
0
LINE
8
BLACK
6
CONTINUOUS
10
125.0404379999999946
20
-72.0520619999999923
11
125.0919209999999993
21
-72.1291130000000038
0
LINE
8
BLACK
6
CONTINUOUS
10
125.0919209999999993
20
-72.1291130000000038
11
125.1099999999999994
21
-72.2199999999999989
0
LINE
8
BLACK
6
CONTINUOUS
10
125.1099999999999994
20
-72.2199999999999989
11
125.1099999999999994
21
-72.8199999999999932
0
LINE
8
BLACK
6
CONTINUOUS
10
125.1099999999999994
20
-72.8199999999999932
11
125.0919209999999993
21
-72.9108870000000024
0
LINE
8
BLACK
6
CONTINUOUS
10
125.0919209999999993
20
-72.9108870000000024
11
125.0404379999999946
21
-72.9879379999999998
0
LINE
8
BLACK
6
CONTINUOUS
10
125.0404379999999946
20
-72.9879379999999998
11
124.9633869999999973
21
-73.0394209999999902
0
LINE
8
BLACK
6
CONTINUOUS
10
124.9633869999999973
20
-73.0394209999999902
11
124.8724999999999881
21
-73.0574999999999903
0
LINE
8
BLACK
6
CONTINUOUS
10
124.8724999999999881
20
-73.0574999999999903
11
124.3974999999999937
21
-73.0574999999999903
0
LINE
8
BLACK
6
CONTINUOUS
10
124.3974999999999937
20
-73.0574999999999903
11
124.3066129999999987
21
-73.0394209999999902
0
LINE
8
BLACK
6
CONTINUOUS
10
124.3066129999999987
20
-73.0394209999999902
11
124.2295620000000014
21
-72.9879379999999998
0
LINE
8
BLACK
6
CONTINUOUS
10
124.2295620000000014
20
-72.9879379999999998
11
124.1780789999999968
21
-72.9108870000000024
0
LINE
8
BLACK
6
CONTINUOUS
10
124.1780789999999968
20
-72.9108870000000024
11
124.1599999999999966
21
-72.8199999999999932
0
LINE
8
BLACK
6
CONTINUOUS
10
124.1599999999999966
20
-72.8199999999999932
11
124.1599999999999966
21
-72.2199999999999989
0
LINE
8
BLACK
6
CONTINUOUS
10
124.1599999999999966
20
-72.2199999999999989
11
124.1780789999999968
21
-72.1291130000000038
0
LINE
8
BLACK
6
CONTINUOUS
10
124.1780789999999968
20
-72.1291130000000038
11
124.2295620000000014
21
-72.0520619999999923
0
LINE
8
BLACK
6
CONTINUOUS
10
124.2295620000000014
20
-72.0520619999999923
11
124.3066129999999987
21
-72.0005790000000019
0
LINE
8
BLACK
6
CONTINUOUS
10
124.3066129999999987
20
-72.0005790000000019
11
124.3974999999999937
21
-71.9825000000000017
0
LINE
8
BLACK
6
CONTINUOUS
10
124.3974999999999937
20
-71.9825000000000017
11
124.8724999999999881
21
-71.9825000000000017
0
LINE
8
BLACK
6
CONTINUOUS
10
124.8724999999999881
20
-71.9825000000000017
11
124.9633869999999973
21
-72.0005790000000019
0
LINE
8
BLACK
6
CONTINUOUS
10
126.4433870000000013
20
-72.0005790000000019
11
126.5204379999999986
21
-72.0520619999999923
0
LINE
8
BLACK
6
CONTINUOUS
10
126.5204379999999986
20
-72.0520619999999923
11
126.571920999999989
21
-72.1291130000000038
0
LINE
8
BLACK
6
CONTINUOUS
10
126.571920999999989
20
-72.1291130000000038
11
126.5899999999999892
21
-72.2199999999999989
0
LINE
8
BLACK
6
CONTINUOUS
10
126.5899999999999892
20
-72.2199999999999989
11
126.5899999999999892
21
-72.8199999999999932
0
LINE
8
BLACK
6
CONTINUOUS
10
126.5899999999999892
20
-72.8199999999999932
11
126.571920999999989
21
-72.9108870000000024
0
LINE
8
BLACK
6
CONTINUOUS
10
126.571920999999989
20
-72.9108870000000024
11
126.5204379999999986
21
-72.9879379999999998
0
LINE
8
BLACK
6
CONTINUOUS
10
126.5204379999999986
20
-72.9879379999999998
11
126.4433870000000013
21
-73.0394209999999902
0
LINE
8
BLACK
6
CONTINUOUS
10
126.4433870000000013
20
-73.0394209999999902
11
126.352499999999992
21
-73.0574999999999903
0
LINE
8
BLACK
6
CONTINUOUS
10
126.352499999999992
20
-73.0574999999999903
11
125.8774999999999977
21
-73.0574999999999903
0
LINE
8
BLACK
6
CONTINUOUS
10
125.8774999999999977
20
-73.0574999999999903
11
125.7866129999999885
21
-73.0394209999999902
0
LINE
8
BLACK
6
CONTINUOUS
10
125.7866129999999885
20
-73.0394209999999902
11
125.7095619999999911
21
-72.9879379999999998
0
LINE
8
BLACK
6
CONTINUOUS
10
125.7095619999999911
20
-72.9879379999999998
11
125.6580790000000007
21
-72.9108870000000024
0
LINE
8
BLACK
6
CONTINUOUS
10
125.6580790000000007
20
-72.9108870000000024
11
125.6400000000000006
21
-72.8199999999999932
0
LINE
8
BLACK
6
CONTINUOUS
10
125.6400000000000006
20
-72.8199999999999932
11
125.6400000000000006
21
-72.2199999999999989
0
LINE
8
BLACK
6
CONTINUOUS
10
125.6400000000000006
20
-72.2199999999999989
11
125.6580790000000007
21
-72.1291130000000038
0
LINE
8
BLACK
6
CONTINUOUS
10
125.6580790000000007
20
-72.1291130000000038
11
125.7095619999999911
21
-72.0520619999999923
0
LINE
8
BLACK
6
CONTINUOUS
10
125.7095619999999911
20
-72.0520619999999923
11
125.7866129999999885
21
-72.0005790000000019
0
LINE
8
BLACK
6
CONTINUOUS
10
125.7866129999999885
20
-72.0005790000000019
11
125.8774999999999977
21
-71.9825000000000017
0
LINE
8
BLACK
6
CONTINUOUS
10
125.8774999999999977
20
-71.9825000000000017
11
126.352499999999992
21
-71.9825000000000017
0
LINE
8
BLACK
6
CONTINUOUS
10
126.352499999999992
20
-71.9825000000000017
11
126.4433870000000013
21
-72.0005790000000019
0
LINE
8
BLACK
6
CONTINUOUS
10
82.5249999999999915
20
-72.375
11
82.0750000000000028
21
-72.375
0
LINE
8
BLACK
6
CONTINUOUS
10
82.0750000000000028
20
-72.375
11
82.0750000000000028
21
-70.625
0
LINE
8
BLACK
6
CONTINUOUS
10
82.0750000000000028
20
-70.625
11
82.5249999999999915
21
-70.625
0
LINE
8
BLACK
6
CONTINUOUS
10
82.5249999999999915
20
-70.625
11
82.5249999999999915
21
-72.375
0
LINE
8
BLACK
6
CONTINUOUS
10
83.1749999999999972
20
-72.375
11
82.7249999999999943
21
-72.375
0
LINE
8
BLACK
6
CONTINUOUS
10
82.7249999999999943
20
-72.375
11
82.7249999999999943
21
-70.625
0
LINE
8
BLACK
6
CONTINUOUS
10
82.7249999999999943
20
-70.625
11
83.1749999999999972
21
-70.625
0
LINE
8
BLACK
6
CONTINUOUS
10
83.1749999999999972
20
-70.625
11
83.1749999999999972
21
-72.375
0
LINE
8
BLACK
6
CONTINUOUS
10
83.8250000000000028
20
-72.375
11
83.375
21
-72.375
0
LINE
8
BLACK
6
CONTINUOUS
10
83.375
20
-72.375
11
83.375
21
-70.625
0
LINE
8
BLACK
6
CONTINUOUS
10
83.375
20
-70.625
11
83.8250000000000028
21
-70.625
0
LINE
8
BLACK
6
CONTINUOUS
10
83.8250000000000028
20
-70.625
11
83.8250000000000028
21
-72.375
0
LINE
8
BLACK
6
CONTINUOUS
10
84.4749999999999943
20
-72.375
11
84.0249999999999915
21
-72.375
0
LINE
8
BLACK
6
CONTINUOUS
10
84.0249999999999915
20
-72.375
11
84.0249999999999915
21
-70.625
0
LINE
8
BLACK
6
CONTINUOUS
10
84.0249999999999915
20
-70.625
11
84.4749999999999943
21
-70.625
0
LINE
8
BLACK
6
CONTINUOUS
10
84.4749999999999943
20
-70.625
11
84.4749999999999943
21
-72.375
0
LINE
8
BLACK
6
CONTINUOUS
10
85.125
20
-72.375
11
84.6749999999999972
21
-72.375
0
LINE
8
BLACK
6
CONTINUOUS
10
84.6749999999999972
20
-72.375
11
84.6749999999999972
21
-70.625
0
LINE
8
BLACK
6
CONTINUOUS
10
84.6749999999999972
20
-70.625
11
85.125
21
-70.625
0
LINE
8
BLACK
6
CONTINUOUS
10
85.125
20
-70.625
11
85.125
21
-72.375
0
LINE
8
BLACK
6
CONTINUOUS
10
85.7749999999999915
20
-72.375
11
85.3250000000000028
21
-72.375
0
LINE
8
BLACK
6
CONTINUOUS
10
85.3250000000000028
20
-72.375
11
85.3250000000000028
21
-70.625
0
LINE
8
BLACK
6
CONTINUOUS
10
85.3250000000000028
20
-70.625
11
85.7749999999999915
21
-70.625
0
LINE
8
BLACK
6
CONTINUOUS
10
85.7749999999999915
20
-70.625
11
85.7749999999999915
21
-72.375
0
LINE
8
BLACK
6
CONTINUOUS
10
86.4249999999999972
20
-72.375
11
85.9749999999999943
21
-72.375
0
LINE
8
BLACK
6
CONTINUOUS
10
85.9749999999999943
20
-72.375
11
85.9749999999999943
21
-70.625
0
LINE
8
BLACK
6
CONTINUOUS
10
85.9749999999999943
20
-70.625
11
86.4249999999999972
21
-70.625
0
LINE
8
BLACK
6
CONTINUOUS
10
86.4249999999999972
20
-70.625
11
86.4249999999999972
21
-72.375
0
LINE
8
BLACK
6
CONTINUOUS
10
87.0750000000000028
20
-72.375
11
86.625
21
-72.375
0
LINE
8
BLACK
6
CONTINUOUS
10
86.625
20
-72.375
11
86.625
21
-70.625
0
LINE
8
BLACK
6
CONTINUOUS
10
86.625
20
-70.625
11
87.0750000000000028
21
-70.625
0
LINE
8
BLACK
6
CONTINUOUS
10
87.0750000000000028
20
-70.625
11
87.0750000000000028
21
-72.375
0
LINE
8
BLACK
6
CONTINUOUS
10
87.7249999999999943
20
-72.375
11
87.2749999999999915
21
-72.375
0
LINE
8
BLACK
6
CONTINUOUS
10
87.2749999999999915
20
-72.375
11
87.2749999999999915
21
-70.625
0
LINE
8
BLACK
6
CONTINUOUS
10
87.2749999999999915
20
-70.625
11
87.7249999999999943
21
-70.625
0
LINE
8
BLACK
6
CONTINUOUS
10
87.7249999999999943
20
-70.625
11
87.7249999999999943
21
-72.375
0
LINE
8
BLACK
6
CONTINUOUS
10
88.375
20
-72.375
11
87.9249999999999972
21
-72.375
0
LINE
8
BLACK
6
CONTINUOUS
10
87.9249999999999972
20
-72.375
11
87.9249999999999972
21
-70.625
0
LINE
8
BLACK
6
CONTINUOUS
10
87.9249999999999972
20
-70.625
11
88.375
21
-70.625
0
LINE
8
BLACK
6
CONTINUOUS
10
88.375
20
-70.625
11
88.375
21
-72.375
0
LINE
8
BLACK
6
CONTINUOUS
10
89.0249999999999915
20
-72.375
11
88.5750000000000028
21
-72.375
0
LINE
8
BLACK
6
CONTINUOUS
10
88.5750000000000028
20
-72.375
11
88.5750000000000028
21
-70.625
0
LINE
8
BLACK
6
CONTINUOUS
10
88.5750000000000028
20
-70.625
11
89.0249999999999915
21
-70.625
0
LINE
8
BLACK
6
CONTINUOUS
10
89.0249999999999915
20
-70.625
11
89.0249999999999915
21
-72.375
0
LINE
8
BLACK
6
CONTINUOUS
10
89.6749999999999972
20
-72.375
11
89.2249999999999943
21
-72.375
0
LINE
8
BLACK
6
CONTINUOUS
10
89.2249999999999943
20
-72.375
11
89.2249999999999943
21
-70.625
0
LINE
8
BLACK
6
CONTINUOUS
10
89.2249999999999943
20
-70.625
11
89.6749999999999972
21
-70.625
0
LINE
8
BLACK
6
CONTINUOUS
10
89.6749999999999972
20
-70.625
11
89.6749999999999972
21
-72.375
0
LINE
8
BLACK
6
CONTINUOUS
10
117.4050000000000011
20
-70.9599999999999937
11
117.0049999999999955
21
-70.9599999999999937
0
LINE
8
BLACK
6
CONTINUOUS
10
117.0049999999999955
20
-70.9599999999999937
11
117.0049999999999955
21
-70.5600000000000023
0
LINE
8
BLACK
6
CONTINUOUS
10
117.0049999999999955
20
-70.5600000000000023
11
117.4050000000000011
21
-70.5600000000000023
0
LINE
8
BLACK
6
CONTINUOUS
10
117.4050000000000011
20
-70.5600000000000023
11
117.4050000000000011
21
-70.9599999999999937
0
LINE
8
BLACK
6
CONTINUOUS
10
133.9050000000000011
20
-70.5300000000000011
11
133.5049999999999955
21
-70.5300000000000011
0
LINE
8
BLACK
6
CONTINUOUS
10
133.5049999999999955
20
-70.5300000000000011
11
133.5049999999999955
21
-70.1299999999999955
0
LINE
8
BLACK
6
CONTINUOUS
10
133.5049999999999955
20
-70.1299999999999955
11
133.9050000000000011
21
-70.1299999999999955
0
LINE
8
BLACK
6
CONTINUOUS
10
133.9050000000000011
20
-70.1299999999999955
11
133.9050000000000011
21
-70.5300000000000011
0
LINE
8
BLACK
6
CONTINUOUS
10
124.0749999999999886
20
-70.4899999999999949
11
123.7749999999999915
21
-70.4899999999999949
0
LINE
8
BLACK
6
CONTINUOUS
10
123.7749999999999915
20
-70.4899999999999949
11
123.7749999999999915
21
-70.1400000000000006
0
LINE
8
BLACK
6
CONTINUOUS
10
123.7749999999999915
20
-70.1400000000000006
11
123.9249999999999972
21
-69.9899999999999949
0
LINE
8
BLACK
6
CONTINUOUS
10
123.9249999999999972
20
-69.9899999999999949
11
124.0749999999999886
21
-69.9899999999999949
0
LINE
8
BLACK
6
CONTINUOUS
10
124.0749999999999886
20
-69.9899999999999949
11
124.0749999999999886
21
-70.4899999999999949
0
LINE
8
BLACK
6
CONTINUOUS
10
124.5749999999999886
20
-70.4899999999999949
11
124.2749999999999915
21
-70.4899999999999949
0
LINE
8
BLACK
6
CONTINUOUS
10
124.2749999999999915
20
-70.4899999999999949
11
124.2749999999999915
21
-69.9399999999999977
0
LINE
8
BLACK
6
CONTINUOUS
10
124.2749999999999915
20
-69.9399999999999977
11
124.5749999999999886
21
-69.9399999999999977
0
LINE
8
BLACK
6
CONTINUOUS
10
124.5749999999999886
20
-69.9399999999999977
11
124.5749999999999886
21
-70.4899999999999949
0
LINE
8
BLACK
6
CONTINUOUS
10
125.0749999999999886
20
-70.4899999999999949
11
124.7749999999999915
21
-70.4899999999999949
0
LINE
8
BLACK
6
CONTINUOUS
10
124.7749999999999915
20
-70.4899999999999949
11
124.7749999999999915
21
-69.9399999999999977
0
LINE
8
BLACK
6
CONTINUOUS
10
124.7749999999999915
20
-69.9399999999999977
11
125.0749999999999886
21
-69.9399999999999977
0
LINE
8
BLACK
6
CONTINUOUS
10
125.0749999999999886
20
-69.9399999999999977
11
125.0749999999999886
21
-70.4899999999999949
0
LINE
8
BLACK
6
CONTINUOUS
10
125.5749999999999886
20
-70.4899999999999949
11
125.2749999999999915
21
-70.4899999999999949
0
LINE
8
BLACK
6
CONTINUOUS
10
125.2749999999999915
20
-70.4899999999999949
11
125.2749999999999915
21
-69.6400000000000006
0
LINE
8
BLACK
6
CONTINUOUS
10
125.2749999999999915
20
-69.6400000000000006
11
125.5749999999999886
21
-69.6400000000000006
0
LINE
8
BLACK
6
CONTINUOUS
10
125.5749999999999886
20
-69.6400000000000006
11
125.5749999999999886
21
-70.4899999999999949
0
LINE
8
BLACK
6
CONTINUOUS
10
126.0749999999999886
20
-70.4899999999999949
11
125.7749999999999915
21
-70.4899999999999949
0
LINE
8
BLACK
6
CONTINUOUS
10
125.7749999999999915
20
-70.4899999999999949
11
125.7749999999999915
21
-69.9399999999999977
0
LINE
8
BLACK
6
CONTINUOUS
10
125.7749999999999915
20
-69.9399999999999977
11
126.0749999999999886
21
-69.9399999999999977
0
LINE
8
BLACK
6
CONTINUOUS
10
126.0749999999999886
20
-69.9399999999999977
11
126.0749999999999886
21
-70.4899999999999949
0
LINE
8
BLACK
6
CONTINUOUS
10
126.5749999999999886
20
-70.4899999999999949
11
126.2749999999999915
21
-70.4899999999999949
0
LINE
8
BLACK
6
CONTINUOUS
10
126.2749999999999915
20
-70.4899999999999949
11
126.2749999999999915
21
-69.9399999999999977
0
LINE
8
BLACK
6
CONTINUOUS
10
126.2749999999999915
20
-69.9399999999999977
11
126.5749999999999886
21
-69.9399999999999977
0
LINE
8
BLACK
6
CONTINUOUS
10
126.5749999999999886
20
-69.9399999999999977
11
126.5749999999999886
21
-70.4899999999999949
0
LINE
8
BLACK
6
CONTINUOUS
10
127.0749999999999886
20
-70.1400000000000006
11
127.0749999999999886
21
-70.4899999999999949
0
LINE
8
BLACK
6
CONTINUOUS
10
127.0749999999999886
20
-70.4899999999999949
11
126.7749999999999915
21
-70.4899999999999949
0
LINE
8
BLACK
6
CONTINUOUS
10
126.7749999999999915
20
-70.4899999999999949
11
126.7749999999999915
21
-69.9899999999999949
0
LINE
8
BLACK
6
CONTINUOUS
10
126.7749999999999915
20
-69.9899999999999949
11
126.9249999999999972
21
-69.9899999999999949
0
LINE
8
BLACK
6
CONTINUOUS
10
126.9249999999999972
20
-69.9899999999999949
11
127.0749999999999886
21
-70.1400000000000006
0
LINE
8
BLACK
6
CONTINUOUS
10
117.4050000000000011
20
-70.1199999999999903
11
117.0049999999999955
21
-70.1199999999999903
0
LINE
8
BLACK
6
CONTINUOUS
10
117.0049999999999955
20
-70.1199999999999903
11
117.0049999999999955
21
-69.7199999999999989
0
LINE
8
BLACK
6
CONTINUOUS
10
117.0049999999999955
20
-69.7199999999999989
11
117.4050000000000011
21
-69.7199999999999989
0
LINE
8
BLACK
6
CONTINUOUS
10
117.4050000000000011
20
-69.7199999999999989
11
117.4050000000000011
21
-70.1199999999999903
0
LINE
8
BLACK
6
CONTINUOUS
10
123.7749999999999915
20
-69.6899999999999977
11
123.7749999999999915
21
-69.8400000000000034
0
LINE
8
BLACK
6
CONTINUOUS
10
123.7749999999999915
20
-69.8400000000000034
11
123.625
21
-69.9899999999999949
0
LINE
8
BLACK
6
CONTINUOUS
10
123.625
20
-69.9899999999999949
11
123.2749999999999915
21
-69.9899999999999949
0
LINE
8
BLACK
6
CONTINUOUS
10
123.2749999999999915
20
-69.9899999999999949
11
123.2749999999999915
21
-69.6899999999999977
0
LINE
8
BLACK
6
CONTINUOUS
10
123.2749999999999915
20
-69.6899999999999977
11
123.7749999999999915
21
-69.6899999999999977
0
LINE
8
BLACK
6
CONTINUOUS
10
127.5749999999999886
20
-69.9899999999999949
11
127.2249999999999943
21
-69.9899999999999949
0
LINE
8
BLACK
6
CONTINUOUS
10
127.2249999999999943
20
-69.9899999999999949
11
127.0749999999999886
21
-69.8400000000000034
0
LINE
8
BLACK
6
CONTINUOUS
10
127.0749999999999886
20
-69.8400000000000034
11
127.0749999999999886
21
-69.6899999999999977
0
LINE
8
BLACK
6
CONTINUOUS
10
127.0749999999999886
20
-69.6899999999999977
11
127.5749999999999886
21
-69.6899999999999977
0
LINE
8
BLACK
6
CONTINUOUS
10
127.5749999999999886
20
-69.6899999999999977
11
127.5749999999999886
21
-69.9899999999999949
0
LINE
8
BLACK
6
CONTINUOUS
10
133.9050000000000011
20
-69.6899999999999977
11
133.5049999999999955
21
-69.6899999999999977
0
LINE
8
BLACK
6
CONTINUOUS
10
133.5049999999999955
20
-69.6899999999999977
11
133.5049999999999955
21
-69.289999999999992
0
LINE
8
BLACK
6
CONTINUOUS
10
133.5049999999999955
20
-69.289999999999992
11
133.9050000000000011
21
-69.289999999999992
0
LINE
8
BLACK
6
CONTINUOUS
10
133.9050000000000011
20
-69.289999999999992
11
133.9050000000000011
21
-69.6899999999999977
0
LINE
8
BLACK
6
CONTINUOUS
10
91.1783870000000007
20
-68.6180789999999945
11
91.2554379999999981
21
-68.6695619999999991
0
LINE
8
BLACK
6
CONTINUOUS
10
91.2554379999999981
20
-68.6695619999999991
11
91.3069210000000027
21
-68.7466129999999964
0
LINE
8
BLACK
6
CONTINUOUS
10
91.3069210000000027
20
-68.7466129999999964
11
91.3250000000000028
21
-68.8374999999999915
0
LINE
8
BLACK
6
CONTINUOUS
10
91.3250000000000028
20
-68.8374999999999915
11
91.3250000000000028
21
-69.4375
0
LINE
8
BLACK
6
CONTINUOUS
10
91.3250000000000028
20
-69.4375
11
91.3069210000000027
21
-69.5283869999999951
0
LINE
8
BLACK
6
CONTINUOUS
10
91.3069210000000027
20
-69.5283869999999951
11
91.2554379999999981
21
-69.6054379999999924
0
LINE
8
BLACK
6
CONTINUOUS
10
91.2554379999999981
20
-69.6054379999999924
11
91.1783870000000007
21
-69.656920999999997
0
LINE
8
BLACK
6
CONTINUOUS
10
91.1783870000000007
20
-69.656920999999997
11
91.0874999999999915
21
-69.6749999999999972
0
LINE
8
BLACK
6
CONTINUOUS
10
91.0874999999999915
20
-69.6749999999999972
11
90.6124999999999972
21
-69.6749999999999972
0
LINE
8
BLACK
6
CONTINUOUS
10
90.6124999999999972
20
-69.6749999999999972
11
90.5216130000000021
21
-69.656920999999997
0
LINE
8
BLACK
6
CONTINUOUS
10
90.5216130000000021
20
-69.656920999999997
11
90.4445619999999906
21
-69.6054379999999924
0
LINE
8
BLACK
6
CONTINUOUS
10
90.4445619999999906
20
-69.6054379999999924
11
90.3930790000000002
21
-69.5283869999999951
0
LINE
8
BLACK
6
CONTINUOUS
10
90.3930790000000002
20
-69.5283869999999951
11
90.375
21
-69.4375
0
LINE
8
BLACK
6
CONTINUOUS
10
90.375
20
-69.4375
11
90.375
21
-68.8374999999999915
0
LINE
8
BLACK
6
CONTINUOUS
10
90.375
20
-68.8374999999999915
11
90.3930790000000002
21
-68.7466129999999964
0
LINE
8
BLACK
6
CONTINUOUS
10
90.3930790000000002
20
-68.7466129999999964
11
90.4445619999999906
21
-68.6695619999999991
0
LINE
8
BLACK
6
CONTINUOUS
10
90.4445619999999906
20
-68.6695619999999991
11
90.5216130000000021
21
-68.6180789999999945
0
LINE
8
BLACK
6
CONTINUOUS
10
90.5216130000000021
20
-68.6180789999999945
11
90.6124999999999972
21
-68.5999999999999943
0
LINE
8
BLACK
6
CONTINUOUS
10
90.6124999999999972
20
-68.5999999999999943
11
91.0874999999999915
21
-68.5999999999999943
0
LINE
8
BLACK
6
CONTINUOUS
10
91.0874999999999915
20
-68.5999999999999943
11
91.1783870000000007
21
-68.6180789999999945
0
LINE
8
BLACK
6
CONTINUOUS
10
89.6183869999999985
20
-68.6055789999999917
11
89.6954379999999958
21
-68.6570619999999963
0
LINE
8
BLACK
6
CONTINUOUS
10
89.6954379999999958
20
-68.6570619999999963
11
89.7469210000000004
21
-68.7341129999999936
0
LINE
8
BLACK
6
CONTINUOUS
10
89.7469210000000004
20
-68.7341129999999936
11
89.7650000000000006
21
-68.8250000000000028
0
LINE
8
BLACK
6
CONTINUOUS
10
89.7650000000000006
20
-68.8250000000000028
11
89.7650000000000006
21
-69.4249999999999972
0
LINE
8
BLACK
6
CONTINUOUS
10
89.7650000000000006
20
-69.4249999999999972
11
89.7469210000000004
21
-69.5158869999999922
0
LINE
8
BLACK
6
CONTINUOUS
10
89.7469210000000004
20
-69.5158869999999922
11
89.6954379999999958
21
-69.5929380000000037
0
LINE
8
BLACK
6
CONTINUOUS
10
89.6954379999999958
20
-69.5929380000000037
11
89.6183869999999985
21
-69.6444209999999941
0
LINE
8
BLACK
6
CONTINUOUS
10
89.6183869999999985
20
-69.6444209999999941
11
89.5274999999999892
21
-69.6624999999999943
0
LINE
8
BLACK
6
CONTINUOUS
10
89.5274999999999892
20
-69.6624999999999943
11
89.0524999999999949
21
-69.6624999999999943
0
LINE
8
BLACK
6
CONTINUOUS
10
89.0524999999999949
20
-69.6624999999999943
11
88.9616129999999998
21
-69.6444209999999941
0
LINE
8
BLACK
6
CONTINUOUS
10
88.9616129999999998
20
-69.6444209999999941
11
88.8845620000000025
21
-69.5929380000000037
0
LINE
8
BLACK
6
CONTINUOUS
10
88.8845620000000025
20
-69.5929380000000037
11
88.8330789999999979
21
-69.5158869999999922
0
LINE
8
BLACK
6
CONTINUOUS
10
88.8330789999999979
20
-69.5158869999999922
11
88.8149999999999977
21
-69.4249999999999972
0
LINE
8
BLACK
6
CONTINUOUS
10
88.8149999999999977
20
-69.4249999999999972
11
88.8149999999999977
21
-68.8250000000000028
0
LINE
8
BLACK
6
CONTINUOUS
10
88.8149999999999977
20
-68.8250000000000028
11
88.8330789999999979
21
-68.7341129999999936
0
LINE
8
BLACK
6
CONTINUOUS
10
88.8330789999999979
20
-68.7341129999999936
11
88.8845620000000025
21
-68.6570619999999963
0
LINE
8
BLACK
6
CONTINUOUS
10
88.8845620000000025
20
-68.6570619999999963
11
88.9616129999999998
21
-68.6055789999999917
0
LINE
8
BLACK
6
CONTINUOUS
10
88.9616129999999998
20
-68.6055789999999917
11
89.0524999999999949
21
-68.5874999999999915
0
LINE
8
BLACK
6
CONTINUOUS
10
89.0524999999999949
20
-68.5874999999999915
11
89.5274999999999892
21
-68.5874999999999915
0
LINE
8
BLACK
6
CONTINUOUS
10
89.5274999999999892
20
-68.5874999999999915
11
89.6183869999999985
21
-68.6055789999999917
0
LINE
8
BLACK
6
CONTINUOUS
10
81.508386999999999
20
-68.5755789999999905
11
81.5854379999999964
21
-68.6270619999999951
0
LINE
8
BLACK
6
CONTINUOUS
10
81.5854379999999964
20
-68.6270619999999951
11
81.636921000000001
21
-68.7041129999999924
0
LINE
8
BLACK
6
CONTINUOUS
10
81.636921000000001
20
-68.7041129999999924
11
81.6550000000000011
21
-68.7950000000000017
0
LINE
8
BLACK
6
CONTINUOUS
10
81.6550000000000011
20
-68.7950000000000017
11
81.6550000000000011
21
-69.394999999999996
0
LINE
8
BLACK
6
CONTINUOUS
10
81.6550000000000011
20
-69.394999999999996
11
81.636921000000001
21
-69.4858869999999911
0
LINE
8
BLACK
6
CONTINUOUS
10
81.636921000000001
20
-69.4858869999999911
11
81.5854379999999964
21
-69.5629380000000026
0
LINE
8
BLACK
6
CONTINUOUS
10
81.5854379999999964
20
-69.5629380000000026
11
81.508386999999999
21
-69.614420999999993
0
LINE
8
BLACK
6
CONTINUOUS
10
81.508386999999999
20
-69.614420999999993
11
81.4174999999999898
21
-69.6324999999999932
0
LINE
8
BLACK
6
CONTINUOUS
10
81.4174999999999898
20
-69.6324999999999932
11
80.9424999999999955
21
-69.6324999999999932
0
LINE
8
BLACK
6
CONTINUOUS
10
80.9424999999999955
20
-69.6324999999999932
11
80.8516130000000004
21
-69.614420999999993
0
LINE
8
BLACK
6
CONTINUOUS
10
80.8516130000000004
20
-69.614420999999993
11
80.7745620000000031
21
-69.5629380000000026
0
LINE
8
BLACK
6
CONTINUOUS
10
80.7745620000000031
20
-69.5629380000000026
11
80.7230789999999985
21
-69.4858869999999911
0
LINE
8
BLACK
6
CONTINUOUS
10
80.7230789999999985
20
-69.4858869999999911
11
80.7049999999999983
21
-69.394999999999996
0
LINE
8
BLACK
6
CONTINUOUS
10
80.7049999999999983
20
-69.394999999999996
11
80.7049999999999983
21
-68.7950000000000017
0
LINE
8
BLACK
6
CONTINUOUS
10
80.7049999999999983
20
-68.7950000000000017
11
80.7230789999999985
21
-68.7041129999999924
0
LINE
8
BLACK
6
CONTINUOUS
10
80.7230789999999985
20
-68.7041129999999924
11
80.7745620000000031
21
-68.6270619999999951
0
LINE
8
BLACK
6
CONTINUOUS
10
80.7745620000000031
20
-68.6270619999999951
11
80.8516130000000004
21
-68.5755789999999905
0
LINE
8
BLACK
6
CONTINUOUS
10
80.8516130000000004
20
-68.5755789999999905
11
80.9424999999999955
21
-68.5574999999999903
0
LINE
8
BLACK
6
CONTINUOUS
10
80.9424999999999955
20
-68.5574999999999903
11
81.4174999999999898
21
-68.5574999999999903
0
LINE
8
BLACK
6
CONTINUOUS
10
81.4174999999999898
20
-68.5574999999999903
11
81.508386999999999
21
-68.5755789999999905
0
LINE
8
BLACK
6
CONTINUOUS
10
83.0883869999999973
20
-68.5630790000000019
11
83.1654379999999946
21
-68.6145619999999923
0
LINE
8
BLACK
6
CONTINUOUS
10
83.1654379999999946
20
-68.6145619999999923
11
83.2169209999999993
21
-68.6916130000000038
0
LINE
8
BLACK
6
CONTINUOUS
10
83.2169209999999993
20
-68.6916130000000038
11
83.2349999999999994
21
-68.7824999999999989
0
LINE
8
BLACK
6
CONTINUOUS
10
83.2349999999999994
20
-68.7824999999999989
11
83.2349999999999994
21
-69.3824999999999932
0
LINE
8
BLACK
6
CONTINUOUS
10
83.2349999999999994
20
-69.3824999999999932
11
83.2169209999999993
21
-69.4733870000000024
0
LINE
8
BLACK
6
CONTINUOUS
10
83.2169209999999993
20
-69.4733870000000024
11
83.1654379999999946
21
-69.5504379999999998
0
LINE
8
BLACK
6
CONTINUOUS
10
83.1654379999999946
20
-69.5504379999999998
11
83.0883869999999973
21
-69.6019209999999902
0
LINE
8
BLACK
6
CONTINUOUS
10
83.0883869999999973
20
-69.6019209999999902
11
82.9975000000000023
21
-69.6199999999999903
0
LINE
8
BLACK
6
CONTINUOUS
10
82.9975000000000023
20
-69.6199999999999903
11
82.5224999999999937
21
-69.6199999999999903
0
LINE
8
BLACK
6
CONTINUOUS
10
82.5224999999999937
20
-69.6199999999999903
11
82.4316129999999987
21
-69.6019209999999902
0
LINE
8
BLACK
6
CONTINUOUS
10
82.4316129999999987
20
-69.6019209999999902
11
82.3545620000000014
21
-69.5504379999999998
0
LINE
8
BLACK
6
CONTINUOUS
10
82.3545620000000014
20
-69.5504379999999998
11
82.3030789999999968
21
-69.4733870000000024
0
LINE
8
BLACK
6
CONTINUOUS
10
82.3030789999999968
20
-69.4733870000000024
11
82.2849999999999966
21
-69.3824999999999932
0
LINE
8
BLACK
6
CONTINUOUS
10
82.2849999999999966
20
-69.3824999999999932
11
82.2849999999999966
21
-68.7824999999999989
0
LINE
8
BLACK
6
CONTINUOUS
10
82.2849999999999966
20
-68.7824999999999989
11
82.3030789999999968
21
-68.6916130000000038
0
LINE
8
BLACK
6
CONTINUOUS
10
82.3030789999999968
20
-68.6916130000000038
11
82.3545620000000014
21
-68.6145619999999923
0
LINE
8
BLACK
6
CONTINUOUS
10
82.3545620000000014
20
-68.6145619999999923
11
82.4316129999999987
21
-68.5630790000000019
0
LINE
8
BLACK
6
CONTINUOUS
10
82.4316129999999987
20
-68.5630790000000019
11
82.5224999999999937
21
-68.5450000000000017
0
LINE
8
BLACK
6
CONTINUOUS
10
82.5224999999999937
20
-68.5450000000000017
11
82.9975000000000023
21
-68.5450000000000017
0
LINE
8
BLACK
6
CONTINUOUS
10
82.9975000000000023
20
-68.5450000000000017
11
83.0883869999999973
21
-68.5630790000000019
0
LINE
8
BLACK
6
CONTINUOUS
10
123.8249999999999886
20
-69.4899999999999949
11
123.2749999999999915
21
-69.4899999999999949
0
LINE
8
BLACK
6
CONTINUOUS
10
123.2749999999999915
20
-69.4899999999999949
11
123.2749999999999915
21
-69.1899999999999977
0
LINE
8
BLACK
6
CONTINUOUS
10
123.2749999999999915
20
-69.1899999999999977
11
123.8249999999999886
21
-69.1899999999999977
0
LINE
8
BLACK
6
CONTINUOUS
10
123.8249999999999886
20
-69.1899999999999977
11
123.8249999999999886
21
-69.4899999999999949
0
LINE
8
BLACK
6
CONTINUOUS
10
127.5749999999999886
20
-69.4899999999999949
11
127.0249999999999915
21
-69.4899999999999949
0
LINE
8
BLACK
6
CONTINUOUS
10
127.0249999999999915
20
-69.4899999999999949
11
127.0249999999999915
21
-69.1899999999999977
0
LINE
8
BLACK
6
CONTINUOUS
10
127.0249999999999915
20
-69.1899999999999977
11
127.5749999999999886
21
-69.1899999999999977
0
LINE
8
BLACK
6
CONTINUOUS
10
127.5749999999999886
20
-69.1899999999999977
11
127.5749999999999886
21
-69.4899999999999949
0
LINE
8
BLACK
6
CONTINUOUS
10
123.8249999999999886
20
-68.9899999999999949
11
123.2749999999999915
21
-68.9899999999999949
0
LINE
8
BLACK
6
CONTINUOUS
10
123.2749999999999915
20
-68.9899999999999949
11
123.2749999999999915
21
-68.6899999999999977
0
LINE
8
BLACK
6
CONTINUOUS
10
123.2749999999999915
20
-68.6899999999999977
11
123.8249999999999886
21
-68.6899999999999977
0
LINE
8
BLACK
6
CONTINUOUS
10
123.8249999999999886
20
-68.6899999999999977
11
123.8249999999999886
21
-68.9899999999999949
0
LINE
8
BLACK
6
CONTINUOUS
10
127.5749999999999886
20
-68.9899999999999949
11
127.0249999999999915
21
-68.9899999999999949
0
LINE
8
BLACK
6
CONTINUOUS
10
127.0249999999999915
20
-68.9899999999999949
11
127.0249999999999915
21
-68.6899999999999977
0
LINE
8
BLACK
6
CONTINUOUS
10
127.0249999999999915
20
-68.6899999999999977
11
127.5749999999999886
21
-68.6899999999999977
0
LINE
8
BLACK
6
CONTINUOUS
10
127.5749999999999886
20
-68.6899999999999977
11
127.5749999999999886
21
-68.9899999999999949
0
LINE
8
BLACK
6
CONTINUOUS
10
123.8249999999999886
20
-68.4899999999999949
11
123.2749999999999915
21
-68.4899999999999949
0
LINE
8
BLACK
6
CONTINUOUS
10
123.2749999999999915
20
-68.4899999999999949
11
123.2749999999999915
21
-68.1899999999999977
0
LINE
8
BLACK
6
CONTINUOUS
10
123.2749999999999915
20
-68.1899999999999977
11
123.8249999999999886
21
-68.1899999999999977
0
LINE
8
BLACK
6
CONTINUOUS
10
123.8249999999999886
20
-68.1899999999999977
11
123.8249999999999886
21
-68.4899999999999949
0
LINE
8
BLACK
6
CONTINUOUS
10
127.5749999999999886
20
-68.4899999999999949
11
127.0249999999999915
21
-68.4899999999999949
0
LINE
8
BLACK
6
CONTINUOUS
10
127.0249999999999915
20
-68.4899999999999949
11
127.0249999999999915
21
-68.1899999999999977
0
LINE
8
BLACK
6
CONTINUOUS
10
127.0249999999999915
20
-68.1899999999999977
11
127.5749999999999886
21
-68.1899999999999977
0
LINE
8
BLACK
6
CONTINUOUS
10
127.5749999999999886
20
-68.1899999999999977
11
127.5749999999999886
21
-68.4899999999999949
0
LINE
8
BLACK
6
CONTINUOUS
10
123.8249999999999886
20
-67.9899999999999949
11
123.2749999999999915
21
-67.9899999999999949
0
LINE
8
BLACK
6
CONTINUOUS
10
123.2749999999999915
20
-67.9899999999999949
11
123.2749999999999915
21
-67.6899999999999977
0
LINE
8
BLACK
6
CONTINUOUS
10
123.2749999999999915
20
-67.6899999999999977
11
123.8249999999999886
21
-67.6899999999999977
0
LINE
8
BLACK
6
CONTINUOUS
10
123.8249999999999886
20
-67.6899999999999977
11
123.8249999999999886
21
-67.9899999999999949
0
LINE
8
BLACK
6
CONTINUOUS
10
127.5749999999999886
20
-67.9899999999999949
11
127.0249999999999915
21
-67.9899999999999949
0
LINE
8
BLACK
6
CONTINUOUS
10
127.0249999999999915
20
-67.9899999999999949
11
127.0249999999999915
21
-67.6899999999999977
0
LINE
8
BLACK
6
CONTINUOUS
10
127.0249999999999915
20
-67.6899999999999977
11
127.5749999999999886
21
-67.6899999999999977
0
LINE
8
BLACK
6
CONTINUOUS
10
127.5749999999999886
20
-67.6899999999999977
11
127.5749999999999886
21
-67.9899999999999949
0
LINE
8
BLACK
6
CONTINUOUS
10
91.1783870000000007
20
-66.8930790000000002
11
91.2554379999999981
21
-66.9445619999999906
0
LINE
8
BLACK
6
CONTINUOUS
10
91.2554379999999981
20
-66.9445619999999906
11
91.3069210000000027
21
-67.0216130000000021
0
LINE
8
BLACK
6
CONTINUOUS
10
91.3069210000000027
20
-67.0216130000000021
11
91.3250000000000028
21
-67.1124999999999972
0
LINE
8
BLACK
6
CONTINUOUS
10
91.3250000000000028
20
-67.1124999999999972
11
91.3250000000000028
21
-67.7124999999999915
0
LINE
8
BLACK
6
CONTINUOUS
10
91.3250000000000028
20
-67.7124999999999915
11
91.3069210000000027
21
-67.8033870000000007
0
LINE
8
BLACK
6
CONTINUOUS
10
91.3069210000000027
20
-67.8033870000000007
11
91.2554379999999981
21
-67.8804379999999981
0
LINE
8
BLACK
6
CONTINUOUS
10
91.2554379999999981
20
-67.8804379999999981
11
91.1783870000000007
21
-67.9319210000000027
0
LINE
8
BLACK
6
CONTINUOUS
10
91.1783870000000007
20
-67.9319210000000027
11
91.0874999999999915
21
-67.9500000000000028
0
LINE
8
BLACK
6
CONTINUOUS
10
91.0874999999999915
20
-67.9500000000000028
11
90.6124999999999972
21
-67.9500000000000028
0
LINE
8
BLACK
6
CONTINUOUS
10
90.6124999999999972
20
-67.9500000000000028
11
90.5216130000000021
21
-67.9319210000000027
0
LINE
8
BLACK
6
CONTINUOUS
10
90.5216130000000021
20
-67.9319210000000027
11
90.4445619999999906
21
-67.8804379999999981
0
LINE
8
BLACK
6
CONTINUOUS
10
90.4445619999999906
20
-67.8804379999999981
11
90.3930790000000002
21
-67.8033870000000007
0
LINE
8
BLACK
6
CONTINUOUS
10
90.3930790000000002
20
-67.8033870000000007
11
90.375
21
-67.7124999999999915
0
LINE
8
BLACK
6
CONTINUOUS
10
90.375
20
-67.7124999999999915
11
90.375
21
-67.1124999999999972
0
LINE
8
BLACK
6
CONTINUOUS
10
90.375
20
-67.1124999999999972
11
90.3930790000000002
21
-67.0216130000000021
0
LINE
8
BLACK
6
CONTINUOUS
10
90.3930790000000002
20
-67.0216130000000021
11
90.4445619999999906
21
-66.9445619999999906
0
LINE
8
BLACK
6
CONTINUOUS
10
90.4445619999999906
20
-66.9445619999999906
11
90.5216130000000021
21
-66.8930790000000002
0
LINE
8
BLACK
6
CONTINUOUS
10
90.5216130000000021
20
-66.8930790000000002
11
90.6124999999999972
21
-66.875
0
LINE
8
BLACK
6
CONTINUOUS
10
90.6124999999999972
20
-66.875
11
91.0874999999999915
21
-66.875
0
LINE
8
BLACK
6
CONTINUOUS
10
91.0874999999999915
20
-66.875
11
91.1783870000000007
21
-66.8930790000000002
0
LINE
8
BLACK
6
CONTINUOUS
10
89.6183869999999985
20
-66.8805789999999973
11
89.6954379999999958
21
-66.9320620000000019
0
LINE
8
BLACK
6
CONTINUOUS
10
89.6954379999999958
20
-66.9320620000000019
11
89.7469210000000004
21
-67.0091129999999993
0
LINE
8
BLACK
6
CONTINUOUS
10
89.7469210000000004
20
-67.0091129999999993
11
89.7650000000000006
21
-67.0999999999999943
0
LINE
8
BLACK
6
CONTINUOUS
10
89.7650000000000006
20
-67.0999999999999943
11
89.7650000000000006
21
-67.7000000000000028
0
LINE
8
BLACK
6
CONTINUOUS
10
89.7650000000000006
20
-67.7000000000000028
11
89.7469210000000004
21
-67.7908869999999979
0
LINE
8
BLACK
6
CONTINUOUS
10
89.7469210000000004
20
-67.7908869999999979
11
89.6954379999999958
21
-67.8679379999999952
0
LINE
8
BLACK
6
CONTINUOUS
10
89.6954379999999958
20
-67.8679379999999952
11
89.6183869999999985
21
-67.9194209999999998
0
LINE
8
BLACK
6
CONTINUOUS
10
89.6183869999999985
20
-67.9194209999999998
11
89.5274999999999892
21
-67.9375
0
LINE
8
BLACK
6
CONTINUOUS
10
89.5274999999999892
20
-67.9375
11
89.0524999999999949
21
-67.9375
0
LINE
8
BLACK
6
CONTINUOUS
10
89.0524999999999949
20
-67.9375
11
88.9616129999999998
21
-67.9194209999999998
0
LINE
8
BLACK
6
CONTINUOUS
10
88.9616129999999998
20
-67.9194209999999998
11
88.8845620000000025
21
-67.8679379999999952
0
LINE
8
BLACK
6
CONTINUOUS
10
88.8845620000000025
20
-67.8679379999999952
11
88.8330789999999979
21
-67.7908869999999979
0
LINE
8
BLACK
6
CONTINUOUS
10
88.8330789999999979
20
-67.7908869999999979
11
88.8149999999999977
21
-67.7000000000000028
0
LINE
8
BLACK
6
CONTINUOUS
10
88.8149999999999977
20
-67.7000000000000028
11
88.8149999999999977
21
-67.0999999999999943
0
LINE
8
BLACK
6
CONTINUOUS
10
88.8149999999999977
20
-67.0999999999999943
11
88.8330789999999979
21
-67.0091129999999993
0
LINE
8
BLACK
6
CONTINUOUS
10
88.8330789999999979
20
-67.0091129999999993
11
88.8845620000000025
21
-66.9320620000000019
0
LINE
8
BLACK
6
CONTINUOUS
10
88.8845620000000025
20
-66.9320620000000019
11
88.9616129999999998
21
-66.8805789999999973
0
LINE
8
BLACK
6
CONTINUOUS
10
88.9616129999999998
20
-66.8805789999999973
11
89.0524999999999949
21
-66.8624999999999972
0
LINE
8
BLACK
6
CONTINUOUS
10
89.0524999999999949
20
-66.8624999999999972
11
89.5274999999999892
21
-66.8624999999999972
0
LINE
8
BLACK
6
CONTINUOUS
10
89.5274999999999892
20
-66.8624999999999972
11
89.6183869999999985
21
-66.8805789999999973
0
LINE
8
BLACK
6
CONTINUOUS
10
81.508386999999999
20
-66.8505789999999962
11
81.5854379999999964
21
-66.9020620000000008
0
LINE
8
BLACK
6
CONTINUOUS
10
81.5854379999999964
20
-66.9020620000000008
11
81.636921000000001
21
-66.9791129999999981
0
LINE
8
BLACK
6
CONTINUOUS
10
81.636921000000001
20
-66.9791129999999981
11
81.6550000000000011
21
-67.0699999999999932
0
LINE
8
BLACK
6
CONTINUOUS
10
81.6550000000000011
20
-67.0699999999999932
11
81.6550000000000011
21
-67.6700000000000017
0
LINE
8
BLACK
6
CONTINUOUS
10
81.6550000000000011
20
-67.6700000000000017
11
81.636921000000001
21
-67.7608869999999968
0
LINE
8
BLACK
6
CONTINUOUS
10
81.636921000000001
20
-67.7608869999999968
11
81.5854379999999964
21
-67.8379379999999941
0
LINE
8
BLACK
6
CONTINUOUS
10
81.5854379999999964
20
-67.8379379999999941
11
81.508386999999999
21
-67.8894209999999987
0
LINE
8
BLACK
6
CONTINUOUS
10
81.508386999999999
20
-67.8894209999999987
11
81.4174999999999898
21
-67.9074999999999989
0
LINE
8
BLACK
6
CONTINUOUS
10
81.4174999999999898
20
-67.9074999999999989
11
80.9424999999999955
21
-67.9074999999999989
0
LINE
8
BLACK
6
CONTINUOUS
10
80.9424999999999955
20
-67.9074999999999989
11
80.8516130000000004
21
-67.8894209999999987
0
LINE
8
BLACK
6
CONTINUOUS
10
80.8516130000000004
20
-67.8894209999999987
11
80.7745620000000031
21
-67.8379379999999941
0
LINE
8
BLACK
6
CONTINUOUS
10
80.7745620000000031
20
-67.8379379999999941
11
80.7230789999999985
21
-67.7608869999999968
0
LINE
8
BLACK
6
CONTINUOUS
10
80.7230789999999985
20
-67.7608869999999968
11
80.7049999999999983
21
-67.6700000000000017
0
LINE
8
BLACK
6
CONTINUOUS
10
80.7049999999999983
20
-67.6700000000000017
11
80.7049999999999983
21
-67.0699999999999932
0
LINE
8
BLACK
6
CONTINUOUS
10
80.7049999999999983
20
-67.0699999999999932
11
80.7230789999999985
21
-66.9791129999999981
0
LINE
8
BLACK
6
CONTINUOUS
10
80.7230789999999985
20
-66.9791129999999981
11
80.7745620000000031
21
-66.9020620000000008
0
LINE
8
BLACK
6
CONTINUOUS
10
80.7745620000000031
20
-66.9020620000000008
11
80.8516130000000004
21
-66.8505789999999962
0
LINE
8
BLACK
6
CONTINUOUS
10
80.8516130000000004
20
-66.8505789999999962
11
80.9424999999999955
21
-66.832499999999996
0
LINE
8
BLACK
6
CONTINUOUS
10
80.9424999999999955
20
-66.832499999999996
11
81.4174999999999898
21
-66.832499999999996
0
LINE
8
BLACK
6
CONTINUOUS
10
81.4174999999999898
20
-66.832499999999996
11
81.508386999999999
21
-66.8505789999999962
0
LINE
8
BLACK
6
CONTINUOUS
10
83.0883869999999973
20
-66.8380789999999934
11
83.1654379999999946
21
-66.889561999999998
0
LINE
8
BLACK
6
CONTINUOUS
10
83.1654379999999946
20
-66.889561999999998
11
83.2169209999999993
21
-66.9666129999999953
0
LINE
8
BLACK
6
CONTINUOUS
10
83.2169209999999993
20
-66.9666129999999953
11
83.2349999999999994
21
-67.0574999999999903
0
LINE
8
BLACK
6
CONTINUOUS
10
83.2349999999999994
20
-67.0574999999999903
11
83.2349999999999994
21
-67.6574999999999989
0
LINE
8
BLACK
6
CONTINUOUS
10
83.2349999999999994
20
-67.6574999999999989
11
83.2169209999999993
21
-67.7483869999999939
0
LINE
8
BLACK
6
CONTINUOUS
10
83.2169209999999993
20
-67.7483869999999939
11
83.1654379999999946
21
-67.8254379999999912
0
LINE
8
BLACK
6
CONTINUOUS
10
83.1654379999999946
20
-67.8254379999999912
11
83.0883869999999973
21
-67.8769209999999958
0
LINE
8
BLACK
6
CONTINUOUS
10
83.0883869999999973
20
-67.8769209999999958
11
82.9975000000000023
21
-67.894999999999996
0
LINE
8
BLACK
6
CONTINUOUS
10
82.9975000000000023
20
-67.894999999999996
11
82.5224999999999937
21
-67.894999999999996
0
LINE
8
BLACK
6
CONTINUOUS
10
82.5224999999999937
20
-67.894999999999996
11
82.4316129999999987
21
-67.8769209999999958
0
LINE
8
BLACK
6
CONTINUOUS
10
82.4316129999999987
20
-67.8769209999999958
11
82.3545620000000014
21
-67.8254379999999912
0
LINE
8
BLACK
6
CONTINUOUS
10
82.3545620000000014
20
-67.8254379999999912
11
82.3030789999999968
21
-67.7483869999999939
0
LINE
8
BLACK
6
CONTINUOUS
10
82.3030789999999968
20
-67.7483869999999939
11
82.2849999999999966
21
-67.6574999999999989
0
LINE
8
BLACK
6
CONTINUOUS
10
82.2849999999999966
20
-67.6574999999999989
11
82.2849999999999966
21
-67.0574999999999903
0
LINE
8
BLACK
6
CONTINUOUS
10
82.2849999999999966
20
-67.0574999999999903
11
82.3030789999999968
21
-66.9666129999999953
0
LINE
8
BLACK
6
CONTINUOUS
10
82.3030789999999968
20
-66.9666129999999953
11
82.3545620000000014
21
-66.889561999999998
0
LINE
8
BLACK
6
CONTINUOUS
10
82.3545620000000014
20
-66.889561999999998
11
82.4316129999999987
21
-66.8380789999999934
0
LINE
8
BLACK
6
CONTINUOUS
10
82.4316129999999987
20
-66.8380789999999934
11
82.5224999999999937
21
-66.8199999999999932
0
LINE
8
BLACK
6
CONTINUOUS
10
82.5224999999999937
20
-66.8199999999999932
11
82.9975000000000023
21
-66.8199999999999932
0
LINE
8
BLACK
6
CONTINUOUS
10
82.9975000000000023
20
-66.8199999999999932
11
83.0883869999999973
21
-66.8380789999999934
0
LINE
8
BLACK
6
CONTINUOUS
10
117.4050000000000011
20
-67.6099999999999994
11
117.0049999999999955
21
-67.6099999999999994
0
LINE
8
BLACK
6
CONTINUOUS
10
117.0049999999999955
20
-67.6099999999999994
11
117.0049999999999955
21
-67.2099999999999937
0
LINE
8
BLACK
6
CONTINUOUS
10
117.0049999999999955
20
-67.2099999999999937
11
117.4050000000000011
21
-67.2099999999999937
0
LINE
8
BLACK
6
CONTINUOUS
10
117.4050000000000011
20
-67.2099999999999937
11
117.4050000000000011
21
-67.6099999999999994
0
LINE
8
BLACK
6
CONTINUOUS
10
123.8249999999999886
20
-67.4899999999999949
11
123.2749999999999915
21
-67.4899999999999949
0
LINE
8
BLACK
6
CONTINUOUS
10
123.2749999999999915
20
-67.4899999999999949
11
123.2749999999999915
21
-67.1899999999999977
0
LINE
8
BLACK
6
CONTINUOUS
10
123.2749999999999915
20
-67.1899999999999977
11
123.8249999999999886
21
-67.1899999999999977
0
LINE
8
BLACK
6
CONTINUOUS
10
123.8249999999999886
20
-67.1899999999999977
11
123.8249999999999886
21
-67.4899999999999949
0
LINE
8
BLACK
6
CONTINUOUS
10
127.5749999999999886
20
-67.4899999999999949
11
127.0249999999999915
21
-67.4899999999999949
0
LINE
8
BLACK
6
CONTINUOUS
10
127.0249999999999915
20
-67.4899999999999949
11
127.0249999999999915
21
-67.1899999999999977
0
LINE
8
BLACK
6
CONTINUOUS
10
127.0249999999999915
20
-67.1899999999999977
11
127.5749999999999886
21
-67.1899999999999977
0
LINE
8
BLACK
6
CONTINUOUS
10
127.5749999999999886
20
-67.1899999999999977
11
127.5749999999999886
21
-67.4899999999999949
0
LINE
8
BLACK
6
CONTINUOUS
10
133.9050000000000011
20
-67.3799999999999955
11
133.5049999999999955
21
-67.3799999999999955
0
LINE
8
BLACK
6
CONTINUOUS
10
133.5049999999999955
20
-67.3799999999999955
11
133.5049999999999955
21
-66.980000000000004
0
LINE
8
BLACK
6
CONTINUOUS
10
133.5049999999999955
20
-66.980000000000004
11
133.9050000000000011
21
-66.980000000000004
0
LINE
8
BLACK
6
CONTINUOUS
10
133.9050000000000011
20
-66.980000000000004
11
133.9050000000000011
21
-67.3799999999999955
0
LINE
8
BLACK
6
CONTINUOUS
10
123.625
20
-66.6899999999999977
11
123.7749999999999915
21
-66.8400000000000034
0
LINE
8
BLACK
6
CONTINUOUS
10
123.7749999999999915
20
-66.8400000000000034
11
123.7749999999999915
21
-66.9899999999999949
0
LINE
8
BLACK
6
CONTINUOUS
10
123.7749999999999915
20
-66.9899999999999949
11
123.625
21
-66.9899999999999949
0
LINE
8
BLACK
6
CONTINUOUS
10
123.625
20
-66.9899999999999949
11
123.2749999999999915
21
-66.9899999999999949
0
LINE
8
BLACK
6
CONTINUOUS
10
123.2749999999999915
20
-66.9899999999999949
11
123.2749999999999915
21
-66.6899999999999977
0
LINE
8
BLACK
6
CONTINUOUS
10
123.2749999999999915
20
-66.6899999999999977
11
123.625
21
-66.6899999999999977
0
LINE
8
BLACK
6
CONTINUOUS
10
127.5749999999999886
20
-66.9899999999999949
11
127.2249999999999943
21
-66.9899999999999949
0
LINE
8
BLACK
6
CONTINUOUS
10
127.2249999999999943
20
-66.9899999999999949
11
127.0749999999999886
21
-66.9899999999999949
0
LINE
8
BLACK
6
CONTINUOUS
10
127.0749999999999886
20
-66.9899999999999949
11
127.0749999999999886
21
-66.8400000000000034
0
LINE
8
BLACK
6
CONTINUOUS
10
127.0749999999999886
20
-66.8400000000000034
11
127.2249999999999943
21
-66.6899999999999977
0
LINE
8
BLACK
6
CONTINUOUS
10
127.2249999999999943
20
-66.6899999999999977
11
127.5749999999999886
21
-66.6899999999999977
0
LINE
8
BLACK
6
CONTINUOUS
10
127.5749999999999886
20
-66.6899999999999977
11
127.5749999999999886
21
-66.9899999999999949
0
LINE
8
BLACK
6
CONTINUOUS
10
117.4050000000000011
20
-66.769999999999996
11
117.0049999999999955
21
-66.769999999999996
0
LINE
8
BLACK
6
CONTINUOUS
10
117.0049999999999955
20
-66.769999999999996
11
117.0049999999999955
21
-66.3699999999999903
0
LINE
8
BLACK
6
CONTINUOUS
10
117.0049999999999955
20
-66.3699999999999903
11
117.4050000000000011
21
-66.3699999999999903
0
LINE
8
BLACK
6
CONTINUOUS
10
117.4050000000000011
20
-66.3699999999999903
11
117.4050000000000011
21
-66.769999999999996
0
LINE
8
BLACK
6
CONTINUOUS
10
124.5749999999999886
20
-66.7399999999999949
11
124.2749999999999915
21
-66.7399999999999949
0
LINE
8
BLACK
6
CONTINUOUS
10
124.2749999999999915
20
-66.7399999999999949
11
124.2749999999999915
21
-66.1899999999999977
0
LINE
8
BLACK
6
CONTINUOUS
10
124.2749999999999915
20
-66.1899999999999977
11
124.5749999999999886
21
-66.1899999999999977
0
LINE
8
BLACK
6
CONTINUOUS
10
124.5749999999999886
20
-66.1899999999999977
11
124.5749999999999886
21
-66.7399999999999949
0
LINE
8
BLACK
6
CONTINUOUS
10
125.0749999999999886
20
-66.7399999999999949
11
124.7749999999999915
21
-66.7399999999999949
0
LINE
8
BLACK
6
CONTINUOUS
10
124.7749999999999915
20
-66.7399999999999949
11
124.7749999999999915
21
-66.1899999999999977
0
LINE
8
BLACK
6
CONTINUOUS
10
124.7749999999999915
20
-66.1899999999999977
11
125.0749999999999886
21
-66.1899999999999977
0
LINE
8
BLACK
6
CONTINUOUS
10
125.0749999999999886
20
-66.1899999999999977
11
125.0749999999999886
21
-66.7399999999999949
0
LINE
8
BLACK
6
CONTINUOUS
10
125.5749999999999886
20
-66.7399999999999949
11
125.2749999999999915
21
-66.7399999999999949
0
LINE
8
BLACK
6
CONTINUOUS
10
125.2749999999999915
20
-66.7399999999999949
11
125.2749999999999915
21
-66.1899999999999977
0
LINE
8
BLACK
6
CONTINUOUS
10
125.2749999999999915
20
-66.1899999999999977
11
125.5749999999999886
21
-66.1899999999999977
0
LINE
8
BLACK
6
CONTINUOUS
10
125.5749999999999886
20
-66.1899999999999977
11
125.5749999999999886
21
-66.7399999999999949
0
LINE
8
BLACK
6
CONTINUOUS
10
126.0749999999999886
20
-66.7399999999999949
11
125.7749999999999915
21
-66.7399999999999949
0
LINE
8
BLACK
6
CONTINUOUS
10
125.7749999999999915
20
-66.7399999999999949
11
125.7749999999999915
21
-66.1899999999999977
0
LINE
8
BLACK
6
CONTINUOUS
10
125.7749999999999915
20
-66.1899999999999977
11
126.0749999999999886
21
-66.1899999999999977
0
LINE
8
BLACK
6
CONTINUOUS
10
126.0749999999999886
20
-66.1899999999999977
11
126.0749999999999886
21
-66.7399999999999949
0
LINE
8
BLACK
6
CONTINUOUS
10
126.5749999999999886
20
-66.7399999999999949
11
126.2749999999999915
21
-66.7399999999999949
0
LINE
8
BLACK
6
CONTINUOUS
10
126.2749999999999915
20
-66.7399999999999949
11
126.2749999999999915
21
-66.1899999999999977
0
LINE
8
BLACK
6
CONTINUOUS
10
126.2749999999999915
20
-66.1899999999999977
11
126.5749999999999886
21
-66.1899999999999977
0
LINE
8
BLACK
6
CONTINUOUS
10
126.5749999999999886
20
-66.1899999999999977
11
126.5749999999999886
21
-66.7399999999999949
0
LINE
8
BLACK
6
CONTINUOUS
10
124.0749999999999886
20
-66.539999999999992
11
124.0749999999999886
21
-66.6899999999999977
0
LINE
8
BLACK
6
CONTINUOUS
10
124.0749999999999886
20
-66.6899999999999977
11
123.9249999999999972
21
-66.6899999999999977
0
LINE
8
BLACK
6
CONTINUOUS
10
123.9249999999999972
20
-66.6899999999999977
11
123.7749999999999915
21
-66.539999999999992
0
LINE
8
BLACK
6
CONTINUOUS
10
123.7749999999999915
20
-66.539999999999992
11
123.7749999999999915
21
-66.1899999999999977
0
LINE
8
BLACK
6
CONTINUOUS
10
123.7749999999999915
20
-66.1899999999999977
11
124.0749999999999886
21
-66.1899999999999977
0
LINE
8
BLACK
6
CONTINUOUS
10
124.0749999999999886
20
-66.1899999999999977
11
124.0749999999999886
21
-66.539999999999992
0
LINE
8
BLACK
6
CONTINUOUS
10
127.0749999999999886
20
-66.539999999999992
11
126.9249999999999972
21
-66.6899999999999977
0
LINE
8
BLACK
6
CONTINUOUS
10
126.9249999999999972
20
-66.6899999999999977
11
126.7749999999999915
21
-66.6899999999999977
0
LINE
8
BLACK
6
CONTINUOUS
10
126.7749999999999915
20
-66.6899999999999977
11
126.7749999999999915
21
-66.1899999999999977
0
LINE
8
BLACK
6
CONTINUOUS
10
126.7749999999999915
20
-66.1899999999999977
11
127.0749999999999886
21
-66.1899999999999977
0
LINE
8
BLACK
6
CONTINUOUS
10
127.0749999999999886
20
-66.1899999999999977
11
127.0749999999999886
21
-66.539999999999992
0
LINE
8
BLACK
6
CONTINUOUS
10
133.9050000000000011
20
-66.539999999999992
11
133.5049999999999955
21
-66.539999999999992
0
LINE
8
BLACK
6
CONTINUOUS
10
133.5049999999999955
20
-66.539999999999992
11
133.5049999999999955
21
-66.1400000000000006
0
LINE
8
BLACK
6
CONTINUOUS
10
133.5049999999999955
20
-66.1400000000000006
11
133.9050000000000011
21
-66.1400000000000006
0
LINE
8
BLACK
6
CONTINUOUS
10
133.9050000000000011
20
-66.1400000000000006
11
133.9050000000000011
21
-66.539999999999992
0
LINE
8
BLACK
6
CONTINUOUS
10
82.4500000000000028
20
-65.5750000000000028
11
82.
21
-65.5750000000000028
0
LINE
8
BLACK
6
CONTINUOUS
10
82.
20
-65.5750000000000028
11
82.
21
-63.8249999999999957
0
LINE
8
BLACK
6
CONTINUOUS
10
82.
20
-63.8249999999999957
11
82.4500000000000028
21
-63.8249999999999957
0
LINE
8
BLACK
6
CONTINUOUS
10
82.4500000000000028
20
-63.8249999999999957
11
82.4500000000000028
21
-65.5750000000000028
0
LINE
8
BLACK
6
CONTINUOUS
10
83.0999999999999943
20
-65.5750000000000028
11
82.6499999999999915
21
-65.5750000000000028
0
LINE
8
BLACK
6
CONTINUOUS
10
82.6499999999999915
20
-65.5750000000000028
11
82.6499999999999915
21
-63.8249999999999957
0
LINE
8
BLACK
6
CONTINUOUS
10
82.6499999999999915
20
-63.8249999999999957
11
83.0999999999999943
21
-63.8249999999999957
0
LINE
8
BLACK
6
CONTINUOUS
10
83.0999999999999943
20
-63.8249999999999957
11
83.0999999999999943
21
-65.5750000000000028
0
LINE
8
BLACK
6
CONTINUOUS
10
83.75
20
-65.5750000000000028
11
83.2999999999999972
21
-65.5750000000000028
0
LINE
8
BLACK
6
CONTINUOUS
10
83.2999999999999972
20
-65.5750000000000028
11
83.2999999999999972
21
-63.8249999999999957
0
LINE
8
BLACK
6
CONTINUOUS
10
83.2999999999999972
20
-63.8249999999999957
11
83.75
21
-63.8249999999999957
0
LINE
8
BLACK
6
CONTINUOUS
10
83.75
20
-63.8249999999999957
11
83.75
21
-65.5750000000000028
0
LINE
8
BLACK
6
CONTINUOUS
10
84.3999999999999915
20
-65.5750000000000028
11
83.9500000000000028
21
-65.5750000000000028
0
LINE
8
BLACK
6
CONTINUOUS
10
83.9500000000000028
20
-65.5750000000000028
11
83.9500000000000028
21
-63.8249999999999957
0
LINE
8
BLACK
6
CONTINUOUS
10
83.9500000000000028
20
-63.8249999999999957
11
84.3999999999999915
21
-63.8249999999999957
0
LINE
8
BLACK
6
CONTINUOUS
10
84.3999999999999915
20
-63.8249999999999957
11
84.3999999999999915
21
-65.5750000000000028
0
LINE
8
BLACK
6
CONTINUOUS
10
85.0499999999999972
20
-65.5750000000000028
11
84.5999999999999943
21
-65.5750000000000028
0
LINE
8
BLACK
6
CONTINUOUS
10
84.5999999999999943
20
-65.5750000000000028
11
84.5999999999999943
21
-63.8249999999999957
0
LINE
8
BLACK
6
CONTINUOUS
10
84.5999999999999943
20
-63.8249999999999957
11
85.0499999999999972
21
-63.8249999999999957
0
LINE
8
BLACK
6
CONTINUOUS
10
85.0499999999999972
20
-63.8249999999999957
11
85.0499999999999972
21
-65.5750000000000028
0
LINE
8
BLACK
6
CONTINUOUS
10
85.7000000000000028
20
-65.5750000000000028
11
85.25
21
-65.5750000000000028
0
LINE
8
BLACK
6
CONTINUOUS
10
85.25
20
-65.5750000000000028
11
85.25
21
-63.8249999999999957
0
LINE
8
BLACK
6
CONTINUOUS
10
85.25
20
-63.8249999999999957
11
85.7000000000000028
21
-63.8249999999999957
0
LINE
8
BLACK
6
CONTINUOUS
10
85.7000000000000028
20
-63.8249999999999957
11
85.7000000000000028
21
-65.5750000000000028
0
LINE
8
BLACK
6
CONTINUOUS
10
86.3499999999999943
20
-65.5750000000000028
11
85.8999999999999915
21
-65.5750000000000028
0
LINE
8
BLACK
6
CONTINUOUS
10
85.8999999999999915
20
-65.5750000000000028
11
85.8999999999999915
21
-63.8249999999999957
0
LINE
8
BLACK
6
CONTINUOUS
10
85.8999999999999915
20
-63.8249999999999957
11
86.3499999999999943
21
-63.8249999999999957
0
LINE
8
BLACK
6
CONTINUOUS
10
86.3499999999999943
20
-63.8249999999999957
11
86.3499999999999943
21
-65.5750000000000028
0
LINE
8
BLACK
6
CONTINUOUS
10
87.
20
-65.5750000000000028
11
86.5499999999999972
21
-65.5750000000000028
0
LINE
8
BLACK
6
CONTINUOUS
10
86.5499999999999972
20
-65.5750000000000028
11
86.5499999999999972
21
-63.8249999999999957
0
LINE
8
BLACK
6
CONTINUOUS
10
86.5499999999999972
20
-63.8249999999999957
11
87.
21
-63.8249999999999957
0
LINE
8
BLACK
6
CONTINUOUS
10
87.
20
-63.8249999999999957
11
87.
21
-65.5750000000000028
0
LINE
8
BLACK
6
CONTINUOUS
10
87.6499999999999915
20
-65.5750000000000028
11
87.2000000000000028
21
-65.5750000000000028
0
LINE
8
BLACK
6
CONTINUOUS
10
87.2000000000000028
20
-65.5750000000000028
11
87.2000000000000028
21
-63.8249999999999957
0
LINE
8
BLACK
6
CONTINUOUS
10
87.2000000000000028
20
-63.8249999999999957
11
87.6499999999999915
21
-63.8249999999999957
0
LINE
8
BLACK
6
CONTINUOUS
10
87.6499999999999915
20
-63.8249999999999957
11
87.6499999999999915
21
-65.5750000000000028
0
LINE
8
BLACK
6
CONTINUOUS
10
88.2999999999999972
20
-65.5750000000000028
11
87.8499999999999943
21
-65.5750000000000028
0
LINE
8
BLACK
6
CONTINUOUS
10
87.8499999999999943
20
-65.5750000000000028
11
87.8499999999999943
21
-63.8249999999999957
0
LINE
8
BLACK
6
CONTINUOUS
10
87.8499999999999943
20
-63.8249999999999957
11
88.2999999999999972
21
-63.8249999999999957
0
LINE
8
BLACK
6
CONTINUOUS
10
88.2999999999999972
20
-63.8249999999999957
11
88.2999999999999972
21
-65.5750000000000028
0
LINE
8
BLACK
6
CONTINUOUS
10
88.9500000000000028
20
-65.5750000000000028
11
88.5
21
-65.5750000000000028
0
LINE
8
BLACK
6
CONTINUOUS
10
88.5
20
-65.5750000000000028
11
88.5
21
-63.8249999999999957
0
LINE
8
BLACK
6
CONTINUOUS
10
88.5
20
-63.8249999999999957
11
88.9500000000000028
21
-63.8249999999999957
0
LINE
8
BLACK
6
CONTINUOUS
10
88.9500000000000028
20
-63.8249999999999957
11
88.9500000000000028
21
-65.5750000000000028
0
LINE
8
BLACK
6
CONTINUOUS
10
89.5999999999999943
20
-65.5750000000000028
11
89.1499999999999915
21
-65.5750000000000028
0
LINE
8
BLACK
6
CONTINUOUS
10
89.1499999999999915
20
-65.5750000000000028
11
89.1499999999999915
21
-63.8249999999999957
0
LINE
8
BLACK
6
CONTINUOUS
10
89.1499999999999915
20
-63.8249999999999957
11
89.5999999999999943
21
-63.8249999999999957
0
LINE
8
BLACK
6
CONTINUOUS
10
89.5999999999999943
20
-63.8249999999999957
11
89.5999999999999943
21
-65.5750000000000028
0
LINE
8
BLACK
6
CONTINUOUS
10
124.414999999999992
20
-63.1899999999999977
11
124.0150000000000006
21
-63.1899999999999977
0
LINE
8
BLACK
6
CONTINUOUS
10
124.0150000000000006
20
-63.1899999999999977
11
124.0150000000000006
21
-62.7899999999999991
0
LINE
8
BLACK
6
CONTINUOUS
10
124.0150000000000006
20
-62.7899999999999991
11
124.414999999999992
21
-62.7899999999999991
0
LINE
8
BLACK
6
CONTINUOUS
10
124.414999999999992
20
-62.7899999999999991
11
124.414999999999992
21
-63.1899999999999977
0
LINE
8
BLACK
6
CONTINUOUS
10
125.2549999999999955
20
-63.1899999999999977
11
124.8549999999999898
21
-63.1899999999999977
0
LINE
8
BLACK
6
CONTINUOUS
10
124.8549999999999898
20
-63.1899999999999977
11
124.8549999999999898
21
-62.7899999999999991
0
LINE
8
BLACK
6
CONTINUOUS
10
124.8549999999999898
20
-62.7899999999999991
11
125.2549999999999955
21
-62.7899999999999991
0
LINE
8
BLACK
6
CONTINUOUS
10
125.2549999999999955
20
-62.7899999999999991
11
125.2549999999999955
21
-63.1899999999999977
0
LINE
8
BLACK
6
CONTINUOUS
10
126.5925000000000011
20
-63.1799999999999997
11
126.1924999999999955
21
-63.1799999999999997
0
LINE
8
BLACK
6
CONTINUOUS
10
126.1924999999999955
20
-63.1799999999999997
11
126.1924999999999955
21
-62.779999999999994
0
LINE
8
BLACK
6
CONTINUOUS
10
126.1924999999999955
20
-62.779999999999994
11
126.5925000000000011
21
-62.779999999999994
0
LINE
8
BLACK
6
CONTINUOUS
10
126.5925000000000011
20
-62.779999999999994
11
126.5925000000000011
21
-63.1799999999999997
0
LINE
8
BLACK
6
CONTINUOUS
10
127.4324999999999903
20
-63.1799999999999997
11
127.0324999999999989
21
-63.1799999999999997
0
LINE
8
BLACK
6
CONTINUOUS
10
127.0324999999999989
20
-63.1799999999999997
11
127.0324999999999989
21
-62.779999999999994
0
LINE
8
BLACK
6
CONTINUOUS
10
127.0324999999999989
20
-62.779999999999994
11
127.4324999999999903
21
-62.779999999999994
0
LINE
8
BLACK
6
CONTINUOUS
10
127.4324999999999903
20
-62.779999999999994
11
127.4324999999999903
21
-63.1799999999999997
0
LINE
8
BLACK
6
CONTINUOUS
10
82.4500000000000028
20
-58.375
11
82.
21
-58.375
0
LINE
8
BLACK
6
CONTINUOUS
10
82.
20
-58.375
11
82.
21
-56.625
0
LINE
8
BLACK
6
CONTINUOUS
10
82.
20
-56.625
11
82.4500000000000028
21
-56.625
0
LINE
8
BLACK
6
CONTINUOUS
10
82.4500000000000028
20
-56.625
11
82.4500000000000028
21
-58.375
0
LINE
8
BLACK
6
CONTINUOUS
10
83.0999999999999943
20
-58.375
11
82.6499999999999915
21
-58.375
0
LINE
8
BLACK
6
CONTINUOUS
10
82.6499999999999915
20
-58.375
11
82.6499999999999915
21
-56.625
0
LINE
8
BLACK
6
CONTINUOUS
10
82.6499999999999915
20
-56.625
11
83.0999999999999943
21
-56.625
0
LINE
8
BLACK
6
CONTINUOUS
10
83.0999999999999943
20
-56.625
11
83.0999999999999943
21
-58.375
0
LINE
8
BLACK
6
CONTINUOUS
10
83.75
20
-58.375
11
83.2999999999999972
21
-58.375
0
LINE
8
BLACK
6
CONTINUOUS
10
83.2999999999999972
20
-58.375
11
83.2999999999999972
21
-56.625
0
LINE
8
BLACK
6
CONTINUOUS
10
83.2999999999999972
20
-56.625
11
83.75
21
-56.625
0
LINE
8
BLACK
6
CONTINUOUS
10
83.75
20
-56.625
11
83.75
21
-58.375
0
LINE
8
BLACK
6
CONTINUOUS
10
84.3999999999999915
20
-58.375
11
83.9500000000000028
21
-58.375
0
LINE
8
BLACK
6
CONTINUOUS
10
83.9500000000000028
20
-58.375
11
83.9500000000000028
21
-56.625
0
LINE
8
BLACK
6
CONTINUOUS
10
83.9500000000000028
20
-56.625
11
84.3999999999999915
21
-56.625
0
LINE
8
BLACK
6
CONTINUOUS
10
84.3999999999999915
20
-56.625
11
84.3999999999999915
21
-58.375
0
LINE
8
BLACK
6
CONTINUOUS
10
85.0499999999999972
20
-58.375
11
84.5999999999999943
21
-58.375
0
LINE
8
BLACK
6
CONTINUOUS
10
84.5999999999999943
20
-58.375
11
84.5999999999999943
21
-56.625
0
LINE
8
BLACK
6
CONTINUOUS
10
84.5999999999999943
20
-56.625
11
85.0499999999999972
21
-56.625
0
LINE
8
BLACK
6
CONTINUOUS
10
85.0499999999999972
20
-56.625
11
85.0499999999999972
21
-58.375
0
LINE
8
BLACK
6
CONTINUOUS
10
85.7000000000000028
20
-58.375
11
85.25
21
-58.375
0
LINE
8
BLACK
6
CONTINUOUS
10
85.25
20
-58.375
11
85.25
21
-56.625
0
LINE
8
BLACK
6
CONTINUOUS
10
85.25
20
-56.625
11
85.7000000000000028
21
-56.625
0
LINE
8
BLACK
6
CONTINUOUS
10
85.7000000000000028
20
-56.625
11
85.7000000000000028
21
-58.375
0
LINE
8
BLACK
6
CONTINUOUS
10
86.3499999999999943
20
-58.375
11
85.8999999999999915
21
-58.375
0
LINE
8
BLACK
6
CONTINUOUS
10
85.8999999999999915
20
-58.375
11
85.8999999999999915
21
-56.625
0
LINE
8
BLACK
6
CONTINUOUS
10
85.8999999999999915
20
-56.625
11
86.3499999999999943
21
-56.625
0
LINE
8
BLACK
6
CONTINUOUS
10
86.3499999999999943
20
-56.625
11
86.3499999999999943
21
-58.375
0
LINE
8
BLACK
6
CONTINUOUS
10
87.
20
-58.375
11
86.5499999999999972
21
-58.375
0
LINE
8
BLACK
6
CONTINUOUS
10
86.5499999999999972
20
-58.375
11
86.5499999999999972
21
-56.625
0
LINE
8
BLACK
6
CONTINUOUS
10
86.5499999999999972
20
-56.625
11
87.
21
-56.625
0
LINE
8
BLACK
6
CONTINUOUS
10
87.
20
-56.625
11
87.
21
-58.375
0
LINE
8
BLACK
6
CONTINUOUS
10
87.6499999999999915
20
-58.375
11
87.2000000000000028
21
-58.375
0
LINE
8
BLACK
6
CONTINUOUS
10
87.2000000000000028
20
-58.375
11
87.2000000000000028
21
-56.625
0
LINE
8
BLACK
6
CONTINUOUS
10
87.2000000000000028
20
-56.625
11
87.6499999999999915
21
-56.625
0
LINE
8
BLACK
6
CONTINUOUS
10
87.6499999999999915
20
-56.625
11
87.6499999999999915
21
-58.375
0
LINE
8
BLACK
6
CONTINUOUS
10
88.2999999999999972
20
-58.375
11
87.8499999999999943
21
-58.375
0
LINE
8
BLACK
6
CONTINUOUS
10
87.8499999999999943
20
-58.375
11
87.8499999999999943
21
-56.625
0
LINE
8
BLACK
6
CONTINUOUS
10
87.8499999999999943
20
-56.625
11
88.2999999999999972
21
-56.625
0
LINE
8
BLACK
6
CONTINUOUS
10
88.2999999999999972
20
-56.625
11
88.2999999999999972
21
-58.375
0
LINE
8
BLACK
6
CONTINUOUS
10
88.9500000000000028
20
-58.375
11
88.5
21
-58.375
0
LINE
8
BLACK
6
CONTINUOUS
10
88.5
20
-58.375
11
88.5
21
-56.625
0
LINE
8
BLACK
6
CONTINUOUS
10
88.5
20
-56.625
11
88.9500000000000028
21
-56.625
0
LINE
8
BLACK
6
CONTINUOUS
10
88.9500000000000028
20
-56.625
11
88.9500000000000028
21
-58.375
0
LINE
8
BLACK
6
CONTINUOUS
10
89.5999999999999943
20
-58.375
11
89.1499999999999915
21
-58.375
0
LINE
8
BLACK
6
CONTINUOUS
10
89.1499999999999915
20
-58.375
11
89.1499999999999915
21
-56.625
0
LINE
8
BLACK
6
CONTINUOUS
10
89.1499999999999915
20
-56.625
11
89.5999999999999943
21
-56.625
0
LINE
8
BLACK
6
CONTINUOUS
10
89.5999999999999943
20
-56.625
11
89.5999999999999943
21
-58.375
  0
ENDSEC
  0
EOF
