M48
; DRILL file {KiCad 8.0.2} date 2025-04-24T11:56:43-0500
; FORMAT={-:-/ absolute / metric / decimal}
; #@! TF.CreationDate,2025-04-24T11:56:43-05:00
; #@! TF.GenerationSoftware,Kicad,Pcbnew,8.0.2
; #@! TF.FileFunction,Plated,1,2,PTH
FMAT,2
METRIC
; #@! TA.AperFunction,Plated,PTH,ViaDrill
T1C0.400
; #@! TA.AperFunction,Plated,PTH,ComponentDrill
T2C0.400
; #@! TA.AperFunction,Plated,PTH,ComponentDrill
T3C0.650
; #@! TA.AperFunction,Plated,PTH,ComponentDrill
T4C0.750
; #@! TA.AperFunction,Plated,PTH,ComponentDrill
T5C1.000
%
G90
G05
T1
X69.02Y-71.01
X70.88Y-94.98
X72.5Y-59.9
X72.51Y-77.0
X72.51Y-94.1
X73.67Y-62.74
X73.68Y-57.05
X73.68Y-79.84
X73.68Y-96.94
X73.69Y-74.15
X73.69Y-91.25
X76.51Y-55.9
X76.51Y-63.9
X76.52Y-73.0
X76.52Y-81.0
X76.52Y-90.1
X76.52Y-98.1
X79.338Y-57.072
X79.338Y-62.728
X79.348Y-74.172
X79.348Y-79.828
X79.348Y-91.272
X79.348Y-96.928
X80.5Y-59.9
X80.51Y-77.0
X80.51Y-94.1
X83.728Y-94.467
X84.25Y-76.76
X84.37Y-62.675
X84.45Y-81.04
X84.49Y-66.77
X84.99Y-100.46
X85.89Y-73.64
X85.9Y-85.5
X86.79Y-62.76
X87.22Y-94.53
X87.479Y-66.809
X87.5Y-76.77
X87.515Y-81.685
X91.11Y-59.9
X91.11Y-77.0
X91.11Y-94.1
X92.28Y-62.74
X92.28Y-79.84
X92.28Y-96.94
X92.29Y-57.05
X92.29Y-74.15
X92.29Y-91.25
X92.95Y-101.28
X95.12Y-55.9
X95.12Y-63.9
X95.12Y-73.0
X95.12Y-81.0
X95.12Y-90.1
X95.12Y-98.1
X97.948Y-57.072
X97.948Y-62.728
X97.948Y-74.172
X97.948Y-79.828
X97.948Y-91.272
X97.948Y-96.928
X99.11Y-59.9
X99.11Y-77.0
X99.11Y-94.1
X99.9Y-54.89
X109.335Y-79.12
X109.655Y-53.69
X110.625Y-78.95
X112.435Y-59.85
X112.435Y-76.95
X112.435Y-94.05
X113.605Y-62.69
X113.605Y-79.79
X113.605Y-96.89
X113.615Y-57.0
X113.615Y-74.1
X113.615Y-91.2
X116.445Y-55.85
X116.445Y-63.85
X116.445Y-72.95
X116.445Y-80.95
X116.445Y-98.05
X116.545Y-90.19
X118.725Y-68.855
X119.055Y-66.5
X119.056Y-91.529
X119.273Y-57.022
X119.273Y-62.678
X119.273Y-74.122
X119.273Y-79.778
X119.273Y-96.878
X119.805Y-69.25
X120.255Y-94.13
X120.385Y-76.95
X120.435Y-59.85
X121.087Y-69.129
X122.102Y-83.29
X122.102Y-85.31
X122.272Y-69.087
X123.165Y-62.27
X123.595Y-74.29
X124.825Y-67.71
X125.805Y-77.345
X126.049Y-68.545
X127.025Y-72.98
X127.055Y-61.87
X127.105Y-77.09
X127.243Y-75.788
X127.828Y-87.71
X129.23Y-71.516
X130.242Y-70.527
X131.035Y-76.95
X131.035Y-94.05
X131.095Y-60.15
X131.302Y-69.467
X132.015Y-57.37
X132.205Y-79.79
X132.205Y-96.89
X132.215Y-74.1
X132.215Y-91.2
X132.335Y-62.8
X132.427Y-68.342
X134.905Y-63.85
X134.965Y-55.89
X135.045Y-72.95
X135.045Y-80.95
X135.045Y-98.05
X135.095Y-89.78
X136.235Y-87.33
X136.255Y-88.68
X137.695Y-62.77
X137.873Y-74.122
X137.873Y-79.778
X137.873Y-91.222
X137.873Y-96.878
X138.245Y-57.53
X139.025Y-60.18
X139.035Y-76.95
X139.035Y-94.05
X139.995Y-91.33
T2
X71.71Y-64.7
X71.71Y-72.2
X71.71Y-89.3
X74.81Y-71.0
X74.81Y-88.0
X81.31Y-55.1
X90.31Y-55.1
X97.31Y-70.5
X97.31Y-88.0
X99.91Y-64.7
X99.91Y-72.2
X99.91Y-89.3
T3
X122.925Y-59.275
X122.925Y-60.545
X124.195Y-59.275
X124.195Y-60.545
X125.465Y-59.275
X125.465Y-60.545
X126.735Y-59.275
X126.735Y-60.545
X128.005Y-59.275
X128.005Y-60.545
T4
X115.285Y-87.15
X115.285Y-89.15
X115.565Y-66.55
X115.565Y-68.55
X115.565Y-70.55
X123.735Y-96.2
X125.735Y-96.2
X127.735Y-96.2
X136.165Y-66.34
X136.165Y-68.34
X136.165Y-70.34
T5
X70.03Y-80.93
X70.03Y-83.47
X70.035Y-100.57
X72.575Y-100.57
X75.24Y-53.43
X75.24Y-83.47
X77.78Y-53.43
X77.78Y-83.47
X93.84Y-53.43
X93.84Y-83.47
X96.38Y-53.43
X96.38Y-83.47
X99.045Y-100.57
X101.58Y-80.93
X101.58Y-83.47
X101.585Y-100.57
X109.95Y-80.92
X109.95Y-83.46
X109.965Y-100.56
X112.505Y-100.56
X115.175Y-53.43
X115.175Y-83.47
X117.715Y-53.43
X117.715Y-83.47
X133.775Y-53.43
X133.775Y-83.47
X136.315Y-53.43
X136.315Y-83.47
X138.965Y-100.555
X141.505Y-80.92
X141.505Y-83.46
X141.505Y-100.555
M30
