%TF.GenerationSoftware,KiCad,Pcbnew,8.0.2*%
%TF.CreationDate,2025-04-24T14:12:27-05:00*%
%TF.ProjectId,Circuit_design,43697263-7569-4745-9f64-657369676e2e,rev?*%
%TF.SameCoordinates,Original*%
%TF.FileFunction,Paste,Top*%
%TF.FilePolarity,Positive*%
%FSLAX46Y46*%
G04 Gerber Fmt 4.6, Leading zero omitted, Abs format (unit mm)*
G04 Created by KiCad (PCBNEW 8.0.2) date 2025-04-24 14:12:27*
%MOMM*%
%LPD*%
G01*
G04 APERTURE LIST*
G04 Aperture macros list*
%AMRoundRect*
0 Rectangle with rounded corners*
0 $1 Rounding radius*
0 $2 $3 $4 $5 $6 $7 $8 $9 X,Y pos of 4 corners*
0 Add a 4 corners polygon primitive as box body*
4,1,4,$2,$3,$4,$5,$6,$7,$8,$9,$2,$3,0*
0 Add four circle primitives for the rounded corners*
1,1,$1+$1,$2,$3*
1,1,$1+$1,$4,$5*
1,1,$1+$1,$6,$7*
1,1,$1+$1,$8,$9*
0 Add four rect primitives between the rounded corners*
20,1,$1+$1,$2,$3,$4,$5,0*
20,1,$1+$1,$4,$5,$6,$7,0*
20,1,$1+$1,$6,$7,$8,$9,0*
20,1,$1+$1,$8,$9,$2,$3,0*%
G04 Aperture macros list end*
%ADD10RoundRect,0.250000X-0.450000X0.350000X-0.450000X-0.350000X0.450000X-0.350000X0.450000X0.350000X0*%
%ADD11RoundRect,0.250000X0.475000X-0.337500X0.475000X0.337500X-0.475000X0.337500X-0.475000X-0.337500X0*%
%ADD12RoundRect,0.250000X-0.475000X0.337500X-0.475000X-0.337500X0.475000X-0.337500X0.475000X0.337500X0*%
%ADD13RoundRect,0.250000X0.337500X0.475000X-0.337500X0.475000X-0.337500X-0.475000X0.337500X-0.475000X0*%
%ADD14RoundRect,0.250000X-0.350000X-0.450000X0.350000X-0.450000X0.350000X0.450000X-0.350000X0.450000X0*%
%ADD15RoundRect,0.250000X0.450000X-0.350000X0.450000X0.350000X-0.450000X0.350000X-0.450000X-0.350000X0*%
%ADD16RoundRect,0.250000X-0.337500X-0.475000X0.337500X-0.475000X0.337500X0.475000X-0.337500X0.475000X0*%
%ADD17RoundRect,0.100000X0.712500X0.100000X-0.712500X0.100000X-0.712500X-0.100000X0.712500X-0.100000X0*%
%ADD18R,0.990600X0.203200*%
%ADD19R,0.889000X0.203200*%
%ADD20R,0.203200X0.711200*%
%ADD21R,0.203200X1.111200*%
G04 APERTURE END LIST*
D10*
%TO.C,R2*%
X127255000Y-91420000D03*
X127255000Y-93420000D03*
%TD*%
D11*
%TO.C,C17*%
X140335000Y-88577500D03*
X140335000Y-86502500D03*
%TD*%
D12*
%TO.C,C15*%
X131915000Y-86382500D03*
X131915000Y-88457500D03*
%TD*%
D11*
%TO.C,C19*%
X129905000Y-85730000D03*
X129905000Y-83655000D03*
%TD*%
D13*
%TO.C,C20*%
X122135000Y-85280000D03*
X120060000Y-85280000D03*
%TD*%
D14*
%TO.C,R6*%
X120105000Y-89560000D03*
X122105000Y-89560000D03*
%TD*%
D15*
%TO.C,R4*%
X125285000Y-93510000D03*
X125285000Y-91510000D03*
%TD*%
D10*
%TO.C,R1*%
X129235000Y-91340000D03*
X129235000Y-93340000D03*
%TD*%
D13*
%TO.C,C22*%
X122105000Y-83290000D03*
X120030000Y-83290000D03*
%TD*%
D15*
%TO.C,R3*%
X123315000Y-93550000D03*
X123315000Y-91550000D03*
%TD*%
D11*
%TO.C,C16*%
X142415000Y-88567500D03*
X142415000Y-86492500D03*
%TD*%
D16*
%TO.C,C21*%
X127840000Y-87710000D03*
X129915000Y-87710000D03*
%TD*%
D10*
%TO.C,R5*%
X124285000Y-82110000D03*
X124285000Y-84110000D03*
%TD*%
D17*
%TO.C,U7*%
X138227500Y-88445000D03*
X138227500Y-87795000D03*
X138227500Y-87145000D03*
X138227500Y-86495000D03*
X134002500Y-86495000D03*
X134002500Y-87145000D03*
X134002500Y-87795000D03*
X134002500Y-88445000D03*
%TD*%
D18*
%TO.C,U6*%
X123865998Y-87000000D03*
D19*
X123814998Y-87399999D03*
X123814998Y-87799999D03*
X123814998Y-88199998D03*
D20*
X123864998Y-89049999D03*
D21*
X124265000Y-89249999D03*
D20*
X124664999Y-89049999D03*
X125064998Y-89049999D03*
X125465000Y-89049999D03*
D19*
X125515000Y-88199998D03*
X125515000Y-87799999D03*
X125515000Y-87399999D03*
X125515000Y-87000000D03*
D20*
X125465000Y-86149999D03*
X125064998Y-86149999D03*
X124664999Y-86149999D03*
X124265000Y-86149999D03*
X123864998Y-86149999D03*
%TD*%
D13*
%TO.C,C23*%
X121085000Y-87570000D03*
X119010000Y-87570000D03*
%TD*%
D11*
%TO.C,C18*%
X127825000Y-85720000D03*
X127825000Y-83645000D03*
%TD*%
M02*
