M48
; DRILL file {KiCad 9.0.1} date 2025-06-04T09:15:44-0500
; FORMAT={-:-/ absolute / metric / decimal}
; #@! TF.CreationDate,2025-06-04T09:15:44-05:00
; #@! TF.GenerationSoftware,Kicad,Pcbnew,9.0.1
; #@! TF.FileFunction,NonPlated,1,2,NPTH
FMAT,2
METRIC
; #@! TA.AperFunction,NonPlated,NPTH,ComponentDrill
T1C0.500
; #@! TA.AperFunction,NonPlated,NPTH,ComponentDrill
T2C4.000
%
G90
G05
T1
X0.0Y117.6
X0.0Y10.0
X0.8Y117.6
X0.8Y10.0
X1.6Y117.6
X1.6Y10.0
X2.4Y117.6
X2.4Y10.0
X3.2Y117.6
X3.2Y10.0
X4.0Y117.6
X4.0Y10.0
X4.8Y117.6
X4.8Y10.0
X5.6Y117.6
X5.6Y10.0
X6.4Y117.6
X6.4Y10.0
X7.2Y117.6
X7.2Y10.0
X8.0Y117.6
X8.0Y10.0
X10.0Y127.6
X10.0Y126.8
X10.0Y126.0
X10.0Y125.2
X10.0Y124.4
X10.0Y123.6
X10.0Y122.8
X10.0Y122.0
X10.0Y121.2
X10.0Y120.4
X10.0Y119.6
X10.0Y8.0
X10.0Y7.2
X10.0Y6.4
X10.0Y5.6
X10.0Y4.8
X10.0Y4.0
X10.0Y3.2
X10.0Y2.4
X10.0Y1.6
X10.0Y0.8
X10.0Y0.0
X10.25Y101.5
X10.25Y100.5
X10.25Y99.5
X10.25Y98.5
X10.25Y83.9
X10.25Y82.9
X10.25Y81.9
X10.25Y80.9
X10.25Y46.7
X10.25Y45.7
X10.25Y44.7
X10.25Y43.7
X10.25Y29.1
X10.25Y28.1
X10.25Y27.1
X10.25Y26.1
X20.9Y117.35
X20.9Y65.05
X20.9Y62.55
X20.9Y10.25
X21.9Y117.35
X21.9Y65.05
X21.9Y62.55
X21.9Y10.25
X22.9Y117.35
X22.9Y65.05
X22.9Y62.55
X22.9Y10.25
X23.9Y117.35
X23.9Y65.05
X23.9Y62.55
X23.9Y10.25
X33.3Y117.35
X33.3Y65.05
X33.3Y62.55
X33.3Y10.25
X34.3Y117.35
X34.3Y65.05
X34.3Y62.55
X34.3Y10.25
X35.3Y117.35
X35.3Y65.05
X35.3Y62.55
X35.3Y10.25
X36.3Y117.35
X36.3Y65.05
X36.3Y62.55
X36.3Y10.25
X46.95Y101.5
X46.95Y100.5
X46.95Y99.5
X46.95Y98.5
X46.95Y83.9
X46.95Y82.9
X46.95Y81.9
X46.95Y80.9
X46.95Y46.7
X46.95Y45.7
X46.95Y44.7
X46.95Y43.7
X46.95Y29.1
X46.95Y28.1
X46.95Y27.1
X46.95Y26.1
X49.45Y101.5
X49.45Y100.5
X49.45Y99.5
X49.45Y98.5
X49.45Y83.9
X49.45Y82.9
X49.45Y81.9
X49.45Y80.9
X49.45Y46.7
X49.45Y45.7
X49.45Y44.7
X49.45Y43.7
X49.45Y29.1
X49.45Y28.1
X49.45Y27.1
X49.45Y26.1
X60.1Y117.35
X60.1Y65.05
X60.1Y62.55
X60.1Y10.25
X61.1Y117.35
X61.1Y65.05
X61.1Y62.55
X61.1Y10.25
X62.1Y117.35
X62.1Y65.05
X62.1Y62.55
X62.1Y10.25
X63.1Y117.35
X63.1Y65.05
X63.1Y62.55
X63.1Y10.25
X72.5Y117.35
X72.5Y65.05
X72.5Y62.55
X72.5Y10.25
X73.5Y117.35
X73.5Y65.05
X73.5Y62.55
X73.5Y10.25
X74.5Y117.35
X74.5Y65.05
X74.5Y62.55
X74.5Y10.25
X75.5Y117.35
X75.5Y65.05
X75.5Y62.55
X75.5Y10.25
X86.15Y101.5
X86.15Y100.5
X86.15Y99.5
X86.15Y98.5
X86.15Y83.9
X86.15Y82.9
X86.15Y81.9
X86.15Y80.9
X86.15Y46.7
X86.15Y45.7
X86.15Y44.7
X86.15Y43.7
X86.15Y29.1
X86.15Y28.1
X86.15Y27.1
X86.15Y26.1
X86.4Y127.6
X86.4Y126.8
X86.4Y126.0
X86.4Y125.2
X86.4Y124.4
X86.4Y123.6
X86.4Y122.8
X86.4Y122.0
X86.4Y121.2
X86.4Y120.4
X86.4Y119.6
X86.4Y8.0
X86.4Y7.2
X86.4Y6.4
X86.4Y5.6
X86.4Y4.8
X86.4Y4.0
X86.4Y3.2
X86.4Y2.4
X86.4Y1.6
X86.4Y0.8
X86.4Y0.0
X88.4Y117.6
X88.4Y10.0
X89.2Y117.6
X89.2Y10.0
X90.0Y117.6
X90.0Y10.0
X90.8Y117.6
X90.8Y10.0
X91.6Y117.6
X91.6Y10.0
X92.4Y117.6
X92.4Y10.0
X93.2Y117.6
X93.2Y10.0
X94.0Y117.6
X94.0Y10.0
X94.8Y117.6
X94.8Y10.0
X95.6Y117.6
X95.6Y10.0
X96.4Y117.6
X96.4Y10.0
T2
X19.3Y108.3
X19.3Y91.2
X19.3Y74.1
X19.3Y53.5
X19.3Y36.4
X19.3Y19.3
X37.9Y108.3
X37.9Y91.2
X37.9Y74.1
X37.9Y53.5
X37.9Y36.4
X37.9Y19.3
X58.5Y108.3
X58.5Y91.2
X58.5Y74.1
X58.5Y53.5
X58.5Y36.4
X58.5Y19.3
X77.1Y108.3
X77.1Y91.2
X77.1Y74.1
X77.1Y53.5
X77.1Y36.4
X77.1Y19.3
M30
