M48
; DRILL file {KiCad 9.0.1} date 2025-06-04T09:15:44-0500
; FORMAT={-:-/ absolute / metric / decimal}
; #@! TF.CreationDate,2025-06-04T09:15:44-05:00
; #@! TF.GenerationSoftware,Kicad,Pcbnew,9.0.1
; #@! TF.FileFunction,Plated,1,2,PTH
FMAT,2
METRIC
; #@! TA.AperFunction,Plated,PTH,ViaDrill
T1C0.400
; #@! TA.AperFunction,Plated,PTH,ComponentDrill
T2C0.400
; #@! TA.AperFunction,Plated,PTH,ComponentDrill
T3C1.000
%
G90
G05
T1
X11.81Y97.19
X11.81Y42.39
X13.67Y73.22
X13.67Y18.42
X15.29Y108.3
X15.29Y53.5
X15.3Y91.2
X15.3Y74.1
X15.3Y36.4
X15.3Y19.3
X15.8Y80.4
X15.8Y25.6
X16.46Y105.46
X16.46Y50.66
X16.47Y111.15
X16.47Y88.36
X16.47Y71.26
X16.47Y56.35
X16.47Y33.56
X16.47Y16.46
X16.48Y94.05
X16.48Y76.95
X16.48Y39.25
X16.48Y22.15
X19.3Y112.3
X19.3Y104.3
X19.3Y57.5
X19.3Y49.5
X19.31Y95.2
X19.31Y87.2
X19.31Y78.1
X19.31Y70.1
X19.31Y40.4
X19.31Y32.4
X19.31Y23.3
X19.31Y15.3
X22.128Y111.128
X22.128Y105.472
X22.128Y56.328
X22.128Y50.672
X22.138Y94.028
X22.138Y88.372
X22.138Y76.928
X22.138Y71.272
X22.138Y39.228
X22.138Y33.572
X22.138Y22.128
X22.138Y16.472
X23.29Y108.3
X23.29Y53.5
X23.3Y91.2
X23.3Y74.1
X23.3Y36.4
X23.3Y19.3
X26.518Y73.733
X26.518Y18.933
X27.04Y91.44
X27.04Y36.64
X27.16Y105.525
X27.16Y50.725
X27.24Y87.16
X27.24Y32.36
X27.28Y101.43
X27.28Y46.63
X27.41Y108.7
X27.41Y53.9
X27.78Y67.74
X27.78Y12.94
X28.68Y94.56
X28.68Y39.76
X28.69Y82.7
X28.69Y27.9
X28.86Y99.11
X28.86Y44.31
X29.58Y105.44
X29.58Y50.64
X30.01Y73.67
X30.01Y18.87
X30.269Y101.391
X30.269Y46.591
X30.29Y91.43
X30.29Y36.63
X30.305Y86.515
X30.305Y31.715
X33.9Y108.3
X33.9Y91.2
X33.9Y74.1
X33.9Y53.5
X33.9Y36.4
X33.9Y19.3
X35.07Y105.46
X35.07Y88.36
X35.07Y71.26
X35.07Y50.66
X35.07Y33.56
X35.07Y16.46
X35.08Y111.15
X35.08Y94.05
X35.08Y76.95
X35.08Y56.35
X35.08Y39.25
X35.08Y22.15
X37.22Y67.42
X37.22Y12.62
X37.91Y112.3
X37.91Y104.3
X37.91Y95.2
X37.91Y87.2
X37.91Y78.1
X37.91Y70.1
X37.91Y57.5
X37.91Y49.5
X37.91Y40.4
X37.91Y32.4
X37.91Y23.3
X37.91Y15.3
X40.738Y111.128
X40.738Y105.472
X40.738Y94.028
X40.738Y88.372
X40.738Y76.928
X40.738Y71.272
X40.738Y56.328
X40.738Y50.672
X40.738Y39.228
X40.738Y33.572
X40.738Y22.128
X40.738Y16.472
X41.9Y108.3
X41.9Y91.2
X41.9Y74.1
X41.9Y53.5
X41.9Y36.4
X41.9Y19.3
X42.69Y113.31
X42.69Y58.51
X51.01Y97.19
X51.01Y42.39
X52.87Y73.22
X52.87Y18.42
X54.49Y108.3
X54.49Y53.5
X54.5Y91.2
X54.5Y74.1
X54.5Y36.4
X54.5Y19.3
X55.0Y80.4
X55.0Y25.6
X55.66Y105.46
X55.66Y50.66
X55.67Y111.15
X55.67Y88.36
X55.67Y71.26
X55.67Y56.35
X55.67Y33.56
X55.67Y16.46
X55.68Y94.05
X55.68Y76.95
X55.68Y39.25
X55.68Y22.15
X58.5Y112.3
X58.5Y104.3
X58.5Y57.5
X58.5Y49.5
X58.51Y95.2
X58.51Y87.2
X58.51Y78.1
X58.51Y70.1
X58.51Y40.4
X58.51Y32.4
X58.51Y23.3
X58.51Y15.3
X61.328Y111.128
X61.328Y105.472
X61.328Y56.328
X61.328Y50.672
X61.338Y94.028
X61.338Y88.372
X61.338Y76.928
X61.338Y71.272
X61.338Y39.228
X61.338Y33.572
X61.338Y22.128
X61.338Y16.472
X62.49Y108.3
X62.49Y53.5
X62.5Y91.2
X62.5Y74.1
X62.5Y36.4
X62.5Y19.3
X65.718Y73.733
X65.718Y18.933
X66.24Y91.44
X66.24Y36.64
X66.36Y105.525
X66.36Y50.725
X66.44Y87.16
X66.44Y32.36
X66.48Y101.43
X66.48Y46.63
X66.61Y108.7
X66.61Y53.9
X66.98Y67.74
X66.98Y12.94
X67.88Y94.56
X67.88Y39.76
X67.89Y82.7
X67.89Y27.9
X68.06Y99.11
X68.06Y44.31
X68.78Y105.44
X68.78Y50.64
X69.21Y73.67
X69.21Y18.87
X69.469Y101.391
X69.469Y46.591
X69.49Y91.43
X69.49Y36.63
X69.505Y86.515
X69.505Y31.715
X73.1Y108.3
X73.1Y91.2
X73.1Y74.1
X73.1Y53.5
X73.1Y36.4
X73.1Y19.3
X74.27Y105.46
X74.27Y88.36
X74.27Y71.26
X74.27Y50.66
X74.27Y33.56
X74.27Y16.46
X74.28Y111.15
X74.28Y94.05
X74.28Y76.95
X74.28Y56.35
X74.28Y39.25
X74.28Y22.15
X76.42Y67.42
X76.42Y12.62
X77.11Y112.3
X77.11Y104.3
X77.11Y95.2
X77.11Y87.2
X77.11Y78.1
X77.11Y70.1
X77.11Y57.5
X77.11Y49.5
X77.11Y40.4
X77.11Y32.4
X77.11Y23.3
X77.11Y15.3
X79.938Y111.128
X79.938Y105.472
X79.938Y94.028
X79.938Y88.372
X79.938Y76.928
X79.938Y71.272
X79.938Y56.328
X79.938Y50.672
X79.938Y39.228
X79.938Y33.572
X79.938Y22.128
X79.938Y16.472
X81.1Y108.3
X81.1Y91.2
X81.1Y74.1
X81.1Y53.5
X81.1Y36.4
X81.1Y19.3
X81.89Y113.31
X81.89Y58.51
T2
X14.5Y103.5
X14.5Y96.0
X14.5Y78.9
X14.5Y48.7
X14.5Y41.2
X14.5Y24.1
X17.6Y97.2
X17.6Y80.2
X17.6Y42.4
X17.6Y25.4
X24.1Y113.1
X24.1Y58.3
X33.1Y113.1
X33.1Y58.3
X40.1Y97.7
X40.1Y80.2
X40.1Y42.9
X40.1Y25.4
X42.7Y103.5
X42.7Y96.0
X42.7Y78.9
X42.7Y48.7
X42.7Y41.2
X42.7Y24.1
X53.7Y103.5
X53.7Y96.0
X53.7Y78.9
X53.7Y48.7
X53.7Y41.2
X53.7Y24.1
X56.8Y97.2
X56.8Y80.2
X56.8Y42.4
X56.8Y25.4
X63.3Y113.1
X63.3Y58.3
X72.3Y113.1
X72.3Y58.3
X79.3Y97.7
X79.3Y80.2
X79.3Y42.9
X79.3Y25.4
X81.9Y103.5
X81.9Y96.0
X81.9Y78.9
X81.9Y48.7
X81.9Y41.2
X81.9Y24.1
T3
X12.82Y87.27
X12.82Y84.73
X12.82Y32.47
X12.82Y29.93
X12.825Y67.63
X12.825Y12.83
X15.365Y67.63
X15.365Y12.83
X18.03Y114.77
X18.03Y84.73
X18.03Y59.97
X18.03Y29.93
X20.57Y114.77
X20.57Y84.73
X20.57Y59.97
X20.57Y29.93
X36.63Y114.77
X36.63Y84.73
X36.63Y59.97
X36.63Y29.93
X39.17Y114.77
X39.17Y84.73
X39.17Y59.97
X39.17Y29.93
X41.835Y67.63
X41.835Y12.83
X44.37Y87.27
X44.37Y84.73
X44.37Y32.47
X44.37Y29.93
X44.375Y67.63
X44.375Y12.83
X52.02Y87.27
X52.02Y84.73
X52.02Y32.47
X52.02Y29.93
X52.025Y67.63
X52.025Y12.83
X54.565Y67.63
X54.565Y12.83
X57.23Y114.77
X57.23Y84.73
X57.23Y59.97
X57.23Y29.93
X59.77Y114.77
X59.77Y84.73
X59.77Y59.97
X59.77Y29.93
X75.83Y114.77
X75.83Y84.73
X75.83Y59.97
X75.83Y29.93
X78.37Y114.77
X78.37Y84.73
X78.37Y59.97
X78.37Y29.93
X81.035Y67.63
X81.035Y12.83
X83.57Y87.27
X83.57Y84.73
X83.57Y32.47
X83.57Y29.93
X83.575Y67.63
X83.575Y12.83
M30
