%TF.GenerationSoftware,KiCad,Pcbnew,9.0.1*%
%TF.CreationDate,2025-06-04T09:15:00-05:00*%
%TF.ProjectId,Top_layer_Panel,546f705f-6c61-4796-9572-5f50616e656c,rev?*%
%TF.SameCoordinates,PX5fa74e0PY8cc3280*%
%TF.FileFunction,Soldermask,Top*%
%TF.FilePolarity,Negative*%
%FSLAX46Y46*%
G04 Gerber Fmt 4.6, Leading zero omitted, Abs format (unit mm)*
G04 Created by KiCad (PCBNEW 9.0.1) date 2025-06-04 09:15:00*
%MOMM*%
%LPD*%
G01*
G04 APERTURE LIST*
%ADD10C,0.500000*%
%ADD11C,4.000000*%
%ADD12C,0.900000*%
%ADD13R,1.700000X1.700000*%
%ADD14O,1.700000X1.700000*%
G04 APERTURE END LIST*
D10*
%TO.C,KiKit_MB_38_10*%
X7200000Y10000000D03*
%TD*%
%TO.C,KiKit_MB_3_3*%
X46950000Y99500000D03*
%TD*%
%TO.C,KiKit_MB_34_7*%
X86400000Y122800000D03*
%TD*%
%TO.C,KiKit_MB_1_4*%
X10250000Y101500000D03*
%TD*%
%TO.C,KiKit_MB_16_4*%
X72500000Y65050000D03*
%TD*%
%TO.C,KiKit_MB_6_1*%
X33300000Y117350000D03*
%TD*%
%TO.C,KiKit_MB_40_7*%
X93200000Y10000000D03*
%TD*%
%TO.C,KiKit_MB_25_1*%
X49450000Y43700000D03*
%TD*%
%TO.C,KiKit_MB_30_4*%
X75500000Y62550000D03*
%TD*%
%TO.C,KiKit_MB_7_4*%
X20900000Y65050000D03*
%TD*%
%TO.C,KiKit_MB_33_1*%
X10000000Y127600000D03*
%TD*%
%TO.C,KiKit_MB_11_3*%
X86150000Y99500000D03*
%TD*%
%TO.C,KiKit_MB_36_10*%
X86400000Y800000D03*
%TD*%
%TO.C,KiKit_MB_40_11*%
X96400000Y10000000D03*
%TD*%
%TO.C,KiKit_MB_5_3*%
X22900000Y117350000D03*
%TD*%
%TO.C,KiKit_MB_37_6*%
X4000000Y117600000D03*
%TD*%
%TO.C,KiKit_MB_4_1*%
X46950000Y83900000D03*
%TD*%
%TO.C,KiKit_MB_12_1*%
X86150000Y83900000D03*
%TD*%
%TO.C,KiKit_MB_37_3*%
X1600000Y117600000D03*
%TD*%
%TO.C,KiKit_MB_35_5*%
X10000000Y4800000D03*
%TD*%
%TO.C,KiKit_MB_35_8*%
X10000000Y2400000D03*
%TD*%
%TO.C,KiKit_MB_6_4*%
X36300000Y117350000D03*
%TD*%
%TO.C,KiKit_MB_29_2*%
X61100000Y62550000D03*
%TD*%
%TO.C,KiKit_MB_14_3*%
X74500000Y117350000D03*
%TD*%
%TO.C,KiKit_MB_12_2*%
X86150000Y82900000D03*
%TD*%
%TO.C,KiKit_MB_28_4*%
X86150000Y26100000D03*
%TD*%
%TO.C,KiKit_MB_2_4*%
X10250000Y83900000D03*
%TD*%
%TO.C,KiKit_MB_40_4*%
X90800000Y10000000D03*
%TD*%
%TO.C,KiKit_MB_29_1*%
X60100000Y62550000D03*
%TD*%
%TO.C,KiKit_MB_20_4*%
X46950000Y26100000D03*
%TD*%
%TO.C,KiKit_MB_33_9*%
X10000000Y121200000D03*
%TD*%
%TO.C,KiKit_MB_33_7*%
X10000000Y122800000D03*
%TD*%
%TO.C,KiKit_MB_22_3*%
X35300000Y62550000D03*
%TD*%
%TO.C,KiKit_MB_36_4*%
X86400000Y5600000D03*
%TD*%
%TO.C,KiKit_MB_40_10*%
X95600000Y10000000D03*
%TD*%
%TO.C,KiKit_MB_23_2*%
X22900000Y10250000D03*
%TD*%
%TO.C,KiKit_MB_17_3*%
X10250000Y45700000D03*
%TD*%
%TO.C,KiKit_MB_38_1*%
X0Y10000000D03*
%TD*%
%TO.C,KiKit_MB_3_2*%
X46950000Y100500000D03*
%TD*%
%TO.C,KiKit_MB_38_9*%
X6400000Y10000000D03*
%TD*%
%TO.C,KiKit_MB_37_7*%
X4800000Y117600000D03*
%TD*%
%TO.C,KiKit_MB_28_3*%
X86150000Y27100000D03*
%TD*%
%TO.C,KiKit_MB_7_2*%
X22900000Y65050000D03*
%TD*%
%TO.C,KiKit_MB_12_4*%
X86150000Y80900000D03*
%TD*%
%TO.C,KiKit_MB_36_8*%
X86400000Y2400000D03*
%TD*%
%TO.C,KiKit_MB_6_2*%
X34300000Y117350000D03*
%TD*%
%TO.C,KiKit_MB_39_11*%
X96400000Y117600000D03*
%TD*%
%TO.C,KiKit_MB_2_2*%
X10250000Y81900000D03*
%TD*%
%TO.C,KiKit_MB_38_8*%
X5600000Y10000000D03*
%TD*%
%TO.C,KiKit_MB_40_1*%
X88400000Y10000000D03*
%TD*%
%TO.C,KiKit_MB_39_3*%
X90000000Y117600000D03*
%TD*%
%TO.C,KiKit_MB_38_11*%
X8000000Y10000000D03*
%TD*%
%TO.C,KiKit_MB_16_3*%
X73500000Y65050000D03*
%TD*%
%TO.C,KiKit_MB_34_5*%
X86400000Y124400000D03*
%TD*%
%TO.C,KiKit_MB_35_1*%
X10000000Y8000000D03*
%TD*%
%TO.C,KiKit_MB_7_1*%
X23900000Y65050000D03*
%TD*%
%TO.C,KiKit_MB_22_2*%
X34300000Y62550000D03*
%TD*%
%TO.C,KiKit_MB_24_3*%
X34300000Y10250000D03*
%TD*%
%TO.C,KiKit_MB_20_2*%
X46950000Y28100000D03*
%TD*%
%TO.C,KiKit_MB_33_3*%
X10000000Y126000000D03*
%TD*%
%TO.C,KiKit_MB_34_4*%
X86400000Y125200000D03*
%TD*%
%TO.C,KiKit_MB_10_1*%
X49450000Y80900000D03*
%TD*%
%TO.C,KiKit_MB_19_3*%
X46950000Y44700000D03*
%TD*%
%TO.C,KiKit_MB_33_11*%
X10000000Y119600000D03*
%TD*%
%TO.C,KiKit_MB_36_3*%
X86400000Y6400000D03*
%TD*%
%TO.C,KiKit_MB_38_5*%
X3200000Y10000000D03*
%TD*%
%TO.C,KiKit_MB_18_2*%
X10250000Y27100000D03*
%TD*%
%TO.C,KiKit_MB_23_4*%
X20900000Y10250000D03*
%TD*%
%TO.C,KiKit_MB_10_2*%
X49450000Y81900000D03*
%TD*%
%TO.C,KiKit_MB_30_1*%
X72500000Y62550000D03*
%TD*%
%TO.C,KiKit_MB_19_4*%
X46950000Y43700000D03*
%TD*%
%TO.C,KiKit_MB_30_3*%
X74500000Y62550000D03*
%TD*%
%TO.C,KiKit_MB_24_1*%
X36300000Y10250000D03*
%TD*%
%TO.C,KiKit_MB_34_6*%
X86400000Y123600000D03*
%TD*%
%TO.C,KiKit_MB_21_1*%
X20900000Y62550000D03*
%TD*%
D11*
%TO.C,U1*%
X19300000Y53500000D03*
X19300000Y36400000D03*
X19300000Y19300000D03*
X37900000Y53500000D03*
X37900000Y36400000D03*
X37900000Y19300000D03*
D12*
X14500000Y48700000D03*
X24100000Y58300000D03*
X14500000Y41200000D03*
X17600000Y42400000D03*
X14500000Y24100000D03*
X17600000Y25400000D03*
X33100000Y58300000D03*
X42700000Y48700000D03*
X40100000Y42900000D03*
X42700000Y41200000D03*
X40100000Y25400000D03*
X42700000Y24100000D03*
%TD*%
D10*
%TO.C,KiKit_MB_2_3*%
X10250000Y82900000D03*
%TD*%
%TO.C,KiKit_MB_25_2*%
X49450000Y44700000D03*
%TD*%
%TO.C,KiKit_MB_27_2*%
X86150000Y45700000D03*
%TD*%
%TO.C,KiKit_MB_39_2*%
X89200000Y117600000D03*
%TD*%
%TO.C,KiKit_MB_9_1*%
X49450000Y98500000D03*
%TD*%
%TO.C,KiKit_MB_29_3*%
X62100000Y62550000D03*
%TD*%
%TO.C,KiKit_MB_27_4*%
X86150000Y43700000D03*
%TD*%
%TO.C,KiKit_MB_38_4*%
X2400000Y10000000D03*
%TD*%
%TO.C,KiKit_MB_35_11*%
X10000000Y0D03*
%TD*%
%TO.C,KiKit_MB_13_4*%
X63100000Y117350000D03*
%TD*%
%TO.C,KiKit_MB_20_3*%
X46950000Y27100000D03*
%TD*%
%TO.C,KiKit_MB_15_3*%
X61100000Y65050000D03*
%TD*%
%TO.C,KiKit_MB_12_3*%
X86150000Y81900000D03*
%TD*%
%TO.C,KiKit_MB_39_9*%
X94800000Y117600000D03*
%TD*%
%TO.C,KiKit_MB_11_4*%
X86150000Y98500000D03*
%TD*%
%TO.C,KiKit_MB_37_1*%
X0Y117600000D03*
%TD*%
%TO.C,KiKit_MB_39_7*%
X93200000Y117600000D03*
%TD*%
%TO.C,KiKit_MB_2_1*%
X10250000Y80900000D03*
%TD*%
%TO.C,KiKit_MB_21_3*%
X22900000Y62550000D03*
%TD*%
%TO.C,KiKit_MB_9_4*%
X49450000Y101500000D03*
%TD*%
%TO.C,KiKit_MB_34_11*%
X86400000Y119600000D03*
%TD*%
%TO.C,KiKit_MB_13_2*%
X61100000Y117350000D03*
%TD*%
%TO.C,KiKit_MB_19_1*%
X46950000Y46700000D03*
%TD*%
%TO.C,KiKit_MB_17_2*%
X10250000Y44700000D03*
%TD*%
%TO.C,KiKit_MB_15_1*%
X63100000Y65050000D03*
%TD*%
%TO.C,KiKit_MB_9_3*%
X49450000Y100500000D03*
%TD*%
%TO.C,KiKit_MB_22_4*%
X36300000Y62550000D03*
%TD*%
%TO.C,KiKit_MB_23_1*%
X23900000Y10250000D03*
%TD*%
%TO.C,KiKit_MB_37_5*%
X3200000Y117600000D03*
%TD*%
%TO.C,KiKit_MB_26_4*%
X49450000Y29100000D03*
%TD*%
%TO.C,KiKit_MB_5_2*%
X21900000Y117350000D03*
%TD*%
%TO.C,KiKit_MB_24_2*%
X35300000Y10250000D03*
%TD*%
%TO.C,KiKit_MB_1_2*%
X10250000Y99500000D03*
%TD*%
%TO.C,KiKit_MB_28_1*%
X86150000Y29100000D03*
%TD*%
%TO.C,KiKit_MB_20_1*%
X46950000Y29100000D03*
%TD*%
%TO.C,KiKit_MB_27_3*%
X86150000Y44700000D03*
%TD*%
%TO.C,KiKit_MB_4_2*%
X46950000Y82900000D03*
%TD*%
%TO.C,KiKit_MB_26_2*%
X49450000Y27100000D03*
%TD*%
D11*
%TO.C,U1*%
X58500000Y53500000D03*
X58500000Y36400000D03*
X58500000Y19300000D03*
X77100000Y53500000D03*
X77100000Y36400000D03*
X77100000Y19300000D03*
D12*
X53700000Y48700000D03*
X63300000Y58300000D03*
X53700000Y41200000D03*
X56800000Y42400000D03*
X53700000Y24100000D03*
X56800000Y25400000D03*
X72300000Y58300000D03*
X81900000Y48700000D03*
X79300000Y42900000D03*
X81900000Y41200000D03*
X79300000Y25400000D03*
X81900000Y24100000D03*
%TD*%
D10*
%TO.C,KiKit_MB_33_2*%
X10000000Y126800000D03*
%TD*%
%TO.C,KiKit_MB_39_4*%
X90800000Y117600000D03*
%TD*%
%TO.C,KiKit_MB_40_6*%
X92400000Y10000000D03*
%TD*%
%TO.C,KiKit_MB_39_5*%
X91600000Y117600000D03*
%TD*%
%TO.C,KiKit_MB_36_1*%
X86400000Y8000000D03*
%TD*%
D11*
%TO.C,U1*%
X19300000Y108300000D03*
X19300000Y91200000D03*
X19300000Y74100000D03*
X37900000Y108300000D03*
X37900000Y91200000D03*
X37900000Y74100000D03*
D12*
X14500000Y103500000D03*
X24100000Y113100000D03*
X14500000Y96000000D03*
X17600000Y97200000D03*
X14500000Y78900000D03*
X17600000Y80200000D03*
X33100000Y113100000D03*
X42700000Y103500000D03*
X40100000Y97700000D03*
X42700000Y96000000D03*
X40100000Y80200000D03*
X42700000Y78900000D03*
%TD*%
D10*
%TO.C,KiKit_MB_29_4*%
X63100000Y62550000D03*
%TD*%
%TO.C,KiKit_MB_34_1*%
X86400000Y127600000D03*
%TD*%
%TO.C,KiKit_MB_31_2*%
X62100000Y10250000D03*
%TD*%
%TO.C,KiKit_MB_21_2*%
X21900000Y62550000D03*
%TD*%
%TO.C,KiKit_MB_1_1*%
X10250000Y98500000D03*
%TD*%
D11*
%TO.C,U1*%
X58500000Y108300000D03*
X58500000Y91200000D03*
X58500000Y74100000D03*
X77100000Y108300000D03*
X77100000Y91200000D03*
X77100000Y74100000D03*
D12*
X53700000Y103500000D03*
X63300000Y113100000D03*
X53700000Y96000000D03*
X56800000Y97200000D03*
X53700000Y78900000D03*
X56800000Y80200000D03*
X72300000Y113100000D03*
X81900000Y103500000D03*
X79300000Y97700000D03*
X81900000Y96000000D03*
X79300000Y80200000D03*
X81900000Y78900000D03*
%TD*%
D10*
%TO.C,KiKit_MB_22_1*%
X33300000Y62550000D03*
%TD*%
%TO.C,KiKit_MB_10_4*%
X49450000Y83900000D03*
%TD*%
%TO.C,KiKit_MB_9_2*%
X49450000Y99500000D03*
%TD*%
%TO.C,KiKit_MB_24_4*%
X33300000Y10250000D03*
%TD*%
%TO.C,KiKit_MB_18_3*%
X10250000Y28100000D03*
%TD*%
%TO.C,KiKit_MB_35_10*%
X10000000Y800000D03*
%TD*%
%TO.C,KiKit_MB_36_6*%
X86400000Y4000000D03*
%TD*%
%TO.C,KiKit_MB_33_8*%
X10000000Y122000000D03*
%TD*%
%TO.C,KiKit_MB_37_8*%
X5600000Y117600000D03*
%TD*%
%TO.C,KiKit_MB_32_3*%
X73500000Y10250000D03*
%TD*%
%TO.C,KiKit_MB_35_3*%
X10000000Y6400000D03*
%TD*%
%TO.C,KiKit_MB_40_3*%
X90000000Y10000000D03*
%TD*%
%TO.C,KiKit_MB_4_4*%
X46950000Y80900000D03*
%TD*%
%TO.C,KiKit_MB_39_8*%
X94000000Y117600000D03*
%TD*%
%TO.C,KiKit_MB_35_9*%
X10000000Y1600000D03*
%TD*%
%TO.C,KiKit_MB_18_4*%
X10250000Y29100000D03*
%TD*%
%TO.C,KiKit_MB_36_7*%
X86400000Y3200000D03*
%TD*%
%TO.C,KiKit_MB_18_1*%
X10250000Y26100000D03*
%TD*%
%TO.C,KiKit_MB_37_4*%
X2400000Y117600000D03*
%TD*%
%TO.C,KiKit_MB_13_3*%
X62100000Y117350000D03*
%TD*%
%TO.C,KiKit_MB_6_3*%
X35300000Y117350000D03*
%TD*%
%TO.C,KiKit_MB_3_4*%
X46950000Y98500000D03*
%TD*%
%TO.C,KiKit_MB_8_2*%
X35300000Y65050000D03*
%TD*%
%TO.C,KiKit_MB_31_4*%
X60100000Y10250000D03*
%TD*%
%TO.C,KiKit_MB_5_1*%
X20900000Y117350000D03*
%TD*%
%TO.C,KiKit_MB_40_8*%
X94000000Y10000000D03*
%TD*%
%TO.C,KiKit_MB_32_2*%
X74500000Y10250000D03*
%TD*%
%TO.C,KiKit_MB_36_9*%
X86400000Y1600000D03*
%TD*%
%TO.C,KiKit_MB_39_10*%
X95600000Y117600000D03*
%TD*%
%TO.C,KiKit_MB_25_3*%
X49450000Y45700000D03*
%TD*%
%TO.C,KiKit_MB_8_4*%
X33300000Y65050000D03*
%TD*%
%TO.C,KiKit_MB_36_11*%
X86400000Y0D03*
%TD*%
%TO.C,KiKit_MB_10_3*%
X49450000Y82900000D03*
%TD*%
%TO.C,KiKit_MB_11_1*%
X86150000Y101500000D03*
%TD*%
%TO.C,KiKit_MB_35_6*%
X10000000Y4000000D03*
%TD*%
%TO.C,KiKit_MB_35_7*%
X10000000Y3200000D03*
%TD*%
%TO.C,KiKit_MB_34_9*%
X86400000Y121200000D03*
%TD*%
%TO.C,KiKit_MB_33_10*%
X10000000Y120400000D03*
%TD*%
%TO.C,KiKit_MB_40_5*%
X91600000Y10000000D03*
%TD*%
%TO.C,KiKit_MB_15_4*%
X60100000Y65050000D03*
%TD*%
%TO.C,KiKit_MB_34_8*%
X86400000Y122000000D03*
%TD*%
%TO.C,KiKit_MB_31_1*%
X63100000Y10250000D03*
%TD*%
%TO.C,KiKit_MB_35_2*%
X10000000Y7200000D03*
%TD*%
%TO.C,KiKit_MB_13_1*%
X60100000Y117350000D03*
%TD*%
%TO.C,KiKit_MB_26_3*%
X49450000Y28100000D03*
%TD*%
%TO.C,KiKit_MB_30_2*%
X73500000Y62550000D03*
%TD*%
%TO.C,KiKit_MB_16_2*%
X74500000Y65050000D03*
%TD*%
%TO.C,KiKit_MB_14_2*%
X73500000Y117350000D03*
%TD*%
%TO.C,KiKit_MB_31_3*%
X61100000Y10250000D03*
%TD*%
%TO.C,KiKit_MB_40_2*%
X89200000Y10000000D03*
%TD*%
%TO.C,KiKit_MB_14_4*%
X75500000Y117350000D03*
%TD*%
%TO.C,KiKit_MB_34_3*%
X86400000Y126000000D03*
%TD*%
%TO.C,KiKit_MB_27_1*%
X86150000Y46700000D03*
%TD*%
%TO.C,KiKit_MB_33_6*%
X10000000Y123600000D03*
%TD*%
%TO.C,KiKit_MB_37_2*%
X800000Y117600000D03*
%TD*%
%TO.C,KiKit_MB_33_4*%
X10000000Y125200000D03*
%TD*%
%TO.C,KiKit_MB_38_7*%
X4800000Y10000000D03*
%TD*%
%TO.C,KiKit_MB_36_2*%
X86400000Y7200000D03*
%TD*%
%TO.C,KiKit_MB_25_4*%
X49450000Y46700000D03*
%TD*%
%TO.C,KiKit_MB_26_1*%
X49450000Y26100000D03*
%TD*%
%TO.C,KiKit_MB_5_4*%
X23900000Y117350000D03*
%TD*%
%TO.C,KiKit_MB_21_4*%
X23900000Y62550000D03*
%TD*%
%TO.C,KiKit_MB_8_3*%
X34300000Y65050000D03*
%TD*%
%TO.C,KiKit_MB_17_1*%
X10250000Y43700000D03*
%TD*%
%TO.C,KiKit_MB_36_5*%
X86400000Y4800000D03*
%TD*%
%TO.C,KiKit_MB_38_6*%
X4000000Y10000000D03*
%TD*%
%TO.C,KiKit_MB_38_3*%
X1600000Y10000000D03*
%TD*%
%TO.C,KiKit_MB_38_2*%
X800000Y10000000D03*
%TD*%
%TO.C,KiKit_MB_33_5*%
X10000000Y124400000D03*
%TD*%
%TO.C,KiKit_MB_3_1*%
X46950000Y101500000D03*
%TD*%
%TO.C,KiKit_MB_11_2*%
X86150000Y100500000D03*
%TD*%
%TO.C,KiKit_MB_40_9*%
X94800000Y10000000D03*
%TD*%
%TO.C,KiKit_MB_34_10*%
X86400000Y120400000D03*
%TD*%
%TO.C,KiKit_MB_23_3*%
X21900000Y10250000D03*
%TD*%
%TO.C,KiKit_MB_8_1*%
X36300000Y65050000D03*
%TD*%
%TO.C,KiKit_MB_17_4*%
X10250000Y46700000D03*
%TD*%
%TO.C,KiKit_MB_32_1*%
X75500000Y10250000D03*
%TD*%
%TO.C,KiKit_MB_19_2*%
X46950000Y45700000D03*
%TD*%
%TO.C,KiKit_MB_37_10*%
X7200000Y117600000D03*
%TD*%
%TO.C,KiKit_MB_16_1*%
X75500000Y65050000D03*
%TD*%
%TO.C,KiKit_MB_37_11*%
X8000000Y117600000D03*
%TD*%
%TO.C,KiKit_MB_34_2*%
X86400000Y126800000D03*
%TD*%
%TO.C,KiKit_MB_7_3*%
X21900000Y65050000D03*
%TD*%
%TO.C,KiKit_MB_32_4*%
X72500000Y10250000D03*
%TD*%
%TO.C,KiKit_MB_15_2*%
X62100000Y65050000D03*
%TD*%
%TO.C,KiKit_MB_39_6*%
X92400000Y117600000D03*
%TD*%
%TO.C,KiKit_MB_14_1*%
X72500000Y117350000D03*
%TD*%
%TO.C,KiKit_MB_39_1*%
X88400000Y117600000D03*
%TD*%
%TO.C,KiKit_MB_28_2*%
X86150000Y28100000D03*
%TD*%
%TO.C,KiKit_MB_35_4*%
X10000000Y5600000D03*
%TD*%
%TO.C,KiKit_MB_1_3*%
X10250000Y100500000D03*
%TD*%
%TO.C,KiKit_MB_37_9*%
X6400000Y117600000D03*
%TD*%
%TO.C,KiKit_MB_4_3*%
X46950000Y81900000D03*
%TD*%
D13*
%TO.C,J8*%
X83570000Y32470000D03*
D14*
X83570000Y29930000D03*
%TD*%
D13*
%TO.C,J8*%
X83570000Y87270000D03*
D14*
X83570000Y84730000D03*
%TD*%
D13*
%TO.C,J3*%
X81035000Y12830000D03*
D14*
X83575000Y12830000D03*
%TD*%
D13*
%TO.C,J7*%
X52020000Y87270000D03*
D14*
X52020000Y84730000D03*
%TD*%
D13*
%TO.C,J3*%
X41835000Y12830000D03*
D14*
X44375000Y12830000D03*
%TD*%
D13*
%TO.C,J2*%
X57230000Y114770000D03*
D14*
X59770000Y114770000D03*
%TD*%
D13*
%TO.C,J6*%
X36630000Y84730000D03*
D14*
X39170000Y84730000D03*
%TD*%
D13*
%TO.C,J1*%
X52025000Y12830000D03*
D14*
X54565000Y12830000D03*
%TD*%
D13*
%TO.C,J4*%
X75830000Y59970000D03*
D14*
X78370000Y59970000D03*
%TD*%
D13*
%TO.C,J6*%
X75830000Y84730000D03*
D14*
X78370000Y84730000D03*
%TD*%
D13*
%TO.C,J7*%
X52020000Y32470000D03*
D14*
X52020000Y29930000D03*
%TD*%
D13*
%TO.C,J8*%
X44370000Y32470000D03*
D14*
X44370000Y29930000D03*
%TD*%
D13*
%TO.C,J1*%
X12825000Y12830000D03*
D14*
X15365000Y12830000D03*
%TD*%
D13*
%TO.C,J1*%
X52025000Y67630000D03*
D14*
X54565000Y67630000D03*
%TD*%
D13*
%TO.C,J4*%
X75830000Y114770000D03*
D14*
X78370000Y114770000D03*
%TD*%
D13*
%TO.C,J2*%
X18030000Y59970000D03*
D14*
X20570000Y59970000D03*
%TD*%
D13*
%TO.C,J5*%
X57230000Y29930000D03*
D14*
X59770000Y29930000D03*
%TD*%
D13*
%TO.C,J1*%
X12825000Y67630000D03*
D14*
X15365000Y67630000D03*
%TD*%
D13*
%TO.C,J2*%
X57230000Y59970000D03*
D14*
X59770000Y59970000D03*
%TD*%
D13*
%TO.C,J8*%
X44370000Y87270000D03*
D14*
X44370000Y84730000D03*
%TD*%
D13*
%TO.C,J3*%
X81035000Y67630000D03*
D14*
X83575000Y67630000D03*
%TD*%
D13*
%TO.C,J4*%
X36630000Y59970000D03*
D14*
X39170000Y59970000D03*
%TD*%
D13*
%TO.C,J6*%
X36630000Y29930000D03*
D14*
X39170000Y29930000D03*
%TD*%
D13*
%TO.C,J5*%
X18030000Y29930000D03*
D14*
X20570000Y29930000D03*
%TD*%
D13*
%TO.C,J4*%
X36630000Y114770000D03*
D14*
X39170000Y114770000D03*
%TD*%
D13*
%TO.C,J5*%
X18030000Y84730000D03*
D14*
X20570000Y84730000D03*
%TD*%
D13*
%TO.C,J7*%
X12820000Y87270000D03*
D14*
X12820000Y84730000D03*
%TD*%
D13*
%TO.C,J6*%
X75830000Y29930000D03*
D14*
X78370000Y29930000D03*
%TD*%
D13*
%TO.C,J7*%
X12820000Y32470000D03*
D14*
X12820000Y29930000D03*
%TD*%
D13*
%TO.C,J5*%
X57230000Y84730000D03*
D14*
X59770000Y84730000D03*
%TD*%
D13*
%TO.C,J3*%
X41835000Y67630000D03*
D14*
X44375000Y67630000D03*
%TD*%
D13*
%TO.C,J2*%
X18030000Y114770000D03*
D14*
X20570000Y114770000D03*
%TD*%
M02*
